<mxfile host="app.diagrams.net" modified="2023-03-28T19:16:14.896Z" agent="Mozilla/5.0 (Windows NT 10.0; Win64; x64) AppleWebKit/537.36 (KHTML, like Gecko) Chrome/111.0.0.0 Safari/537.36" etag="nOHTB_cgF4yrHh3rpdDB" version="21.1.1" type="github">
  <diagram id="07fea595-8f29-1299-0266-81d95cde20df" name="Page-1">
    <mxGraphModel dx="180" dy="597" grid="1" gridSize="10" guides="1" tooltips="1" connect="1" arrows="1" fold="1" page="1" pageScale="1" pageWidth="1169" pageHeight="827" background="none" math="0" shadow="0">
      <root>
        <mxCell id="0" />
        <mxCell id="1" parent="0" />
        <mxCell id="727" value="" style="edgeStyle=none;html=1;fontColor=#000000;strokeWidth=3;strokeColor=#B3B3B3;endArrow=open;endFill=0;" parent="1" edge="1">
          <mxGeometry width="100" height="100" relative="1" as="geometry">
            <mxPoint x="2447.5" y="1604.5" as="sourcePoint" />
            <mxPoint x="2447.5" y="1124.5" as="targetPoint" />
          </mxGeometry>
        </mxCell>
        <mxCell id="734" value="" style="edgeStyle=none;html=1;fontColor=#000000;strokeWidth=3;strokeColor=#B3B3B3;endArrow=open;endFill=0;" parent="1" edge="1">
          <mxGeometry width="100" height="100" relative="1" as="geometry">
            <mxPoint x="2447.5" y="1604.5" as="sourcePoint" />
            <mxPoint x="3367.5" y="1604.5" as="targetPoint" />
          </mxGeometry>
        </mxCell>
        <mxCell id="MZo_FLZC455jn8OfNTGz-753" value="&lt;i&gt;CompÃ©tences&lt;/i&gt;" style="text;html=1;strokeColor=none;fillColor=none;align=center;verticalAlign=middle;whiteSpace=wrap;rounded=0;fontSize=30;fontStyle=1;direction=south;rotation=-90;" vertex="1" parent="1">
          <mxGeometry x="2270" y="1170" width="280" height="130" as="geometry" />
        </mxCell>
        <mxCell id="MZo_FLZC455jn8OfNTGz-754" value="&lt;i&gt;Temps&lt;/i&gt;" style="text;html=1;strokeColor=none;fillColor=none;align=center;verticalAlign=middle;whiteSpace=wrap;rounded=0;fontSize=30;fontStyle=1;direction=south;rotation=0;" vertex="1" parent="1">
          <mxGeometry x="3170" y="1570" width="280" height="130" as="geometry" />
        </mxCell>
        <mxCell id="MZo_FLZC455jn8OfNTGz-755" value="" style="endArrow=none;html=1;rounded=0;strokeWidth=2;fillColor=#f5f5f5;strokeColor=#CCCCCC;dashed=1;" edge="1" parent="1">
          <mxGeometry width="50" height="50" relative="1" as="geometry">
            <mxPoint x="2449" y="1490" as="sourcePoint" />
            <mxPoint x="3369" y="1490" as="targetPoint" />
          </mxGeometry>
        </mxCell>
        <mxCell id="MZo_FLZC455jn8OfNTGz-756" value="" style="endArrow=none;html=1;rounded=0;strokeWidth=2;fillColor=#f5f5f5;strokeColor=#CCCCCC;dashed=1;" edge="1" parent="1">
          <mxGeometry width="50" height="50" relative="1" as="geometry">
            <mxPoint x="2450" y="1370" as="sourcePoint" />
            <mxPoint x="3370" y="1370" as="targetPoint" />
          </mxGeometry>
        </mxCell>
        <mxCell id="MZo_FLZC455jn8OfNTGz-757" value="" style="endArrow=none;html=1;rounded=0;strokeWidth=2;fillColor=#f5f5f5;strokeColor=#CCCCCC;dashed=1;" edge="1" parent="1" source="MZo_FLZC455jn8OfNTGz-764">
          <mxGeometry width="50" height="50" relative="1" as="geometry">
            <mxPoint x="2450" y="1250" as="sourcePoint" />
            <mxPoint x="3370" y="1250" as="targetPoint" />
          </mxGeometry>
        </mxCell>
        <mxCell id="MZo_FLZC455jn8OfNTGz-758" value="" style="endArrow=none;html=1;rounded=0;strokeWidth=3;fillColor=#60a917;strokeColor=#3fba83;" edge="1" parent="1">
          <mxGeometry width="50" height="50" relative="1" as="geometry">
            <mxPoint x="2530" y="1570" as="sourcePoint" />
            <mxPoint x="3250" y="1380" as="targetPoint" />
            <Array as="points">
              <mxPoint x="2650" y="1540" />
              <mxPoint x="2890" y="1500" />
              <mxPoint x="3010" y="1460" />
            </Array>
          </mxGeometry>
        </mxCell>
        <mxCell id="MZo_FLZC455jn8OfNTGz-759" value="" style="endArrow=none;html=1;rounded=0;strokeWidth=3;strokeColor=#04d8ff;" edge="1" parent="1">
          <mxGeometry width="50" height="50" relative="1" as="geometry">
            <mxPoint x="2530" y="1510" as="sourcePoint" />
            <mxPoint x="3250" y="1280" as="targetPoint" />
            <Array as="points">
              <mxPoint x="2650" y="1450" />
              <mxPoint x="2770" y="1410" />
              <mxPoint x="2890" y="1360" />
              <mxPoint x="3010" y="1340" />
              <mxPoint x="3130" y="1320" />
            </Array>
          </mxGeometry>
        </mxCell>
        <mxCell id="MZo_FLZC455jn8OfNTGz-760" value="" style="endArrow=none;html=1;rounded=0;strokeWidth=3;strokeColor=#e33237;" edge="1" parent="1">
          <mxGeometry width="50" height="50" relative="1" as="geometry">
            <mxPoint x="2520" y="1480" as="sourcePoint" />
            <mxPoint x="3230" y="1130" as="targetPoint" />
            <Array as="points">
              <mxPoint x="2650" y="1350" />
              <mxPoint x="2770" y="1290" />
              <mxPoint x="2890" y="1270" />
              <mxPoint x="3010" y="1230" />
              <mxPoint x="3130" y="1200" />
            </Array>
          </mxGeometry>
        </mxCell>
        <mxCell id="MZo_FLZC455jn8OfNTGz-762" value="" style="shape=image;verticalLabelPosition=bottom;labelBackgroundColor=default;verticalAlign=top;aspect=fixed;imageAspect=0;image=data:image/webp,UklGRrpQAABXRUJQVlA4WAoAAAAYAAAArwQACwQAQUxQSM0iAAABHAZtG0mq+dPeu84+ACJiAnKxI4zoEGWgkUEL5Uggu6xT+z+n8bNonSemo8z4Ieohtxhxj2hjOK27XGHjL/c5xZczbF94hSTOcOZIPDfbpimWtm1BQUlIGHAZcPVCV/twMWzhRv+ja3Z5gBswqdJlBbr+L5zo7oslXbPLAQZILCBOKSOqKjIzMuI8jjMHEeELkiRLkiTZCq0G9TYPA+5HOHiYqRC5aHz6liTJkiTJtur6/59T/1fV11AVNWFieogIOWwbCZL0k+zd/aKTWxymZ8wpp/+Xu3hBcPi7fOdmTh9j5jZy9wLi8HKTv3wjDw/iz9Fd/jtzE3V8PblPX+QhMH55kT+4V/mC4eTli+zdVB/zOy8rHF9ZbgnjG5/34r92T+qYv3pIdNkC5JXLzP0sN/Eovu29KOTpv8oNyvnb6HX1i9y9x3B6yDfKODRz30F57C6fJ+/9MMH4k6SL+d1fAYD8LQDLX9a93ORnN1PF/DOYx17dDM6boQ/5snRPColA8iX1/mIzkG9+CokA8pLlozdAIE8hdIT3d/kl4QYDjos3Wpgn4XYwkPOXDym3zwFfBLI4htARN/mre3dMHaPxxfl/owgY/5Gv3NMH74IvbMYXn91WrlDOu49eS0/uay8gvgv6+D1QAecsL+I9kBHnhZu4jw7tcZxu8tda/9uPr1OgnDcfX6pM3CzcZ0ByDafCX6n3gWHE26Bdx/FeBadM4nV2bGsZJ+4oNxafMnPfvnnPh1bPNHWr8Ls7aY2BafdUpMlC8kWUfm+UtsbA5DUrcC9SntySuPhiak0QqDeBccUXNRCB5CJ7Sw8kksbA6kfAWcSYngClMZDBEfJoC4n8VW5QGgMpHPHqZi3daiIeylOqHQGlfPlTy3nqdlgaA+seAfLd34lbnEMCkMZA+kb80sX74qaZoDQG0joCVSXz3k3ZG9HZjxoxjYHdvckj+bLp7ld5GN8YKzN3eRMFyMuS7m6V8tIY2NUiFZK3fbtcioZxYaey8y6aAV5WT1EycxZffHKfJH4Ea9kinfHFJ3eIZsSxkAln8cWpW7+5GgHSdNl5ixZ8xRdPcQSSJvGuW+AhpjGwteQS7BLrjzo74t8pZz4pSH4SXh/vkki6QIo9nzgTwbdesaWSmYCnnNjpxbOTg64ToHTZ1m68XUmH/oXyV7kxr/GQc3/V4b0Qaatk5h6+eGrXBNcbvV3ii0gu89QwAsqF9D4/MQBIYyBRI37p9xOZoDQGUjWiz0+8BNIYSNWIxNGZkpl6p/y8CkCAK5CZe4HSGEjTiL2b9t7dLz3xxXlktcRSvtx39+QkMwZe8NGgwWcLz//LMnzxhlMPHHs3yOKmBMeMgee3dpF8aeSw6MNDY2C75oSBvPTIoaiGiae0af4cyVu7eRQtY2kMrFQEku/j+UBhLDwlffMyMJYmZgTdk8wYeJIuoQP6cZI744yBPzthBoxobVYfgIklvlihCCSvOXL6gHFGGgOn7hs8I/Jq4MJTyxh4mllCcs08s/upxNoy2HHGEt+axD6VzBzaMliOrwVKMB8z9y2a+GJVIpB8MeR3jwJIfLEqEVBebGS4BoQlvliRCCRv5ub4c4mlMZCNEXs3zdTHhiS+yMQG3yUuRszTd4vlKXVo8B3gDRZloGQGcstgtWjwHcdXQc6OIyS3DFaFBt/xvcrIQ8mM5J2KCjT4ju9d3ByUzPzBF3Pj/umxSj5zr+xpPCQ7rxK+VYj5KJkJaAw8xRHg9meQk5KZJMbAEb/8JPnx/yx3nhgD7z+5gLG/qAHgF0Q55fbNW5J88MrMvTDFGHj5xXEkibRB6EO4Zwz8K5gRn9zTEPRsNMEX7w53IGlUGor+FkZjYLEbfIf35z5HJTOUxsBCR3DlumLSJGBpDCxyBJ73bZmS8OpmRY4gy7r4zL2ieUqBI9hSd/jkltHVAOGMgRMoI95wHUO624qlMbC4EUhys4xZzc4ZX7wXAkfxXzc5usnQ3mH5gS/e+6AVGG/Yrtx0aDQGP4yB1z7IjgMM2qnSq4wwBs5I+ENzw+HU7dA0Bha0wfckAx3D/OQ5JI2B5WzwPcaSagP9ZF8sT6FhxO0kM5bGwFI2+B5rydox8UUqGAOnaG/oXAmfuRcu4ItDNN0ktz0G/MOLozGwkBHwJDmmbo+5MXD0lkeSSdlh33zFf8tgc2TKJCWSgS9uw28MHCV/A7RFO3FHDmwZbMyTVZK8BD54OANJfLFwEUneYjj0BSMs8UXqRcwhmdHEF8sVgdHv9sz9jCa+WLCIfM8dhpHM3DIG/usSge7NDj4B5j/202B+BKVr33+VG9anDOXd8r23cB7J7AXpP/bTSD432OwGh/DFIjX4nuQvdUnqnpFsPKRADb7TdNIwc9+iiS8WqMH3JDdlS8Ltk8oYeIp+nnO86F2YWkJYjYFlqIEG6qbCmXtB8xRONcW2d9PSsLB0MgbO3Cuu8uUyJKB5SlGaYst3XKjRJDOYxsBS8BrAtmPHJnxxUpAfZKyeUzeJ34axrNAphG8E1c8BLshtDiiNgaWIQLXPgpIsIyG56I3YEi/41cayqPAFf3TxFXy/4dQBR2jjEZsaqPZh95qYGYd+tt8sGqH6AXXPifHjKB15whKofgDwa5gkLPHF8Uug2mDBexhKD6UxcPgGLLANrJAVXxz+7F98G4R6B8mMJbsxGkVCtwG7x5DMQLKxk2dXQfjN9i0kM5LukcGzQaHbQPBzSGYo3W7DjcD8TysxedcDSd5ssL1tIrkBhkfWt4ISXxzoyjaUFwavrMeHJMIx0A8gQHLPtM+sHwolvjjEuxjo70l76k4tlAqSIa4S4bvnf7RI5r2bDrAKB/G/qcQT1CQoV8KHV+WM+d+s5AUqJZKVhoOjyPD9m+C8imTG8u7HwCLAb7lutkSCIynLmojv0ueXkcxIXlAMKgLfloGfRjJDecN2MBEQy5ffRjIjuSBOpIjHkcxQnkKXiE85zbMuMgEJdBAwYsgvPlGA2anb80O+jMqJRYwv5n/bgh3A4pSNW5rgi0/uwA/58pQL42AaA7Mvu4FWvvzS+CKWxsD8y5qpIF+e/MDNLHMdeW9WDlj58nPji2GKgXlvVo4L8uWhN4yR5OlFzpuVQ1i+/FKSOcrt24w37ihgRhR8xEpmPC6P/1VuEAOLTyWZ2fiTPXPf4Spfpl/CXT7nfG8VYGDxsSRzlJ+CPNeuUZUvlz0hyrOMPN9HsZcvl+oPLYHFLu7MvYIrXy42vhjmW1ixDiQyjL9LyaTnFwR5FyIxIm6yy73ka9jzoaJMefAi4rwYDrA4w6yMMkVLi4hNvvPUWe2SjC/mtWbNJPkyE6cbPr6Zm5XniCLA4txZg3O8WJ7XAhBD5MuTZzmP8mbEfH4YUZUv1yMhx7BHTr/sM0q+fM8WCQ/xxZn7DtqtqzISX8ylHWBCAYu33eITZXwxj3bLId26anUSorxmnsN2FgjVtdGVEbUc70nMY+GHSfLlix9nkOVbMpCFEKlro7sfFxXlR6P/ni6IJF+++3GcUZ569N0zD5Pky7c/7jzKrd2+exJDOKIWSmYALp1P3Z5p8uUbdnej/HOOvzhSfOnky7dcPY8y+tHjTx/fgMWjf9Gz/IT0+ts9lJ7bEn6d3jGB8gqkxwiAuzb6FJLZ43iHt78IaLs2+qb4Ipan9BSBp3z5017G+CLwFYpTt2eYfPnCJwljSYD00eA7v+TLN05qAKYxsIcG3/kVceEkLGjiiz00+A6xfPmLSGbYb/SeQgTAwCKYJPNdPndP2mMqX/7EFbA8pWuTEZjy5VqOv8JpDOzUFAmxfPmrSGYsXy/dmrgZKF8+d7Mi4Ncjf5UbC+XLp8IgaN/vnbnvWChfPhe2BXM9vbvlaBJGHMRMoKxX7Kjcj4Xy5YNYHJY8SFc4BQnly0cxXih5205wVfYBi1cMboClz6QLHQj75Mt3DMYCJr7YQQT75MtXDB6FJb7YPoKj8uWf+OyAWbbYQQTA8uUvJJnBNAa2imApsPgje79Zfnrads0K5tZVazV+5tp6lmcnrWpmOAos/tS9i0nu/rZr8J2rwCLM91O+dbM2Db5TE1g84IhHefdi8vozN4HFA89pyTIdkt7gOzXly0eegxdl+jaRn+BmxJnnDEcpBqbyqQjLl7+VZA5zExj1CGZJZh+fkuJXy7e66heTzFiekuKvxTew6FzCSwlMYyCwb4Iv9T6WcqmC5Wvp45sMYU5tpINDL/IFzGsVWBdx9tU+lrbUDuW94IQ2pLOMTdR5JJYygrnW/u4v7BHjy99NMkPpZXrvhmiW+HKtRzKKCyYrgnXEd5PMYL6k3kRADCx+OMmM5SXL2wiI5cvfTTLDeUu4iQAZWPx4khnKJfcg/ABYvkxkJfPeuQOe8mV9DChXsUR+90e5eyjly8oYkFYJ/fNXeYjHUr6siUOIVmGHyDurIzCl3Hzzz0PQlC/r5NA+moAcQEboZIazslFE8JQvq+Tpb7Gc4AQWlXIQyAQRQOXL5E6AVr7ManyRzfLllh2VWeKcIF8mNr7IZmCxg45g7bDk65j8WB9KZjuMWDXPq2fESuZxUATOux/lsXy5490lj4GARaB3785h+XIffx0F04ygmWQOFl+GOr4YcXXVvZDMZgksboZktrzRDlikmWQOeGqjzZDMmH0FO7XRkuKLIyX5smu1maxRErDYcrN+Jihf3tYK5hhhJJLZt5Qvb4hkNkZgkWaSOdE2euxOCHhqI5pJ5oCnNtoSyYzTlOzURvuKLxqlfHkzkx2ZpHx5PZMdmWTEdiY7MkD58rpIZtOTL28tvmiAwOK6SGaTky9rL8H85MsLI5m90cmXVYcvWpp8WYEPY3zRPOXLCym9apDy5f1Mq2ycERspvWp58uW9kcwWBixqcpwCvmhp8uUF3qy6DrVfNiZf3uP/OYRDJiZfXuRbpEkwNfnyFuOLBidf3h7JbG5bV10hyWxuwOIGSWZTAxaXSDIbG7C4Q5LZuIDFba6wvDQJViVf3unx7LZyFW9T8uW1HvNIyWxl8uVNksxmFrFJktnIgMVVksxGtnXVXZLMJgYs7pJktrGujbZJMhuhfHlXpVfNqmujxcYXzUq+vNn4oqlFLHGyI+OSL++UZDatiJ2SzIYlX14syWxYwOJeSWYzki8vegVzki9vOL5oePLlrZVeNSX58prji2YnX95c6VV7ki/vl2S2nQh1j1jJbE7A4oJJZgOSL+97BWMCFjdMMtuPfFnjCaYkX94yyWxA8mU3xRfbbV11zySztcy79JIvJ5HMDzkv0oHFTZPMtjJv+p3XWHrVdOTLWscX7QVY1P3DYyj+shf5suqfXoUEk5Evaz/BfOTL+yaZjWbrqsrHF40HWNw5yWwqW1cFIcF0ujbaOslsOPLllZPMIt5YujbSf/HXLky2Il9Wf3H94iwPG5EvAzFtwmQ0EbsnmQ1GvjxSUjL7NPkyCviiwQCL4yQlcztgUf9KZnPp2ggAJbM3kq6NoMAXDUq+vN/Sq4YjX177ZEeGI1/e+2RHZhOx98mOLEW+nAPJbCbAYhIks1XIl5NZwR7ky9EccYKJyJezIJm9aciXU4kvGpF8edOlV01Ivrzu0qsmFLHt0qumIV8OhWQ2DvlyJiSzMQCL6aywvDQJViBfxmg8u61cxduAfBmmMY+UzOYgXw4ovmgW8uVkSGajABajIZmNYuuq2ZDMJgEsZkMy2wSwmA7JzH1gEa9xCviiEQCLKcUX16H2i/3yZbS+5xAOwb8EXKdIk1AGfDkjkrkKS2REMhehumpQJHMRAos5kcwlmNooKpKZ/l0bJRZfNBT5cgqlV6kvX4YNXzQI+XI+kx3xX76cF8nM9Qj4Rqxkpj+wGBjJTHj5Mn4J5AcWEyOZ+S5fRjDBPOTLiZReJbx8GT580Qzky0lNdmQaEaGUXqW9fDk5kpn0EcmRzJSXL8OnZKY8sJgeyUxw+TKcCUSXL+OIL9JdvjxKUjKnbF0VTHyR7MAihkpmRpd8HZMfo6hkZnTEKv15FJXMxhCRUOlVcsuX8Sz+2oWJ3sAilvji4iwPTsuXgZ02YSJ5BJZKZmrLl0HFFym+dVU0lcwEBxadRDK3AxbzJJnp3bVRniSzZ3XXRtHGF5ksX0745TEUfzEZWAz4x6uQQGb5csYrEDvCSCSzbylfzpVkpjWwmCzJTF5g8Z3HSa9A6q6NsiWZKd21UbYks6dy10YpxxfpLV/Oc7IjcsuXQ53siNwRmU52RGX5csgkM4nly1nHF6kMLIZMMpNXvox5ApHlyzGTzJ6+8uXA44uclS/D/jDGF4kuX46x9Cq15cupTqtM84gcS69yWL6cNsnMVWAR/3EK+CJn5cuwF6uuQ+0XW+XL6H/PIRwiq3wZ/lOkSSCtfDn7+CJ15cuZk8zE3bpq8CQzcYHF3Elm0gKL0ZPMtAUWkyeZaQosMrDC8tIk8FO+TMLx7LZyFc9O+TIMxzxSMvNVvpw/yUzYiPxJZroCiwCQzHTduioBJDNZgUUCSGa2dm3EAMlMZ/lywqVXCdq1EQ7xRYLKl3mIL5I2IvrJjmgqXyaBZCZpBAkkM0XlyziQzBQFFmkgmQkpX8ZjBWLKl7mIL1JYvpx16VVSypfhiC8SWL6cd+lVZsqXqSCZWRhBkhErmYkJLGJBMlNRvkzJCrQEFrkgmZkoX+ZkBVLKl9kgmakoX3ZTfLHd1lXpIJl5N+/SS76cRDI/5LxIBxb5IJlZN2/6ncMvvUpC+TIr8UXmAYuMeXgMxV/Mky8T5ulVSCCffJkzCUSUL1NCMtNv66rIxBdpCCySQjKTbuuq1EkgYddGrJDMFJQvg0Iyi3jadW3EmuKvXZhYJ18mTXH94iwPtsmX6TNtwkS/CGJIZurJl6VEMvs0+TJ38EXqAYtOIpnbAYvUkMzE69oIG5LZ061rIwLhi9SUL1NRepWC8mVYJjuioHyZlsmOCBhBy2RHnJMv00MyEw5Y5Idk5pd8macVmCVfBuqIE8gmXyaIZPYkky+zFF+ko3yZj9KrZJQvQ1J6lYwRjJReJZl8GSWSmWbyZZJIZloBi0ytsLw0CXySL5N1PLutXMWzSb4M1zGPlMzEki9jFV8kmHyZJ5KZXsAiUCQzvbauShTJTC5gkSiSmV3AIlMkM4uARZaNU8AX6QQsshVfXIfaLx7Jlxn7P4dwiEYRkL1FmgRayZfJIplJFUEWyUypraviRTJTCliki2SmU9dGgJHMROraiLP4IuXky+yUXiWRfBm2+CK15MtUTXbEJPkyZSQzayJIN2IlM5GARcxIZurIl1mXQCNgkTOSmTnyZd4lEE2+zFHpVerIl6GLLxJKvszXZEcki0Cp9CqB5Mu8kcz0ieCNZCaPfBk6kpk8wCJzJDNV5MskTKCMfJl9+CJx5MtKIplTtq5KQXyRNsAieSQzN0q+jsmP2SOZuRGxSn+ePZKZVhFclV6liXyZhcVfuzARBVhkIL64OMuDHfJlOk6bMNElgoFKZpLIl6mIL5Jl66ocVDJTBVgcJymZ2wGLLFQyE6VrIxYqmT0/ujYCMr7ICfkyly+PofiLE8Ailj9ehQRayJfJXIEiEUYimX1L+TKNJDNBgEUeSWYaAIvvPOZzBXp0bUQkyUyOro2IJJk9Kbo2YjO+SBT5MoWTHdFEvoziZEc0iSBxsiNSyJfRJJnpIF8mNL5ICmARTZKZBvJlUleghHwZTpLZE0G+jGl8EX35MlkfxvgiZeTL8JVeBT3isuw6wj3TKnu5ytY9ux6/6Cu9Crp8ee6SB6Mkc+qBRdaOU8AX08eXYb1ZdR1qv3LHlzn7PYdwKHZ8mbSnyN8rxI8vExtfhABfJpVkRqC6Kq4kMwWARVpJZviBRWBJZgJ0bcQryQy4fJncFZaXJgFp+TK/x7PbylU8zvJlhI95pGRGXr5MLckMfQS1JDPwwCK2JDPwW1fllmSGHVjklmRGvWsjdklmYsiXuSy9CnXXRhDHF6GWL1McX4Q/AtjJjgCXL/NLMsMdwS/JDLZ8GWKSGWxgkWGSGVr5MtQrQCxfpjm+SAb5MqGlV+GVLyMdX6SCfJnS0qsYy5dZJpnxjED7iJXMEAOLMJPMoMqX2V4BYGCRZpIZU/ky3SvAK18mmmQGVb7spvhiu62rMk0yIzjv0ku+nEQyP+S8SAcWqSaZ8Zs3/c7Ill6FU75MeHwRQ2CR5w+PofgLQ/ky5j9ehQQY5cukrwCpfNlIJLP3CfJl0OOLgAKLfJPM8G1dlfAJcHZtRDjJDKZ8GW+SWcQD2LUR6zd/7cKEn3wZ9ZvrF2d54CZfJv20CROQEZyTzCDKl6VEMvs0+TLx8UUQgUUnkcztgEXWSWYIuzaCnWT2wHVtRHt8EWT5MsulV8GULyM+2RGY8mXGJzuCMoLxyY7Qky8zTzJDByxSTzIjJV+2ggSM5MtmMOIE2OTL3JPMHi75sgXgi8DKl21TetXLXU6ux4F26VVkar7W/Zaokl16FZdjh9RvMgAlMywR0uIc/iuZAQIWLSFheWkSkJEv28N4dlu5isdFvmwSYx4pmSGSLxsDvgiVfNkKlMxAAYtmoGQGauuqdqBkhglYtAMlM05dG1mCkhkP+bJtjFPAF6Hp2sge8MV1qP1CRL5sGd9zCIcAiTCNU6RJAEi+bA9KZngi7EHJDM7WVY1CyQwOsGgTSmZoujYyCiUzJF0bWQe+CJ58mfjSq3DIl00EXwRJvtyFyY4wkS/bhpJZ/xGmMmIlMyTAYjlIZhDky11ZARBgsR0kMwby5basAJl8mf7SqyDIl6sSX4RGvtyKyY7giihA6VUo5MstIZnBiqhA6VX1y5cbE1/UObBoNw+PofhL5/Jls3l6FRLULl+2nAQI5MtKIplTtq5qOPgiAMCikUhmLzc5vn1sQAlajlilP98YkhmgiDaUXlW4fNl2ir92YdI3sGg6xfWLszz0LF82omkTJsVH9IZkVrp8WUoks/ciCfJlC8IXlQ4sOolkbgcsdodkVnnXRuUhmTXdtZEZ4YsKly/bj5JZ3cCiASmZFSxf7tMKyo4wEsns/098uUMks6qBxRaRzAoFFv/D61atoOiujXpEMqu5a6MekcxevV0bNSq+CIR8uSWlV2GQL1el9CoMEU0pvape+XKhSGbFypd7FV9UL7BYKJJZofLlfq2gXPlypUhmr1L5crnii3qUL1fsZYwvKl++XJnSq+qLuCz7jbBN6VUvV9m6Z9fjV2dKr6pPvjx3yaNZJLP+gEVbG6eAL+pRvlyxm1XXofZLg/JlS/ueQzikQPmyqZ0iTYIi5cs9iy+qU77cL5JZmVtXLRnJrExgsWMksyKBxZqRzKrs2qhlJLPq5Mv2lrC8NAk6ky9b3Xh2W7mK15h82fDGPFIy61C+3DWSWYkRXSOZVQgslo1kVuHWVdtGMisQWGwbyay/ro0aRzKrWL7cptKrSuvayPTwRaXJl20PX1RkRM0mO1KdfLl1JLPiIlpHMqtNvlw9klltwGLzSGYlyZdNMUFZ8mUbxBfVKl/uVelVRcmXDRFfVKp8uVulV7UlX7ZAJbNmIgxyxEpmhQKL7Sq9qiD5si0Wf+3CpCJg0Q7xxcVZHnqRLxvltAmTouTLdqhkVo98edyEL7bbuqolKpl1Me/SS77GSUrmh5wXLrmm3haVzJqYN/3ORSu9qhj5sl3ii9oAFq3z4TEUf2lDvmycT69CgkLky/aZoBz58hhJyex9O/myTSqZVQMsWqWSWRFbVzXTBMV0bWSXSma1yJftUsmsl66NLFPJrBT5smUqmVUiXzZPJbNKIqxTyawO+fJIScns0+TLdoovqgNYHCcpmdsBixaqZFZG10YmqmT2KujayFjxxXrLl032YYwvKku+XMHSq+qRLzdyWmVVRXSw9Koe5MuWqmRWArBoq0rmOsuXbTehtvJl4x1xggLky9aqZPYVly/bLb6oIvmybUqvernLyfU4Cll6tY41X+t+S1T7WHq1hscOqd9UW5K5ghHS4pzWksxVBRbtN2F5aRLqKF+24vHstnIVX0P5siGPeaRkrqx82YTxxUrLl7tLMlcZWCwvyVzlrau2l2SuMLBovUrmGndtZL9K5prJly16nAK+WMmujawYX1yH2q+6yZft+XsO4VDVIgz6FGkSqipftmIlc0UjrFjJXM2tq5qykrmawKIlK5kr2bWRKSuZK9e1kU3ji2qQL/e09GrF5MuGjS9WV77c4MmOaidftmglc00iDHzESubKAYsmrWSujnzZwhOqBizatJK5NvLljq9QeflyZ0uvVke+XPD4YiXly12e7KjiEbUtvVop+XK3SeZqRxS39GpF5Ms9jy+WHli09ofHUPxVevmysT+9CgkVkC/3fYXKyJeVRDKnbF217vHFqgCLRiKZvdzk+Pax2SeUN2KV/nzPSeaqRnS49GrR5csWX/y1C1PJgUWDL65fnOVRYvmy6U+bMFUhou0kc/Hly1IimcP/OgnyZbvHF4sPLDqJZG4HLDaeZC5810aVJ5nL3LWR8eOLRZcvt55kLjiwWHuSuajy5bFAQrEjjEQy+5by5eaTzIUGFrtPMhcNWPwPr12wQpG7Nmo/yVzgro3aTzL7gnZt5IH4YpXky90uvVoh+XLBS69WKKLfpVcLKl/WAMlcRPmyDeKLBQUWnUQyfwQsWmGFYsqXRUAy+8LJl5UQXyyRfFkML2N8sRry5aKXXi1IxGV5dgnblF71cpWt+/OXg/+aXnq1IPLlufufDx+QzCUBFg1xnAK+WCL5shhuVl2H2q+yyJf98H8O4VBR5MuCeIs0CUWSL9shvlgw+bIVSOZibV1VDSRzsYBFM5DMRQIW5UAyF6prIzeQzIWQL1tiheWlSRi6fHlcMZ7dVq7ihy1fHl2MeaRkLo182RAkc3EiDEEyFwZYVATJXJitqzqCZC4KsOgIkrkkXRt5gmQurHzZAaVXB9+1kTDii4OXLxsjvlikCDlMdlQI+bIrSOYiRLiCZC6AfFkYJHMBgEVfkMyDky+PQBIGK18ec+CLBZQv26D06iDly6MPfLF48mUjlF4drnzZGyTzMCJGIyNWMhcNWHRC6dVByZfHIMVfuzANDFgce+CLi7M8hiBfHpVMmzANUr5sD5J5QPLlcRO+2G7rquMPJXOu8y695GucpGR+yHnhkmvqxyBK5jznTb+zHkqvDkK+PDbBF/MFFp3y8hiKv/KVLyvlx6uQkLV82SorDEa+bCSS2ft28mWTkMwDARZdQjJnuXVVuawwiK6NbEIyD0C+bBOSeQhdG/mEZM5evuwTkjlz+bJUSObMI5xCMmcsX5YSyezT5Mt2iS9mDCw6iWRuByx6hWTOtmsjsZDMPrOujRQTX8xBvjyieRjji4OVL4uj9OqA5MsemVZ5oBHmKL2ao3zZLyRzdsCiYUjmvuXLY5yE/uTLo5wRJ2QlX3YMyeyzkC/bJr44MPmybUqvernLyfU4hFN61fu7rPstUbVI6dVuj/31v/4nJZHM/3pR4P94j2tI5p6AReussLw0CV3Ll91zPLutXMV3K1/WzzGPlMy9yZfFE1/sXb5sHJK5Z2BROSRzz1tXdQ7J3Cuw6BySud+ujaxDMncjX/bQcQr4YuddG7knvrgOtV9dyZct9H8O4VBHERp6izQJPcmX3UMy9xLhHpK5h62rCohk7gFY9A/J3HnXRgIimTvr2shE8cUM5ct2Kb3aiXxZR/HFHuXL3pnsqDv5sodI5rQILR2xkrkzYFFEJHML+bKXVugIWDQRyZwuXzbTCtnIl01TerWFfFlL8cXO5csGmuwoiwjZlF5tLV82EsmcQYRtSq+myZflFF98B1h01Muj3G7vyJcV9eOV3H2KfFlO8cX35cuGWuH38r9pk+RGVNOf/9Q8P6IazPp+BwBWUDggBC0AAFDMAZ0BKrAEDAQ+bTabSSQ/oyIh03j78A2JZ278e2/rbxGwM3fx/8Cf0K9pMBegXgD9Df5P9b0k/4X+AH6Af5XzZ/wD8AP0A/gHQAfgB+gFp/5oD9c/kH4AXkk7H67/N/ulwDHR/33/EftZ/d/IO18d2/DHs+9EPDfNc8H/Mv+N/ef7v8S/Sz+/vYA/g39J////s6zH/T9AH/x9L30a+gB+6n/////v/epL6A3ll+yX/Z//X60voAf//1AP//1l/ln+X/2f4c/sl9XOjH5D/qR8b2awhO5f2M/xOWYEPZDSoweL7yWoP+vfVh/cb/////4Lf1JEN4h0ea+Gy1qEyCp7ZDLyTuxDqVN2gzzI9NAJ0ea+G26Oih3s8qruFL+TCsQ6PNdwzAantRbNoB0ea+GCkaKQ2ilcjhB0ea+G24Y+8VFCSTuxDqTtdNMmulYh0ea7ynKXzc5EnKHR5r4bJoX6IzATmvhtujzTnm0b3ljzXw23R7eFrue/qx4Jae7EOa68UZt2Ou4t7sQ6ftn2PmPd2IdSregOFxi8ki3uxDqVbPhD/LDIGhzqVb3Yh0/DAI4jHGgVb3Yhy/9RsQlnvjRFvdiHUC++PBgxGhQGlp7sOEX0ZOj/WnuxDqVbN0T6f51f59OWPNfDbdHlA+FTym26IdSrfVLakHPJl80YmG26PKKcBkMBMwB0ea+F4ci8zZ7Oa+G26PKSSu5GcFwI1hW/d1Kt7sQ5a/d3xnXSM8Nt0eaghNz2/+bJsk9iHR5qD1UVy6lp4bbo806CKcw7qpDo818NmdyHR0S+kGA0j0ea+G24cBMksCmPNfDbdDPccgbz3RDmCuYJTJrljYbbo813DB0wBaA6lW92IctH7j9EK72KJuGBEOjzXw2VMKVCNgH63uxDqUP4nfAHAub3XS4Pq7ppae7EOpOjkNsycZk7oh1Kt6JCGC/tYejyiolF+S0nO7EOpV34lhVzm8HaH1vdiHUn2tyfaO04NB0OLEOJVu5O3IaIzEOjzXvZCARCy23tujzXvqI+8mNmlNMvuM+fKqOawr4bbo813Clo7dlzxpae7EP4SESuAy53nCAzULLbTMDo818Ntwx/A1pTw23R5r4bLezJ3RDp/QcgJIZXNfDbdHlD29eA+oBb3Yh1J5dyhKsk2QlPxq/iQNEOpVvRagfcUUmbUq3uxDp/C09GuAOjzXgqP319Po9HmvhtuhhAnKC2CI818Nt0MkOPZ4ab+GIYF7CvhtujygYk0wASbboh1Kt6DFwLqMCUTvdhuxICoAH8fK9t0ea+GyiC9LxprnW92IdSh/Zy9ftzUt8pu60zeIdHmveporn3GqzA0tPdiFdpjASPlRsp66PNOzlhCvUc9t0ea+GyCJHzo6dxb3Yh0/k/KlUxM1r10Q6lW9zCHxpjMfUq3uxDp+sm5i/MW92IdQI/VfbiPu7EOpVvRybHlpSYZlUtPdiGyE8o2LmWqY7EOpVvcgfAaH5saDzXw23R5SQ356nHZzSrBc10bbo6J+q0ZCLsQ6lW9yIfHC/6YOLe7EOpw1lO7EOpVPrWCAfcOQlp7sQ6k63iWX1zQ2SsTuhuDWnuvFIxF0rEOjzXyZx4KadrWIdHmvhtujzXw2QUheZuHZmBpae7DgBPuk4xz2lb3YhXeI9d9lsCIdHmvhsi/ra7/0l7/CvhtujzXw23R0qmrRTyAooS092Ic11NcaD2E52/47OaVYLmujbdHmnTh3CgxKd2IdSregFjlaTItPdiHUq3uxDqTo5FGekc8Nt0ea96YuPMuXxEppSrBc0Nk2NrEOjyiUo90zcXTq1Kt7sQst3FHh41Yh0ea+G26PNdzwrSrOxOjzXw23Q2BOETXr3Yh1Kt7sQ6k7P0FeQADS092IcsPq9qGuHbRDqVb3Yh1KqoHx5x6NsQ6lW92G6yeggA6PNfDbdHmvhhmVljzXw23R7CFl4H9yAMiHUq3uxDqVTERGWE7q6PNfDbdDYH0ARqNmKBUImtPdiHT+WGZS1VrAHR5r4Xng9XtdmDqVb3Yh1Kp9asydH6iPNfDbdEK2Ikk7sQ6lW92IdSqovJdmw+RCYbbo8171XtkVctOpVvdiHUqmJgtp14jTuiHUq3op22Nx5q+IlNKVYLmhsmnOX3R5r4baLbPKDajndEOpVvQYJeOnYOHlp7sQ6lWzXxwRlkS9/CvhtuiFYL81T67JpzSrBc0Nk05pWkeG26PNe9O4n4zPHPqVb3Yh1vBxT1llTSVLT3Yh1J0jNA14lTdHmvhtuG3iU9dqc0qwXNDZNOaVYLmhuDWnuxDqVUL0qvP5/tujzXw2UYps3gX9BVLT3YhyxJ1poX/r10ea+G2kAayMHhWIdHmvhtujzXw23R0T9Wb13Z7bo818NkCGU3Uzb3gaWnuutC/RGYsndiHUq3uQGUoBWyblLmhsmnNKsFzQ2TTmlaR4bbo818MMyMWHB9t0ea+G2iNcuq2zeujzXwvD+BrU0vft0Q6lW9EhbAdHmvhtujzXw23R5r4Xsg9sdfqfdHmvhtuHKWeCk1/MW92IWRuhVFVsuOw23R5qSZk7oh1Kt7sQ6lW92IdSrasL99fT6PR5r4bboYIYf59lpWIdDCYLadXXdEOpVvddI/GCS092IdSre7EOpVvdiHUqmkzhtUyx5r4bbo6U11JIN1nnMDSY7WHWe0sEtPdiHNdEDHczAHR5r4bbo818Nt0ea+G2ix2y6Oy7lp7sQ6k6PvJ+6pz3RCsjHmb0mgS092IdQfU0DcxAaWnuxDqVb3Yh1Kt7sQ6lAvqbRrZ/qVb3Yh1OZTz1syUyyBwxyG2ZbAdHdEOpVvcrysPU47OaVYLmhsmnNKsFzQ2TTmlWDXjS092IdSre5KHAHT8W92IdSqaSndzRcMM6QDkgjkALe7EOpVs028NUlpzzt/FLBc0Nk05pVguaGyac0qwa8aWnuxDqVb3L1vi3dSre7EOWLSsq5eHQBXZbTJiHUq3uxC2+fdJxepVvdiHUq3uxDqVb3Yh1J3OUuiMPH8/23R5r4bInC4fwEe/BATfW2FfDbdHlsYpTYzi8KlKaUqwXNDZNOaVYLmhsmnNKsFzQ2TY2sQ6PNfDbdHmnV5ij/2hrUq3uxCtwb9/1YTKafGoKEtPdiHT+FG6vT6IEkSmlKsFzQ2TTmlWC5obJpzSrBc0Nk2NrEOjzXw23R5p1HHj/glOrUq3uxCzx2sqDSFp1vhKxsNt0ea7uCrpAtIHR5r4bbo818Nt0ea+G26PNfDZHMmVAOaCT17sQ6lfN+1iHR5r4XteAB0ea+G26PNfDbdHmvhtujzXw208menW92IdSre7EOpVvddaHzuiHUq3uxDqVb3Yh1Kt7sQ6lW92G+y5N8W92IdSre7EOpVtbhM5TuxDqVb3Yh1Kt7sQ6lW92IdSre5dVlhn5+Y0qlp7sQ6lW92IdSehw25X9U7RfESmlKsFzQ2TTmlWC5obJpzSrBc0Nwa092IdSre7EOpVNQ+uPLyvXBLT3Yh1Kt7sQ6g/AtDZNOaVYLmhsmnNKsFzQ2TTmlWC5obJpzSrBrxpae7EOpVvdiHUncADXCOE6lW92IdSre7EK9eAB0ea+G26PNfDbdHmvhtujzXw23R5rvYom2jWQpVvdiHUq3uxCxBmTuiHUq3uxDqVb3Yh1Kt7sQ6lW92IdSqbwJzzlsWd0Q6lW92IdSgqWWBOI/Io7XtRsxQKhH5FHa9qL61Kt7sQ6lW92IdSgX2u+DvBLT3Yh1Kt7rsCyJzXhXw23R5r4bbo818Nt0ea+G26PNfDbdDWB1RimBpae7EOpVVGC/NU7RfESmlKsFzQ2TTmlWC5obJpzSrBc0Nk05pVg140tPdiHUq3uxDqVbVhdoEz9qL3Yh1Kt7sN4OKVQvTnne60ap2juNGqdo7jRqnaO40ap2juNGqdo7jRqnaPlmvhtujzXw23R5r4bIk5V7LiPu7EOpVvdeQ+d0Q6lW92IdSre7EOpVvdiHUq3uxDqVb3Yhy6GGCHUq3uxCvDfDeUARzqVb3Yh1Kt7sQ6lW92IdSre7EOpVvdiHUq2r99CmWzPndiHUq2fCBRWyac0qwXNDZNOaVYLmhsmnNKsFzQ2TTmlWC5obJpzStI8Nt0ea+G26PNfDbdHRGauTdt1dYh0ea8KhBdk1vkeXUeDdNlDy1HlFb3Yh1Kt7sQ6lW92IdSqn/sHWt7sQ5l7MndEOpVvdiHUq3uxDqVb3Yh1Kt7sQ6lW92IdSqbhxivXTLHmvhs/W3X61hr2o2YoFQj8ijte1GzFAqEfkUcjw23R5r4bbo818Nt0eadH/yNUkCwbEOjyhsHFADNKUb1X1VV9VVfVVX1VV9VVfVVX1VV9VVfRVqVb3Yh1Kt7sQ6lW92G7DijHS+r7/CvfFYire7EOpVvdiHUq3uxDqVb3Yh1Kt7sQ6lW92IdSrehZogSOxRDoaBRWyblLmhsmnNKsFzQ2TTmlWC5obJpzSrBc0Nk05pVguaGyac0rSPDbdHmvhtujzXw23R5rwcOgmGyaJmcd5S5obJpzSrBc0Nk05pVguaGyac0qwXNDZNOaVYLmhsmnNKsGvGlp7sQ6lW92IdSre7EOn+zgBDTuTBm7R2jtHaO0do7R2jtHaO0do7R2jtHCLT3Yh1Kt7sQ6lW92IdSqn/Euvv+hAk8njZpTSlWDs85pVg7POaVYOzzmlWDs85pVg7POaVYOzzmlWDs85pVg7PjaxDo818Nt0ea+G26PNfDZE3iaUL9NFy+IlNKVYLmhsmnNKsFzQ2TTmlWC5obJpzSrBc0Nk05pVguaGyac0rSPDbdHmvhtujzXw23R5r4bIuBKkPezTTXJUgNLT3Yh1Kt7sQ6lW92IdSre7EOpVvdiHUq3uxDqVb3YcT1CYmsT8ppWIdHmvhtujzXw23R5r4bIAA/V66umnKha9Zl5DdcV+Mxi76iFyuOkTtnRdnERWfyuDYAB4M6GnoIgeX7QiZIMX6S2w5WPy3XPv20hKQM+E0ZknpJNCrm5lWTIM/F+DLPvdtmIwV6s9v47YZOi6/MMOPjXaZ+EtZfhG+XOXrFm7UjpFWLWW0BALphxKRT3YsV+3DBR8i2srJQO1qXCHzMckxxaVilK3/6c9Ji/TEicPtCnlkhmdwScj+jSIvSvF/CB2D0CFqyralr46feCA9FVEgcgXD6yjgjA4R3ZfldUFWTF7PTlsy1sGjdkJTVDJSSvRlzIycH2qrtWt3o/pCBhco0nFi3snGpGI+ocppqFTgyKImrVMwlAjQfV4wGx8rhUxq6E3k0Y+E7TNNm2YZHMVI3ImMHZF1PaTlPTgdNf6sQsBTgXy/uFbE4V+EUerplU7ZpzFyFgzOFVJVBCV1si/Ed3E5035gL0vAVeMqS3IvMeS85hfGyjZk2gJdygroHJosch5FAsyC6cCo3gSmcuax1WaLHQ1+r46uAbUbNhk1M9bgAdEEH/jeOO4RpOE1kgUaI9hsUibXdczencZAORijMUWFNCQHsLyIkFFTgpfYCz/hd/obZfWmsE93NdRTxXxyleBS9+ey7ICgIDKslRSkKq9hWor1F+LLknXx94LVGKCkBac9Fi/V6fV9/uVoR0eAHkOfmqtiLCdcsNJNmr3egh/6km7GklOjoo0vCrM02x4hH55hzq4IrJOeyR4wwNutRD2HudGE2MLvAqZR4xW3jFdUAPZtJyotq687aLoOGCq1WAYNMVyZIgL4hB/l3N0s7+EKr17kCHJPYGJ6AmVpb9YzL0JBVH+kK0/JNXUtkBhwQQn++6tv6Z+gGDDsiG6ED1Cta8Pl1p+YO//5bSrToogDHwYgsIhRbOr+iPDoQsB1T6wtUxp6jQ+ylKZsuyxV4Y4JGfuQnBy+7f+WM5/5ky/TPBtBH/jS4sL3ffjR6dKheVHnMoJNvKsqYIKMIGG1gClfifwZ3f9m49hApu3XYolcDPyCO2ClqmXjflYPH994xb7/w/xrUWQFC1ZJGnCG635OH5TUGDH2u2xPyFyfzB8LD9nMMHhqOxUKawpf3iFCY4ZMKdzcbkATxGVz85UayB0tawbukfOUkmm0xNPVbDK26ZeC4fPflrbM97vTpMgIK2MGPCn8bZ2RtB+sPm9oTsoMSzVL9DD07X5hnMukYEMd5HV/LA0eUSXSqFRiPK1cllqPN/bQSRSgPoPp4SGJQoMU6TpGi3hg0oJnt52hxaohWc48Q/nfgqKRQTwDhNYUubxsifPOVBHbsNeWti9Gq7CF4V/KWdaWYBfv3AG9w6GUjI5XR2VbSRiioM04Sq3XSulefHTUm6QnqTWDRzoFBmO/hVwXxskiwgQYBiLmXC9FMIyxJFOJ/JmA7emk1bQSzqMLcS3in9Kd9jAyLJLMzsKzH3hwu/yn5Aqmiji8IknNKo5cHAWWEphfoD/DMWcjnTSSDVUmZJFKgbp0e9NvxhM+AugQKz7LXPrwNkhVH2eHZ3OOglrMt4bok+IH3smJcgF0rM58h2BrHY+S7HYdJmKqkNpZtUS6v2Sk2J04goxvypSWV7dsWLjWgD5Xx4vHRzEP5+NmDdmCXXadikZpQuGVGNNT68RiiGiFuplV+LKovwArR3TD5mee8H5DlxsNfh9fZnMh5vU7vTFkeQR0TNQHjdmfrS5IOTEwP71kCZb4nT9/FVLNZSK7iOqKoZO5RiEo4GCKIMNi89PJHAWsZ9UUN4/6vyxCPvXLS/qsqLcSuG/GBlyRvANQ7sg2xUaCqy8d2jzCzA+b1sCJG8WoGFsIKwf09WxA9q7QAIh4acXX0cKXbIbHbqghyET8+/QDKEW5V1aRAp026MaMLB9K+YE5J2W3v6d7OPUJR4iIfLgUvp6v1SzXhMVrehPoIJ/fE4NdlSKxk+FvensP/ciyY4zwZ6iUy9A9QKhR9qNEnGyU4h8QJBHWYimvi9sWvfvbqAh/HXDeSrr+X5WW8H+QaAMdhYwIC+T9tYyBM39pc3HXjD9Jo3wWujPcyiF0etaSfnVDnSjSfZjHV/cVCXqzqEQSc3HhxCXSFo4WFIlcU705tgw/E1oJELHYKTMgChYVjFsS9ytBAUqz0VaOzPLpuUTgVhMNz8hFS4cUf1C7hyY8ZN+yRJcagOix/VtERr38WRmmGr3xbuzQPIcUbEz9ffLJcZi5c/vMaAEGdax2g9jWDTr7TmW0EZIHXEVLEJeqS/jK6TWhkIzA1eocaaxk/Z/qmn57cSbW92gYSLAP4bJMdy6VxLcMTXQ/9/1YmtNaudPfd0ncRL7H2iEmEuvZGgIFvBBmTbNTmGbrRHqGAfhdgWj516cPgcDLN2+KyZnd4yeRfRfCWtEJz4lX2thn8dCi4CWYGhizGa5FscpeIt8YHal6Zu1NdnTLjFSVeXlQ18lrcwXxkxNOvAAxhyBwmJIsT27HwYeoiXjCGQkoZaDCBCZZzXkmltCg/12RJwmWwUb4awh2qFHgN5SkEljXEIxfADb24lzVIGDd6+ML5h0oUXmCGVxBlpBFC8tWoipI9kc9UvlUaxb8ZulYtt608t7B5ZCeoJqlPg3fTlJWkG+ZhTdgX9xUEOOs2pGgZohuwpuH0hH2bGF3qct/TGuJdCb1BV2hDdU+BWe5YOgLj4HpXUHiKoXBriMJWOF38+1DWRPSLxeV9PerAgSuYW5p80izZ4HCI2quu6aALuyqqvuY7cf5cEQN4114npW3gFUbCLmbe3xIl2PzyZHD6ZafMZTzBQjkxRvMM20x0t7YhwlP9yedXOHQeC2+wfhsdSoXelejXhXay4OL2MtU6r4EZnLJefb93pOy6DF/uPrEYDVti0zobSdEp9zSKOdW43JUqYNPKhk+udeIgpmxhwm3TZccCPjRsahDjoGVQboC7zPrTiJcMQFW5gZT4KUdLut5NAK3bzTFkSbdAD12OOekBtp/+gq+qE+Ucdt+HcA8MGbvS3gifFxlhI+oGUNFK24cu6hAsPi/I3//giqxaFJalc59iNZxz2GNJ149gEHuN+ny01RRP34Y9w/oqnoKCdyQV7i//QPpJQx3O1/vPEBUGQqYA07X6MOge71Q+bhQWWiaKE180lRV6uAQymCP62gGLAJBigooNFV2aDDvRpB3WKnF6nZGOIq+lMR3BqE3bqQ5ZxyzW7mJx2ri9Ser5AvVhgjkDFWrbMAP2qgzTA3frFglicF6mWNLMhPU4KK0rFFFsE4MIBE7yUG+YkjDoWeQhWE1rHVr6UyW/X6JRP6HyZ+I2ANQ7S6yNkuOV6moZYVHu0oE+OuWEB54R59F7oup1LZLF3NBo9HcOpqZX9T8FiFMilDZ3fMW+zNNKdT/zg/MaZIpjrlOd5fSewkbkKqRJ1LK+Hbg2SyT20UcT8udm4XVYIo6ZYW6SYiNmI+oYbJznZkydQvUrBygJVGLKgt94Pf3KK47/tj8bXX7ffnzZx7JkfVzjwL+XHjxvzr1jFhyQx62t5ysg5SU0hICT8sMLoc+mCK31QkgC+2/dislUxQ+Z73a2K+Mz8qNp3eFV4GU4NmYTzQA96soSxyocWYvxarB0vSvPK3Y5J7PQ/0SshglKitPmzojwurLv6zQTVwbQWMxFfj0iaxcEqrCuOAvk+JPBJ0Wleyku6rD5c0oMzYEw5Ihi+ERQmXakoJtc43RwCimDXTuBTiL10xpCF3hrWmtqHaKGkZNRzJEzzGVNlIO9cIyBJdqGkpIp2tfjEaoCZChZitia+GHlnGKmopabMhv+VnvixB/bY8RupwAh8WkKdtkm80MGk+aMWFAn1Os2JfZ3ZlCC36tpw+T/sA5SONiHnW9BkU9iomxixfFRN2UPmDnGI4FM8wP+nWliXgiro8vbwAbkgHV3MUTYzwxcpt2oV8iFYe0W3YD4I3ObzCQKAf2tkzQOqUA/yguhOVNHDAEXoyh9ldb5juUh1WAgXY8DgHDT+/Ti9kCmgBCIzizHRCHNY5iIsyGJVSqTrMLFU83mj32KO68IpKQdAWxH/kNJzgwMGUB0bqZePS1fUyB3czJPx0X3+bkPrsPoNyB1OlJ8GgDTke4Y7BAT8hjO5qWKv/6gkUdVOF+ACIABLzAWVDxhmx8wNoX1DAigqUwrum+lrLynUFgLMSqwi+4E1odB7Bm9ftPVFcxQuEQU2J4qhCkKlJWFNMR2jIShvybf28heUvms3uF+Z77xrF75bSEAuSdizAAqDgWR47hetOscT0I5k3+I21a7eL9qtflZuNiTP6eIHIABy61dJ2GkPYN6EaWQgjnlTGQNcwV7IjKKntvuNfVAhUnI4KcGPx9VkVBSrbpWjdf8KkZ4LW9Qn8yLeWoWRQAiVnUN6bNqpZ+XDBUVYAazUNTkAFlQIWKkemnL6c2WNs5N2A7YQrwKIk3XGFuJbwA3d3spZzG10Z9z5tIdF8xBEojOPigSOB0sAxbNoVtF4eEgIo2mAV2wMdrdAZRApjV1mQ5x00ovKnGFcQYyy+8N7JkaDCDC5lWD+SpVg/kodc6ftL+6wkbyKk46IyQw65fWVEB6AZAHUjG939J3k0KARnLfCGUBXLhDh58ebyLYu2gld+EAHYX9HsGimySAiXYQrZyCiGd3eWeGDyITHQ+YKeUCLTprMBX7GevidXk0ZA+hM+p/NQOhlQ/SVo3z4V5wq9zAAAKJBr8aOr1Sgt3CRUPYA6LpiVvHLnHH8S9y/hlx6F08+CYsoNXuxCTm1SUC9UvgJxhbaROLqcGRpuikEq4x5ZLxzBV0iINjw3vyoO3PZDvTIOgG8h7mGeSM3l6ayNiGUK94bFvTOMMRb2wAJRf7BmfuuPRIxPCKfcwHVe2Ezz2An7AfU4cSjyFLe/rr9XvakHhO+WBsL6F6nn/OgAvqqPr93emp3va+65oprKHtHs+IzSiXyGOSry2YWFW/tCz8uk6ykjCQCov6nmh7tAYRdI4djcPbMAqF8nBYQ3ggqH0APO+gzBcAB1MjpGNqVsD94mQ0bBwI24Su0LVYERpFGBO93sO29mLbg8pGYWIAEWc1GavlNxYv+fq9uxiM3W8VUwewr0nHY0UdXcTRk7I80AD0vfuAN7gZXuDFzS7z2jp8b56msGNSVi4OFQPFndWsWCWJ3VrFglid1adh7dioIoRu0PAgcHulpAoNviw8ZzI58Qa517RYa0CVVI0MrofG30UVEKGoP3AmJHU2jDsUADrOhXqUDxXVltowshGDex2kq1sXvKzHyeSr2tDVYemhERxvLzojlTaskCk0xqeshHilF0Tdu+lLFZn6gw0AAASL4TYC/PF4qTjo96UmHseVdhtzYeAnFZdJrua5DSycu7KdEcHwRh+TcR/GBce5VrWZpKmQFsI7/wsldfkWP+vOM4OOXt4jOANpJ1+Kno8buwIUBoSNx/UD7yvu0bhKOM3xdPKdorvD/C4Ro1hkNBH5w2aAAGEsoZuIzDOg3jYqngUDTnD+YrfvSmbuJy+vKm5VAkGT6naqHyZ+I/MMMHUzH+p2IEhG4jPpe1WyOKhCxbaCueAv7QLLr7XjcZjKaQNBcgzMgiqmhQQ28ZimkGysZCi45w1frpUPjvVEmkj9+q3TahBM/5qXdkfuRpmIpzSIiIiIiIiIhQSbFyEKi4N+6i8Pztip5PaCFq0DXkRe86vhhgIBpYVzUJ12cbmDpruybOQoq8k7h8h53Aj33ydeqxDXy4stGzmxLUVLhc12u+EYgjT8WhGIZraAIClD4pl2g+lhA6YVG/XIqpMUOPGousHxahXFP8J/hP8J/hP7oBDW8bGt/p0KR0umFED5C8nPgAD+BZF6vxV9VDMzw2PfSohhxJfWnertEejVIMHSd8VCeAvYrVCoWZ/ZIeQn/jF7OIbKNz40iMlmhcWmm+1r5T9F4fBmrJCN32CBTU0egQgP/F2YRQXa2gAAAJMH93sJGgDb/Z6iMn3Mlf6TttrATFzzdRK7Wd4FnoymlxBke/3I/JPimf+paHs0rgX4tNvhqm7m6x25ZkJB6HW3AP41Bw6EpO6Ltuw11T+bSpsQQEs9QUAX4D9wwHGtrg7XYM6CHRUyJoV9QwCVIChK1foydRgAOfCccbQp7MgnIstee4J8ISQgI4nnweFSe1c4YnTwHvE1gh8iO/0uGwfel7D7cJs6oFokVTGbP/jSbsyFJLE0a3FktQ/ZJPGLFbpL0s+f+lSRIOlPDNtX7iv7ElHXOqktpmAMmCBeY7XW4EuJ/y01AAGwLv59qXNIOOjAEYEWf4Z47SEC16oBZwj8DyMmMKwVEzmfwiSZA1+TTSSYuex25BeBS9uJqFVeIk1YIeUUu9rfWgESglcDPyCO2IUZNsN/vwuYhUGHFLM6hWwRcagBM/8zKsh7Ya9TiRzbVdGH75mRFHS7ziHSTO/phdFpZVmNEIAAOPY455bnsEhe9poU17x0EvNQeYjlKzLLeVEnfEIQvBUBW0DJzf0ojFauJb9VIfk3g9Zdf0zmkT55yoI7dhry1sXo1XYQu8JAwF1ZQAQkxkbKpo+qhaU9yi+H3CAyj3anpekAAAfByUwpmRgBxeOWVlU4hag/JxkUqz9FSN6ELipub5RnP+iwhfDS7+T3DTsI89uYy2B5mu84Gmkn+KE0163pPY2EDZELhHP+VGwgMihOaB9ZRzFRAFJk5z7bSbbPuXff3MLq4g+gpWnXyQcxCC9Bvda4RwYv1PwgAKFSUu1BdXTc7gFHyoVcnuW0uqV1jAA58iIldxxZ28Ks81FMIre9RRm998KOwRzi1NiIwbxagYWxjPnS05uOK8OO59IeGnF19HCl2yGx26oIchE+5ACZ8tlmJdzCfJnsxiUkk1dVGhQx9nnK5d9/oAAAI+uYOQt21VyhmAkELfjnpUNbZPkh6DPNDLR2aXwqoGhrEunX2ihdC+jmryYp5zgNBBjHEAGet4B+jErs8QSh7iHy56PSx2oKOxKdzcTrxKqPqWxxg5lv6x+GvDgX394j7G8uA18FOyLMuIlVkGTHu5y+CnZFmXESqyDGAO8JJ0bmUX3H6FKpyDrSxmacRoQXnCDoC8ooC10Ca6GcTUpK5XQ+N/oq5khQM8PVMpdHEZQ+7sbVW8UfIbHaUAWI14RkpaIPwZMSBkDOYSXJflnMNLwphmRWF6X+JCCXYTXDmY7aMqzNDqb9FNifkLlrmjKYp/bSmLqU5gSwVN6R6/rihYIx8kwqjEABaKEhCWD0bAHgV6fcw97U5d6uXQQz5RMPfvhMTwEQdPpxxg4UhorPKmg8xpqNeipJCUO0AesMLOWjAEJHtoTq9YAYezYwu9Tlv6Y1xLoTezrKI4nQVNHAr2rhrzYMCmw1ZIFIchsKYy//5G4aGAAAFCs/8tbtTA6pVY/uGydI4RWeVCBr9oOEvgUBU3qz2tRt73niWZCBQxSGHYqxQnSG8opdeFW8TtbpBybqZkAKpg08qGT6514gSuJpxWgCr5nOTgRFUbq/BAYBCvjyOfCaZ/uxTRxlzMAe48B+keg2+IjNvZxfnRdYvqRuL6vwxSj5R+HWo/DrUfh1qPw61H4dZ+AFiMR1jA11H+SqPmv8OWZYQ0P+mYr5Fv0Tkrh6Cra4QNVFrlXmUJvMpwbmeOYTIzOpzHMKK/YeRWjU9jhSzFKbuW8rL6TO/yyISsLs0x50cWSmswFRcKXoBB9CaC6acdVaGVD9JWhjir5ZVqC/kRUdT3N8P8iPM+Aze8fkRUdT3N7+FW/MIOZvePyIqOp7m9/CrfmEHM3vH5EVHKgCGJi3B5wGv68BkJ3BbDqyHDSCBlyF2iQN37taq0doxhjtNBZfOPtKhEwBxAPZwZGYj2VT8GxGfeXBR5PfRpA1HmBkLqoRn+TQoCX5t9A2H6HmNWC/408dI1YXDw3kSoWK2Fmas4lVQAAAAAAAB6TAfHF8ZzJmfrftxOfigjVBkjBI06oIAAnfI6ceWUlFkScslSZqs7Hz6SRd/MqtbrNiNGEa/5TFQAAAgAEyDLz+wxwcHiOhU2QADYg8i+bYlihIOqA7xV5bgVC3kAAADdS5YvSJ8FoTjma6PQQAAEqRAtjl2bIoXyCfM+Z0UEhDLiuATF127bd3OH5QGp6AAAIasf5nHbbLB6N+Z4VormKTRIjDwAR4NGXadkh2AEWQ7jS17ht7YW14axVUEysN7FWvwNdDO36NtdTNSmGpfld9rqZpoAQjX0grBLTox4m9usDUqSvRpPtRYANdZwDJ+S+9X5iB+UET8c4av10uAoI9cXQCNaAmb3dVzi0MEwEZs+ECBW6QtZHmhKeGE2ANquX/oaMTMHOAuiPlosswi0dUe6RWyseI+WiyzCLR1R7pFQgBDYq3hi6ul+fz/U8z+UUvUAGjD5qaYGD2Kmq6sdqzQFnwXpB2yBQAAAAAAAALKReLy2zikqys1/sKnf1QQFo9iY55KrbleDNWSBRi1dVYvqA3kBfrhkeTUP1AcYAAAAtvG2/2elpaz6ztimoQrySCmX/46NkgAATRkP3t9eXQbBz1ujN/SeeSMfr/arw+RUYMIoKSGkU54aQ0inPDSGkU54aQ0inPDSGkU5wAAVeuwgEQNOiMgnIswcqMPeAApgRaAM99rC843U2dSzyqDc+ctNmSAAPN67/R5fRjQAAAAJFDxLAPC7AnePsNzCTKvk3m/qDTgHH2C3PZ3eUzhMmYmLeVE+fEzOPtWif2jqkGI1PALwiqYfCW7A+2gwFSlAptH8gooNBoYPNyKrL14BssE7sDZtBgKlKBTaP5BRQaDQwebkVWXrwDZYJ3KAA0c2lOoGB5fscc8t4mJYmDcq1bfuYWApl998nWdjExj0ZHLE3QuBIZ0m9OImyMJd4Bbk3biCzr6xgAUO2beJT+kZBdSQB61On0WAwi1T4ef1NOxEOf0jILqSAPWp0+iwGEWqfDz+pp2Ihz+kZBdSQB61On0WAwi1T0gA8+aYCgQQTE4MMNUjvwMAWljN6u92jswFa9FQVOZz3dF6tuDsc9iZTAAAAAAAAAAC54swt42+Zn7rj0SMT24oDgltACCwDhNNkYy/tA7sFBkNWSBlnIIBeYnzf6uiQgAAAAAQB6GgiDlJwduUM9pHbhcpZ5TTxRBuWQSXQwnncM4v+7bfHuilEyoxdK3MKwWkeD5+xkwoLrLZjJhQXWWzGTCgustmMmFBdZbMZMKC6y2YyYUF1lsxkwoLkAAMghv4XghyeUi7jaiJIg5UUA8AVyYVrjGmYKc0IAcXvX3Cnx2BdO61YU2AAAAAAAAAVCsLB6NgDwGQ9OYe9qcu9WBCHbLb9q4bRuzTl4DVkgZZw9swCob/+UsvWAAAAAABRrPhttWUPgb7TXOOr3v1Xm22EbKhCZvjc6CMnpd076QZXpbtRXUCCp1EVqpxoge18avjV8avjV8avjV8avjV8avjV8avjV8avjV8avjV8avjV8avjV8avjV8avjV8avjVzgAJnhcYuE7oQ61zVjKGgL44h1lhBJYhvQ3TxmX6rDl5KQgNVfZH0MMpWARaXAwiqiws5cco3VcnwwAAAAAABwzwgzK6KLeRxc/rm4pGpJhBDBjYAZrxMqKzwWnZe3b+yKiA1Q+40lXcIiKWdccAAAAACcMzw+/WJIfGoNsJhppfAvQ8+InQ4+AyYpiWwiVj6W7V79cb0ewS416IixltVRdjqzNgRZMnWQ1J7Dy8ECvQOqxfU3F6B1WL6m4vQOqxfU3F6B1VXAAUKFtrQk1cV/lYDp2xU8QBwAN8j4Hw59gyEI5bgDI/RdypFz295Oueq5bAsnzAsnzAsnzAsnzAsnzAsnzAsnzAsnzAsnzAkAAM6eTwHmHiHgEu6aF1VjW7kQ/MYpmrJCKTD+Be8zD3Rj+IBt1td5hhWyqzWJTZAls+eA4LbAcFtgOC2wHBbYDgtsBwW2A4LbAcFtgOC2wHBbYDgtsBwW2A4LbAcFtQAAD7LRupOOjdvdR6uK1MVigEkhD2vNCEDwVage8vmNIaXMy0DiRXT5yiDWFtVilbzR1SMqagtMNPq53180Tx5rEeHQBWohFe21gJvVDJFVdef8E6IFXUjjF4gjavCpuM2FumrI+HPbEctXasBjXzmQfqwA7D9aPr/tgAFsgyicgQYIt4RZtS/JGAG0izBymjkd8ZSCmJtBEQP3r2Tj41/vg3e7E2xVMjbCrKJo/Y2qWOeE8VlZYXW7NoDsMnrB+/+yCjuG5w+ErP4tD/Up6Q94s4lJOcoe7fDana9KdwcusuarjlQ9Ie8WcSknOUPdvhtTtelO4NQAAUlMw4AeiWbgGEGwwR0lPWI+vwyZEMWSyCoe5B8SgyjEwNxoLduVHF9dX4AAAAAAAAAAI8fQCWJQuiB9sV9cXJWlkc/W43QE95AK2KXPwXlTV7g3wZ2ozATf6Oj64bAEnQAAAAAABFWElGugAAAEV4aWYAAElJKgAIAAAABgASAQMAAQAAAAEAAAAaAQUAAQAAAFYAAAAbAQUAAQAAAF4AAAAoAQMAAQAAAAIAAAATAgMAAQAAAAEAAABphwQAAQAAAGYAAAAAAAAASAAAAAEAAABIAAAAAQAAAAYAAJAHAAQAAAAwMjEwAZEHAAQAAAABAgMAAKAHAAQAAAAwMTAwAaADAAEAAAD//wAAAqAEAAEAAACwBAAAA6AEAAEAAAAMBAAAAAAAAA==;" vertex="1" parent="1">
          <mxGeometry x="3280" y="1346" width="80" height="69.06" as="geometry" />
        </mxCell>
        <mxCell id="MZo_FLZC455jn8OfNTGz-763" value="" style="shape=image;verticalLabelPosition=bottom;labelBackgroundColor=default;verticalAlign=top;aspect=fixed;imageAspect=0;image=data:image/webp,UklGRpx6AABXRUJQVlA4WAoAAAAYAAAAaAQArwQAQUxQSOA7AAABHLVt2zDW/5enlykiJkCZAw4SB3yY1/KLtb9YoPbPtN1sDmIXMdrYtlGlX1hbUd3GNso4tRlbbWzbtp3cpEnO2Xv+a539/+895+Zg9sz+1ooIT7BtSZIkSRKiDk8eEwma+SCievnj/x9pSQu2bdO2Mzaerdi2bdu2bdu2bdu2bdt54TOTtxdG1T43ufX2WWv9zPkREb4lSbIkSbIt1CwxF73IBzRIuJv2I/s/pBnwRz7ywAx/IHJdEN3qfXEyNv179/ePZPCyGD7L8dUddRiseWR0A3y7B8XxRe4rP2BH5FojHPkVAA6MrMM8JYbN17BCH60yAHjY5BD51QybEWPPJ7WZxYr8HhIg9OBrs28CQNiIXMsjH2DD+ifYMaAKMnyeECdT8z8uOjiAhGWErH+OrX1LW3+r83IYPssJ1B971HLC1hc0QNPBMELWP8CaniUxQfJmOBbwqThoJ8LOps31zgZwboStf4DlHYsxxvyeCwM5hTuu4QBmxOHEERQ2Rnjpuw9hw1sBhHK9Pu8WAkJ2TlQGJ8athR0KYsMr4WRu9dclgp2pSg0DsJEy54186J/fC4GdG311wtlJbeP6zJcfxLd7GqKOKw/dY4Od4R7MiGEi4/KU57JZXywDPo/Cm1vFuq4DhJ2t6+FeTJsQQsu48PtTWRHP9nkOgFDuNvPvAICtc+8EMgwAOPvjk5nRNiwvgZPtqYlX8JtbNn9VixXj5A9NMiDDG+Cka/LdSRx1bHN9bBicGIe+bpQWGdofO1f/dJ+Fne3jAWPQ2D+iXgAZGh87l+i+ERyjjmPW2PdZDT2fyiIQiFyXr/2iOyS1TRROrHAiA6XN2Tmkmm5PZeG3nOzPTb7mmHQi5g0OAJv7VMCGPsfOj/1wxnEHVXwYKG3Oxu4klYUWx85f7HeMOo4rw0JRK7sVxYbexs4le29yjDqOLwM43oYVWvxhYbwNS1dj5/wdFocwdubEiUNhZyxoV0hDG37LyfH8tGuOQCheDWuGLePmv23yYEMnO+mf+PmsY9KJeDcA33511qvY0MSpbVjtEYfQ3gbTzkkoxoTn70N/p9S/2Ll032022BkSzIwYOJXFpb9bZ9G4qSx86I8mBd9bFgbg8eDc+7Q5535pmUnPbo3wW879L89IsQFCEKMzxlJZfPc4NrRrXyPNfr/gmNomERrHv26QXp9uL/cFLFF39BEUdcxtrk98BicdCxwYR1JZ6NG+RvrtcE5tk2CN3V/U8etMg35FePjDFaZj1HFiNgZVZYgTadK+RmJ6xkXanG39tWQqC3/Q6mukxR8XY96Jt1QWfEOvstjQjX2NHLOijmM6UideU1l0LoZTWejCqOMKQ3bh1DY21ycTI7z8Q9Idhf5zCn+8ijtmNk8aBnC8DevOgvcLYkPz9TXyn1M8YJIRNsatuW0KYEPPOVlajb8UJ6ltEkTanJRZL+VCqSy0G3YONv7Gua+RZGYANi5Pe+E+ZGi1vkaG7cXY2c5JfgbpjuKvZ3AnJnoMOxftstYutU0SnTbG+V9aZEJbI3QXEMrT9p87ABDCb6En22mzvfzMj00zoK0RGquvkacnXXXCzslX2BjHvnk0PTJ0lJP2ke9POfY1ksSNkAkAh0fXw52YaCbsXPWzfbGcdCKBby/fP6KmDxn6qK+RbhvAMepYIoydw2owZGiivkacgJBECJrKol9lvL1c8/Q1MuVaQk86EUedmGzpVQYbuqavkcd/PBPLTtLZXm6s7VYKGxqmr5HPD9oknQA05ccIL+tYBKfN0Sp9jfQkbe3ZXC89BsdGaMk7JJWFHsHOBd5ZHLbLbC5N0yaVxe1/3smHG9PXHoUtX5h+I4rUNhK0Et5efn3Wa3nx7frCydD013P4LfSYvz4Jps25NvV5fLgXPYGdaw0/jAtbgo0jaQZg4+JkkspCNzhl+2x1Tm0jdwbpjuL31lmQoQ/e3Hro/eUCfY1I4EvYOP19s4xoe7kOAEIPvDIzBQBCOB5QJqdNKovT3zZJjwy172Sy62skhh0pSGVxZFzjoKo3fAFL1Blj19cISOrkds9wYnht/GxKFDwQKt9/W6JObZPIu6MYVo0hQ7H3NbLSsIs6lt9pm8picCX8HUaZ9zUyx7GvEUkWJJXFpt4V8fZy9Y2dW/55kTpUyfNLgLdh8XWdS6nsZ1PiQwi03rjjuK8Ru/ul2yDby9d0LIwNNR11XGHQTsfUNnJv3FmsmDsxsUGeRTqt5nZnGpT8iTmRZcxrlx+nslDIB2d/c/7thB4PmNw6MZnzem5sKOHClq0nXHZMbeMejDA6cMeMl3OiLZ+KN+o42PBrcnD22L9e7tLmXJr4zP0obY66xc5Vhu5xTjrhOgy77ij+bpkF3a5isXPxruudM5u7HePMr83xM5xQrX2N/HvHLurY/Uy7w7180xSnslCm2PmZSVclxEno5V7GNkiLDAXa10iT707b9DUCMT1lNm3OgVF1A+jvbmqzr5FPSVt7Nte7NWPn5zX8yFCWz00kbvoakeS0OTsGVcapLNTjwdnbL7oLwOMh6liq0+ZsGVAeGyrx4OzPTb0WJ0kn5DttjrmhRxm8vVwNYufHvj/j7LhDA/A2LGNVxxLYUH3YucbnB0jUcay/Jvlpc5a/R57hhLrDzqV6baZRx8Rxr8btf9/Nr+QMP+pr5N0lYQBu29W0WzWA47+73ZzVJi9OZaHqDs7O7R33ejk93Mv0l3JhQ5k9N5HHaV8jNte7ZMMAgMtTldjz4vAFrOvwcxMx7FPbuGWDE+Pc+Nb4IEFq682tcn3joK8Rd5TK4uzPzTKrqttxXyMf2PQ1Qh03b5z66bF0aBuWiuprZJZtYUt3P+0O9zL20TQolYVSem4i//vtgpPj9gUyTAA4OLxeEBmqqK+RUXHQ14irS2Wx//NqOJWF+ulrZMB2x5zDKsLY/kkVpnAMfHD2j1aacZLaxt2lzcHdUfSviFNZqJqDs99yjDpWFoaBjI3dyuDwC9XS10jzPy7FS9IJV5k2x1jbtbg6SWXhs5xAg7HHnB31YQDe8nl32QdFsKFCoo4rDrZ7biKQgKcr6MRkQQfyDCcUR18jnddwpze31Ixxa35b0h2FsuhrpM0/tx3jARWMARz/3e3G9DdyYUNJPDcRwb5GlMzl9HAvk55/EG35VApOmsbfnnA8OLsCMgwAuDSpdXZkKIO+RoahvkbiIR7QnafNOfNn80zu37Dva8TeUUgGmMg48X1T3ImJq+9rpN0C575GVJVxfGwTnMrCnTtZn55wJU4cVZA258io+gFkuO++Rr49Fcs7qJTF9vK9n9f2I8NVPzcR575G1JjBAWDX0Co+xInc8cHZe2wAx6hjxWZsHeR6u6MIoMKWHRaHAHhsxwMqkVQW6/uUw6ks3OtzE3l26nUKhCJDxU1uZ6zpVAobbvS5iTz2Yxz0NaJYUlmEVn3kMg/34kOxoDW/OOhcck4JGv8tfvchfLtbxM5lem+h2Dl2X1M5qSzmtiPPcML9YeeC7y117GtEIRocGzdnv5bT1aWy8FvOfS9OS7GLOlaQ0+7ZlEx99X5suLXnJvLL+ShS26jElcj28ovjn8WG64o69tUe6dzXiAo1fm+WFRmuCTvb9zUSjaMeMZGJjFO/PpEBGW6pr5EVBgCPbUdtpbI4+g3pxMT9tLU30xk7q1jjyMiGLiaVhT8o3NeIcn0JODYODa/tcyOGL2CJuqOPxEnJOXWWNmf3pzUZMtxGXyMDd8R+1LGiS2VRCSNP1xB1/HDHVdyprT0VbHBibOldxg2kzfFbTs5X59yyiwdUydMmlQVf070E3oYl9U7mFn9ddMo5rJwFSWWx4qPisr693Gc5gYbjjuHClpCglWrpxGRxh4clO22OzTeUykN3O6e2Ud7GzYUSncrCBscV7ryWO2c2V9wvAU5lcWP2W7mxIcl9jbw1T7ivEdX9aU10+/XJLz+AU1lIb2HL1uMvxwJ2VrjhyvjZlEx6OgcK6/FJbF8jjb6Jg75GVGkqi/N/tsqKQgiVRF8j6qkTk1M/N5XOw73gg7OL9DWi9g3aiUmTdMiQx70Nedr8ewcVtoxlR92msjg8rjGKZfNLIXZ+ZqLocxPRB7cf+KK+X+62l/us1DZpH/3udOo6Sv79L3S4l09qMGRIG3au/tl+p9Q2OkJwINvLdw6pjA0Z62uk10ZwijrWH8aGfuVwKgupAkL5OiwMRZ/ZXDdwIgMZ67qVRP/X9UvXcxPhQBwdYgB9NiWruhTF27Ak6ODsP5O+RmL+epWdNufO0veJITPYudaXAn2N6BYDsHF7QbuCqCiJT06wc+k+W5yjjrWOkfLvm7nx7dLR1t67ywh2hlh/Tamnzbk24w3SiYlE9DXy0vQbcRIPqODT5lwZ//x92JCEvkbOOb25pYmETdqcS3+1zIbT5khCXyN2jm4y8OFefmuWCW35TOJt7fXfFpvYWU9s+Tz2w2PJ16D/MRd6b3nYMepYdxlHxzZKi4yk+9xEnPsa0WPGwTF1fchIlk7G5r9foA5ROs3Y+1ldvL08CRa2rD/mKMpsbtrdr8sMm7Q52wdWQYYvubW1N3Bn7Ke20SSpLLb1LYuS2vmTj4P7GvlopRkDfY3oo3BlWNebHLgj+fQ18vrc/+xKzum9abO93FzeuTjehpVUDs7+9yXHqGPdZwAxjGXvFU4Ohs9ygg2/Oo4LW8b+9Zombc7txe8UwEbC72tkSBz0NaKDUlnMfwsbCfzNraKdBJ6biLY0bkx/+UF8e2Lua2T+f85Rx5ryJSCpLKa8kB2nski4fY1csXO057RJZXHxz2cSZyoLH3luIidt+hoBPTq5ZeBOTH5plgVtjUiI2PlT54Oza1fj1E+PZURbPhMbdi7eZV2MprbRbls+j3zbJF2iMtDehrxtFjj3NaJzjYOjGgQTj+G3nGzPTL7qmHRC/xr7v6zJEonhs5y0j/1wOuYdXZfKYteQGjiVRYLAztU+P4Cxs91r2thAB+7oVxEbcY+dS8TNcxPRe2lzNvcqhRvTj2MglP/tRaE4SW2j/9LmmKu7kY4F4rOw5fPTbtglndDX02Z7eXhpxyLYiLe+Rp74+YxjV9M62wB6kKCFHR7CRvxg55rDUV8j8ZDaRkOmzbm1oE1ebMRFXyO9NmPsDDHsaM5UFtdmv5Y7xtPmIKfgu0udsbOWN65OehE/w4kY7mtkBu1rJNZf06Jpcy5PeDorTpsTg32NPPnr+ThJbaNR0+ac/+2pzDhtTixhZ1+tEUcwdo7l6zVtKosfnrSMoD9WsHPZvlsdo449BcbJbxplQFs+Y+C5iby/3IjlvkY08fbyQ183CCDjXgKhB1+ZfdOxsKVXwdjzZR0fMu6Nk6n5n859jXgXDPS8OAZXZ6nNiXwBS9QbfSwVHC8BJzKQsWMgSWWRinsbKgzY4dzXiBfCsFJZ8E29y2MjdQ7OfvBr4b/XiN5OZcFXdy2B/6QUJRCacqfHO/9hS40xYaz8+GG85VO8r5ENY3ivEX2eymLRh4VEjKw1U654xc+dfemE1vhgY/w3v43VHYXPCTsvfOpnHf9n5/+b0RwT1gyjTkzmvJKb/Oj4XiOHv+1J9/8zGmQCsHG9PvPTvkae6vz/NxFFMmFGjDqRAfTd9K6Rnc/okiUTLmWJqGWvHfp/7zWiVIYJJ9NGxiP/6TquaZXBDdhoXXkeqw4zmmWE4TfrlYNoPHXL4CHoz4KMbUJD7SIMnayxDJ16CSY8xwKMzTme6gWES7PIhYOH0qkXN7Iz68ZPadVLfjIzGs+rFwasZmjepF5KheB7FrDGqdoFD8GnLGiN3WnUS/tOVzzWofXaZUtz5rfG4o7KBfDCzGeNmUbRKRe3cuPR82c65ZIfy0pSFX+gXBp4wrCQFF7AI/VG3VLrJ3xnjstpVIswjMSjwFGslMtfPnRkATy2Uy7BhIbMj8fqdKoFh2JoRK5b4F+qFnCzEPPh26YYTqda8gNZaG8B+feqpVMwDPMjH5P5Kq1qqfWX9bnwh3fWBzWL0dbnwjeey0q1tO90oKPEgay8ZlGb+ekvW9AqFhwq0JFjeVKvMOH6w8xHL5ltomJhwM40zGb2/luxNPCEYQG6klif0iqWWlNsB56qN+oVw61BL7yeRrEkL9mNEqewUivBgAb2Yy8atYJDNeano8D6dFqFCZcKMJ+dvainVmHANvvztGCqiYrFCpuP//sjmWpl51SHkb1F67VK+84gFrD/8EEaahXP2o8Sl7PyWiVp6jSOpVEqgNewtwvsoFWmTTj7gBW+YxfAsyq9TmHALqezvGMOUqtYw3wOY8hIOqVycjzzO4weXyiVv7IKQbfInQ7zRZ2ykYfgFRa0HwXuolEq7TstnX4pcQGNSgkQqsz8Tr8cpFMSE85kYsxpbEanUxxwfo4sWLKmV24I5fCpZp5EjSIMPzG/4xg0lE6l1OrMgo6yywf1Ro0S2juPHE9rlAYeblrhO8433kyjUALcLsF8zuNUjcKEC+kZcx571NMKJT+cxnnkWEujMGAZExkLapTv9gvBWOcrkWHGUXQKpX2nFwsKjL7fKRRheC8yBObbtOoEh6bML3LjozT6pH3nTn7mExlX6BMmXM0mNo6i8eqkfedgBsZExjY0+mTnfCY2VqT16qTWaKE7c8w3ifrEYKGRYeo/6dTJXz68ywJCVpevaNVJ+0495mdCv72mToBhhe8IvXAXjTZxLafoOIfGK5P2nT0ZxEaB/bVJCMP0yCtiY2NtEkLwHQsysQ+WpdclwvCp4Mgwx1g6ZdK+04YFBEf/ocqECVUituD8jFaX1OJFI0Pwt2dodcnzSl6nz9XJjS69KlnZYl0t+KlOotElJ6ezgPDYlZVXJX6LYqxLp0sMiwxRezFDXTL9nPDIMN0oOlVyrKp4+A66/qJKAC8bxcA7tHqECefzMB8T/vABTdLAY8B6Jj5zXKJJGnjCMI8FhEeJI1h5RVLrzyhGge1pNIl+jsOzcqLLMDSPaszzL/VIMFAxKfHbBiiSTkEORgUrfEf84m/0CBNO3ucUvuNZOdGlARusn1G8cBuNHrE4uo9xNitF8i04UY4D9UgIQ0eHzyV2oks1ElpGNXIsQ2oRBjwa1cgwwyQ1Au6UY/6oRh818lprJhxNz6KbpRq50aUB260wwah+e7w+qERWlkQ5ClzHSouc/I75o/sYpyiRACF4x+FO0RNdKpHwYpQjxzp0OoQJT0Q9FiBVCBNSikZ921TjtYjjER3l6K1EbnRp+Tkmf7yuQjZ6y2cnW976kUwNEgzPx+SmJS6n0SCh4v4oO6FVbnTpDXdGMdm21SHTnqshn+zpFegUCMexUyObbLN7qhB/dJ3sYxmm/ItOhdwQqsTkj+6f1QsKZOcjyBp4vEirQb6c4sxWrck+eJcCKeUrHtmIczUIy11QNOAADTJNLtNq35nsUhupEBMGI2vA4nTqg+PffRs5NusEev2x8kkXoAEDf9YfnYKGd9UrTXz4gFZ/1Dq3VauBhWdoFMirDTeiwA36g+UOKBpxkvroFPTkAsgbsYv+CJw0NbJGrK49OgW941+DGpFjYU/lwfKdAo3UwgwjtEcDT8eL+zQyen2nPHjDy1E29HiHVoXcEKqRhYe0B8dNGnOJ8mjg8Z7zIG9EgcNplEf7TjULsoZsVQfdkf82uDErKY+v3LJ8BUBD0/NOpNcdJ++pazVUaIo/6XSHa1t9gg19+Fp1lPKWR9WaerysPazRWS21cqNL77hwg87SHThpzsYU2JeV7rghVH9kjdlYdXzlluVL9bOxZBlPxcHwkQZrYdaxdJqjfeeaWmOj1x+6w/5Nwie0msNqtebSxxXHRu86vJNNcxuvodEbOGHOBhU4gZXiqPV1twbXS+xaB73hjfrZXNAcN7r0lk/UGpxe2FBtMLysSRmmVBydgqbDG8c2OLr+TKc3wnrNwhu0Xm2076xYJ02m96qNg46jZ0aGJg9ezEpvtO+g0VHiCFZea3iv06dWudGlt3y8WTlWpvdao9ZZ9c5Gt8xuqDRCxZ1RNqv/SDqt0b6zecPtO+j6OZ1XGTxXqJNmx3NKY6Pj8CnrLc1uvJWGOsMPaHiUOJuV1xm1Pmxagf3rRGfsfABZ0zZRGlsqnlifbHh6cXqVESrujbJZGaabRKUxvQ2KpvX7lU5joFsSeeOH31MZGx1H9kPTI8NjNNQYfu3auBLX0XiNsfJep1XVyo0uDW9F3rxdNca0b7XvlE3LsQadwmB4SDvMS68wOG6Jovlj04xSGA08nnZeZM3r/XWd6gtj+9eaH6/TKox8aG+0o9QD+qKUt3yj/twGlyqMBp6K16Foh8Np1UWoeBbKdthKYTA8oh1yLKswOG6Ioh3mrKgu0M/ajloZpvydTl+82vBUtTaMrp/Sqov85361dqQvqYtOQcvn0ZZR4A4adVHrepRt0eFGl9qi1kXtso+6YHkIivZYT11wXAU52rJlCXplwXOO9sgw6xg6bdG+MyOy9uj/E52yyL/tU2vP+EhZNPAYPtXK27PwFK2yqHVHp7UavtGlrnBJq1Z7Sh2vLFju3T470lBXWAZ5u6xBqyqC54Lt27JwRVWBY2duV60M0w2nUxQsP+uKto2uP6gKhs+0drbr8TatqnB/O92nKUp5wwvaJ8eFNF5ThO3ap8AhrFRF+86K7bSlpgjecwnk7UtWotcTHEfMgKx95p5APcHyY7RvZBjwN52i8Eqdt3F8Tacodt7fXs/Tej3RvnNa62T7Fm6mURS2aKcCp7NSFMna7VRiH1ZqIpBLtXO6wMZ0WoLjn0OQtXN6KUctwfJztHNkmGG8ovBm/Wzn6PEHnZo4eTfy9n58X0185VbFo1C0N31ESzTw+IrboWynAlexUhPtOxu1N5Q4npWSCDSLtne6wC60OoLjH73Q1pFjLXot4Vu02/yOXkvcEKrNMgwepyQY3oi8zR+6f0enJGodVtdq83il3qgjwh7tluMeGh3xgo6t9p32KnERKxUR+M9cyNrtcBoNwfHvHu1eL7A1nVcR+Q9d2i3H8vQaguXLaLcMs+iITsGKl6Fou4F/0amI9p1jULb9Y7dPaL2GaN/ZLwB4lkZFbFkHRfsP3qohSnn+Oz2yditxlo4wql/7Fdi3nlYQ+Xc92r+eYwM6/cDyKYRgYXr9oOIlAZzMMMMEaginBaH/j3WqH5J9UYQw9Q6teuC5IvIQFh6n0Q+17HStWu0vdS2NVw9GTxmG49UD7/hlzzDspB+mDR+qV0KYXqWmHmpdjTII85LageHZQcgw7TA69dC+sxuKIPT6ilY9bFmsng7i3+vqATlbGArcT6MdniOnRRaEDje6VA4rH3YBwnCIdmD4IIpAbFYnysHNgcixLJ12CGcGY66J1A7TWwUiw5Df6DRE+04YHz6jVQ7tO/PVAklf1A0c/54GWShu0Q2lLN8BEIrTdQPDJ+udoXQK7kmjG2rdHpD16qAanBiMHEt66oZkg2BkmHk0nWroE1y+Fsro9YtqQLsQ8mDgI1rN0L4zdBAyBJM+qhlYvtv6L5iNV9YHFYMXAsoLHMNKM9S6NSg7aIZgeCiKgKxB5xVD2CggORacRL3AcvWAZJhyBJ1ieLXhBVrtO+FM/agXOP7UE0GN12j1Qq2PW+07AaV31QfVwsqLQSlwPiu9cPKaoFZKHKwXro5acR8UQYUtab1aCFsHJccK9FqB41pByTD7P1QKHMfPUW8JafQZRqcV/FIirJF/phd8gdDG00pho7d8LrQnbtQKPylleAGKoJQ4jZVOCBUPQBmYfWh0AsOdAwsFNqTTCTxXRx7Y9GKeOgHHThtY+06GaSbqBI5/dAuuUK9f6XTCHz58UQYnf5vWq4Sdj7XywNKHdMLBime1agV28EpWOqF958jglDhOJQRvuSuK4MJOOmHac1nkwf2R1er0GgEnDAlwy1ykQuA4rG+Ahoym1wgrn3YFgtPzK43wV1aG99Qr4Y2X640KodZ5rVrBHbybRiM0JJ8QoLLDjS4VwvSOKAIMh2iEhFwQeYC2UAkmTdOqFVyn4FL64Jh3/HtwgDLMYqgOWL5brwdosEK40aXhHfXOAEfXj+oFdVDrcpRBPp6lUQo3hArvYIcbXaqDLZsF6nR9wHNe5EHaSx9M08yCLEA51qlpg/z3IYFaSB18t5/lqwhyZJhpNJ02OHkPyjD1+14fuBYFwhzv0GqDv3w4JlAFHqfRBtZCHqYON7pUBscWDtYx2gAnzRWs7ZRB4vjTAGSBWlkZdApavhzoEznmr6gKGD4Saq0M0/xFp2Pad9Dta1pd4IBaqI83tIHVg5XjHhpd0L6zDPJgnacKGng8J84VrAIHqoJg+U13IFib1EETeKN+BpssR68HeMsnw5VhznF0quDHpEI2QBX8SKbp8Max4Y4vaDVBWK8W7uNZTcBxpToJd+MNiuCg45hZkQVc6mQaTdC+AyBgu7PyesD7yEK2Hq0W4C2fqAU8vbilGmB4Tr0z4GMz6IEfyfQVd0EZ8nK3oXqA4RYoQob3aLUAzxU7S9TKjS4dR0xVbwl542WKwI8IepQ4ipXXArU+CluBHeqgBXY+2GmuVm50WfEkFGGbbxKVQKi4D0oEfWzQKDotML0NisA3f6cF0C+FPGx4idbrgFoj+9dbwl64g0YJGNoVoZc6l5USWHk/C1yJg3VA8Ia3Iw89bEGnArTad0oEPr0sqQTCoaHLMNMkHcByaxSh66sDXmvN084XfPsOytaNLjWAca03jg19PKkBDnrH33oHr8ANrFTAypvhfy5xmgr4yq2K13e6U6vc6NJXPBtl6HKsR6cAGB4RgwXpVcCWjcJPMkw9gQoA/WzIwtfnBwWQek6cqiX4D2/WG+U//6VfBPLWj2SKf2L5AiIYZYcbXcp/rRs6PalVbnTpDS+Ow/YKYNry0LpWBNMr0SmALashj8EcpPjznCMGGaYaRif/7TszIotBj8/rBenPv+tbi+HfS7TCHwyfbuUxHLy7LiX9te5AGYfzFYBLUcThIPGfttwnFpsoAMvFMZ1jCTrh57lgLGabSOHHsbPUtaIoNOgXOtFn+Xk3RDLyD2mFv33n2dbOONJnaYTf/bEocKPs84YXxuMUGi/7YYd47Cb8wXKleKxJ62W/fWcJ5LFsWYSUfI4jZ0QWhwwzjhT9Bh7LTxDP6P298Hu1lcfyeI9W9Hc+EI8cj4g+w9M7pVZudGm4VatWLKWOpBH9ZJ2YbC35wZNLIY/HynRyz/GvKZDFMz3/P5R7lp8jnpFhyr/oBN+bHZ7RfPyGVvBr3ROTDK8KfgNPxWM6PalVbnTpK26PMiZnCz7LjWMKBfZjJfftO2Yx5DHZVO6/csvxjz5ATMlypNz7FjHJMNs4Orm/IRTiGr3/EHuGN9UrUY3PaMW+1uEo40qfrDdKvT3jkuNaGqHnOrbvxFTqRKlv4PH8d25kMSmxu9QHx2E94tpddLjRpdDnP3SJS45FDWVe68ek4pJh6rGU+aTiFfXOuEa3X+iEvtaxda3IhtDf6NIb7h+bDPfXB2V+y3qxJQUuYSX07TszIotLiSNZeZE3ul9nYrnRpcjn3/eMbXeOVeklnuXTiE2GOQ0lXsVLUUZnwCihdxrK6D52+5JO5JP9UEQHL0j8Ru+5EvL4Nt5GI/G17PTIYlPiHFZe4I2ZMj4FDqQRd97xq54x2lTiv3LL8OF6Jb7pJem9wNe6JsJaGWaoKO8Mz45S/6F0At++s0eM7Tso36f18r5liXo6wscTNPJei7PFqMQNdSlxf46aFlmMTpF3lh91RYSjwO71tLiffCjKnTnWopN3t0RqPnp5d1aUMkw7hvI+vXWk+nxbp9J+bPG6VpTjDVpxb9+ZL04FHpL2Uo7D6vadOF0u7SzfBRCnI2llneGTKCK1TU3Ya90RqRzLybuTozWXobQnG0Yqw1R/0Al7n+DytThHN2F/P3xPtxByRPp4WdY5Dh2CLNZSd9JIe/tOhkh1uNGlqHsBebT2q4l6rVsjtoGsJ4aH//dklD+S6WQ9bBytDLONpRP19p01IjbgZ1HHSQvW09GOj2klvX3n517xfsrxtKSz/BhZxK6rSwn6yksRK3CipDO8FnnEdpb0Bp6q9caxEVuTVtLDNhHLsYihnHNcO2IZph9BJ+e1JsxZb4l3dPtR0v3auv9yxI93aOXcl4jbA2K+0Vs+H7UcF8t5A4/hRcgjVuAwVnL+DtUHoIza1mIevOEuUcuxCr2U861vwYnavBMp5ThuOmRRHxs4jE7Ka/3ZDZGPb4Scr9t3yti9SCvl7TuPR/4px61SfrDqeHGfqEudyUrK23eOilyJ/Vh5IU92QxF52IROxnkujzzy6aU9ZRwnToEs8j8bn2mCjHMc1rcW9+j5J52Mt+981hWxj+xDGW/gMby3tRJ5+hiNF/Fa57dqRb7xahoZ/3KKE6NX4kRWEh4sd0IRuQK70Uo4z4Wjn86xDr2EYzUNsugt6OglvNawwdHLMGS8hLN8v0T8o8cPEt4paHhnvTP+8Vq9UcBrXdGqFf3CvTQUcCclIJS4hJUX8OktkuBIGvnmO95/OfpOwW3p5BvNLMgSML0ivXTzjn9MkQAZZhXwTkHL1wAkwKBhdPJ98l6UKfjQ/VNaL96uQ5ECeE7CHZsEBW6jkW6W6yBPgBLnyDfX+hacJIT95DthNVcS5NiITrg5/jwQWRIsKt4sX0nCf8gw40QKN8NHUaTBgJ/qh4pp30HxLq10OygRcjxBQ+G2RiIU4n2jS++4LPJEOFG6ceLcybCLcE87ftsTSMT0asLN8k3kqTA/vWTzlk+lQobphtMJ949JpUPvr+lkuyF5dxRIxb83aWU7rJ8MBR6kke32nZWQp4Jw3+jSccxsyJLhMNFm+W39ORm2qBPJ9n4ynsixHJ2X7PadJ1Ni7n8o2AzPq3cmo9AUv9NJ9jtU79r6ecxkfPycVrBDh3eySUf6smTzrfadhLhNsEs5jpwGWUKcIdp+REJGgb1pBLvWR2mxfh3k2sN1npBkKVKsk4qnJOQkMsw6mk6u23f2QZmSqT6/yjXLbeuQkvExrVSjXxo5UpI+LtYcRw2ot6Rk41X1Qak2tCvSUuo4VmK98kGWGDux8lL9p5x3IEuLteiEWsWT61pJmV54EsU6HJoWGaYeSSfV09u02neSMvWTVKNbAHla4A1aoTau1b6TlvQemW7g8Y6/9UFqSl1AI9Qrb2WJmStxiFA38BjekJyd2JpWpJOKZ6NMixwr0Ys0wyNTI8Oc/1Cot2xSJ4kZfUfQyfS34MzeOpmY5S+E2sSp0wPP1hslOv+1f3LkuIlGoFm+iOSMEmewEmgVb0SZHvuKdDC8OD2K1o0uRTo5vK6VnOklSJHesjry1Mgw7T8SzXPOWnJGr6F0Et2+MxOy9MhbN7qU5/z7frX0pI8I9EHDZ1L0LHAVK4GudSfKFHUKnlAHeXZZp7W0yo0uveV+KZJjDTqBtgLyFJmHFGeeC6ZIhinGyDOOmwVZivT6WpxTyy+6I03jFXHeaPhcK0/RwXtpKM0eQJEipTzf6NIbXpQmBQ4T6GSnVNlKmnnLldMkxzJ0wsxzyTRtyTCrpSxzHDkTsjQZIs03urT8FKkaXT+uF2TZq608TY/naIR554OpUkjzjS694ZnpcqYwdwoabo0iVfamFeawTqrkWE+YeS6NPFUWoZNkjn9NhSxVx2YeS0lm+QWAVOn/A50oe6t+Jmu8RyvKO+9NlwJPiHKnYMXjUKTL1ZLMV9wBZbocJ8mdgt5y45SFHUQ50C6OPF1WkeROQcc/+6brdI4FDCXZd0iXDNP+TSfJN4RCykb3b2gFuX3nFuQpe7wpyCoegTJlC/fRCLI90+YCGi/MN4RKV6mDBTlw0rzIU2YzOQ6Ow3oCKUuWp/dinP/YNW3mGk8nxu07ryJlMgyS4x/JNLyq3pm08SWtGNc6DmXaHs+LMcP9O6VVbnTpHddPW1LgVBoxbt+ZGVna7MnKC7HR/VJnA1ovxPkPPYG0TS/pKMMsn0XaZJhpjBA38FS8HGXiPnT/TYb5iqcnDz6gFeLkABSpSx+R4Y3ecxXkqdt4BY0Io5sBWdqUOJoVRdjYKdNnRxEO3vHrXqlTYE0Z/sotw0fr/1I3vcAkehGudU3yamUYPJpOhL+c4pxa6kaX70WY5Z6dtO/olRtdetfh4j7JS++kEWDkbOlT4HxWEtyPPHra5B1DiUPqIMArn3QD0he2lODXNjd8+D87tcuPZHrDWxNYK8MsFSXY2SgSqO8wOgGe3raWvtFFgG906R2XqGslcDwlwDznT6ECN9II8DvZdGjfSV8Dz+ny+9t1lu+hs6FWbnRp+BSKJNqAzotvrTuTKMfC9PLrlCTKMM0/lN9k40Tq+xOd+PYJrtCSwqm3pHejp1sYeRL/w8M00tu+8/sUyFKoxFU0Xnzbd7JENvAcJ79eRJ5IO9bTwlvr9loap1eR3k5BwyNSeRJz0Utv2CSRMkw1nE5423fWSKaeX8jugme10H+nk/gjmbLbvvNL71R+KnCv7Jay/ATpdEFNdFdeRpZMB9fTonvyeuTJtJnsbqk6vnFsIht4lqKT3bANymSa/R9KLsd1khkyDP5VcjsFPSfMhSydhz+mldz2nV9b919OZvo8jeT6EulU4GbB5S1fSKrTJLdT0PAS5Am1h+SGigehTKi1BTd4w10SKsei9HLLc00UyZRhplFy28DjOX4GZAnV5we55fhnNyR1vE8rt3/48FVrPaELj8ktyyc6/axWbnRZ8dzWzoSWOkps+YpHoUyqbWnkNtk9sWFVOqkNnisiT+r0Av9SanHilMgSKsPUf0ttA4/j8L4tKZ36Tmh5x89bX7eV1MfrUtvAY3h/Yp857qpLCW2tC1Am1rlSy/CkxCpwACupbd/ZGUVibSa1wXPRztp31MqNLj2raRK7JcMc4+lkttawwbW0jr5/yizLD7ogueNzWplt37kLRXI9TetFtn3nilatxG68nkZiGZ6c3FDgZFYyO71lcpXYow5Se//l5Ib16SQW7azIkju9mKW88o5/TpFcGaYZJ7Bo+QYSPLoNpZPYk/ehSPC/t2lF9tWGW5KbTovcqGFHnwQ8AmwchPTrZzWgGfMn3BFkPSHENaviEIYqTsOTcqLLiDJDAEUS8PCzR6wvzhpVWRfBoWcS8efysVJ3I4NrVXW5W3qWmEcOA0ImaFFhKRNCo3NZoCUxz7dOQuQT60/BAQwDYFIpxoI+lqhn1kEpWOhO9hy5a3nDyBWJW7EAY4V+wl+nOdeYi4QA9j7HmN/PEvn0RUTV+RHTWkNjsufzHdOSRRK+aLaFCC2pONz+/EFLJYPp9zHW/gSh0XpRccRS/iwmohL6GlkHphChG9nzotqEPScTUehHAMOwhE7c5rCjlQh7TgprVJuH1gCuDdnz6XcDzOdnyWf6NSKNxuz55pDsgot4R2g054DY8y+FRVSSWSPzwBtE6D32PK8aYc/JTRT4Hn0t55zrO7W5GWMBoUWSEI2uPIesoenY8/G2jLDnpCie3AQQsoSGUzf6ZRFcJInR6LbHyBo6TRkm8G8LiKikt0aWAdeJ0GU/jYg7qyJhz8lWFPyeg2llrtBm8cfrH0Uq+U5fkLHKcwmN1mKLHH5ddJtDEqXRRGgvdaVnRsFFkiqNbnOcrKGtFBgmGGPzCKqkS6P73dBXgnO0zWFyWYYbb0z+osB3Fo2OCE0Vf7yqkQh7TuJrVKExyhoq3fn+lyh7lgbx5EYSo6yZ2PPFTijduTxM/LX+raNkDY2U6ubOiJwCSg7WyNT3GhG6KN3538WJkhGR/1sUo6x5BCfseWk9EfYsFWtUnEVoNNc9i+x6hrJniRGPbyBvfGkddfb9oOBd0kGj3zwKELLW0DSKw3/D7hNUUkKj+2gaGs0BseffiggqeaHRpn6JUSbseUEtxJ5lafqChEYbEVOzpLrZ2lI03bks0WiNwp5Pvu0TTHcuRTSarKFJVMrArIKLyBaN1h7xxybA94WIkjWR/xsao6w74o/nVE499iwzMcoztQaNJmpjU6okTzyxntBobZHq5ugbTJA9SxmNfuMQiVHWEuz5ap9MAovI3BoZe13VDzQal7w0v8pLlDyKfF8bhEbrhZKX08unXpflUhWjXH4GWUMjsOfVj4iyZwmk0Y+tI0ITLHLwFdFUN5JIo187TNbQAOpS1wyCi8gojVb6yoTwyJxEyazI+5VFoy2h9E/aU1pESeka5aejGGXg6v6kPfVF2bPc0mglH3+853lR9iytNPp1SqPV+0l7Pk4jcJfsrpFBsdNoTkpefv4AUXIt8o4zSYyyOi95+UdxxoJMvqcNjY78UPwn7ZFkGv3oWkKjFf5JeySaRr96kGSuUN0n7XnPL5jqRrJpdI/LKptGY/Z8axg9aY/sizxjw6q6yh0HxJ5/fvhesmfpzFxRdhqh0VxJn7Snuih7lnYa3WQNodHK/KQ9Uk+jXzlE1lDK7PlEeybInqWfRne7TIRCPmlPZsKe3YfIPYbQaK6GT9rzXQER5SLWKDeVPOoNBZzufGYFwp7di2iymtBo1XvSnsdFlQuh0SHrJoWb6ubwGyLbHNzJGum7UxqtakteCp+0x63QaFrlTsWetGdMXqLckig7hR7qW7WmuplSRrTkpauh0Y1WEhqtVOOPVwqftMf10OiXDhAarU5P2vOiE3t2Uzel63qR0Gg1etKeLmnJIu5M5BoVAtMS6rPk5d3hD1rKvc0gY6UnExqtLH8CYs/jS4qmunFbNHqVwqTRUZ+0x43R6P1kDUXJnnc/K5rqxqXR6C6XiFCQ7PncB0HmE1rEzdFomrlCNZ6051N60h43KUpPojHKSvGkPYVTT7m1GGV1eNKemqLs2TXS6JB1kxJMdbOtlSh7dp80Wvmx51M2J+1xryLnqBCh0UqPPacMyia4iHeERnPCnn8oJBh/7EZpdMPlao5Gc1rysqpoqhuXSqOf30totAI8aY/7vSltpwuERiu2bQ7H2jLCnt20yDniDphIKLS3uK7hk/a47RlkrOQEUuVOmZ2055t8gsod0+j6KwiNVmMn7akoyp5dNY1GNykv9rzmUVH27K5p9EUi1NZJe16l6c7dvcg5/C5wJJSVutw9PVnE7QsbGs25mkp3Hh6TS1C5dRrdgMYoK6iSl5NKi25zUAE0WjHloFjR0Ik9q4CbfLY0WiHFH+99QYQ9q4E1HqA0Wv38JCft6ZiWpDtXEaLkeJq5QgWdtOeL+wXZszqg0XWXEhrNVQ97/kv0pD1qgUY/u5usoYZO2qM0hI+l+fg8EcqGPe98WpQ9Kwka/cVtEqOseE7ao0ZE8b/VS+YKHu1Je1QIjVYmguNviL8UFmTPyoNG7yH5jBUKe55f3SnVjSq5yaLR5wiNViRqS3ORkpfqZI37P79DaLTCOWmPQqHRf9EYZcWhUgaKnrRHsdDoJYRGq4v4YxPg+wKpppRJjLKySHc+uxKJP1Y+wseCNjRaqZy0R/3QaOWwzeHIm2ibgzqaQcaK/UlilBXDSXt6i560R/XQ6NqLCY1WA8piz+ZXeQXjj1UQjX56lxpYgxP2PKWsaPyxGqLRgQ/OEqECSl42EWXP6ohG3/cpzVzh8tnzgVcoe1ZZougfhEZzF8+eL3UVPWmPgqLRi1w7jSYn7RmZ01IKbPoDjD29EyDkvgXHf4KeIHzSHvVFo103e15eX5Q9qzEa7bJP2kPZs1oTRX+nmStcM3s+/7HoSXuUGo12w4rD7VQ8aY+iilHeSfIZu+CSl38WFWTPSo1GnyE02qWXvFRsNPqTW4RGu9hUN9tbo3Tnqm8GGSvyG8lc4VpP2vOez0p3rgCnLyJqulMaTUpeDkm9k/aoshjlVjvcJo3mHP/p+CfRk/YoPRrtf5fSaHdZ8hKftEctzoiZYyil0a6RPW/5H32LSz2Kwr/SGGVXyJ6Pp+JJe9RcjHKtBYRGuz91vb9oyUulSKO3E+HilPVn4W/zCSoPCY0m6c5nCZ20R02ukX0YodFujT2ve0yUPStNGh25wI2VvHxdNNWNuqTRNf+lfRK7LPZ8pUcGwUUUKY12UyUvjXG5BZX6pNHvnSI02jWx56llRbc5KFEaPTSFxCi7om0OqxoR9qxoxcM/k8wV7oc973v5XrJnVZi5ovo/ZA13w54vdBYtealaaXSLbS6myp2lTAiNfFBQKVga7Xub0miXku58fAkR9qxu18g2+Kb7oNGcsOdldUXZs/Kl0Zxzt1Hy8pnUY8/qNEbZlka7CfZ87qMAKXmpmkWLrUS4A8Xhv89yCLJnRUyjT7oCGs0BseffiwiyZw8JjSbseUENlOpGXc8gYw/RGGXJL3nZSrTkpXKm0fPJGhJ/2sp3REteKm0aLefq5uCsguzZO0KjOefRlbxU2DQ668AbREg2e55XhbBnpS4K/QRgGJaQaPa8SajkpRpfo+pcsoYsb3M41oZuc1Dx4n9bSOYKKS552S+TIHtW5jSatTshvWvgdOf8m3wi7Fm1r5FlQAoRUpvufGZ5wp4Vv3joBwDTgIiQ1re41j0qyp6VPo2WU/Z8+DXKnvWAaLaZCAktedkzvSB7Vvk0uv1xsoZMKhPCY3IJKg8JjeaAT1tZhrzFpR1EwR9IjLIsxh+vbCjCnvXBGlUojZbC01a+QNmzrhDNNhEhe+z5YifRkpd6gUa3PUbWkDUFYQ53hz8gqPQDje53nQh5K3lZjLBnDSIKfMfBRFXupCz+eKlQyUudsUblOWQNGSt5SdOd6xPRdCMRklXy8gNU8lKjTPyGcJtjEnVQF1LycphIyUtNskZmSqMlr+SlLqHR33KSuUKC2PNC4ZKXGoVGzyZrcNkpedlClD1rGhotM29xnXqHpVrJS90Ro9xGWmKUOWbPKYOzCLJnvUOjuWxsc8AlLwsS9qyJRH4Uo2wJ6WDPcxNUyUu12ydxJYtGG5EfcsGeNzcV3eagfWj0BlLlTiJKXr6VeqluNEyM8hGyhiSUvOybUYA9a6Q1MvW+lvwFxyUvze9oyUttJfJ9TTNXJPP2p4VLXuqnNSrOpDHKSfu0lfYlL3WXeHw9iVFO2iUvXxVlz3qKRr9JaXQyZs+Xu4uUvNRaa2S0odHJtuSlYVPyUqOJfN+YOEY5af7EJS9Li7BnHbZGhRkkRjmJnrZSuOSlVqPRyZE9739RlD1rNxqdDEtephFcRKfR6D5XiUhuqW5CIx4QVLqORvNkxZ4NgL+Li25z0HY0GnjSK3mpBcVjlEYno20Ou4RLXuo7Gv3aYVLlLvmUvPQLlLzUfmtk6ElpdDJhz7c/zU7Ys2YU+cYZpMpd0mh75PfCFnvWkDPIWPlpOEY5wQsedclLbUij1xIaneDjj2nJSyGlFWn0IbJGgj9tZQfRkpfakkYnbvZ8cxA9baX2FHnGGQk6c0VUJS/15RrlKI1OyCUvKxP2rE3Fo2sIjU64JS+fFGXPmpRGJ9K3uI63FU11oz9pdK/LRCT6kpd6lUbzRBd/TE5baSlNOwmNNiwaneBUxJ1VXvQtLp1Ko5usJjQ6sbHn9cIlL3UrjX75IMlckThLXmrcm9J3JzQ6QbHnqzanrdTCIvfoMKHRiUUBLXkZZNp4BhkrO4XQaJ5g2PPU0oJK89LoxpRGJ8KSl/qXRr9ygAQOJrqSl3qZRvOEUPKycxqS7lxTi1wWjUYi3tseCQ2/nzEhpZVpdJkp8V3ljgM+baVoyUv9TKNXERodv+x5WZ3US3WjgWOUKY2OT/a852nRkpe6mkZ3u0RE/LHn8x/SkpfaXOQaQ2OU463kJT1tpVYXZWxilOOu5KVun76IaLQiXmh01CUv9TiNfvEAyVwRD6ludrRyYs/a/aZ0nS8SGh3rb3GdfpuWvNT4IueIEJgxnCQHs+dbNiUvNb8oM5HkM45d9vxLIUH2rOVpdENKo2Oz7ZF5wqet1PU0+qX9ZI3YY89bHEteegBuStvlIhHxUfJS99PokYRG89jZ5nCjXyaLPXsOZpCxUhNJ5opYUIYJIHzaSq8AjV4eCzSalrysIMqePQQ0eh9Z416z542pWPLSExCjfC/Z85HXKHv2OIico+4CR+JesedrPdMR9uyBEKVojDK/F22PmONyCyrPAo2uT2n0PSh5WUb0LS4vA41+fi/JXJG67Hl1Iyf27JG4KU3HC4RGpx57PvgSZc+eC/Hg8Ls4c0Vqnbi9S1qyiCdDlByPaHSUApe8DAufttJLQaOXRUujCXueUEKQPXstaPSeaNYgqW5W1BNlz94LGt3pPBHCJS+fpenOPSDigeF3SIyyUMnLj2jJS4+IKDGexijbKw53P0clLz0jE/1JqZ4Djeb4XbA/igqyZ88HjX5uD4lRpux5cS2nVDeekZt8LG1HTKPxNoedqVjy0psRo/xlhEYbFns++y76m5xnZQYZK/6X9cqtoaIlLz0mNLrOCvNn0ZKX3hMa7S8hwp49K2v4qfK+XMD+P2oCVlA4INQ9AABQAAKdASppBLAEPm02mkk/v6KhIvaoe/ANiWdu/Eg2vbbtmfS3pF+AHoqJ98Afqh/MPfMoBvllkvk/4b+AH6AX/nzfvjpif5z+2/5b/hfv/6PmBexf3P/If5//H/tf6CeWPp/9V/v3+M/Hz70MZraT+f56HiP6F/vf87+Ofzx/4XqK/VnsB/qb/vv8r+Lf1u9BH7zeoH9bP2H/4Hw//6//Of679///v9Lv6j+Un+N+QD+f/1f/6/vX8ZX/n9kL/E/87///934AP6L/qv+F+f/xn/uh///lL/rf+//dX/3fJD/RP9D//f3d+AD/5e2P/AP//1x/Vb/c/3L9KPwQ9m/z2/pR7i9XCRW7u/bmZ78V8lv0g7If7H/99AL+M+ij4uXsPsQsj9lai/tP+S/en2Aea/eYfI/UA8o/vQ/Tvsf/ud1uw6ajLZkJh1jrHWOsdY6xzhfuwfNnrufG2wLQb4mNsXaa/LEgJASAkBICQEgJASAkBICQEgJASAkBICQC/f/6gZeb82Q9o/cKHLuZG2sPEMUSdJhxICQEgJASAkBICQEgJASAkBICQEgIxIr8p+THT66vl9IqT8SUlhZee51ICRRRSYnSYcSAkBICQEgJASAkBICQEgJASAj8wWh313os1+WRxIk6Td30bFp3r1mhzT0dY6x1jrHWOsdY6x1jrHWOsdY6s4/zrcXvzDiQEgRxIk6TDhikZTvmFB+tAClhdJhxICQEgJASAkBICQEgI/F6DyXm5d4dY6x1mJP394dY6yTrCmowckCUIcSAkBICQEgJASAkBICMSK/LNrRlMK794dY6x1jsGWMyEw6x1jspKRteLULwTNUN01+WJASAkBICQEgIxIr8s2tGUz8uffY6x1jrHWPeDLTITDrHWOsfPDEfi4P7UPGzjiQEgJASAkBH5gtE1XqRbtBxICQEgJAR+WXyIYwEyMtmQmHWOseMvrDRh6aZIR+me6TDiQEfmC0PB5/VcsyQEgJASAkBICMGIHIn6Kx2HSWzITDrHWOsdY65kxmlLaQ38LqAvyxICMSK/KnEO25ZkJh1jrHWOsdYuAGfeNZQS9XC/sTpMOJASAkBICQEhCrrWGijqlf2120tMAWrbri+MVVDnptmQmHWOsdY6x1jmmwlb1uiFOYu94soy2ZCYdY6x1jrHWOujxjE6qGRbAh7rCfZQUWa/LEgJASAkBICQEgIyIF9FOeXxgF+JL7oy2ZCYdY6x1jrHWOsdZ3z6cqIMBpkJh1jrHWOsdY6x1jrFiunYt2B2+PhNmSebv7w6x1jrHWOsdY6x1jnDQEXmmRlsyEw6x1jrHWOsdWFZq/A6tkD9iUhVrCYdY6x1jrHWOsdY6xzhhGherHWOsdY6x1jrHWOsdWEZgQw8O/HF/Ogki+ThVaqMtmQmHWOsdY6x1jqy2TbUQLpMOJASAkBICQEgF0vWnAiQEoQVVzASi0yMtmQmHWOsdY6x1i1h40hhgYYgJASAkBICQEgJASAXMUzQKprMQC5BmM20tYQEgJASAkBICQEgJBmEPyNqoy2ZCYdY6x1jrHVhFInXrEJh/Je8VDscriYcSAkBICQEgJASAjMV2eJIwmHWOsdY6x1jrHWLiTy++8DTIy0owIbWppc0mHEgJASAkBICQEfoamJIO0YTDrHWOsdY6x1jqwnEyPIgKTDiMnz/SbgJraiBdJhxICQEgJASAjD6WltW2pMMf7o6x1jrHWOsdY6x1ZoD9aIhdJhxGDIndlCsdY6x1jrHWOsdY6st6hlQNqXiXLTITDrHWOsdY6x1YRnKe0C4KjLZkIjxu8SmEMJh1jrHWOsdY6x1i3EUMMs90mHEgJASAkBICMFjngPjTX5YkRQ9NlS4MjwzITDrHWOsdY6x1i3EC0XLTITDrHWOsdY6xzTYEr6PZwu0wpDEICpChJyxaAW27rbmYQEgJASAkBICQEZyn0TzfWKgyz3SYcSAkBICQEgF116muZ6ZF0/9kJUFaoPmYRnEOFy3lzt3liQEgJASAkBICMjVYoCokyRvSHEgJASAkBICQEYHa/pyIxTCGwTVKxTJAtO3a0jsfFjNYMRGlCh33MjLZkJh1jrHWOrNncjnwZTSYcSAkBICQEgF0vPU1NjBxGCyEDwtS3w+/groUBAToPQQWrSdpJ0mHEgJASAkBGYrvQn9MxASAkBICQEgI/GTUbfzkQlzdVmfd4K1EFAZvZHKohDHM1t6U9LICQEgJASAkBIBflbM8PXJLsCp4MppMOJASAkBICPwhQNVgmJ0cOwRptTPj5pB5A5NfjjhX95ALpMOJASAkBICMeCKGb2aiBdJhxICQEgGN/I+08YbtRAJDUOfRnuAaXIuAhMf1E9ZsjO7VRlsyEw6x1jqxaMD+FncL3mJASAkBICQEgF0qqPF9cdBd0vWswhaBK5UDCimq01+OMKqkGQB1jrHWOsdY6xzhrKvzEEOJASAkBICQDPIyBfBNcjKCDvwc6zytfz8K9a3rTPcqm2MLpKp3kC6TDiQEgJAM+E4KvXEpoOFFy0yEw6x1jrHVhGYFPoUdYtJKJ8g7BMO/Bia6900mKTDjDqbiDpOkw4kBICQEfnqClaRDLPdJhxICQEgIwcZGsER46sJzcqMrwqB9YsXqJXrjIuik3KN5iQEgJASAkBGR6CccMAwNS3AUcSAkBICQEfg79XwSOpIaZAcCakqQnnc0+9eRRPZkZbREr4+N605YkBICQEgI/QubOOGBYWng/vDrHWOsdWEZbobf/g6IP+WKHJPO5qHJlo7i6ZhDKixcwRPWEBICQEgI/FFS+mHB0J4+LfAsLTwf3h1jrHWOaRXcYMX8YPcq4twwvkzZr7/B08LNu33YCGlsixNditOGu6TDiQEgJAMNj3R03EiTpMOJASAjBZCB/lRlAp4L1aY0yYd+/sy9krAoBpkIZ4jiCAohMOsdY6xzhqEUuLRlEyxBDiQEgJAR+XYDeIIJOIwW7gEhC7lgr7nxTNTrOOG5Zp+58UznUJ7lxXUhCmRdsyXMDpuViQEgJASAj8m4kSet4ITIy2ZCYdWE5SJcIbsgJCFyuc2/+0n8L8SmRdOOcLFSCx1jrHWOsd+eVoOt9qi1bLcEJkZbMhMOcgGBAxY9VGWzITDrHWOsdY6sblXmMYwqTMhMOsdYu1J2H93LeYkBICQEgF0vqfjtw9MhMOsdY6x1jrHWOsWErCduEJh1jrHWLhOs44j8m3MjLZkJh1YRvNkX7+8OsdY6x1jrHWOsc2g9pTPHvRlsyEw6tH8zVECvHwDmLtNJhxICPwd/BDpOUlmICQEgJASAkBICQEgFx4A3xq9T3SYcSAX5WzPGeMUpd+/k7lvMSAkBICPwk2wKDzYTDnjSRpI0kaSNJGkuh1ixB898VEakH94dY6st7NRAr3O4gJASAj8ZIyNZLNBdT1ydrlVRClDOdbXdkOhbMwbNaU8JzzfuWafufFM51td2Ogcb+ytNgqEeHVhTyLFW5aZGWzH5iKlg9y3MRhdJhxH4O6Y/+kLGhDtikRNjfMw405bQvFcSAkBh0zOtnkZhDNMDkeu5xICQEfk26d3v07yPeZMs90mHEYm1YujTYQC6ofsEhe37+8OwZYzITDm3xn306/HsJhYyV4K1VIcSAkAz4TtQXDgZrNEXuW4ITIy2Y+2DgaTQxiEupNPtlbQYQEgRxIk6TDhdHMgRjWmkqlwXZcd3d/eHWO1wdJhxGPBCZGWzDUCcqRwZpMGLduKzwiBdJhyOJEnSYcLpQgA6b4hmQqsXLH8KITDrF2/RIF0mDeCEyMtmFRnMDWb3B/dwmXjz5n8SAkBNj4nSYcR+EYxb3e6SqPo3+jVEC6Su0eBfliPxnLx34sk6TDaMy4kQ4VjDm2xjuhLvsH94dgyxmQmHWLCIgrgM0z3U+Iaj7dM7EJASAX5WzPGeMaDsWePi4H5NuZGWzCozAqGwCQEYMwmuLS6/DrHWPeDLTITDqzzrisjQ7aZF0khgzQmHWOcNLZZkgGIvQYQEfhJ5YX0oOItF0tBRypATIy2ZMO/f3h1jqwil1L+EWl/ZPyQ/fewukrRc2YgI/JtzIy2QM6780dMqijKCD3FLRuZhMOsdgyxmQmHWObVQm1xHOWIwZ7MCgRlswze0FMjLTVDctMi6Z16TLfrieFEq12UGHpzSBjlitw7rWRAN4dY6x1mJP394dY6xYS+bAWxyqmUANBxyGSxGEup+hdJhwzgveYkBGP9kksrr4VxV9emQmHWOwZYzITDrHVmGXTbIIL+JyVIIqiG3YpzbxQDiwRVENuxTmAqhmZICMwpLjDrHWLKnXOJASAkBICQEgJASBHEiTpMOJASAkBICQEgF+Vk8/EgJARj/XfxJGEw6x1jrHWOsdY7BljMhMOsdY6x1jrHWLhM4Qpl54xoOzLhxXXIUZbIaS8TkknqQYR+/vDrHWOsdY6x1mJP394dY6x1jrHWOrRTMFASAkBICQEZrcAjB7YHDnZibUQLpMOJASAkBId3TSYcSAkBICQEflhlMaNUZfqC4cIy/UFw3o2N4iMtmQide4w9NTNKQe6TDiQEgJASBHEiTpMOJASAkBGcD3JdJstYxoOzLzxjQdmXnjGaMThe6TDiQDOC6ro2p7pMOJASAkCOJEnSYcSAkBIBce5K8fOeN50zLCrK1kYhMOsdY6swzKFBCZGWzITDrHvBlpkJh1jrHVo/gGFfc+KZzra7sh0LZmDZzra7shz739fOl/LEgJASAjF4AV1tRs0xNxhdJhxICQI4kSdJhxICPzrp+z+oLhwjL9QXDhGX6guHCMv1BcOEZeQd0mHEgJAR+hpW2Z2fMOMUMQctMjLZkJxljMhMOsdWaHPMqSPw7MvPGNB2ZeeMaDsy88Y0HZl54xnfctHkYTDrHWOsdYvHpw+m9S7gblpkZbMmHfv7w6xzq0cSlugN7oVRl+oLhwjL9QXDhGX6guHCMv1BcOEZVBFV0yQEgJASAkBIBnBdV0WAkBICbHxOkw4jEVwyj90xE6jLZkJh1jrHWOsdY6x1jrHWOsdYt4IVdFgJASHd00mHDL7HzjQb3/UHYvLsIy/UFw4Rl+oLhwjL9QXDhGX6guHCMv1BZOsdMEBICQEgJASAkBH486gW1ERZsuDlpkfRItMgOE8D82ZeeMaD6xl+oLhwjL9QXDhGX6guHCMv1BcOEZfqC4cH9kJh1jrHWOsdY6x1adu1ALHDqDnZibUQlqWEStI4PWfeRASAkBICQEgJASAkBICQEgJASAkBICQEgGa8rkonVHv3sGJPwnRxOOHGqMv1BcOEZfqC4cIy/UFw4Rl+oLhwjL9QXDhGX6guHCMv1BcN8OMHN6IF0mHEgJASAkBICQDOC6owOfzmSdSYgMLtjcVkyz/uV7sx6sRJwFYU7d2ifY6x1jrHWOsdY6x1jrHVmGOEJnKXDYrfzScy9vvq0w4kBICQEgJASAkBICQC4AA/vlCwBO+VPw9v2rqWoYk2St0y+p+bUaeUJ93bvQPxuIgoi8MwkXmu7O58FRgTFK2UjmUjU43lm9qLEp7oydwHj60JylzhC98Wv6jhUG6EghcH8eE3HYfZ4yvGULQRXDkHsUd0wkf1/D8l9oBY41/eBto7jRaTT4nq8A+z1J1ffG8csz+TpzR8AGA33AfzGghJgAAAIWsKXza6R6+ayxu90+OLBIeDW+sTaaFgm8WF2brHCcrLRrcmxAvZ6OErIrtidZqiPbRwzQOMbwZ9/yEecskw7dvyQiPyJFHw5X3W9bIJ7pnPCh3bfKowSHHOIaqro5iLSTB0Vv5IyPyqszFq3vCT/L9v9kG0RBfrAcEuea++QLuK1/HKQyPqYrGBqh5/LwMgAADvYgz4Zupn9nCD4GVOy28vXEjuXT9LJWgqulsTacRYkFWtu0kZOs/ctJfaPHZPNzf5tAeoC3cA4NGVzH/92uiEDE6/Bd1pzFYpXOnw3cAJ0A+myvju7fc+5w/XjboWxQuV09iqlLPuUp8CvQLsDKnBJXL+uZl3vvtJv018EGqV+3lAuQco3pztFuJy4UaR6DrIPC5+QgAAJ+ms8aYpH69Aa3J9Qj2Lpb9ejaqawOdQBZXy/ZLH6XWgwce0YdhE/jTpWOlOZKVS2QuXTjU0JoYLTUSxQnpZg8jFcYH5uzQAWJQqgXWNXCMyBcPs+G4+y6ivNJsvIf+GXDHOcB4ooJAZ8n123CWdLswLlqrWSaa4pWDYjUlVeeN7sl+MG9QawBM7kQgABrRaPc5bNlGzbrmwi5hLqjdzff4NI5hMycK3kPfcDQu605iudDuJgJlTIFrngz7HULByMCZZvQbUxfmqRL/4BiDxjC4ISkDyeDofKQD/W0mFJRgOEw5Og3HYtLAKXJ7Pi9wkT5nIz2KIpRAeVrqQ3ukUipr0rS50upjDkmWPnWL1Eg7uQicPTOzgS30RLF7FjbXzgAE5LuXzk2v7QFrbX5JR7w5Oklzy3ECqZ5Ne4/j1a1EJVrOZrleiuSHgJ2R5J7b/3bo8JFgxNbrjDpRgnv87sIQbvEgqZ1q6TAhBwqT9y+KcXAhcdrTN3y8l7dKrR03jDHdr8OS3XuDEtUMtCrUlhd5lal///66sO74+oytDwdtqTjE1YXE7SPraZD9FxAQuKckAK6OtRsDo2SxgQmYPzNpEH53eDT9QMTY2WdctpXMk5U/lq4HMFOxF/0rLt6JXR91n5P3G7sZR0oOf0nc/NmdWnihXt56TcMCpREwAbcZFA8Pmy/r82LgHcXQh+SQ+TFXBL2zVA3kL4PKIpQS/tcaVFhCMVCmv4o62uqRPxRngYgL8JBu5A2krTAbg97tY8q8hQnAcmeh4QA72IM+bWq7wzCTVRs265sD6frqwU/uxy7IN3Q3/lhA3K23+gz6Bji4Cobfaim1vzakR7jHibpjqsOws9yYy/t3RX6LunwR7otQGT12h+tAAAy8lBWGKCQ+bGEOT31M6rIfk02QTF3OxocLYCLwPYUNEkvuuifnTOvXX80YBGbQiET26WCoMiIlm1FRKkMTmJ6/N/klk7dAdUFk9zwFoHoZQA4P284Vumm7N7jOEyCUw5gR5W8k93/rsP3NVtTPuWcCvYu3aNlZm7oIRaYhTZs0CfWL1shMaBAAAIbwZQjQjFbCEPhl/bYAq0WIyTwyfD85fDS8dRszyXM1ULt7CkwokybjiPRpaTRC8nF0h3XXV1rKCtWUqF4q+ZwAGL7mL/y/avZyBuRaPc5cCLu90+OLBKuYS6pinKIdvr1Ch73iaS/cSVJ7O/dQq13DATKtPlGVivY6e5/go2ozwrMDGuer+Zdb8L/XeVzbYDBGTFX6zMAABAtj4miVBIdUQ9o0UVeSq+n1F+b+TJqO3mciZJR7dAw0ITgI8/sJMSTvBSwdtyJJj8XhK4+xWtUT3KZcl5sk04SATzW15eUu4gB3ZYiSAAO7STB0UDsrqoyO/cZLABisjF5I2oSQOx+g5HMH0A8S8HY13BVvdURVqXLADsPtnqlfkq4bcsXcdas8jMJKkgUyJmSUe74jsX8lPRre5+VjwvkivZ1GreiAlYJCzxr3LbKVFjUw0U5z2jSJ7VtmJTCtM+MEKOqlyJk4DL5RzYmAAPzXRQ9zk5q5d8XiLjRT2QOVGmpoKtfLcLgiwt80ipXZ/b9H5JAoWgfbvR3eku2TwiQayMDMqBoHT4O4M/R8QpGkp7wDI+z2aVfex0d62YLqxHGXGIABbmC10RnjrQCT+hUbG8G4+y6pbdBulUB1RL2P32E3S8ZMwmYogfiHQx7syFRlyZLRf60EcacIKq87TRo40UKH9czLvQdYUz9tjpxuifhvLe/G4tV0GYaSEPHZDYjqV3PRTzKuvtiEHV98fRq9HdQENJoOfyf4Lk/cbuxg0gwa3gHLP5SUGTAtTEobh/HAAMCNydAHAP3ybt+JaDOkHeGC9TwIo22WYEhUeXQgv5YB6vpTZIVqHuEMgTFcCDUnCOZTpZy12N/WXVQq+a9g9Tdd4k69gl0lXdrsbNLNqDep6scAAH4AJ3/HE2yRDCWIJ93ClSq4DT7t3U6eigCt/VWaPWAJw/AusVP7/J43F87ZYg0zpWC/RGN1b6Xo9L/pjxtFRPG+ZXC9b936+9gcH7khE9EJ6ebUc7CJVsvOxqzYPe+SFApcsrMXyYAVZ7YMkuDnRGnRsL/Z7TwzemSQ26uI5+a62sDymo8wPO15TsMOXMQ8Z2MudCl7I+/FUsJ2OfCbfecKa92xfCFLFuj5XUBuOwc2ZNiybTafIJcaNYwABWCoRXnHbeHe4pdyg4N3lDxx++5oXY2fFJMAOo/oWIvpiYC1h+bO+CXRzfOFt6z6v1oiBnXZF+7/tK+bWAAvRCv1uOMMulsC4QF8pBuI/4mD0+PWVMyq4sciL4GdsHYP9bCX8jhoeWUplSZIAAXWyoxNhQ8VzBvRL2WZp/0pbp0o9Zawh0A9JIDta8cEB68xrwwI6ndAVC2r4C8bzor+z3M8NL/6QoUE5Oya3QMLuYywNfaMqXONoLCKN4rzoYjnUJ60oUXqeU97lYzR/JxDJdh+5woxKAolIABN59CA8zsNqz18AQLanqik5eVnv9BdyivGJxIbmlyQeQJ4fUlDX5kkd4lduEAAglNUpzoWiZex1GSnq/wOTFcDsA5bB7UPqumA/TVncJ59ZqQdxwjyY6uPdpaFZWVujjjIYWQDxjPK79NM+F/7aTr1lo2FqIAbkHe1JmyrP44hiq5QaQzQ0iZXmgeNdQoLd0DM1XD1eiOPNCgOg1Zbzv4dKxn2L2A8gmrN/B3SWEl+RenVG0zIBkz9xznoLF6LZ/Zdj3QDi+m7CnBsoZ3IztOoZiwso9Zh5/tAJWeSRBzf/Q9xgU4j2CxbGlVgB7h+77/hIWuxw+VHkh7CZBbHqUepik8Ku2GsdExVGopsAqwsYUwVC+Nu5f8twpOhsyosGM5SasSRuOr0F84X+Usfx7DqSuV+iEEaAkvIN9VRADTdXxIblWqjJj1oi+CXwaF0YfkIIEATTn284CB1/tX3dYOvKF8VtNvZ5bPWe/TvdQAQwJPaob9YUNjrCIp7NzsDKmQiYh1KDwhP//cmh1Yty642JxRZAByyzFRpr2+atvt3H5CojXXxtKaBJB28qACzGXhkPqI50FmDRSW4KnzXBOTPDXAsNh8xzWFGkqbQ+r7o6+8g7uiVkFPez15v1i3CHHDIWHH67Z2XEAH5+0AVUgAY4ciDRsMawPPp7FKlT7GC9eI/bfgOX+p/JSQlks+vABKXR+Id4D77EKFvpe7Af5IEpGXFOiwlcfYrWiLQj2AC6EZGZzUWXnRFx3YEbDSZun2CCHpyd64sVPsvUk1r1b/6XIX85OhoqC+f5CodfCJzTMcdFYtfqAAGKYNbMCnW0tsvSfed3cKQEFPIsNIP8/BNbgFKXSCCB487TilwACw2XK2uIHsXTAV45870g0/Bl3/Qe+65XQRDP+SK9fJ9OdbNBOc0g22xEJCgJWJWzVZeSR6zoxYjxOSBr57GooZcOBeQJMMpT1Y6f4TzfpIIALkwBjaki77AjuSnCN0RFYamBaPscTA4AxqgOHmI+ji2+mJO8xMLeSrQs4AIoEVSGc0r+jMMELgkJ0/yWRmAGnh6xwCmJWp5Eraedp5ZWZQ2rum0hY11ImIUSJxjzjtJgoNSd8QA2OYYtFMd0EWVyqmEEOtl5sk14xf8OP5iPE6daCrv73aIuoAA0L0MG/KdyhwSsK8VHPai317XzFvhESTXhe8p97IDICEOnEwB+zF7uWFELdwsBwOjDcsspuMnNAr6W0lcuUbpZwaHytHgTxFwXl4Lk3PAHwK1xs+iTSoSniKl8aMNILaCRGAze3zxjKdwI4WPR/1vYYU4lcHALdh7O1s82QY8IjDz6D1makZTpa164Vsv9afnv78H0AXj3fAAf/Z9/FC5vSee86V9Aj9GpcrontMTELKl+7fjRCLilnC6WaKYjCB2QOiEpUE+W/MIJVVAcyFp9405qbaBcz9RTQ/L9Qfuc25ZME2/qpdEVhT7AHVHNqTNlWfzV7nohZgS9tlaVZiB7K205RckKNz9I0oAGF+fXCeilBfhFi0AtjOA+eCbcU5iK6czNpA+uCoco4TMJuvU43kNfjLxBt334XxuRl/yv6RGXieBVycg+Y4Vm748deOH6S54DVDMjr12bqIc7E9gdI0bXKemKlGr6mtLU8VBYLB5e/qk0BVxPJjDVh9+iL3Rf63S6IXp+FQof5jGPk/YDIE0wWOmEv0KnqR0d9DVx/Mc6NvMbpFeZZcGQk225TgWpkvgqAZsVgEZY48ZWNcO5vUAkN2jDf2kUbIc7vX+A9oNdqHzIBQBjAlkxDYGDQj6O7vQRxYSIWHmSiZkvFhnZSNQdobOeEWvJDxLqRpRE7+6eXiPb2ZWh6ihFrVqelcUkDMzLc9F6oz5sa19hutPoGPLIa+oKoeGf11O56Q6vBopxjoJ1ISeRTtlvl38TVgYtFMd0T8LkpfYMKQT0eTzg04gdnE+oRIrc5CUrYhWAHD3cEGCCVw8yD8p9Htf5jwXhABHBaevWRngzg9bhgBG+DKEaFH9RXydlKDiCkr371s5tC9ROKd+y+3j6jTQQprd7NLFQ4Np3nOsWAcf29Yix9vzj6uFRyeLii28sqpQ3nqWD2kZCPNlExD0z24dQjhjN7BjCkH9pu42hAV7Nr1Drw0oWRJQZQpc4eJeG0jQuTJJ4Sxzgq6uZIvtavK7LfDWvBBdSvvIY7WRceURB5GbsBrmvqPFHbHPZlTJL4t592Bx2143+aBuGncaoHNA6fCE2gQNpefYWBYAWQ0HlRGZnuPYw62B8RM4+y2DB+Tyw8c0q9CcfwKCvLr05ofjy1zBTkiHW6Ym/oA68gNj7dPkWwv9wuNkfl50MEXlKZDAdg1V7nVmHn8XS26Ggxp3TEkPwR7VMBVDTkjfhnEcVFW2xWzeiMHyBmr7/6GxZGhhft5yIIKD7X16vTTKAXXUnO3nDnH3ls5o87vFgWfMPFzFKjTkf180Z0QgyHKGJ4stn76Pvi4U4RqoDRPrXPzGB96rymOosExMMXXZ9UgR9ByU2yAOdTDaqXdbFUWhYvxzn/iJm9uzMeyyjev9lPvpA7jvMJPECL7VwIJRddvHIhx4whq2ec8tC63bekGneFjrzVz/ypd8nqRlXmmWllLTgv1HavCt4EegoQ0WztH65NNIy+WNIbmDWt7Q8Tp8eabap+5nium+2J3TLmrOrYAn9cwRMsG1wtfQ6cnUdAxGO6J1pieNF1N99qoZm/gRH8Pm7JrGH2YhS4pyh8TZ2FIOSm8jHxZgX9fC1JV5GPex12TaVhVQ60AjMOYEBrLx+rhu1s7WhTR4EKEWNdga69gisUClkw/nZ/Fs2FIaYm4CHcfqV76AYgMJvaeFPySSan17/pCqvlKb2BL4Xkyd4KWHyF46mzIeud+dG37SnUQwZ+9ZH8TMon2uawO4Ku8HfrXMERXiCiPZ0U6sX0S5Q4qZ/y9itR6qaGrs/VLl7xiOAtdKqYKNlJ+2XojqrA1GDptd9q990OSyJr0+JJ1vWWr4KW+aNMVtVn2hQlxKr94CNMDZ9YkBggVb0RhDLoigYPADRWDpQErCvFSDcRF+3JarxheJ5xqKLgeeQOMWA9u2RNcOYYpIBL8L4fyLx3Ckesa1bfbYQ0By1orrY/cz8jGTGihzw22dQRf6LB7CYtDE/w3/wrMZF2AesRDAPO9GBQSk9sE3acz0ut6FGfX0mB65FfJXapRMVMIdROI0yXpqBpBYgOch39Wh21E2nViNOA+GTUFNm20L846PaGxqYpVWMPQdGFImjNxdF8r/5HV2/YOclWzSow0+Ez04CugCOoiCgC4ZTG4BF7rMAht/bwXqqKL3dH+naBM569gqa8Te0aUgof38OrQG0rn0RMvWJ1jlE0ivP7HJjfNDBoYrbBQoCS0E0PcB3hp6KCLnjpgOTY4VQud4EUOu/jF+GFvklNuDBY6E7oYdOXCW1tzVbFgE7dxz84c+9ltUQ5fu6YBwcN+p1QZN0cwC3lHMDvmHIoWlZ5/XoCX3BleZXPBOckmfZhVD/xAUip540f/qFyYrdszm6DamjY5UoR+2xhlaQv1ilqxlwoEuLOtH/TDEYpybx/b3fOoSZcs2V4ag6hG6tILAkvCiiFmALAKQG2+vrliQtD6Nhf7Pp3jjBWdxteSoKrME9AOXQHm9A8PH2tuJ/A9PdiEKDXkuPsoDIILGLM6NbF/r2qFUN1XF90E+555nSZswEGiHmxh4Mm5nQI7Y4m2U0E5h1nxjhMchiKPMD62gqG7Tw3QHFVuIlNZY77eFLPFreRt5Y/RDIrxkm2gX8xgwE+bhFVTzf9DedBVjGYET/W5h+BpXHWgjfkmBNpAE8/RcbaFNE4LwjbbUuMixCaT26hhEdwCD1cPPg3L/Q7plmAn96KHdRpQA19+brPF3zCy6Jr1mF/3tMB5BNWzfjBXQfI2De8xMFF/IyCQMKgRMpaJYlmmNBUgAIQWI8KdXBon3d8zXBmBswcr7gCwBLVywAlqZK4+JOz+cPiaJzSnIPLrnKb0NmvwdbcCvRv9C2fjS8+QYRwKvshzK2xLrCKutwGLjFyoNa3qbtUKN2w0a/Csw8ylHDXnjE2zAMAMcrAo8vLVt+sRVErcnOcxzlNAPX8aHD7guW48CPVes1yHlYESpD3F49fqUdGtXvLTa3I4f34GqmMAkYt2iJGyQE523S3Fo4PVO8FKp23s2VvmYCLEYma5UfOcpIVu/EZQGB0Vll/Q/36KJ+Cz8AcT7iE90rbYzM3jweNRj8Vesvm8MKwezdRxIaqOKapnri12OqrYjJeGF8iPWQ6cyMSkql09g8/L5UB5xEvr+X4jZdUkGoAoN8eNSKSaS/Hrj7ecA9FYBPBLLZF1fAAZWoWNXLMJAOSbafRGZnvOvfUflpxRJzFYs14uv7x2TgTbzAM/CHjgBoxPDvsgxXaZEGDPHK/Y3Vvc2xUptSsTBCJcEQv4pTs0bQVa+R682ByyYhsBg9BISKiSzP+79t0e/RisHmYzxIP7TdxuuZ4foiL6gABam7YgJ+hzmu9ZFt/t3BYXTRK/6A6LXEvDaR8pnY+MeOMFo5SPnMl+J7Usf+2Cg8QircOzu3oFrwWCboIl8kKILotsU5FHsZyfxmuYSHIHnaUpwhljeEON/tNHSd72ioAhYYjmShmki99Kg4X2Asbl2bg5OHFGVsv9af51q2GOA0YeMcFh8M5SP6bVXiUF7tzxYtALfnwdn8ya4yOCrV7A9Rlz/W3Ka+U1zUjaU2f8pkXdPoErCqZTp+Oh3ZjKR0bmWCYZMI7JsMGUXDI95bHqbExHeqEb/XwXmml1X0GBkzAKhek3S+oUjeDO2K9XI73VEQ+hRFR3pCaWdqgs/t6kTEpKPyy5uHvw/mO4Dc3CFMTLUF8/w1z3jWpV04CtSFA5uRgMV8SNp7zXZ/DipioKSc1LRm7caBxKhLhVwS9yklMcFwhEJ9xgFMByIJuVyAFJ6lgFkhD8i/lZ763yBhOou+C5ATxQ2K6jR3Y7s5rnUap7PBEIW92aE4COi2/U5QNMEBXgXvoxAX6SjANprtHUmIzeEWpy5MW4ge58MOlh1tmtd97bC/aZCw/gqWOkpp7GfkO6zMH0PE2nkA7/PIhqYR7dS5iSSQXvrfl4uXktiI21+osxHIrnckOlb9y5eCc8u1BA3icZgLCKJPA0tZaezHxeVbKwGOdzuMBTL5//qzqYIpTZa1ntPTcSpVi/rwliRQ14LSE9PSrHYswCBl1QcOgfPFCCiupylO5dDc0HeDsrMnq78z+TvCxq3ss+culwK8Y6QRUNdVPhpoVseSvIP1d3JtVQXbCfl+7nmtK6pV/7I04j4nTSYjDZEMIlzEJY7g+4JbzuaLb6qN3wBrOdPzVxLpmlPqamxWEgurvASLc40XUyeTyIwZQxe3mWtWT9E9OBcFKUs7Ryf4PJaugh24yDChgctIyOVCpmtl+7FAaepMztvxQNpCCJlhgVUZwUU6dyXL8y8HA4kzgxjJz4peBLWGYHP3okPBJ/lRY3fQqWBWSDJhUXR3Rt+qSTfLtDdFIbM8ZsvszSRhhZz4baYjwLi5X/aVZLBJWAKooE5RFPEu+1zdOay7vg6Qo1GjYJmFzwh4cVbQm+29GUsGrSeMozZRVOkqNN8hH5ZnKyZMLLEcNNHqri4Uljq9mFAh1Ec89h9r7QnvY1I7NJzS7PRFVN0YTQtTs93ji7L1dHja4xpBbLFEvrULhJA3kncloLVNtYie1Wg/H6ZLLZ0xiaZb7Y+WwwAv75GJ/TDEYpyOSKMDAqMdCt14mmz7odWmKnAugxN2LY+bg4A3gXt81bfbLJtqa/rZUYGc4MiGf8kV6+T8oQAc33mlLIzs+p50CAADQ4x7Y/tEFjvi+Sca1txzzTak+LtWERetNj4EQLZ+u0ilX5mbBGCbgMnvj5oRo1c7mWXln7KUD+dSleU4ySkgfG6VdI5GipYO3hHmc+dMA1LZWAsChmep9mbzAPWECOHZYFDtVe8wV6CXMUM9A7r//wfD+L7cr2R9IGSJ1jACH9kLXEekpH3Fow3wm+lHeHSw+4T4La+YAOuZIhF/tEdhnKxzTdGUDpIfcGp925VFTVzDzEQSYIL5cJz5l9nzeEiqUBr6cDnnc7c0ZE9vVxdy8zlJsi4ultJXLV1dF1zmFBTur5xHN1Bw4AGkpoXIoJVY/gwpBhvtxsKxiQLNfHNNkdBexiolyXd9OUmiVVgEqi0DsT1qdhkCvDes1nLYLYoZub/P1Y/TPIQDt0YCSsIXx88UIKK6nKU/wcIYlXyauXGQVtUh4+hfi4gtxuDCdgBWdHLh7nJEvIADEyq4Uy39avnbm1fSquoWLvDCARhXdBntCca/aIVGcC7+qkvOxqC/I6rtNgh8JpQrHmKwtztFHxK6QEt/clA+xiqB4MQPs9EE4Dh7iwuQbYJXGFdjbinMRXUoWqcD9rjAoXOTZUNTmpEfY5/cABUamZhoAqji46fZwyaDz0zxrcx5YTMwvs5CIfOMo6NYiXn+z4LtXioZMVQuxRWFOJRPdHQSgdLPiqwgZBcB06ZZoR+J4UW0UdJIJ+E8ye0Zgws1ltalLKwt0fDkbutPxON8QG3kqm4X+4YEx+vmLEbCvXyybJCn0Y5mAAAAAAQCrieUU/T+E4xbCkV3zzVW7KTeTM9H9N/MJ2lnycNOZzAYP/b9ux3MqqkGClcBMVdvZB77hNa3dtGbMHUb+738N7jURk+/dpxS4B3m92o/ZjM215oXnpiaIvtvc4vcf4ULsvNhAaqfW6HuEMfNnv/JdiwDrBvIpsNnECZV7ZhNI9Y4S1OqF/t32EBMMa1QTsXnAwek6QIMetlAXy5vE6exNdMnvF+eCf/OlUuCIgRd8ptuS5upMyS+qIV0T95DwGIhh5STD7xLEHN5tl7OXQ7rnCeBMfRtPbvafcXXzU4+8SL2ZYdsw+7q2RB4C6tkQeAurZEnd9lEO/I5vgmy1hcGNl2ywCdhEuIJgYYns3bDFO9xjkMhA33ihhDGRlPQEdsh8N36UebKRvPLQbCWooZkWL5IzUJUXnNmHdQQ4u71BNE2DJLVj/QKGBJuY9ZT68tKGNEwIdqtiLKvkw//WPlWCx+Xm52R9SaUlZebEFUy7oI7evBtQjS3yoU8E9L4CzaE7RpyapaY+9MYs/tREt7G6DL/8tWgJVctEuWHMbGY4yjCVzLBmPol8lGCG9Ypdewz/kd68FmpqaiGZXdHo3piQAA4XM6ZPxUncw4tGG+QAJ4R1hl/e/BMBawCHkJP7Wb1PsFm3ONF0ig7xNIfadPb9Oxd2Y9eSuIk4VrbriMPxiFlcwpj0EcrMZNKYFPrxrnihoaBjpY9oqvwBiNNgDd9dxyFFXop9ZTJ2STr+OwFfJOJ0AchDrxSPgexzSQjw/TYvszzmTe6Sah35t4k1GFxTsrZbUrEIOKdnegovIJyrMNl9MrB3YGJEekQz3ckhPyW0fhic7Cc9ifHBLU6oKoNOIEj49q6F6b21A+J0t2TsIRI4gkle560QoDgAAjC6TvkJYOu/+szVNfjWauhL6jFnjDBkAnbG5xkIPuDK8yeB2wHOK2ZQnYaykYxswL+vhTpoPz0hzQRL6ZOr145UNqizyk3xD21UST27DxmFiCkUbpyB5d2CU4juKFmXJI/ZSPZk5tKFGFIEdGU6WteuFbL/Wn57+/B9FDz2Wy95tikTK11YyqWak/p06p1gf8WUJd06oaDeEkS4557Rm9gT827PtTsxLY9+g+VaHrU14Xtnh2sEKD5VIo0XDhSiFhR9yxvjM4TFbq7tusB4vOCQ3De+luArIPkTVdP6t3CRWQ0ya3yo5qK7hZkVsjfxs7EgkC0lTgAK4t0g+8UJt+bOjcCbJHnGs9WEN6SGn/kCHBBnEIG3Wjlz8b8o2P/+q7wYjQq8BiwY9lbYv6IllWrwlV4ChYvlbAXKN/nwr++GYLqjTUvZpYpo0iUQqOojftEy4fjt+P/4mwax6dMok536YTGHJzJI8bk7utsgwI6QIQF3/Qto+mC/h+SwyRxVKkm2z8FnLJvACxMjPOb/lgCWDhQEt6GftugUAKS3ZSGMErhG6jF5mzZ7c9tYz3Xo1F0d+BRmFQcZ8Jh4Jh1ChmimO62ahh3DuP/pJlnsWRzVLdto+sZCGcWfqMpVlJH87UyX07nVnrz1yUh0e41whKsUjxpWCHMgv2tVNmnNRZLWi31nJWXKJEl4XOeksGhjOz1BT0uoPI+c5WjJ/nxhsByAP1WJl5OhcwGmdi84Hc9fneW/M6iO6eBayA6/MkdyvkGES5h7n4nqo1qYMDbAD9wfLtryObqBlM3/Mqf3nozuxZgXfVVL7hwwjJN/oWdkZkV/fyqD0Js5HAB9PqFsl6jMoi2Fz5Fpk4B7MjyfgjfTmlcAYytGGOGzEwMFF5ibvzkOc4SSOGxVJp486p3WDAIBrook89Av8+WjwIVOP+FVxWHPcCh6G0el9hlIhJdDnjUYuUTNTzqfVOp4gNxQrjzEO7L3qSkITT0KUW9wn3uXZNB92coLQpL/vC+Mby232BWAlARyu16d5JqaiGZXdHo3piQAK0+6Qnv7DEtqbQAScbeb6C+xxiLrLTy+0NiwT/r2QV2lx1J7yomleoPVJk8h8fSfk294ihNLXS6YmjOBd/XXL3Ojcjjw/eqJvjDhWnANK/083A0T/C4kIcAEShA3ENhjhmOJ7+8KjYOBS4CwlNWT+pWthVpq+Hy7h9GGwbSluZHX7ep/50EhZoP6WF0uLHHUN4ZxNfL6cYfDtYNluatEiL6f/+alIMPXN/dS7HHw17Z2guSu4uXpL8lolG4AAk+YzxzhZlpFZCHGlqiXqsNcxlJqfwcegYIcV2LXjjcWU59uC6m3HPLjTALSVOuxHX+Rgz6vxjKUcqC+mZss84+pIpguaq3ZSbyB5Mdy8k8hiQeS7heq8tyNlaI5FtAfPh9OuIlWstk7uo5CwUxL/SuaXGrjBTWQO77OUuKcb/3XK5GI5gEfxoMOPQQdbE0F5XU5y7uscPz3xB6RlysVBmseGYBa7gmmvzltkijRcOFKIWFH3LG+MzhMVuru26wCvpW2vQnEGXWEbJ5866AFeRGY9yjqLCfZEF2YaKNfrQq2MYMHwSA8SiwEz0d/JJcRDX2Tm7zy0d0f5OjFmOhzOYGEf2O9qNKDsWdWtslrnexhNqkab04erV+yXCenT6qjjaAnSoQk83B/9BhERxtW1GLjcnQBygQ/sP2MP+XVLHjohfxSnZo2gnOaQbbA9X0pskJhGCjuPxRBsmeeETKeT+KPX7NFGjuuylesDnq14eJ7HLOwTWsGY+iXyVUOM5I4gB0VcfHAc9zelH74l0f3RJs6S7/myt5awuDGy7ZYCjMzWCMESWP3gY2BmUFGB3Cyb9ZPtGi/hZJMyV+kfJZpGRyoVP5CPwqzS5BhystfJQbSOIKz+JtwBPoa7y+FzTCqcKqz1dt3yrmeyCtXzuc3uw/ZlksIgktLNE+aYIc0YcxurWTLEmhzVTZACf8kSB3JJcMi8/nksUwXD/Q/JLCRYDLGPjOBpTdXZVEg8ZkFiGtSoqkOZdfkkZN8FVpXrPJe8EqbSOiumxo9VhHXCRuRZVioJA+97nl4E5UqcrNAib88Yd04dbBz/Uybce0Bsw0V1NNfWb2mQChp4HQ/Jb8s0w7VNxrdcJAI9ZNupo4LkpN+mgVWHo8tTSXM59BLGaH6ba0O8rxXsvL4WDozboDYd+S0SZ//8nx0eIIYIBWOZgEQVnHpF3evGFn5FBg5pllRbt7HaHDGGFc8su1Gcq/al2Lhn77h39COrkDxewEMBVBYn+yyEACsJTeli5Ta0tB+PzPJBoBg8qPtiQ4VecME1kBsu52sCLeUIFW5raRHkwb2wEYfMTe0aUj34c9o2pup69sD0sQAAAAEkDFeNfqsgk21mASw2lsNXIZQF9vzomiwFjm2FpwlP8VT7Leb9knl0cv3D8ogpImOyG8p4a6lVJsNZIEc6iXXUwqpyO3dhACd4KXuWJGrYXg9+dNODTPUAVaey+0erZfrngMq/Dkb5Frq6HWVZmLVm3mPkF4BeIygLgW66IlsmPVHsqS0UTmBZSDPC8DAgSv0d3QqmtQoP7WNzP8pT04tHSiKeAAABj9LCWUfwWmXoZvVlXA/f4cW5toNI3spSC24lSKupukQlpcrA2HsBZJ+yA6yznmcHVDLS1GnbLjdFjIoNxYUxsX0b2smx0KRzsyhY8U/BVAAAUoLAfODmQlKCu1sHLEPgdkI/9jxxINaUxD1dQ2FqfEkVWQ3AxJdYXPsWoa1iY2ltfIwjgOVLVz+/cVO7zDrc3axq37fd/50lAqXuhgDjeTzqleE48RyeCbaJmEXV4QqxZ2Q4H0z8WQAANRnEsdEuOwBRevPajYHzGFkCAefR1qMJaCaVv0z+6NV8OUcnpXNDMX9lrv3/xzREUdFAAGoNeO106+874Rbrh6IeR+V5FhmAAkXshFWA6J5KZE/zCEl5vqk85Jd6AAESGLhqK0PdA05fDt+QQk348+buXIVzht6wu8xwnHSB6PJB91vENDaBatFLdc1aOV48AuhW11ZKFRoZKQU22gM3R9Pb9/u3tZtTjQCHZmxfRv7BhRtC2taZAwiTunwDIZzJkK3/29OEUs5mbc/VudCCtAwABmMw8jA5bMKcyYxo7wuWVrBRhJY8dNiA51GqfD+dMQhWFvfwl6ImFg4R+rBlsGV97TwBZMR7Cm2EyOCTDsAd4Oo57/VM0fMX7+HmwLE47L5gVsGaRSNUbhQbjMMTKAFa2EXAGq4jEkQraeGzikhRYOxvG9/anSQAMfpYSxkByDnR+lTT0ytTLkK5ythxL1ch7687PoYbCjB8U3W9F3uVd3gkYEC5W1VfgAAADBOOz57u8MWYytfqhlpajTtlxuixkUG4sKY2L6N7WTbeimlAaSGktO+AA9wD1jYX/cucPDyD311GI64EPqONz+KoMs6iRYp50pcfowB4TgrlyFkCH70ng+dCBHxX9whODfb2xPoK9oWqR6YwGFBgZj9MWedUrwnHiOTaM4/lB7gVVQdqRXdqgHEcQBj3Vjwt6PE1lNJIH1CLktKUg7NSKMH6BbNJ1OAxvWPx930fbupGJNXu1mQPALyYAAAA8MJn9N7/XgcqWDqJqQrfzzrDYyHRjgeQUK69Le+Yz7pILLjJ48l9fqqSqgCSGd/toJCRWEtpntWmwcTH7i1mJTy5DSxkDl5t2AQNwTbNxo7vnxo5QnbN1WE//zLnXHGkPxTLp7fDmEwmEwmEwmEwmEwmEwmC5vjnwPDCc0FiSI/lwjbn9Vfx3KGLUc6C2QEv7BvbQ6kTtbRMkikdV6S6JbkC7uoxHvACceyP6ttZynMyinRD6dG2D8BH6MoXO2aQsukqbAMzMzs6kuCQIiuocm4KcubjBX772/SmN9YctWE8j6FdWZkpjfWHLVhOjwnYCoAKM47L5gVsGadC5bvATIAep/7ZSl12cpjariMSkS7Z+GzikhRWGdWLXoBJsgNDS4hRliiNfbfb3IIknMyZpbuWNJIJPyOo9kzUMvNJ/3DqzB08cBUp/aXYYxiKe4gzMF3iAyLAAAAADBOO0NB6mmXxTOa1Qy0nxHN9s4v6DMrPBuIyxJEfzixtz+qv7y5aXzUMUFr/hnxwKGRo+Daq5FdWUuktqSmA8iE82ONI9bayocZJb0Hx0dEGYzUfO6WRO+0mFA6OpZJZPJLJ5JZPJLJ5JZPJLJ5JZNYjtuABAPBO2z3t/OAXQqMc+7TQY8hBZaRAjAXpZL/MyzjTDrXfdbgkpPv/JjUTsp0YBUHExnwsElc++N2szluiEOM4FX0A98NakXUYY4dBeBQ9ev6yxcf/xj7IBRB2jSQZGHoMFKlhRJ8pcyAAADGf03v9eBypYOompCt/POsOWBJJ3/878JlY6sXKlc/0/z7MUmjLpVL4HuoqBtZ33lEjAtstMzbZX14xdwvjst373CxVQ5gEkxSReWcJ4PNHvFOgHHOmzJ9Ptg6Qu6dA3sgAAABYYwTQWJIj+XCOJvxRYpg42LUc7GMLr9b1T7HPjNPuKTNDZrj3jwHLu6jD+CnPEv5A9kts4VSsAV5JfQnfWAL5zEZ53jD4x0ThfwK9kBOm3G79okkigcM2Jz9YSNrQ7ZA5mywyWgZ63qDo8DW7Aptx4xYVTnN9U6DPNlvUHR4Gt2BTbjxiwqnOb6p0GebLeoOjwNbnQtakAAK047L5gVsGadem3eAmQA9T7cFPDq1n7vNVxGJIeMfu655FaZg7aOLR1I3ugo1Gx4a06XWre2rqiCW7Yb9++ldHkkgf4aj2TN4nu0/59wHHkz5+3X+e5V3SSg1w8guLAgAAAAAAAATZx2fOxpNjckI3+3ZKiNSNajjw5xEwl13f+KY2L6acKu1k1+ra/KPKWtC4JyXIkIlF9C+Tu0XCB8NjASmdDmESFeGVKifVJKoy0B2WcQzVQ64DWpGEAAAAAAABFWElGugAAAEV4aWYAAElJKgAIAAAABgASAQMAAQAAAAEAAAAaAQUAAQAAAFYAAAAbAQUAAQAAAF4AAAAoAQMAAQAAAAIAAAATAgMAAQAAAAEAAABphwQAAQAAAGYAAAAAAAAASAAAAAEAAABIAAAAAQAAAAYAAJAHAAQAAAAwMjEwAZEHAAQAAAABAgMAAKAHAAQAAAAwMTAwAaADAAEAAAD//wAAAqAEAAEAAABpBAAAA6AEAAEAAACwBAAAAAAAAA==;" vertex="1" parent="1">
          <mxGeometry x="3280" y="1090" width="80" height="85.03" as="geometry" />
        </mxCell>
        <mxCell id="MZo_FLZC455jn8OfNTGz-771" value="" style="ellipse;whiteSpace=wrap;html=1;aspect=fixed;strokeColor=none;fillColor=#3fba83;" vertex="1" parent="1">
          <mxGeometry x="2640" y="1536" width="10" height="10" as="geometry" />
        </mxCell>
        <mxCell id="MZo_FLZC455jn8OfNTGz-779" value="" style="ellipse;whiteSpace=wrap;html=1;aspect=fixed;strokeColor=none;fillColor=#04d8ff;" vertex="1" parent="1">
          <mxGeometry x="2640" y="1447" width="10" height="10" as="geometry" />
        </mxCell>
        <mxCell id="MZo_FLZC455jn8OfNTGz-780" value="" style="ellipse;whiteSpace=wrap;html=1;aspect=fixed;strokeColor=none;fillColor=#e33237;" vertex="1" parent="1">
          <mxGeometry x="2640" y="1347" width="10" height="10" as="geometry" />
        </mxCell>
        <mxCell id="MZo_FLZC455jn8OfNTGz-781" value="" style="ellipse;whiteSpace=wrap;html=1;aspect=fixed;strokeColor=none;fillColor=#e33237;" vertex="1" parent="1">
          <mxGeometry x="2765" y="1285" width="10" height="10" as="geometry" />
        </mxCell>
        <mxCell id="MZo_FLZC455jn8OfNTGz-782" value="" style="ellipse;whiteSpace=wrap;html=1;aspect=fixed;strokeColor=none;fillColor=#04d8ff;" vertex="1" parent="1">
          <mxGeometry x="2765" y="1406" width="10" height="10" as="geometry" />
        </mxCell>
        <mxCell id="MZo_FLZC455jn8OfNTGz-783" value="" style="ellipse;whiteSpace=wrap;html=1;aspect=fixed;strokeColor=none;fillColor=#3fba83;" vertex="1" parent="1">
          <mxGeometry x="2765" y="1515" width="10" height="10" as="geometry" />
        </mxCell>
        <mxCell id="MZo_FLZC455jn8OfNTGz-784" value="" style="ellipse;whiteSpace=wrap;html=1;aspect=fixed;strokeColor=none;fillColor=#04d8ff;" vertex="1" parent="1">
          <mxGeometry x="2885" y="1355" width="10" height="10" as="geometry" />
        </mxCell>
        <mxCell id="MZo_FLZC455jn8OfNTGz-785" value="" style="ellipse;whiteSpace=wrap;html=1;aspect=fixed;strokeColor=none;fillColor=#e33237;" vertex="1" parent="1">
          <mxGeometry x="2885" y="1264.8" width="10" height="10" as="geometry" />
        </mxCell>
        <mxCell id="MZo_FLZC455jn8OfNTGz-786" value="" style="ellipse;whiteSpace=wrap;html=1;aspect=fixed;strokeColor=none;fillColor=#e33237;" vertex="1" parent="1">
          <mxGeometry x="3125" y="1193" width="10" height="10" as="geometry" />
        </mxCell>
        <mxCell id="MZo_FLZC455jn8OfNTGz-788" value="" style="ellipse;whiteSpace=wrap;html=1;aspect=fixed;strokeColor=none;fillColor=#04d8ff;" vertex="1" parent="1">
          <mxGeometry x="3125" y="1314.6" width="10" height="10" as="geometry" />
        </mxCell>
        <mxCell id="MZo_FLZC455jn8OfNTGz-789" value="" style="ellipse;whiteSpace=wrap;html=1;aspect=fixed;strokeColor=none;fillColor=#3fba83;" vertex="1" parent="1">
          <mxGeometry x="3125" y="1415.06" width="10" height="10" as="geometry" />
        </mxCell>
        <mxCell id="MZo_FLZC455jn8OfNTGz-790" value="" style="ellipse;whiteSpace=wrap;html=1;aspect=fixed;strokeColor=none;fillColor=#3fba83;" vertex="1" parent="1">
          <mxGeometry x="3005" y="1455" width="10" height="10" as="geometry" />
        </mxCell>
        <mxCell id="MZo_FLZC455jn8OfNTGz-791" value="" style="ellipse;whiteSpace=wrap;html=1;aspect=fixed;strokeColor=none;fillColor=#04d8ff;" vertex="1" parent="1">
          <mxGeometry x="3005" y="1336" width="10" height="10" as="geometry" />
        </mxCell>
        <mxCell id="MZo_FLZC455jn8OfNTGz-792" value="" style="ellipse;whiteSpace=wrap;html=1;aspect=fixed;strokeColor=none;fillColor=#e33237;" vertex="1" parent="1">
          <mxGeometry x="3006" y="1225" width="10" height="10" as="geometry" />
        </mxCell>
        <mxCell id="MZo_FLZC455jn8OfNTGz-793" value="" style="ellipse;whiteSpace=wrap;html=1;aspect=fixed;strokeColor=none;fillColor=#3fba83;" vertex="1" parent="1">
          <mxGeometry x="2885" y="1495" width="10" height="10" as="geometry" />
        </mxCell>
        <mxCell id="MZo_FLZC455jn8OfNTGz-794" value="" style="endArrow=none;html=1;rounded=0;strokeWidth=2;fillColor=#f5f5f5;strokeColor=#CCCCCC;dashed=1;" edge="1" parent="1" target="MZo_FLZC455jn8OfNTGz-764">
          <mxGeometry width="50" height="50" relative="1" as="geometry">
            <mxPoint x="2450" y="1250" as="sourcePoint" />
            <mxPoint x="3370" y="1250" as="targetPoint" />
          </mxGeometry>
        </mxCell>
        <mxCell id="MZo_FLZC455jn8OfNTGz-764" value="" style="shape=image;verticalLabelPosition=bottom;labelBackgroundColor=default;verticalAlign=top;aspect=fixed;imageAspect=0;image=data:image/webp,UklGRmg3AQBXRUJQVlA4WAoAAAAYAAAArwQAMQQAQUxQSFzVAAAB/yckSPD/eGtEpO45DtpGkqSYP+zp6bmHQERMQK+uzZ4PbQ3f5PhP89fefcZ18cue3Ffaes2ictsenTB9UT+rMn+K9kzs4Ia6hJsxlZylTCaXU3fNGFrtvVQ7lPZcqgynKmG4D9th6Tzu5srCtWL4bS5eX5YfIll9Fm35iLmU+SP7J/eXpdeV8gvpqxzGivLBKtuWyAP/f4qu9P/32qBDWroEAUVFEUXsVmyxW992d3d3d2J3ByahKCooIKV0dzfXzs7zdtuZvc45+5rd2T3f7/f3i+i/KwBgqWg4WqMrb82rT4iNJCmS7vz3+nm6qGueIvoPCZLktg0ECyQN5oCjcGnvSf/Xlfj//Yd//9MfLslxXM/z3Eg4jqP/EyWi/+Gp/+NUw8ajKML4KiI5SpSJQ9p/cYpdLHKioOMkFPCiEGZP9xq+jxzPL165v+OVDVBNuvY95PTr7n3i1Q+++fnvCRPGjxv3z9gxIwa99/wDN1x44j5bNaGYcH3Xqb4E1/coJmq02m7fAWddffdjL779yRdff/fDt19/8fFbLz5xzzXnntB/565N3HLOFaR45HrxEFW32/7/u/eD36YuXCNRFbF+0b8/vHzridvX0wOX71ZHVjt9Pbmr1bX/BQ988Ofs5RtReSHWLJk+/N2HLz+yV6P4v46qNkUoRPUYcMvbv89bWy78lAIlRHkRRKJUCqGL0vwhj5+9W2PtMtWKp2Ixqf4OZzz+w6z1iAkpShVEpECPQ0GIuCgtHfPRA+ft386L5/7Fg9SJFeca7HDaA9/M2hgLT1HYEWEYSilROQIJKcNQiKAUQBOLv7q2X12KhO9UD7qrRaVmB9z2zQI9BQz1eCS1eCQrE4dULApF2dx//YT3bzmic23tNqICXpEoz2kX2Pzg279eoAcfoQUoPTglIKR2FREjnfPBpdtUCyI0TM3e136zLBaRRCgrH48qlWIq5wL9P5Ymf3rHgZtrN+MVgFOOq79S7HzC48NXlQ9RFbmXHGmghS3x23U9tLJiNR19PMTX2/eJiVqMCAI9x+eIRzIMYmW8FUMfObqDq92S6+T/kvqBD43YWFGIYhOxUwCCoVd0URmhUy0HKuf393x2ph6TVCMKb0TSYpJGumHUi8e3151183tLWe0dr/l6iVacC0SlQxTLZYRCbPpuQA0VaKvl6Le8YxyAMBCVzvVZSnhCP7V66O27NVTO5ur4VMabGx383CSoAFXRORMQMoaYeE1rVXqsbjN5h326UcWl0KiohNgpgUjMeO+sLfXyY77GtD7h7TmVqXuahVChavnzvYlctzrN1OgiRa9l/BKmibKX2fjLdb10RF7GdDz/6+WxyqcWoIwUZcg/21FdrrrM1OL2eSo2SZgcmRBrGQ7/umsXP+8iYiWszU/7cjWAyN1y58wNVGEggbd6VosZIlPzO5coeq2WYnp00ksAmPjYnh6pOJVnm0A3O/q9JVpBPYTCGC9UkAqA4IVOUUCu9jLVu3kpEIQKkwKhI9QNTrintxalnXz6dtnb/5V5ZTDQRGoM6x/ejBy3esvWmdPLm9KDCAH5+9Vd8+eVNAavLjeqJtDIbyX0wJQyw6xTiPxqLGy/38qbUoYAsOG7s1vkxyvF/K/eMZ9tAMIymNSFp7AEfNeNyK2WwrrU9DlVWUGVY5Thb7OWvryXVh7Ji61lOzw8E+WbQFNpEAHWXxkhq6Wwx8yFDNIbpaBuOFCIUVe108jz34vIWsd+J7W3yxXTp9HS0K7kOtVMWI+avgmUNFO6I1UYhMCqdw7y810LmqJvf9N/ij6MhaR0B6YwwJrTq5leULpE/edBiNTHKaBcV5LrWqu6VH5ze4831+j0ekBKvUQAvFGnGolKBeAHymGzwCAV+YoX+2hO5zFT7dN/0+jLm9KPFJiwVfWR0aN2vyIsj80M8h+OramczlvNZc2umgyNr103ZYaUJaw/PkrGq4XccOjApUzYVHQlmXxj2xzVX1drSu/yUEV9IjLEoKjuInKrhdy4GgjKxatMKQsIAax6duu81IDmRaY+r2+I8e1JZFAwCkO851b7UKlg+wJkjCyLDGEABO/vqh5QHnoVue/XSMKkzlHxW/PqHud9avBjlRnps+AlPPD9YVqTf84xHfQT4mx7WSU0J6Z0JL96R7Uao7mBSGSWQYv8GHlaLWXIMabDhsUb95FtYaiE+b3Ir85R3WejBE1lnUEAky+qqww5xXTU8DKmzAtCAdbuSn71jeq1HCU9cmWfQQTAjMvr5w6D7g3HjwKEiJmyUG7Yg/zqGtV7ZVxlp+GKBsqQMzgnDh9R1pSRctNe5FfPqB1XJ8A/kTmcYMCsKxvmhneUOj/c/oPLmrJTbtyF/GqZs6t0lZ0iZphznTLkBdPu35U1ZapctS351S9q62Vxlb2G2RfXtL5B59zt/TEQxk1ZKxd0Iq+6hT21/cK4ymTDxFPJ9gaPqPPAsnxeGSynNK1e6RLkUsPxlXAtYy/31wAix7W5qen968qZsliW8KtXnSId8n6Oq4w2CAEM20+9orS1qcalC4C4KbPlx0RONQq8nbTKqi7YX+9kYYNemD1mAirsvJXNJ++rPqHx6HaUVGfcLBfKEAKvqnlA7du8v+dQzWSBcIPTq0sc9+kkxKaVyvqYFkisuaNBZLCrrY5vQlXDbRBsQoR9q0eMHm27CcLYeJbKeUD/Z9GBBF2Hat20ukwHxeyXAWY2Ibc6xEbt8QgMVamdB3TkQeoalrR1zH+AZrJEoCnh6+qRa72GkqasYYgIPt+WyLehre0GlbuINeSt1R8on86BUC5YQ+oN/uKRRmS5GOcSNXlMVDTTmw1QUmKv6g7p0fYlhOV1a1xj7pnKktVsnbWwjC2bSIFZjcmp3iCqOzFGZBtDCRi2c4S0l61ePwGlmMkusoT3yK3e0J+riMgy13i2uZ0Mrkt17hP6RSwUXqTAaeRXZ6iDECoiG0mtkrb4IhtZ8omOngoEiCnraCFWtKu+MDpUfxpEed1C1/hjtwhpnfEfPipny0oywBfkVF/oz5TFWcvS01ZZ+KITqWvXpvZtpFRps4ztqCkuRHyzKNKguwtwJvnVFWp/w3Dl4lFchHokkqlNi3VLc04k8u2B3elP/W1kKu2GIiiJSt6wFKXYouFNQS3ZvHrC6FC9ycbgojhSlXgU6pvL0pxL6xvKL7tGluyArfUAUDKqfX8U61eZW920eOKoYYM+evPNt95+54NBw8fOWB37S6IkVNAyA/U6udUT+sOG4CTKbV4NCNYtnTbuj+HDhgwb/ue4qYvXbkRcaM4pUrkBIbDuOie6pgWw+07U2/fTc66CELVh9tCBt551aJ/2m9Uun+fUrNd820PPf/DrmZu0UGcCQqXLOIi86gdwabsQ/Lhy2wtAaf6wF288Zd+eLevX8p3YNjBr1WvWpe+hZ9387Jf/rhT6H9VItSgT/Zqj98x6pONSoxdi7fupOhdqid/CoU+et2e72hU9B01QGVGr6/FPjtkII9ZgIyHwj18tcfw1AkgzZnjG2pGPn7Jd3Sqmyi12Pv7610Yv10t4sVMpu+YzDTN9qZ4+0YDZKVoKmHZOC1BY+cdjp+xQv8wusbVd91ciCXf9WLLW7ZIhEUKwGyQCXFf9oHl0lOqvaEL6g4XvnrZF+XhUmY+l4JfJ/1vufdGLI1cgEqF+KkUDNUvMODS6ZnZjW7ybJNackvqi7287pHUslPquk9QOfrvd+G9sciDmw9Xtqh+s1Jqk7PCbNn52fGON1nOrHtfLONf2kDsGL4hdRkV9mZ5rDmya0cgo/TluYTqYJ7RXMbq7a/+8/+CmVIkQlcCpyFtrHjMY0HZswau9Ut2geXQDL07qrVEL7u2mxaQEEx8nHuua7XXjEK1SqiEgU2EQIeYdEyGzGNvkrRg2FZgQwJy3Tu0aK6o5LG9PiQ75nbkPuMZ6sxO51QtEHVYhZAMt/Eem+dc2jjA8UUn/r+0GPD9eKkQQKkRKkO9snrlcq1Gyc+RciDANJhlqmH+fOXgz7r1cqz982hyEglMiwHfkVC/oL6pL8NracHfjsmuuZTvlbXfV4PWIr/BapuCaAktOy1ak49Fmr8Ww6cCMubtfTdIyP/7EfbPnVV7KGbQFDqtOQLnUPTJxqgD4ulsSnwggqZbhLud/vVJjGUoOwV55/qxN5GSGYg+ZiVCkwKS1lU1+tJ+rbtYMX/GJDlvImb5LCAyvXtBfVedZl0B9gRkfNKFMCaLNKZ+sLsPlmALkspMoK4sMPtV5Dnpik4Ilis95cf86GsakEmnLwXr9mU87ovpAc2lbAcmoAvzVzajWJ0eLm23P/7EEyCA03aA7+XbTTGSzj3xjt39Nx8oIVP1z01cnNKwQYwjycUBJNm1EdcLx20pnXP30QD/W9GQaovsNfwIQ2pWMR849PEoVsg9Lt8awJlfLQ0U/8dYtNYyRCf1lgIgkmzaAvOoC1Zsv9kmEwM1mpjGOVtDq+8x8AIaTSx35XN1sQ6pic5dhgDDbpLWWrX37wBqar5v68E7ke3YSAn9WH+gf8ukQwLnkOOa+hCNqdPqPYXytZyYbRIjJe0fJfaZhz15nNFZKnX7KzR0VvWPy8ztKl1zaCdUDmkvbRfGPUZ1odth11T1t9+AMQGrjohuOfNCI6jRvg9HkPY0NwVgTdNP3x9U2fwuePh0JhOABCIyqLnDleaWznT3B8LQlViOqd+ovcadNRkr8vW1GMa1Gj+LgOTprqrEmEZlWPLdjnN50eaKSbNoh1QGaQ+1XIeRSEv8rUxQynnzXgWviTpuMDC6NInImkT0IczeLIJVJALNvSc82Fn26FEzdriUCDCKnOkC/k0lXEQxXpSWf1e6uwy1TgTAw2hAAnzfPmoupguYWsU3kmWoKQmDseQ3StB88lx5GwPMY1evpPuQWf32zuZHOE8VKeDZNoVaNQVfn1N8BqQzGJhphgPmHRKlytuRidMJq/WqmmiQw+GiPUpU7RDf4NUps2mvkFX/9IqUzqe8oTdWCWC3p4G+1BjRDDepWSsBjbpZQ+VTzBWilIGmu6eu9SZlS1g7YYApXVUJibafij/LGQ0imt0TzmqevUqAMfd8JYgZTLxZiVE9ynMwg23asupqxJgCf7aY1l6Uv+PQOeByQCHBv0dc8OpRnOFOpAvk+6Sv/xAogWz29OmYw9mIbL4iS5IwgO2+TTmaqSb6/szKls7h6MQLJEtxDzGtU8DWXPlIhliOeBbg5rdU11yVq//Aqow0B8EHDLKDyqf67QGCsKcK/2SvFKx506BMeGhUmzir2mkOd14FHD/BTmtP2KKK0e3BlzGDqxabuknYWMHXXO/ynP1lT30V+vEOq12fpUsvFTCiBIUX/+CYeHSHWd0/1G20nMrR9YDlgKFeFRiUvi3wl5WRnlzRmL1P5vAbtlvbVpPp0IlP7hwR2KPYO15gAwaRfrlXUUm5odW/cYOTFgI82S/Oj9anGy2aSSUAEwOD91Np3M7mzrESAx8gr8vohCFn0AEO1KnT6DW0eXR8zmEk1vV9EldpH2v1v/X2kkY8Tfx5KWdDfydW7c0gO4tkNCzyxSx9wHEtVl9mBvIwwdHk11ButzaTClZTOx+sSHbdGfx9p5MvIaWeWfxeZbtTVTJrAScVdc6j9GjDpT2pBNSMM274PhEIlA0ZSfdoohVTqRh+NyEw1LbuxLmVHMuOOgUheSqnN0FPcjy9koY7sLGyWHUHVjeL8LoPirPYmVtpm7EKukzrV5heEppFpfiJCBE+1ikxZ3wgiIbYit7D//ATBY+fCDKkJ6O3Vh4zSDAZKlBCmjWfVcWmfRTqZiRf5uGdkypZg/yUCHu0m8ou66r4pio/JK4GxGVMP0Ape58yONfibSPWKn55oqaViV+hkJtr6a3/KmjEvXOoNjicsBf4s7sfX8FBnUUOregyb3bUGMjCyPCQwqkt6nnOUIr8G1ZgkDTQtvtjRt++TMfJdHk0WeNavERzHZUbDzSBDp9eh8x4YeNmVh0dxOiWq40i9Pm1eUo9nW2h+kz3QK2TRAtxFXjF3efsQPPrR2RRKnehZ9P0RZjY5BcBdqUhlHIcOWq6em3HYEvBDbyI/o3K3Nzg01RDiFvjdYHLow7Mr3Y9SslNmadcwTgqJbxqTn4KS6XXmuaHbmnEiZdYcaS71LEGyHO5S0A//hmDRj8+sSoCWGDS8P4Aws+Fpxk6mpzU+1XxHd8O8t5GPNMyypd94aoZghucZ4MEifujSNiyFCIEJfsaVVWnrLw1cq7HOUHFW5FdmuzFGd8O83fpEtrxMC/z9WPj1QvzrF/LjyxAw6AEuLZulZtU1jp6sWzLPiUeiFMfgp7XPUuWGYVgRYum5ypZtWA+1hLVvAT906DsIjhx1fpPM64XhOlTn9k366z3j3u59a2qvIBXlzwMCE7GvtoywmZdbD+AYz0YGuIW84q3arUAoGfR7YgE06yx1H6TeUBqY8EzfjjxDn9PjprkhVaqL8ftRJjKge/9wMPMI/FLEj09kOcam7plYAXB8otPmQ4oIaZoTG48jA5+7Tw0H6QxrhrXvy3tqRLYyMfxfwsAsLSXWb0FO0abkeSMU4MsywTP7LDV9SXdSmubEnWQc0qPuk8wqg0od+7tq38/I+kWr5QzzbsoAZ5NXtI83m81xLHBMPHhmoqW9RqsUw7TyUohP6pJvGHPqoWtRAkzDrr8mMmVnhj2QJ8P+iJyire+DkIN6ep0szQk8cm/aGF3TMCkDTNjSJOnq/arNw363ZXRLGRsDEs+xQyxsXLClR7chSD4OlvmULhmK7DE4hjTLiVX7keeY82Se0903C7vyXCI/W+sYYzkcDgv3MpUdGhK5ylCq2S5r2W18oovXmIcMgAtNKTb5VP8b3X2zsF+3J8fN4OFJGA4fI7dYq9ZLESJpEPgti6vbtMU3sWsaJIXOsmqEaj9WMacahl1zfoTN3DiwxXokfyjwV9E+059DD3CtHgUzF3nuCp1NwSyW1U/rGOAFHvVdbJT7Ovb7LTRs5srvIRgO1nQu1Cc8epjjDDZtmclB03Wo3UeGdQzSWFb/6UA++yVPCDT3zXodeUmEzeRIcB4H61eA4wv2id8YfgR+1HPSTEaestQsJyVQwpLdyGOuIF8Hw1QADO2m3RBl8E+71QweEKhFjxXq5TqsTTxkygguyuyc1HWpzRcqakEa5bw4jfjyDeV/L0Aq942auf/6CJvZ0eALhlqGwNhifWYABMdxF62lIrOR563VkUY5fxeRy3fJ7/WXD+Y8hBDjdow/hUw+PJ1jBDhs6FGgNY8eQSCTz0h/zfacwaEuP+kVP2kSj/2bRB6TajtGu6RRQ0A8WUPDZvZPq9XgOHEqeUWa64sBAtyux8QsR14boGRUYUoGGMqzFhGftl2gXdKkqy2ocB8rWWw5+UMEeJXc4qxaLEKYMNhgZ6HqoW33B6QwrLFqYmcG6dGBayIlzVEB8HEz8pyMz8OuZsi3Bf4p0md2QyiTBoGJtbTnnfXIu2EYsoSlfclLnH/idL0+bBDZhnMjbOZHhG0ZmjRDrC7OY9l4UTYqGI6fJc8GD5z2mQkRmlWo2nQMuU6yhcsbAWGQCkOM2oqZNTVT1hySvHYoeYUZPkCQtA6BI8m1wyNv+A4QGFYLvJTITVI9jTA0RkHd9RMu+bbgm5bJn7izKINDtScmn4uGWNVeK/VbAfm/dTqVKVJIPJqc9Mj/FEEIk8hWHEN2SCxc2p+lZeS7okzoUtcQDIHyF2s0UjgudRuhX8ygXozvegklVj7VG6r4J0xKoYd2iK5miay76eLkx4ELMWMzcgry8dHJjxFomQXi+0T3QUuvDLri8GRm7PGp3T8GKaCkMcr6VvkKLww5xQ4FWfPpDpa31vtbJEyqB7j/HJ2v3aDrdiI/Ae/uPldj9zKHbN4B0SO0SFy4ieXEmeQV570JJH9m0eZWKfM7HjX90qzXgyUs2rbK0qddlmnsXuaQfducPKvEhV0ZTgR4sSgT1hoXuZW4PtgyRX4Vv66FVsoy54pr9iWvijd6pEBgjgqAOyIyu7x7ajQXIUfPNKcY22y3Ifn4GuD+WBZqFao9Z0VURqVcJ1YlK3HcOHeqMWTLDokenW3CwefJ8/aEmNO8EEuXDmCYQSyw0keS8KnJZxGVQTVD4KJK7ydM/Z3rAGGMCkMMb2+fYODRdSwTGfTKT4RphcRCrOlqoxDpUeQDJrW8h8B9lS1sOepFqAyNUQHwaERmodx7DxbOrxML8QlPTYyZE/q0ug7tNkOnMoYB7LnKSVety0EYojSydSeSjTIth1ouRZg0BHigGBO6I5KnDPCGrQr8PjX6HNIYKuU/70b5UGXUG8qjTUmLA4ztTp6lWot+gUDi8FURPnBos0XJowOcF8tArUR1ExCYI0v4vhZ5Fd6Z9xUCY5QA3qlJvq1CwNPJN48ITKxLTgGGrULI5CPobtbKQNXjPHiZ3o/RFPlrA/IriP61f0LJGBUA15HFcqyTk/+R2Ni5AINHR3D0EFvcmhybeUSH3w1q1kIJY1uXlT41+9MQJbVEePlB5Dj2yrC2Tj6zkiEOILcawqYU+Nt2PuE8CwQGydlblpE+tZuqvfk0xY2Rnci3WX2j/n8cnKpXkFeIP3tKKfn21Nftln2qZ/q/ACWYUlksYfG25MdU51koQZqhBLTvJWU33x+EQDIMXukXYGvfJ88QWLJf9um4tONUo1q3Vu1Kvqa6zTdHBYg833K+79FDyRMGGFSAD6jm9OT5awQOtF9x36eGXyAMzUnTSgeTKoNtv1Sr3poyj/W+5XZUZzHCIPmDcbXJKcK9FnPJjAKeNhiXMKgQdiTVpN1Wm6GkVBWuMTE37HbQO/KkxH1kdcvCCy7tCZk8TPfs6CF0cmBUI9dJdNAmTZmy+sna5Ntwdrv5yRNK9M4Th8nYayTHAkMs6SW9Z+ocYGbI4HFzzAK4Ryt4WlD+AYHEnTqh8Fr06TqUko68AZ4h15Z+0vRHiNCUshgAU+4ggDiVyLVkh1oOi7eSX3gPnkm+NbWEy+KZpw2deMoYJyC1/tsGmGQJ87WpYO0IVyHg4PDxCq+1L6IDrjW1WtKJc8BcfTRxL/UjWpJPtoTDOHouDqHiK8Yk3ziBDdtYtDHVcWm3hUawrBq19hqPfKtuXDT5LHxS8e1pXX8xwoQhxIIGlm1YbP8XtDpkFihRxR21WmnoLQaLWNW84IJDW65H8mX9kdZ9E1LrY4RhJNOvAuAscuyaDIyFSBywNbkFl3LvxBMAaeE9d3hED/I7b0qP7ZV7k2fZSPE5R5vuQeRWM7B9oYRHybNuZkJnp9557ZKTu5FPloUHOYYsOafgWvTpisTZvmQJl5Nv4+Lvcs35NKsAQxtZ1789+h+HU3eSX3B/7kcp4aCobwbMxvlJ1wn6itpSfMmBqkZsXdifo9LxCnkFF/1a8kV9hGrX/jaW9WO7t0ynEsBtZGHfdmm7TZCJ/wwqvMNCDGJ49bOmHTl2LgHTs5BKplEFwNnRJW0cKVotQph4pWNszcL7sRsShxBza1m7CEzX6ldMnyphw4G2rl15kxlixcKGBZfxq8YchAmDxT9DkCpYnSK1K6aPf2JBH1s3Xjsccx9iY+tCCw61XMZQ0v/S6m9F9liJUiTTxj8xvi359t7MNker7nbkFlrKnhsYWlJfsXlA9KnHFG0FgGlSAQY3JJ+sDfcmDxL7F1zYK/lSSklbgaTNZdM/EKRH6oswJYv7s0fnJ8/lE+KkQuuUR0dBsLCp2t2n/A+066ZFhXiIyLX6HMIcS8q4rNAyqvp0OkNPCy3jtLukx7XrpkIJ4Hoix+rVjt0hk8/G7ym04NFlKCFnNUy8HvSrtOumg93rXDVZmNVh6w1IvpnkhYJ7cHvy3RYR2PPFz4QTkear4DDy8tb222WAT8gptCRPIEgc1rfNAQHRowM2aNJsVcLqPXNAlao2B1viz0SFFt5IvOd9iBW5gHHZp52XohRJs9XsrXOAIhoPkTiM84ttt8UvIRKHWbVzwguSTpNRAkyVEijh3zZ5QDn0E0O8mF2bCq0YzpBvjvUoJ8hmf2kcq4YqWcKfTSOVB+BdjnpHA3KKLEyAyGvtEh7V/qZy818YtX7JfNBO8jhDu+661oUWasxEmDAE+IKc3CBVoSMymqgCfEq5QKlnfytKiUOpR6GFhvMQci1JOR8UOugljcXePCXwenRXuY0vEXJncgssZYvFif+U8BR5lCPkvQgjaV7fn0dzgyKfzkj+R2L/QgvtVyT+U8Ld5OcIf3NiQweapSTuUCGC8sLPAI6ZxAaQV2Ch21oGuDFX9AtzXLpIkyYp4Fo15HJ+gAMgkwaBs2wKOzIkcDn5OcPrjpcGydjunNxc4au7hEgaSipiFFjoKxMHgXPzRrbp0UGBKX2CpKZOJS/fjWOJEm4utLAXRzH/lNxRzPdp343KaMrZY3KGrzrUYSVChoFsvMIKHh2EMPlm1KOiYJg75G6rERpxHEIcTj7lDGiymAEeLbRwFMe43AeSmz+YfWn7TWb8hDgyuoe8Ieokv5SjAM+RW2DhBA62mt1zCDh0G6Qh8Hp0wdzRVDKLAV4rtHAqB9ty7/wBHt0IpZshn8sh8l8GeI+cAgtnJv8D0TN3gEfnacz1pnRYfCR/wGiIxOHzQgvnMvwE3fNGMPTpeEBTZkiBm3NHK/VviYPA90QFFi5igNIWOQN8OgRG8amGIc7JG/InjoGWCi1czgCbOuQL8Gnnknn9gI7PFVdw6CsGGFlo4WoEya/jok2uAJ+6LUOgK5N6Au1Ffp6ADxOPGSHGuUUWbmCADS3yBHjUerauDJOrtyU/103EMskrsnArA6xtliPApXpjUIKUMEwGWNSRvPwArzDAZL+4gkt3MsDKJvkBXPKH6cowUHJiI/JyA7zIANMKLdzLEAqXNsoLoJ7+xzFlnixhRC1y8wI8xwAzaxRZuIcJcoN6PqbMlF9Fd5YT4GkGmFOzyMLdDLCscV4Al+6PLUDLVPlKTpAuPcEA82sVWbiLAZbnBfDoEohImbycv/vzAcqjRxlgUYEFj4VkRU4g8enE2OKzzJUCF5GXC+AhlBKHxXUK7TKO8po1n/aUEFVR5oxx6uexfX+EWFK/yMJtDLAqgjygtl6pK6OlQKkf+TkA7mGApZtVL/Cprm6aA8CjlnMQKGW4DLCyG/n2h7sYYFkjcoor3MwAa3IAuFTvL3VB40HJKU3Jsz7cy/HTsMj+3JTD+gGpp/5DTJkvS/ijFrm2hweqGdA3cvSz3pwc66uBMZUO+Xl0p5aHh6sZrF3NAJva2R5c/XMNRSot8nnLg0uPMfB9LaxVZOESlBKHUhfLg08XQ1RCmc3+dS15uYuvvtDCuRzzXGxld/DpKCBM1751JE4mP3f1WyyycDrDj9yeXKurnWJz3qdIhgh3Jz9vjQtRZOFEhh/sbHPwqMNiBEqlSgqs6EJerhp3a7pfZGEAxzz4e1gcXGo4XimZvl34/teEXHvDywwwpdDC4RDJw37k5gCGr7TJEoZFd52jxo3/1yuycBDC5OEQm8NrMZVG+RbZ268/YIDxbpGFfRGyLEvT5oP+SMi0fqSLe8jLSxv/EBhFxRVc2gMyaRA4zdbg0zkINZVOKXC2tR3/gQGGF1rYWSJ5uNDS4NN+MYavlMoQ2NvW8hcG+LHQwrYbE4cA15Bv57NbrdEZvlIrBVZ2tXQGNYoBviyw4FCX1QzLPLzDyuBSkykIWJWU2hH39TYjNw9tZC7Ah+QUWGizLGlACQ9bGFS8G8LsutT44yXzHy/he7JxCuBMRZg4vFloofEChp/n7FwdeoNfCQQIwS5ftDH4cxjgJXILLKrWbJZs07Xz8PrchbIAU3sOZU9rZYDrLZxH1VuQPGgbKyqwYmriYOV9ZPt0irogt1rYlZqO45bqPw8g37YVj2ZLGCoeDxVbGMPw2uc7G88ZFiLkVFBn121PtanFVATMMkTQm3zLQsdVDA27d5FfvbAP3xH2Pdt5GQS7EvuQH/12Wc4uA8zenDz7flcclo1gFVjCbxOHEJNq2BVcqjPegNIYjtKirk+7bIQAtwO/uOTYlZFaJA4BLim28BGCxGFBXct6DH3B39oV4nwVczV5IBCyy9ctC/tCJt/x48wii3bplbwz8aFLj/ArgRtVxI3J0yGZpQzUbVj1Q/NwDARwTLGFhxj2vb5xC5uCT+dDSPCqAI+RWzbiX8l+I6HE0eRbFE5i2lhRsZ34sJR8RO1NrnU7V/MPmeWUz5nuQ8AsBTb2Is+eHn8ex0Dh/Yos+HQ+x0ab9rUneOpFomBXX5dX2n94FSV2x2c1JdeiE3OWkveWbYrtz4kI8stAgS7VnaC5zqtGahPZVyS/RIn9boZGia9Nx2ZMfOLzTuQUWTgEYdIg8D9Lgops37AnaAH+q8xCQVyqNdIA+SK5eWWaVok1zYosuLQbGPgAryLfln7yqAFqWedK5SkeNdMZ7Hkdv8ySnu/Q2wx8PkvqERVZ2GZj0oAS7iXPmuMuCwlWJbBJW+hapWT3lRCsEiGwH/l5hY96un2mwd8ejuwAL5NrR7UXt+vKOw8jv9I3tWvALQWWb2HJ7Gokz3dbKrSi0eLEwZb7cPSo/WIIcLPTn6eKXpWWx3HzqyLA6Nrk5pFxSwSGUbEFbxZDQPzNjuXdGn8wN22p/ORW8qq+vBpmB963Yn7VcD5DNv4pOcVW/s3QMDHVt2P7sgGvDl+oYnx16QEEzDLAbfZDOdRuOQO8Sm6xhUEMsHQzGxLdxDyQqVKfUJVA+0+vo8Re0T2WfPu9htoAyTGvQbG1+AYDI+DazuRYcHFZEYZZjaypihdVlUO5pcD6bcmzH5uPzBfDbm0Bt0LiIHYi13Z+sc06bhcCTG+WQArmUoNJCLhRUxqSaz02apE8G/V5VGgt+nRt8hCiv+VCokubTdFcYGX4Wt0zEa/xqOsyCF5ZwhfWy8VP5ogVxxZdODP5g8CCn27oW2YXEAL7kJ+Qp+8aIuSWd5NnN7gCJXAMA1BsDw5LvuNiyXYz4Xv0ELeSIc5QHpOQPAGSVUKGltvFvUsPMrTqhtsXW3Cpn0w8nmoD31mtoHsqQsmbdAW4ibwEE+XrmNm/EGJ9VOW1GbyJAEnDpvbFlu/LoS3XI/mDD8ixmbn3JoTgZ/hKdt3F3KXIAJPqk2uxWPEjROKwonHRhSaJcwJC4FerFXMbz0DArQZRgqD9w6+4ZQmfWS1ejGPgSpxWlwquqDEzcQgxw7NXrqG5wM3aMLouuUnPUzaW+y1ogDsthmowC2Hibo1wiy7Q7wxZ57IW5NhrlzTcSmBRO/ISv9dOiyG4HTiafGuNWrIscQjwhToutoefcMzMs62tWmp8Op3bBYFSH/IZ7rZfCF7HQ6ztbimjS9snn2uV8Ip67VFsnXoaQfLFl/3Js5TascScYEmpuBq49iDNmzwH+KcWOTlhGcJqFEu/2IJPNybPuhzgFPIs5cJ03hYs5SHXkc+3fWspJevLhbfJtRMcj0Amjr6s+P6cCZF8Wf8aW4XFQSiBObV6jq105dBA5luWAa4k306fmSp5CHFc0QWXDoJM/udJcq0UKe/jVz8QIzj6OifzxrKVXXo0eZDYk9yiC9sFSLysb6d3Pz4N0Fzg/Tg8nAyjLjVh5jeDwIJW5FoIPmJgU5Xdiq+15msTj58C/1jJ3GMtswsCS3gnnvCo53p1vZyxtx2H/mCAVS2KLhDVmsXAqLqgoYVyi9rjmF0IgT3IZy5XHgGEzPIxC2l1pzJEian1iy/QiIgwaVjXg1zrwLso8boe4izy2UuW1/I6rpoHTiHfOmyqS5MGKfC7oq52YFQNsQ95tiG6hpmRQQa4jzwT1gDG7sDGbcmzzJneMvGCboytvug69TRKSUfJkmL8yhHLNZLxWS0MyLBoKLMMMLEOOXaJEQclPwqzGpTDL7rgq/pP8rnnzXYBl9ouhmBWY2qRa8T9N+d2vIS3bAPnIEDCoGKEX3x/Tki+s0WAV6yCdoh+RYk1eRJY1MGQfMOn7bR14KLdD7EK3M3BVn86Fd4TLu2CxKOmwGByrBIdn2BWIaTmuiHyaEjJKBECu5Fn9VFNQ+xNbr9V2mxggP9cq9TDT4aQzK6fQb5BafZNzI4LzGpMrkVgKAPbF7oWXyCqxzFS4JK29tA86rmB2YVArWvJwAn4OWm+skmEqDkJIvkI0Tyy1u/nF47N2e9Mrj0YVMcjMMB1o6DG3+o55ILVPDjUjoPta3ztAgwuvcvx+ucYi0TGN5nLUQHG1TEsy/CowzJWB9QjPNgWDri0Q/IBIsBPBVhFkepBlJIPjzfaAny6lL2damVn43zAp72BkFMKLG1riUK3R0dw5N9vK5v9Luqi5A8CDLRGVNyVOU0KgYMMLET5ejjgLGpqq1a2A1zFER/uJ58KHjkUoWSYSsyxxEims5jrfAJXkG/k43ies24sJUpRauHZAZ5FwPLRAIow9ASShhDT6lvimX+tOL64l7Nt8C6leTk7jiTfCvHhW44Otf2LsFsONV0WaUnD6i1toHl0K3v56WdTK3wuNZ/N6jgElrezQnpRYyxE8mFhqyIMRDX+gkg+A93TAgV+nw6IYhZnahRgzubGxkqPdg552/MCKwwa6FCrhQhl0rFh0eaRtYZHP038BRACnJn94FLLhbxEIUo7GfzsffqfcoC1yPmQDcJFT8jkz4yuSUVY+BzTCQR2aEr+nrlxSuBU8o1OJZ5krSOrIs5R5Gc+9E9+wqgA3xTjY48ugEgeviA38x/2HexEj5TLKbLIAYEVHcjN/EnEOGLDs5HNQnywH4dT47Je+XSIImJV30aJmeGBoflc3mpygOHRg8l4eIHDrSuLMTjUOUTSEGJZu2yPhS61XsydCk0zf/wFT61gLrQ5jUM/IkDicDi5xRgazWbYnXH297QejIDZhd4pSIR8OhdC8tIcnuk0DjX4N/nIILFdBXATot+AAKdleqnBo/sixZoE8boA8PmPswNjG3Iz/QtdrE/8mYdY0iZyqxgTvsth8cEsB58ORyg5q3hBSqp4Ksr/wlv6DPBjtrcU7MHSmFuLqCDD3RzwJblZPq/FUk6i+FIjU/KA2izmfkC3k5fhceFcDps/kFuU4RQIhrnwa1qbKMC0RqmJjz7tC04HtBWCZTeNT49x5N0vKpvF2KneiTdRyBAr2pOT3Xvn1pqjmF1IUWpxNQJOBwTmNSM3s+PCFwiQOFxRlMGhVks5LO5CroW7K0pIgTPJT1WQeA8lVlSWb+qz1pjkDwQOLspA5P8FAUtuz96lFvMhWNmp0rboLkf7zD28rySuzWiUQy1XJl/XQLA1uYWZ8GOORoqnMjsT/Yq7oPRLFIlTFiS2WsdKEwL9sjl8uLRj4gohZjclp9rCovaS3slm3PUIwNoQtSh9vFQ+HcfK9AGBKfXIyeSYcDrHq6c/I1WY4QSOkbemN8riYOnRHirxkNm63EePHmB8LyElSniD3EzOzx7iqGm8m4/OhDbZpP3LLF58lkObzWQl0t58+Wl8WPQjq9RfTGQwmsfmrXkK8uqQhBQYkMnwIUq8LrxNTjpzsZYLIFgLo+u6ZbGxziSEybeMHBtBcRajkrcY4C7ys3qWQzYVYExatwPg0z6AZJQBfidyMjdDa7+Ro6bRh9zCDB59yNFM8Qm5mftwtw+YX/Gt6UZeyt9O8JVHM7iTqUsHJK+H6hWMU6DhdgTW69XqUI1xCBiJUv7ZBhz6hJMGMszeufF9uoIlHhBRgYYBCJIvLqzP2qECPXqOm+jhNBeOXGo4BQHrpRZuTm7GhpGXUEq+HfdzdVycLW4jIcGw2ls3W4sKx0FIVgbVIZTqbMGjPoK1Dl3Cl5lbRxvGMcnFPUUaHGo0EyGsNkq3Sx1WIAQrg2rrlEdDny7gHeU0wOWZinKoIcN78gAnRDaLtBzGMczR6xkbMIewVuRkFnznK5de5axGI4TYgTy7VTMQRjYL9YlnOBpWR/qZirsNAViLRTeSn/6crOZY1pQ+wNgaGXrSoxM5bM5vRk6hhnM4CNe0ys6Q6dFe0YNiTGRK2fBxmDzaeiMzzVMZqvl0HwflSCrUwqVdEcrk5X7kZmizICNneiW/j4yjhKsJr2rC1YUTE26Cf1X7mxWnHmcw0kiZrfP0OPRV8rl2gNei40KNbrM4ecIsHdPJpfdZ2aZCYGeq6ZZJw5yUBYiyCWtNeoX7Ui2yMympNTP5XLukzdFarMVojjfXbxoX7wxftQfjJUKcUnHiVbNeo+atO3Tpvs0OO++294GHDTjhtLMvvOyam+6476FHn3zmhZcHvvnuBx9//tWgb7/7/vsffvzpp8FDhg6LxNAhgwf/9OMPP3z/3beDvvr84w/eeXPgyy888+SjD917+03XXHbh2aedMOCwA/fZbecdtum+RYfWzRvVq+lUcsI3VIEgOwc5daibeqOR+MEhBRtceptj2vExflY+0m7rEIJPCfyy4wGHHX/Wxdfd8dCzAz/8esiIUWMnTpk5d9HyNRtDGCrCjWuWL5o7c8rEsaN+G/LVBwOfeeiOay8+6/jDDuh1avQDzZdmZEHco2M5KNd1VweFmvBqFs76zFz++68IeL9mw4aqFfpEXARVE8n8tbioWhKxYRPzDjBKGblzMF+tASV5mFmTqGDDwckfSImDyc3GQVtjDFOMCYysTIIWKiGrKqroaVUVoSYqTltFCNYHKBFglEdOJh58mnyeLfRhdos14ZarOQhvyrh6jeNEDeS1aG/9Wpw/UsPDGMH9ACSr1FefVDN6W5F5SUqNaQi5PtZSsT49iYPwI3IyKnX0/XJJQf3p2rVygVDlRRxYxn88X6WYTjZl2Rsgk8+yzyavaCv6MHGQIabVzJTUUUsey7+Mb9x11yPPu+ZnnSgnSAjMufzUg3ZoW698eTxKML1MSTA9Ogph4gC5a+H+8eg6lBgaYnqQkwXJo1c+eazduMvux1123ytf/j591SZEwlJm5AI0n1i/ZMLQD5666az+27dq4FPmlPQ8uoWDckkTcqpBCAVOJi/Vxbhy9+zUb7ntwWfd9PSHw/5dEZSPQEEpUnkCIlkqH7rkhrl/fTPwgcuP3aVD43JldFcv6KWZkoOl5zcq3MKhzskTpnPsPK0cV+5e67boutepNzzz8a9T15avIAelIBCx94aaOVfI2HtPEZQqSDGDBaMHDbzngsN6td2sjHuel9Kr1JzBQflsdFy8xcTkTwgMTVv6WK7xvu22h1z04HtDJy4rW4YTQSkQoaxS6phPUkwRBKXyvGYbZvz+2dPXHLdzpyZOmfqpl6p3mS5ts5GD8nzyC7j2LoLkCZc0Jsd896JIWqYgV6ftdodc9NAHP/+7IsnkMTclmHH/K3OVmX98+ey1x/bp2LBMCqYV88wHj05CkDgAuxfwH4+uQUkmH8X2INds98rcVOMtdz351oFDJiwtl0gLxTJapq6ZB0WMRzbuoYiJVZOHv3fv2ftsvXncrusa7pxLDyXPpRpieVNyCjgchDBxKOFS8oy0W9a95tsceMGjn4+aub5M5Vck3SaWzwp6lbpKMP+fb5+69JBeLamsc46h9YufOdpDficq4oTtVnG0r75t1o9TvsTQpOcB5z30+Zi5m6ALrUdM7ivHJV67K1fOC0Tc9xeM++aJiw/p1bx8UDEt+DdeyBH8X4gfV3MMZSNDTPYNsht3z++05+l3fzh67vq4e7H0EdFRPheah8eci1cQNy0Y+/G9Z+y1RY1yrwJcx5jjfpAMlBeTX8DBpRcRJB+FNvYkl9+uH49hjbc/8qrnh8xYVc49EXevIAjdOVGulLdq5rAXrzl6h0bxMOSbYNWj81iab/cs5D8+nY+AIUc9lTwj7Dbd+aTb3hm9eFO8Pa6y7hUGq3Hn4snZpsWj3rrlhD5NynG5Og5rbv1a8pQSq5qTU8h/+koknjAFeIpcHq74OE+817zvqXe9P2a5iBXl1Kt8zS6Kj5CIsbuKWBBc9ve7d5yyU2MnFqB8viLeOA7KkVTQRYMFCJMPoqM4CnOxf9Bo+5Pv+uCf1YjbTaJxrLgU8spalSuiMt4xWzUsU8RL3KpDW67h6N7xAnkFXX4HgeTX092OnCQ542PpcdfDrx/425Iq2i14VsP5Q1+66qAOdfQGjmRJPTqaoTFE4ALyCzl4dC9KDGG0f5Xy1Eq8bPc23/ncp76fGcaiU2Q3xhZRDEVEqluNBatNkz67/6RtmsQCdUSaEDzI8bIJO+VRylT2BfTvbpIQbf0u/W98Z+SKmF3FwlUJu8XSaimIWZ3/88uX7tnOj5F6roFcqiEWbBZRFnNO1S02QUqEwu6q83I16nn8g9/8W4r90yDQ7UoUWBHncA2CWJq3+u/3rtu/sz5STtX48R3afGHyZwJ8T4Vd+JMQMmSqTSsl3Xito0mvkx79YXq8R3Slqp3dVo1XTGOdidb+8/HN/besVTVSl/ZCyMDL8xD5BR1cegMBGJafVdGhE48Bjfuc8dTPs8sV5pKibfW9VEakQh9u4t8vbunf1S2Tm1aisz9LyD8+R9r07Aht8rWAG8qAE28WqbPd8Q8NidEGihYV0RZfNdBJV49//6r92sdbK5zyOfXnyZ+REF3JKew/O4PjxCDtpZAbo3W7HXn7N9M3xWhFJWirE0iXjXntwt0aV1AXcNQsSmHy+r8av0ZBJ2w4j+PEnCZUQ89Xm+975XuT12nFvTK01RFCQvUiipEuHPbgCVvFX1o6ntquDsOZ98kt8PJLlmaLfmrSrm1Oe/w3fRA/EWM7RbWGkIo03vNxw9T3r9m/hR7uL0KA5OEa8gs7+Bzr6YbAXX1v+XhGKdZBOqyoOFfNQRpjEIMSK4Y/cmLXmvRO8mOByxC7Ffgflw5keI2NWENHUKp8ca76o4Anw1gBb9Ok1xdwtIMsbkZOgT9ouSp5QvVbCjRaieoaoZ0SeqfH5HPaAD9FqsiLXyA4AnklA3c1TQEvhEz+zMPqTIE/8YQ6wS+qdS6TPAgcSW6BB0/bfQSqUYWU2NC50B841GkjZLWqFPjbo2Iv3FEQ1ao/AV6jSBb6wxcQVLP+nFX44ZTq1BPaa4Ge5Bb7Y9qyVJ16QgpMrF3wzzhUexxEteqZd4v9saMmTn2iWvVEgAupRmE/52rsyc0P+A6hrE5F91CNva5TvDGep+xtddkXS4DIVH0KEN9eurU+TGVhRpQJYw33fnCkukgoIpLqVAmEfz28XyMtr3cLMkbZ63jaO9ow79p0FKheVfrSkuZ+cFZH0mukBbj26fa6fsgabe5Uoc5pmOpVxi8ptClh1/50zbYK4xXTGmmZYnvdPR4crQ2enK/claja7pjCUJQTldgqU0UijIlKb9RJ5qkBcIT6C3/dv0fdgtqI5mghqdkRr0zTuGeEFilzShysMB0sn+6VT+mM8LR4MisqvLeK0tGcUvSW6ldoNdJprxzZVEcUTky70z9eqNc+tcQgfySLWnoVBKVSEKikKgGfkaX1q5cvnjdn5vQp/00cP3b0qD9H/Dr8l5+HDR0yRG1m9fvvtS2uDh4yZOiwn3/55dff/xw1euz4if9NmT5z9vzFy1evL1X5vrRHUeZJqEdRPuHMEYgQwIL3T2ipR68C+RKy4zlfrdRrn7aPZbGEsXwiJESlC2ly/fL50yf+/duQQZ++/8aLTz54541XXnjWSUf332+PXXpvs1W3Lp3at2nZvGmTRg3r16tTq4bvVtn//Rq16tSt37BR46bNW7Zp36lLtx7b9O67x379jz7prAuvvPHOB5988Y33Ph00ZMToSdPnL18vK5t2hkKUScpzQKqpnnisRrr0szPaF0KEo72E3PKSH9bG3kHC9udUyhhULl0M1y+e/s+IH79479Un773x0jOPPXj3Hbp3bLt504Z1kufiLrcl+/g/SPx/16jbsOnmbTt232GP/sf977Kb7nvq1fe+/GnEuJlLN1bmcclQaKmm1cOThggArP7uoi46ouBhtrpq6AaFEQpj/UpniLgINiyZ+veQz15/+t7rLzzlsD2336Jl0wa13CqtTdD3K/pSBK6eDiadFpb/p24ZEbsh36/S+tLc2g2bterae+8jTr3ohvueffvLn8fOWL5RVFDAAXIAYv2PF3UuZogyYaXrFcM2lcXkAPXX+y89cN15JxzUt3vLRnX9yvWNiiWIZdLBVMa4culoLPmsXOpZo17jNlv363/ShTc/+tqnv0OrkML2CKEQ6767oKOOKGCYTpf8tFHDlMn1bR+TAvzuVTJZ1NPEzItYetpZ6YRzYGyn1NZHSB3x7fkd9DeVhYoZtd15g9bnCQygzKVtyHf1hNFxLBCJYulmlGp61Gg2hApeuQARKMTaL09voXHdF6VuPk1P/nxNHJMjOCYCXGWvCfN8Ohw650eeQCx9+4gGGqL4YOr2f32R9hbSNhhuxnOlfrLd6P8lVk/R/dQuCAFg9vP71FSe4hSaxrJdHp2q8XdpyYolAn3ZvR9FwIlb25Vci4U5ajBNoRhBBOpdkD2c00Kqhph4/456E1pBod/qxr91ZlSFsYl7QsQeIrN+Mfn225SeZJS6EOWdswMiBPDHVZ20KxUPTIuzhwSA1DFWcE//rh4xsXDsjwPvOHkiQkb1LUV5u93kM4yoELOvevqrUbNLcW/SrhJzLusRIpDAui+Oa6hdqUjUP719X1sMIOP7JEaxMl6SK8P5vmH6bx89dMGBW7dSDSCHIpRcKsSazjrOZqi6U/hQMsSx0T9v1m3PM+96e+i/q8r8naAUy3WlzG4DdN6KOU/tqpUnigJ995vHZzxGSsSrnPHHtu7fn167+eRdOjUq9+6t5RJW/ULyiWynHRCh+LSV7csUe+u33X7AdS99N6GMc1rlVLea2QitCW3UNVvk/ys5CtP4lEGbgFDLgTPcbimIJ4HrJ//42i0n9mlTL54AxDYJ7+nMmGxqkMLZTz7N6jHvklfRVvjrtOx1zHUvfjtxbfzPBaUgs61GzypUV1r/5bH1NJb7XE+/y7Pzy9Bnsd1QVXVizytcNOKdu0/bpYx7jv7xKAxoyJYIsaqTjrMdqh6fg1JbHVGskqaxv/plnGvV99Q73/51gShrNcxgq2WuNOO+bTTyvE7f9JzhGtOECrbZbDde55wy6JkrDuuxWTz0er5yr8JEoNa/jIlAgHPJt+SXImFDSQjMqB8v+pZxzivjnNOw2yGXP/XN1PVAfA2autWMJdeuJL47qYFGnsPp+z63SHsPqUyZShuq9rHY31g18dMH/rdHqxrxx6m5V+ktjLFWsr5WODvK5xk9p4THyav8oBjxDKxGm73Peejzf1eX241sqIX6TA30WqP/ozvkbHLPidPrb7szM1+tYM9ry8d/fM/pu7UsU5Sr6l5uXdohBNMTlqoRu4OOsyGqwQymwq/upbuQl8zOZMlrvceZ930+eVUFu2iUMisROjkGn7mZek2Zn93u88zCOH1m5qeiTGFu9bRBD521e8v4Y0xs/7a/IGB6xlL7RFU+kS21QxhRAf5IItArq7FQ4rbf9/wnB89ap//tQCOFzFTyB7fWihy5122XqM5Jg8vQZyRtoGWlwKbZPz930f5bxNuTVTN+ovvrAZce4CuyaGRw6WWFYu6HnrDVWt37X/7ayIWxIp5mFZFzmci/Cogvj6ihnM679J1unVqGez4L+SOC2FvHlRM/u33Adg3KNMW4TsKxv/1qRAdsHKodybVoyNRGtOGSSfLyViKfa9H31Id/mLqhLKkq42WcQSefeG1bihB51rTHm2sBodFnHm0ZntP5v7926b5buHG7LCV/lz7kwskYh6pVm1TpCEZ2kwCfceQorhcvGNXd6tAbP/xHb00LRazakXGxQ1U3Vr62a0512o1Mm501AkAQIsNMFdLOHvr0GTu2iNegPZdzu8CCMe5/r+NsinqdDyUFTuAq4zhRmHL12+64z5Vvj1penhRSZpzTGH5anZzpdCzf6XTPHCAMZGaZtAghRZx25g+Pn9qrabzCwptvOtRwFgQfbl1XHWdTVLOFfHV2gTm8G3JWXPn6vbfb/dKBf6zQSYMYN35WGbSIjKk3tlFvKXPmm8hX12YZ+3yMNohVPH964pSejcu15fPnEfQka9v1ZRHOssKnkxhLwSU8xd+I5LgxUmqz59XvjF6vk8beWspsyt018hXPba85nRtNh3+ruZ1J2aMW/MM4O9eyX547Z4cmFdEaoPqylWSVGmrlFgv6iKuVUfPe3fVWb2NIa7Q78OYPJgZQIojVSjMpkw+DyKWvD3Hyn0EvHDc492/tTWRm5YtCjwYbx75+2W7Ny35+HIPECD47Epu2JtfG0HYFJ2pkLIM3irR2l+Me+mFR7MNHCI0RP4Mij/aWcvT5DVQDWt4ztb19VsZ1TQwBOf+bu4/qoNf3FK1p1arLEIBPv07H2Rd1DgKmYGriZCCOG+tE1GiXS14ds16/u8x6SxkCs25umecM6lVPtydX6c1l2fUiMsSnZ+1YL+kvjZM0y9cqvkJKgF+t3XRB3yLIFDY5x/P1QNTu8Du/Xagl4RnWgLbs0S3zWZO/XoPf4fWNZZrLMgsCXKYX5xxjK1Xv8+kSYS+9EcjGqK7rODOXD8tV3c0s4HmfxpdBnVkNaBsG7qBaq3OXKcLv/rFUJuV2lgmBX41uHPXoMMaOeCXcaWtF5NOVjLmLwBHlvMvIAp43HiLL+O01Az7fV0X9vGU69CcAGTiilmpL70rmgkN1JvOxfAmMtXtI/5kPJTClLjkmFzl31TK+bGO3V4ZhRylDnjIdOwIIM9AE6B1tPIN94D5GJnGJPW0e0F3aToCR+es+kz3Mp7sRlI1MWdbk/+fxypCXTMeNBISImTJPBviGHHNje6+QM7Y/YfdQ7tGdTJrmzeG2EY2xwhmlH2eeQQjg71PcyJCDTM5Jf5U3ZWGgWt3W4HrLELbIDoFpZWpT1rbwj6rBZ86KAVzaXguqmWkYd1bNyJBzTO7Jf6fZBPth+AxTw5JP/2Msm4Q4zPYB3KO91fNnk2eRb+zxLfpxdhomnVs7MuQZ0yljKjRl4+HH5JraY3gBQrDhXk+mKpVTJpqWCLGwubmF4hEQWTuVz+Tza0SGnGKik/7RTQqToRBiWQtyDJ21gTOiL4giuu3Boc1m86FKeIE8Q4+3FplaBIgZJp3lRYY8wkN/+O/pZ6GXUjtiODyePCPVrlpFigcncDL5eSDjPQaC5VD37V3NTBl8ugaBUplr+Odkigx5w7TvkNRTqHOiFErJcfiWoZW+3/nsBPg8g82kVNQHfAVjgRGmPouhDMcS2lxlqTf8dUx+4LXXe0nt8lXMlGZ3wyCIO5f84YLGBqZLPl3E2veuE7n5ANou5+wOdImJJWOHumxMPlRrUTHQJ/dMueG3w1R5xv6g5xa93o9zpaYZo/LbTX89vNsgiMQhkkeSZ16Uar2MM45fntk4wrbmXARcqBDLWhmY93l0McdzkFiyFoBI9RiZsXeUQ/bKBeNyeUTtXgohNVNaMaHQ2jKWfHHhVkR0BgKOw5fNA49eQ4lP/UY5QgzmKxyX8Bp5Bv58x3EscFjriz/Xhu3SEak2fLStMtje1PDONYBmSut0Svowf5OePaIZRaIGdV6DUCYNIebUN88/9kXIZgfYkfJDCwdtG4DN+0LsTZ5xqtNaSIYwPVetca3poU9O0BFhWqOoMoQIX+xANg/UrkPO+bNTa5JSxmqf636+YecaWo3YVYF5CM/hIebFqdGcPAAP6SovoO7ktPKXY17mdyHHcYC3Y4MkuX1uHL5eq5GG2qJg09oDe/XdTaxtcBTrxOiUjlSjhbMovGm1z3O66C8bnFhgvorn8AVyDYveV7EOa1CHnPwADtWcwJfhBLiSfNMewvccxwFOJC+WhxNted6XS8siUmqYf1mNKM2ws62+38VM6cSom53x+tGb6+5WPKJA0hBitlmHLnVYXcaOYUXMyFf3/mwVeoRY1Z5cs9QW61hC9IrWKtsrl5W3HPDaDABhIFJqCCPDv8eqa9jX1OZVQAiVbKUtb4pjxj++b4OYuxWJv9J/6NLbfHqAN1QJM1/I1zj98G2zwKOLOI5FRaOOuFqO3mD/Z/5TT0YhkDKEjBl+6EN2zY1dl/yrV8ReRqYQAwCj79+lhgq7lcmePK2pJXER4EVyjSuLgKkssrQlOfkCHGqxmLOMvB95Rj2BH3mOL6jw1h1ttp86ezw8rhwidQYhgOdbRwabcnodPgFInakMJvzj9h1UolbZGXRc2gWS5zAT7MgAZ+ePHmY+ncGnCfztmnW8nuGNt8S6Lcip1Axl6oH2uXMkAKQRoRVwVlxXM7qGLW1t/Xn6LiJlDCN+vXFbLfpUxYu9iQhTfejT5XwRO8APVTNHt9LDyfHrGXaMpIXAYD0gVRZBO9zxd9y6lOlr8J80wIrXiMpSDe8vaUVZmS5/DUvqD/x58zY6pooB+hEEaT50qM1yhFxZAUrbsJzPd6XTVpvAlYqEWN7GnIzHoZ94jq+oSkLt+up2+tw1RvuHKeMHi13ju23IdtUIJ/LaU+bottKF0TLUv2/bXsdUPV7tw3M4q14GNEyXcEc+GSHJp1s5+ygMJM8Y1XU9kg/NEpu6VzGd1qw7O939j0rUUzbhnoQq64gH6keW7GZrq2+AUpqyIA2jstPx9+yk3Xkynlp7KsehQH/yDPGavaK7YIrUApNqUk4RNcbzNURK7GGK9OgyjtqCwPAkiq2eotvtsWkAhIZImaUZx1nMkutSjds2QqiLpMcr9cayWU/v6WmY5EbE5Dl82Zgq4B98cTpkT6qjNc8HIuTLe3435/jn5NlzVDp0fRSSkkLU6f/qQr1vY7qidQn4eiuyVHCPbB00MfY2Ml2YpW8fUS+OSQz6I2TpX9aIHCM850I+XNnhv/IIzeucvnkR+Wbcec8g+fhWboagxBCNj/9oRcoQUipLpbvrkOtYKKhS67dipvTw00lg/aAzNtcxyYoGc3gOjzIhe3No8yVMRRBZQZt0HnGk1TKE4PLOJZsb4Z0e3cRzPCq5W4vHrbbn/ljSmtBU1EuRpSlHEvn2wZ6/HKFQ3pcOjNQay/68qquW5zGk6a/yHL5NrhljxQeQ+WOBpOLksjFjyI/k6K0RJP7extEQPe+YUIZcpsfS262ia9oF2+3HGDZFHF6zn+yrhR2HJbU6CoLjcFFzcvhVP7ax4hHgF7K5MHfh9Hoo6GuAdKk3x7tuCfRJOOuNRzN/31cX6Yh0lEp0S0vPJntk0yqUXbNeZ0xNyeA0IbDhy+M3I743Jg41WsBwGOvBzy6G8cVmYCe9+JFfTvcB+HKgYUbEvLt5jke7PI9YBb9mZ35fAkSgDKmx9G23KIWxhWm7X4EAkUoN/ZgbuxLver9ceoODBzrAJ+yHHp2KQDLVlkp4xIIKfk4f5WT+Ot0AP/X+4Tm+S90vH2Kr2yaVIU8J2+qG6+0gPXJvEzo2LfyoS1/a09GGe+B9VgN4Dle0Zj50qMFMpktICMxoYEU7qic1xKyG3J7q0m4IZfIg0btsxstypRr9P1gLhCrrTYFBKwiN7Jv5BuXPO/+tYVNg0un/uFh7D+mwR6rG0SGDluiE+FzYv1RpFsfmoRVhHA/BV2i+nzzue36M4ViWHViVk7zjdf+khLNC3VZYAu5yst1J9cxuAUrmYyX01rJlr+xBFaz7Ml2HUuAr3kOXuqtZpph3Kpd3jF8i4MqGsKkHuex7mg5ZbDOnObEY6B3w1iqdXMp0IHeIsoXsxjq01QgNmwKTRn+RTm9IIeBojkOJtZ3IYYVPGePxxjLxON9Y6bFReRJTPvQpL3jUn+l4B/7AFJtbtc3lowFofYTSwFIhb6WMRmpP65KN5ndSjPN4rX6tQvoUHkqoNZR6KdyVqYReAshBwqfbmTIiSCnUMnNY4XX1/obhOF4BN4HcOeijjfEFvKQA+fu2lMm5tuNS2280rOkmjf6/G9uTYf09XXqT5/Bn3lsdw2jnv1rqOA8d1p7M6LXjfNb7bbqI+dgQ8i3vmakNd5OGUguC6yiD8+3Ia05dAc1bUtC2//0xNSugT+0h84rwPLrSiEJH/rFyBJ+VANeQz3i7J0MwHptEXu+kwXGnpdmGABi2Reb2ZPSp3psa1nSTAJY+uwOZOJSGQ00W8hzeQV76etbp697KScKljxEweW6IFYy9Qh36nKOOUHaHF0aR7/T8irjTple1Vp9GWZp3qzS9738QCmt2gVcCE67YXAUBThrgLZ7APZZRf4ExBq/dIk9Bl3Vs3dgDvMSYBXbgmE4aAW41LaGJFSba3DRNe0tpdpKgFZAG1ic/S8mugdFXk/HmsiHH+LrbnOlIpsrDruQyReCdAL4a0g06Li+hblDZEVdQ34Vcrnu9lINaQvQ0MvdzoxBa+5ThAPSRI0xGCkzbI4pPWRkYm38BCKNNUpk2vru7lleZ2yjciGEwG9XG+Th5bFMOB5B8y3vPVcIfz2YlwBC2e+UZIVBguLHxSYXSvT/YFDeYPVhEJnJUaEn5gfP1q5ndN3HxY92U22an9q8gQOIQYlrdtC1BL8SBdt4BgyK3ihQ4iTymtY6wxMEAV5obnLT76fHwYq1Po9EGAQzpkIFxwie6GygB0uzG/f+ubGb+qr1cOjA6TM18YrX+ZSxtvBMnyk8073KhIDCtDosVj+7iOd5o8n5k9Rjb/Lpp8SZ/k5Erjoh8OutUs+8gFZmxzz4IgdFn1CrfXMY7WncayyHPgpB9uk7h2Jbwl7+g4xrGF8C38OSB/iSI5O9R4KcK3oKS/oBW95yxZjf5S624dG+2UTku9ZujXc3oV5HDj3VSMhWIR0/xHC5hWKSyQ62Xq7dl3HZylRW2AW2Y9jjn0X4sYUqb/t74NMKLrA74GSoyG1ysESF+aplhMnryl+hkBg9Ghm/2UzeYlhLAXhw/UuAs8tJzCYFxNSiHiRoTGCv9bzAEeZde4eDHCbGqA6WjJEC072cANIO5VIsOpKyqevhU43VAkZlrCt/rp5lSI2r+y/FCSftwA6kZclOGONRmuvF7w2PcVnQK+gCpuPullrSkxLDjO6HJBiDQLutlU/jrOlrnTTXWJN7cTr2KTNWDfJjjUGJTt6SlQ99x6eVHUs1bNJ8wevRwhrB7GscbZxngtLSkLHrz83ZvBDGDoVQSXzTIICrHoUPX6LypppqC17dJ3UKeXX2nAIlDgBvJS8MltCeyvmteg67r2dopGRIwhwZx5LXpWo2THpe3fmmjMhhcxpm8TeYYo2d9BRCYbBrYM5XLDnfHMhxC4O+kg3iNSYzNOLfp5fs8hroNJfBAiBn1yUk2OnbjGPtRZ45J3wa9n11rrgEoYf2AqCSVLSGPXtTZJ0w1vaaZ0hmfApbi1m7kJnpvVyNgirMC/9UmJ5PeTbteWeG6mfRoqPaUeN5kek96j25UTF+GbAWYn62i05MbTDVI5V1Rnp4lmbpPTYfpbhjKOfF6DyIvTRUu7jWUyiDZj9PhUMulXHUiKXBUtuiOShSdqnwCBv7FaFBqKZIcns3AaDcGIvmbCzFLW5Z5Cg1bvFCKGQyUocRHtbPDCY96TdfdMM8kQuCT3sqU3tk9eYL57AYp+MgpKqv8MjvMbln3GrbpsfO+/Q8fcNLpp5804PD+++7co03Dss65mT+GPAK8nmTu5NLu4EiOAzydxgxQf4O21UChDIYWePBPl4yQjktHrzeP20sLXkIA3+5hjElJpF/gmOTCuUvbBFGgZPKVUk9ys6E0p9PW6rb/mbcOHDJp1uK1FTxGuXbJrElDB9525gHda5X5p1mQstPWJcW7Yvz4EB49x9SQsacWolJKsN27gDTRoHGALd8nEyoijsacGkAapxAGwM/7p3xzPw51WsfAtaOzNxg/twWCTNiOgKvfeMN+5zz6w8y1KCNCEZSCIFB0IcqItTN/fOzcXfVCXgZcxqMHGD18MDkJDja5gIfpa5yX7pDU+0Mj+zOquygBp2aA81GAf1C5b6ZpzIAYn1eq5dcIOA7XdiQn2U4iHCLUPjlTylMaLUBsfsit38zTH1xYCgIhwjDUBhuQgNSHHApDIYKgFEsx539722Gt9P+d+l1kzkHII6XAceQlyPQVyMRBBqlenaFeKtlzMBCEMDAtERrLqpv2/JFe19w38WXknPMd7b7S/lhPZwrpVyT3wEYwvh87i7zU26+547XfLoMSkXsqeaz8E9STzFAV96DE8u+v26lW6hEencmmCfxb0+iNVEiI7VRaknLD0WM1gzTNgDDEKylPS3yq9xMCCbOep25afVvDmCnt2X/zJTw1iZGJxdUzVCrM9UlmUo+pf/Bzk8t86SFZUYyqolWhl/CmPN+/QeorpL+wyQDXkpdU41wAyRFof86A93YOuedMh5agGJiifNeA/DSrtmNQMkxJaMXEF9trpkxoEH5LHRo6HLND9acrne/7WKU4ElGdA5+bgUgE+rmk40qZvZjNfP6gOqqhwUmttisXMUIsS4jt3aO7WMJsgEvTH+O0KF/vpmW6wTznJ3YgP72q53ztkuZd5MveKj5m+dRTAZ4hL5F7upmxZDEwnXEp1orZ4y5lPwwqOMdwKgiV9Xu21pLetAapl9m8XePsM7afvsRabUiITDC0fCo0b73rEihhfi/y06r6rEDJqKKq1G2N7a+ZMkPUm4mQg3heEosodajtKoQ88TTEynaVj0spGFzuhG82VYhhRpS+O7leWp12qPUKhIxfHMlNZMhnli7WlZxyX7dJ3O6r2DVMu+L6/chPp9prLQKTHqKUWrl3+VVenHUiK7THmVi/TiLP4OG2AlybRl0LDJtfq+jLY/gRAKbd2ErdVSqD1DUIOHmEk9otFXg2+Z8p+7UZF7uGUTJAGDFGpnL4osA4FQrg5czZv4+rLw0SHNu5cqt+Qzuo8Me1vvcaKY00Wz68JMYSZEpok/FpAJY90SOlRXl/HFu7ZYiDqx47HGqzAqFk4o/JkEjnkH/F0sgAw9IXAZxDbvrUCVCBTBo289DQXbLBVJl9zXE8xY1bkltl+IKrVCGF2lZ5Kk3aWCdhOYw5CEVeejWVBo8OhWDLqv5MqE8GkgYpK+oDlBHXaPG0jCyZJ6+KEuGUPb8zdGVQbBESc0+P5+4ZE1KuZ2F20EbfMnPt/BIBvqIUJijU6an15U0mGjY+15nSl0S4aoZ6g/nu/oyo2QYVyRrDjkOhd0s2SIYSN6eLxd6js41SsZjyTGMtomQOOLTlRiQPUi2kxUwWVRlrZE5dTGl8fyVGZTKRMXndQ02jgJc26MnWkhJiej1yzOtiLSsatC1LrnH2Qi1kSLM4Vm+L4nS6VAhpViz5YxdK0zgXANWUkqNl5QByE1grC0sIK6lhctLWjd45f25Zk9GG+Re5UfUkrau/5VlXg3FcGlKWmWcpe5BNn4ZZlrQ28vvTIz060zAlBFZeXiVbGdAXSCVpxu3KpPZ/XHqIpS3ISVkc2X9kVd+mm1W2/+ug6FbTlQc2XYCQy/9XtCXHtA4ZUmLTlpRNsc8n2uVXs/JKqcqwj6VFenSqpoxq338v0z6ngUPNFnME+RArq7TwH5+uYGywuSJVxV/XpaavljWlwjAwygbcdG24gjEAPF+lqOLRORz3E+nfxlQ2WbpgBYQwTD6SDunTKZqSpsQNEWLmEXFbmaW9qli/jNoTqUPNFynqzJvpUD23k+YhVJwTqdl0ngixMHVLlhrF134pq9h++QsHNUS5FcZnk6W278euaZB8OHIsBepEg1zTsc83VIyp2QYHcCRqsmqdrT16MN5ck2lDijsetfq4kjGDfh1ftDfNSXPfD39eBXCpDwt1iIVN4z9ZZWnAbEhhlrzffOnT0eYoKVXW99/+lPa8bE4AzaTO1q6+5W2ZbQvm1gLDUQsrrnlozCSw9PgoLKZtFkTTlqTj0ZNMVYEXsy0KqtJMo2djGac58hZyTVf7SFOU1LGP1o6172ecdo+KSomDtqGsSsNABGx1n+3JTU8uXruiOCE28eV65KUHujMtr1tFvz8qXyKmRvNZqEPsEQ9VWWZpr3ER0iAZ4nqzH7VPvdcapITEP7ulHTuo3Z3jWcsQi6JaRVUqKSzBKsCzqfEmx6XtJyAsh9Wb+N/O6aHy6EEuDUHlm7k8OoOli3WFX4omu67p3x/LPg0JYaFae7rJQWrLZSpMSWOwj9cwH0uFqV0yfYSGKgzuzAAyVfMNu0RnbOKLDSwXpTgnuv20BKpGc5laBaTAlMrOPOnQUIZwCgS4Ri80ZB9y94kR0hwpcRL55j6iptNQMkWFAjMSd9Ou0l4pMKyyN3EQY8vyleSnJi48iTIZouhARPW8a1iwNI3nAYCsfMrm0o4s1BLrOinqTETWfAQoSWMSIOBgU2OTS7X/NEJpf1wx+DTIIuwh3wNDwJeV3ufjrxBgAAmBiTVT40bLYQjL83qp1hrRJj3sNX8xhYTK7w3Uo6eYurp+pp/PRuTekxEKU6RAqZ+R4UuFh6+MUWGAxcdlEHZAqoPhsHJddjw6jqkHUGzzXylR286saLFzurXm9iYvRYsp5dIeJK/S04dxBKsBekzMSGTdZ4ASDEmFAiztRJ6R8IwxSgBft8zYjRe4tDdCHj6exuRUcrAntoUROyl5xgevQQlsik4D5hHkpuRRf8aFktjQldzK1WtZAun0etm6VBM6YrEp/S0kAkxuamD48ukKGMFgrV/tWtJrGJlq+IeJ+H/kVRzAzo/VUbJqiBPHofOAoILwr72IC7mHO5k1723StPi/suSEAR7W9QxFtvoKCAyRJfzskmMgf6oM+ZWUqro9dVfKnBaCMZsUMGBOKIfqz0DI9hWs0qJuAASjIrXsmQbp0ZNsmsRO5BowEq7mzztkbWT0ia4MzWivkEq+Yxp4tO16CCNUALxVPwGsJUbf0mLLzuRWuLAfrggZYn2XFIAKq3fH3c8IGYZ4MBXSoRZLVPZlRk8Hj15kylKHZfB64xza4R8zlkMkpXmTabvUaIpW5jSBbNM5UVDK5MXg8cyIL7UJxSqKj0sRsiiUcB95qVCPxFV2SIEnI5kG7So2LcTBlQtaHCH0rCyOjj7VeB4ITJCQIU4h36j4863mAnuglwH+62XODscU9eQLtp6zJixvAyHmNyYnDerJ+KIGMkRKgRcjmZbVKsOE3kAeXchEvbgpOZkcG+mMjYrKABlC7GSQ9OghM5SQ+LAe+dm9r/dZTNn1uWWza5c6r+PxPokAF5OXBvUYTByzhqDJD/AsmxRxX7USaykdxUT9vHm6jrxYTzOoJATmNDemocWn41USwa8CINO/jIFHD7MUyQR+NWEqYwl9g3QpgHszSAGa8aF0ZITfqzDBv+4Ql/bVOG6YNpSWzcKnWkasnl1KlDDYlOzQo63WIYQ0wI0lB5DjZPlqhncAeCJAX3IrWNdkdk0d5tLNsdwwk+Qd5Kbgsfdl7P1+KXnl4B0ESF4I/J7pq+alC4RW7ZP88nEzIpdDNcYgAPtDkAF+axMny2zUMAiAZyylMvC+8kCemPhtKipil2iuAZkkQ1yZgnzCK/exnzg/4ZTD09IgZYCLYhWerKbaabYB/RilKg2cTL4RGd5LGhGzEhIDXU1lev51NksDbtlFtLi0syo58O1R0nTw6UhAU9kkQ2AA+WnZ9CrzgsY9ugUBWAJnq1hGmNlUzQfrTrCHrvVbkWfAMzgVQrKrALhBBSLK+J9mi5iILycvBl/y6e+YrzzqvQFCqaySAht3TijcKsZ1RMrym4quNYUpbL6m6tnZLulpQPDLAKNrkMO/CYW1CMGsMmOd8iRBwWJ46gJj3Njf3pep2CAlNnYzHlxqOxeBCuZZJhd2NF461HgeQhYJrUN92bebHAntPlkP6qmdDwT8soTnyTVj+XPs7s/olRlk+GjhSJ5IcBC5WjQcDMEVCx9NQQrh/4GS8YqgV/uvmsbX1TyuScWkNl9hLGwNgmDJSkeXiZSZ7sSei1ACJDvNieQzB507UDJA/d40UnYQf3LEAgT4UIFHh0Hw6CGWbG58AuHSyzGVabKE11LQtuRpC6Vh3OGcS71CSJbjq8izwY6sqeMEjWWVm2ZVB1ajR7tqSR3vnQf4qIZxSt0NeI6xTrbQIvjvfHHwWvLML8/EmkazTcqgkkOMm/h1Nhi7W+uLFEPiEG92s4Ks+y0CdhngB+ZrjeNt/ZWRCvGcCoB2AIdar0QoObTbydP7EbEobevkjumpw25hRU2jGeb4XuQZH7J+ZEIhwBeqf1vThUzUA8m1RTmCXqiAFyeNX3DkYZSYlQBupOwIBaLhfYIMMbVO5Idj+fQzyTM9bWhU0XJzM82BWU3IMT1g7cLG6hJiX6pJF7HoMsRetoiZ6undChWGJW9uKHqRy6b2VKFGMquzErhkBg9vyrOyfZ1pjCdtGJmGpTeXJco8mvdT0IL4Op82LMpyRrPYVmtus4ZQSczJQMAsA/zOl+F7/0CAVQUQ9tko7l8QyXtEBD9Q3clMugzRn7w0LPtGqQyUsW7rpkPXDdB8gWfY90NULsrZhd4WVAdvNEDeQB7fdhq51cZ9tUtaJRRcxkSMTmdx6QG+Mb/m1WVVOaIspFm3FbnGd6fn0gRG0cdcHS/Ua2eLCJ92XMpbT5Aqtm1DLt9g2pJVre1nGxWF55bLEUqOOPTePyoxyqgeQD8hSK3yBCjDoRaL+diJH1oKKdk+YI9dZLe53DLAUMZvCcOrlvVmU7ZZ0xEkpEbHE2LeJTcVrJnZCbHlMZnuE1dzaVKzx7ZSUtvIDlP45XnkM4SXUxQPDGuAXtDDQioK0XsgZAE1QAyT721tOLjUYWUcl52oNV3INVyrMwUCYJGSI3BJgd9s9C1/qMU/rFKCZcEHDjWcrWIQp1rUPVJWEiNZiCEjyKR1hTjl9n3odNJX5KRgL2iQLPI1YUgYz0Zysz9Zpd6Hwks8tNyv7LCe7Wkp5dHF6UlZZIhV7Q1PEypgnvX5T4FTyUtBd68UBa0FTcmxUuys9wenlBwbyXJpy/XKDqNatb2tzA5tvgyhTE0R5i7yDH+G9aZAwG2CwIz6xuceh2jE6RCBPpanlWR9VqOEVj1PGD5AAE61ekdNWSoEvJwaLcSCJsYnCLfGcW4n3Ume6XnhN2nxj/jiS20lR/LKAOeQl3RzNmuivKGvaco9kB2uoJKCdUi51HG1VoCxm0OsNd2KSzshLZy7At8pnK1ko4ma5IIQMxMtvTs6NxCfCve1gjp1OTgdcWhKHeNT/Nf0wOW4eItc4/unsvgIEIO0vWSbmQgYZYBbyEvwFg+H4EyRcUwalAHEySmIQwHONF7fEZCZoMO4d1PQGygNEKqFAVpM+NR5AV8MlWrh/G0T0+JjRDEpGWr9sGwGDm02NwXEEvoWZgyHj/T03nPxuemaR48x+AkOTIrdZM/VKv3iSsBKeCwxT/FogNL5usLeq4Vhu2mPsEQipmWTpaT9z3SxG3kp2PNqCsIW1nWOzthN7g0+75Nhor7yB5cuVWr8FnH7vU83lc3XfzG/ePpFduiWxM89uiUFvhLv5WU5eTwkl5TQFqJuuK7UcCdxldJHGpbZMYzXdzNcFzgteyefxNCLlaB0C2YD8EuBCsklJTZ2SSoN+wWCL7+d0ywjvN6JenHcCfw+ym4Mh/d0Pbu1T8jN+v4T2sg3FhQu4+pFJYKETnu0D0KuGwuxaUfyyIai5r+JEzNtsSENH1oHyG4NwnwGz5qTIIyWqoX5AhtGUodoEFuHQhliVSLfH8DRFr3Ko2SIUzWGLxtqNyGQ0uxiy6fmF1ueRJDtEOA5MxKZcySfRoPebcKKWoPJqoTMFf3uJS+B+9pO8uT4suybTxtmVh3XwmiQQG/jm4Xa6L0vs1vG2YIMF38ozeiU/hFLxlKPem5AqEkzvx+FR09pyTDfUP+WgKGYJpitv2V+oeWaDNL9QNb16JBIMxlQUkNKW1H4dBy4xp2Dtl6cRFa8ynNPAsvaRx5vTdhL9fgzOQptbbwPumMhkPFCYLxvfun922QrULAAgljS+BAXjRQY6yT0uQ444rYMcaRliCZg1Zusv2B6kcXVlzxiPGhwmqTiS/QY+9gEDo4fW9GBoaquaGrg+pOn9C1RqtQIQtbrvCilsfq6zunoRxwTWe7we+YXfuljczUpMMaxaCx1qf0KLpoA71cxcLl6XsYTasf42UMkwMdoaAIQ22GD6dTLI+rMl9qSNBzTobeENBNkdHyJVYsVPh2LkCc9k1XuDOTRcyzlFfUE5E7K362q3ZucxrSje9Of2bkIZAYByHnH7FiaJMJv7mbk2DWavshDI6v8gU4cajQPIYdCgNsiIquCq2+0wlD9PvJS0IAtYAEh8BM5GR64nrBsscKhOlwfekJgdBX1Y1nOS9WlQWVStpUfmlk4SsXmVR3qvCaLjlHQWAyQLExFCMJCbKts21XbG1KhmOaFrOJw8Tz3gn6GZlMOo0uQxaOiR3d1AQLYQESHF6egBNzeyCxFyizaE6YtKFMS2pdCqto071Lmm1J1hRtoMBBCLDK/QcWh7yGkFaTAYHLMj933K81cHhDLoupN01Ac+1GsS45RfbUk9IWP2xAquYNCA/WbUlBWabdSO7bC4eqO5KRjGQ/GKYG/iGwcT4+CiFBGjPZTwaYQePTTraw71KTqHzdBEU/ToFo12OLwJDMDPMPG84IYk7bERicDPEVe5W0vYon5AsMpc4RWwBSMi0HXkZeKiRstAdBW8JgCBr9ZCM0rj87ZLLPqQZZ8+grxX+3Kx6D+CFkKivpyNq3s7902wbTDELMapCAG1Z5oj58QU+qkZqlhpmWG91g6ovp0NwJwbba0Cv0hGUJE7B2LpeUHhmlGLr34JCgLlpAS/dIQ5utOgzDtYa3fQulWbrlpPJelIFYlntK/GXJ8ddc7Whz2Ns3hEFNTUU65FAGsIYKU7L/pAtO0AG9aO6J6+kJ4jdmisEPdFBcxU3dXe4vfICRXeWEqov179jgDKfBJKgJ9jYlVZAk3g7HQYoSZOMrBayvZMc6jUxEw6DLzdGkXpZL3wkivnYa6QO0JELAITK6TjtBVJY1rR+MWj6j/UxE1+fhY2SlAXXoWARj0T5OXDtWbjtAcQDp0l3oISGkPiTAd/Wmc0QZpUgqcoEKXvbX/GCKqrML47mMhONLcve2N2zTnKc18y/ZV4l3YQwEBziAvDX51vEEjMkdqUk2yWkSlVEMqMKKShZQOqxFaaAOxGnJtWaqTT08gsAhIrVdbWhafCWlM2+gVVtU5YlojJVa1qMwJjw5FKJm+rVX2dupVBObok2unI6AOQgCLgDaWTXq6sJjUL9XuEfUBFe6Tl/uRW7keDyUOX29qb18vv7deU/QLyEuDqj8ZobSIDDE1LSzqw5VmSOh6MAsLFnYMBMsSriW/MlHow+RrKLEZGdJP+gGBMedToneOBVN7MKqWuhvWbjsqccK2FoUtybV9RP0GwhROufEQkqHPtvXBoyNUFSUz9Si0HaR0uxweGkt30rHBOVOWJGj9iHoKgsR/BP6uVEhotSxxykj9l4HvWEQ62bPzPHl0BYRt4Fry0uFf+ynNGB5V2/80ZRgZKMTyqLGxcjPyJA2VGx8wtvqtrNTJVwvWswroX/InJdH7eyM0gR/JsX5EdeldBMlHy7AfuZVZs34gk/85KAeAQw3nGFC1K6+nYvGRloEvzSgozXkLxK4LHJULChYnJc9eqm1/3KsYrkfAYFuNZ7qA834XvyaRog/L4fxqmQMI/OmmJj8cxK5JCPwTmXJAwaKtGlc3cYvXV2zRpReT/wnwRR5Q5FDHNWCHEDPqpqYQOss2JCHmpIWPytOXamHESrPygBiSfEtzgBfJ5Z/9QC1NJenJDteCtEJCY7ZOCbTZiEi3isTG1KyV1qGv2INXiDkNyckF8fR2lGTiB99WstciC7trHgCXekPKjIxALvWEdUBiu7QEfpd2V8GLOTe8zc66ER14BMZWZvjGGcm7hTUtMzCbkmrx2UeLT1FctwykqqO/o393G/YFDuSDaNpuDZKGEPNqV6L1bQnC5KeoZsZlwXbN26Qi9cl40sNVG9oHjk4NuMzrOpKI9wnPBYYJCGXSsKLCVRy6tNU6SJYPfJIXxEjFXM8812GKxmkTtgGhbdU+NfIzpbEv5C8faB8hSBgkNvQktyLoEyL5l5sPU37QtG3XZ+FQAb7aFLN94MY0QT9GTVZ2VwIWn4CvhKQh7Fsx7IkwaRDaJDJ5QdSZgpAzAt0R+V9q4Fb7gL6ZzpRpNusCpHP1X5z8j8T+5FXY8z15t0KckK0gAeadbyE0m5OTHrjLRvCAgsw7LSHwAzn5IZYex1EmO7JiOJwjrT2A3LwADjVfrDTOxY2nBx5AyT7wWJpaQ1zdER5d4PD8UKpwaT/I5OG4iuFolJA47JKpIOQ/S7Z9xSWfHrMRPKND1vF+6UsLyQ/QV0Jyr9DCoxM4fnpHkB+0Tht4FBCka3MHvraLGOvAS+SnKnx9gYDn8QicRl6OgO0FA5xGfkVwYvIAbG93qFy3Tw4IsXoLctIEz9no51Xy07Y6OqbgtWJzcnIE9OKAMyqGYzgOdoogRxweBsECAkOi+JMmeNJGP8+nDG6CkHzsaTkCdgwZ4OSKD47kONgrX/y8w/QjEUSl4zTBwzb6eZL8tA3KCSb0BJ9yBOzBQXJ8xXBo8hDiiFyRVfUQfOg30gX32ggeJi8DN4QmIeIlk9zQ0Tp5GFAx7AeR/H8/p0oQ2otVxk3qpAhuR2AfuNc8OHYzHeByaBRRfoAzOHhMD6kIXNol+bJhdq71XUWf1QpOvq8XyUsR3GAjuK0CyKztlEmd1TLrQOrqLyUNUPsmrQi2TX4EuRJeqdDjd+a/g5Ta8tVTtPAnG/WzvrwcpGVNknwwODdYdul5BEgaNm1fETi0xUqEDHOQ5we9wSzefotPkZceOAGhfeCkNPnaFSo35JNhnngv9mPiuXWINV3JqfCNy7zEIcTc+pmZU3lz/U6GWNuBnDT1wLANhDg4RalPvRmazpgffpoboPZchEgallRmz8LJL7lNIuxJTl7QxnKPu/UIeamBHW0EO6cGPLpE1/k0YId8IF3aZhNk4jDNqURdanjyIBJb9NN64kogQ6xqn5YMx6HOIWwDkN3Sk/jUmaZ0Xu21fBBPPToNQdIg8CtVAt5PnvGrhGdyAjg0GAKSNwI9RF5aoOlShHaBEMtS003dowt0nVXb0CUXaC49kzylGkLZqfjf38eR2o7JB8duRfu1zbqxIWr9E1m0DOX4OqnxstraWJDc2qM5oWDxT/IeWKpMQcKjs1GSHIvocfJCFyBI7gh0f3q0QQjs8hNgcHr0C/XQxZwfLm9JTh44U4JMvgZ5AfkVw4HJ5/h5YZ5ch7bcAJmZEcijVxDY5Ud1o/LSNNQ2N8gAN5OXA85cooI+D1t9JSbmCZPPVL8kJw80Wz5kQIaP9Ix+7tOt9oG7yUuTbkAr32wr71inUhPYM0wevlVlvKvWrMRBSqxqkwe8vYm+OSl2bUlKxmXy6GTroNOzJ7XaU3WdX7vY+ppDndchlMlzmNap3Ns1jsMsHE1ICIcRv3Y7eSkZUhLSLhCqwd/S5Aq/EBifA+LppQzHAj9WLgo9iSCXrfvLHw9hyEbdW6TCCx1qpvY9aRW1uDU56dAn6zq7pk3YYH3DCIZ4WlLr8avsp6dI3NshtrMjJ0sCO0M3Zr/Q6fkgIhYRAiMpTecNeVA/W9/2LgxMR9pq3f1K9RFhCArS/suCJkdfRJMJGX6IpenQPHozIrQK5XspCfe1q+JKztqISBRIXkTAUIiQlRz7t67aFV3eWkqTS7vp637PTs2ja+xCqH0do/Tsv82YJ/WJ1cGh1itYEre5dSt5D19DcLxoOYc8+/OowhgtFbxfLu2hSig2Qe9Dbhoid93p5niWlAi3s7n06CaV4xjCruVpww3mrPknHeqi86iaoaWEhcmhFgsRwhoQUbYiJyWv0ozJW6Tl9/bgUH2OAeo07l6/Ulm+/ukv8tVSez26R1VQzNGWpSLSO/STRQ6lwPB0+FT9GQghDSqKrmlPjr3j6cXJx1MtKdyjsiXhhgsRcmjDra5vppoaDftiMynZ6JA1IC0jlnl0VWV15nXw2FrUmcqhh5hf2bZ5hz5FACSv2Xw6MY/OqVDn772YBs3VJpSV9vg5OgXg0GZzNN2k4DWvka01jy7niKdSezNSpfUgMWgjbL+ePxiV49+bimjfeilCaQ3qFWmo0nl0XSUyQyMWeW/ratAchBwtXZX3Jod6BJCSQzvR1ppHB1bqHV/2jb/l0LfRCWvog1PhTY3nIzTucY3zycrg050susSmLasQuv6GAIc2sYa1Xf7UwBz/QfLS0QxkjzPXk5cJb/4RlMUA8qwcTTuu5ShXyCrVGz26Nzpkid3XkG9ntZVeDDZLW92BnHQsU94Gmvbw+pKbgpGrtZdfxsGP5FgZ3uTRFf+2X4UFbHFEIRlb6pmVjx/Tc3zDtCfTkOPXmBAdWuLMvzXTELjuMC5wATKTlpgnBAWPAaSazahqgxzIvDThiEPNKj3gVuZNheDRo7Y4TMU2+hxqtVx/K2Jcdvi6hYH8sRBgSNQE/qrychpZkl6Jfciz/Zb4s5Tr2qU97HAo9U5AKRq0Nvd9uhlfXyoCE5ecb9pHyJEQGOtbGOVVcYob5tXsp+PQCseTa5L5eoe1FTCdGMaSbOXZLRhAQmxTxXg4giUKSWiNcfZdPJPG72lmFcVLRWHFAgoBHk+DDz2lCiNmpvELGlu3YPELjw9Kbd2LVX/JzpH6Soje9s2ovqi4d4hR4wakY6JGG9jeKwUe1LXy3ehz1wDyvrYLVZYaY5XHnXGo/VoVMljuZ5RDjmW/30Fy/p5NHxrpd4js10QU0lPyFTYMBYFxVlWevsscaeImHlxtOnzJURop4W6yrM8/lJzO9KWRUjH1nMx6PQ3fHMul7cJE8sINuc3mkD+OKcPRF5GX0J7cWBzcOxOkmEeKEjBU+5jcdHAHZD71ynbkGA/vqdhtLhPIdxatB7nacvMlH4Ocma/bJARmbEaORfVz9ZKRqdruKSixvKFSgKzX307B+Z0Mbl7UbqgPudYkOgmCyQcFhic0jx94ZAnvWfX0n+a2PMlUZPmutmnvjIdQ7RQrHd1STQ5dL5FnyzJF97WIzjBlhqeRx8ouLvV3Lb41C9b7mJzOyJR8T4hhEJBZrgR+Mz966+y8Zlek29qxXOFQjTFc+Y0MMbWOwd3xJEKEfcnLH99Gg8MDUzFWrEfHQ8iMh5PJS8WnmjEZpLadWTvG0dcVkcH76Xap28bIF7ni98wm5Fpy7QHrYXSWn47xOmuoHqqZjvu3tvE5SQrGfw0xpbYdia5hI4rNVJVYIzB4ZAnfkhXL1h7drrJ8s7W/nZT0usxynvqrUlAm+iP5mjrTAJsWVIeAiQgS+hZAE4EdAaaEWN3aI3bU6k5DKE1PB84kLxVfGERmtz7b+G40Hp2Ygoq6wFAbmruvUdkN2yB0ilMmGfkJW8Ocurn/kW9B/QQIaXyW/28t8x/eZUrLbv3KdNTTkSDklq1Ee9R0OgKuQhdKlemXeqoukOfmQmAP8q240q8UpAQXG6/FFqqX1fqM+uSkYiX3KQhcb1oOXHKHoRQptvkhO5GT2P19iABcUmBlV9u1Bri0g4z8PgU1rYbmJwXnIYCpoNGIpGVqVtNDF9Z1Jsdq5Qn6SFPmL9bapT4aywvb/U1sZLncyqMnEKQiLbgxBVWtcaqqlcVK4N862TB3mDGLd7IaPIZAcqmkJwF16S22cBI9lRJ+dq0mHWq8AGEK4lCIRc3N1wZASGNR9vrzZni1U9L5cnpdq9V/boOQYCtulcovdHGO94tPfkjkWG0y6QT1rFtbt0PfqdJLFuN+TEHQurcC1kqzeVVPtpfm0aUIlWLTZzUgJ+G6VonvHmUJL1hN0m8QMh15/lrjG1Vc2lEiczX1nMzfqY5D7VczDZvBtm1sa6lTIPmaHiUSX5GtQ62WImSTkGpCdzdHrIyNMai8TJ7xYfl5VX7JWr2EV1LgHc+p8m6apm60Evh0HMCpGHYB68f2mMcmBa5Nr9TVdZnJIzI71GIeQshsVSEWtjK/uLudgFbaTU9maCd1NBhfIkl1fEDy3uGN47xRVYq/hDybLqTQ6AEDU8E9nrF2eHsccHMRScjoKPk/G2JlG3JspI7QFGeMe4fc5KPQEVoU4pTnZ7kcMASSljQhxF7GS0cfWypb7XxFTkZ96xSJMIwQHA/yWvLyhlIsqh3JZcreOCXUHgastSVMtiyfIw4NTkGi0HGlQmUpbl3XFGQdP7HpGl3yf1dgUg0LlSUGlFN849f4xACd1TJGeOU5FpIe7av8gkFpgm0yhHQMKC0z0/UAlzF4BOh9hieejfxYpQ45YMILj47nVgJ/uUylyWu1Ogqz0bWP7Td5FgoA7ZcnxIxOQ0Pgh8rBjFQI8EUaCu5/80RylYQf2ZMlD5VazdoyUfM0TbGBVqDYlSvncEZBcMuLbSMdaruKIQSo6P3cdxA8MlCt2sZDs7kqdGUjTmBBS3LTsbRMpsKIQ79AcEiE29okdjoOXVFWMY4HwRVm+qp0llleET05y1Az6ei0D1/lZqr52zb16BD1aGQWKhnicPNzDX1INQ6QAscQnQIBFu0RexyqKHKHxp4qWTPDqfXI4ZuMVK+jsF7nJiKrSGcMC0+9UKO9DlXFBb6hs42XD2q99zMQV8Jj5KVg1GCu8CEwIopfdVjGj5Qh5tpj3bcu0aMI9fdGzCxffKl0rYkQzDLE49Hjs81Sv8CyNHrt/QAHpGZDht9rMvNUgCHm57kObb6ETz+UPG3NkjzaWbbQPHI+0LpWsxbeS3iKPPa5lHilwKuUgcXsWXUZPG/Ka0Z/+Ss2LQ2FGZdazEEQyYxTAvNapWIJcXyh40dyot92q1g0gV8sES19qvcjStxK4N+65LAGnPtR4r1xbdneNWwhHWqjqJn2gqT2b8bksMSmbmlIHnZTTXTZBgiBPck3P8PosYkrdITaIhCio5cR2HtZkj51nMCvJJSLzHHobwTct17C743Jtzh1iDUdyIlNlSjZ+kSkIIifp8ojMtNcEGmYBJg3bHxGbpmp81kOXyTPBrGy7yKUAMndNHor+dx336uEkFmihEldLCGd0RBIXMTTOZe2FSxVPS3a7ZYC6dK9GrtqpjGoPqwefjrW48W7BgeHfoBgW61Q1kdJh44NVCYjuXt5DTMgy49tioo7tV7ejzwbnN+XhzrEvlEc0uoobIWGNKy6Wt3XO5oDGeb6+9rDyaoeQAHeiiXiHh3DwfoV6y6Q9Vi6CQYogRUdyTUg9Hwe0XDLAMEJ5DjZDwMRIHkhMKrMIvHUZNSZtax9h9yhmsws9auv6akYl5rnuWzqXuap1PyXidNmdOa74b4eZ/divtbRJtT/XI3xml0K4MboFrKeuuUyhpdO+uJLPN4FUShP+8dNRS7Q6B9NZpSa2DQVgdZnGrlJIsDTZfIxj67nCFw6s5Ob6arNCASSXaFkykJYPW0/huB+BqHEK9EtZHxR+0Im6iUtyIkP2bWSiakIQTrGBPKo5WRNZpKa1pa81IQrpvmP25NTvqdYKDlC1rsZDo5Luy9AyQAVqNW1OOYs0pT/KcgAP7fIeud/gwBLl8Wyef5dXFqIualYxbBH7WdpMoPUvM7kpWWlhuDJxSpYgadHryjNppvHdIkukAaEVwmBxW0Myis+jz0I7uvO3Ym8jHai3CtypkkZyu6BhksrpeQzqfjUZYEW4DNHLdk6FfmrR3epZ8404VtTcsqGz3484VPt/cjLbDdeBoQBKgQOMCd4ubTZFM3IH+KD04jc7D5+HAGSFwLDysYhT+8VxzRHT6d0NBxRtzmazBg1v2ek0qB3XoOQJUhUanNiP0OwBNCxblZHx45/QIT8SkptbECTnsb2mxCC/VmodObJKDZadMu9yvfPIK/CtTJk2kZnfOowBSVAZoqakRKeQY8GMmVhqMQaIjw6LXLYksTqQR21UuOlNyF8DTTrsft0KkJpgAwFfmmd0dKjkxU1e5d/j85SWpbNN+VTq3FauM8MbvoSJrVLRzhl66YFiQDnVVyBrD+TIzPUu09kMBndBwTsWECp3zxyjBzsxISAv2g/ctxM/vkuoubQHyevEqz5XNr35KQk6DeNvRLPBhXgz+bxbDWbFh0pK1d/9Ogupix1deYSOx61G4xQGKECzG9NnnHP5VOUYMATQQm4LgpLdtxGhYxieoV7xvPoSDZeSIFjUuJbHtX4ACLMAilVFPy0Vmoe9jEQ5vAQO9SFhSE5gyfo8SKy5WbUASQESn3INy+lqDcOgQFSPRR80JD8bP7ADckLgZ/IqczXkgogecLShBqpyRLoYUAYIM0IoE+mJ0etMZ6vuD20kvsbYBruaKyTte8jH1WJuxEqlBhAvolJRadlEEbIMMD03Ymylqrmf0zUp1cczz19xe1MUfIK8lIjL9FjQMpVAFyZmtDpsU2iLmVYuQ1HenSAClssK5nP0MjoOtRzpEZmgpLCVB4Sn3YVuuMmOIEbovvI1uODWd41hZhXmZ1muPQRV/E4xOLmaWlYcVzad6HOKJ1akxY2lx6cmq6uDrVYwtfh4dNKJm3OaJbOi9pOMbITSxduREkaogI8aurz9ulkSCOkhAAGtSTPydLjtxCwUVcCeoVg0kpRePLS85zb/KJPk5xaFQr83jFNT/lxNh3h9pUDjy5nIl7VLiOJHZdafAIERgRLqaLTB1FWZWyAuhpCmiFlgEX9yaiIYAiXkhaIepNb+YWK8G15NT1Jh/O0TiXTaNJu+EWf/PQU2nuUlMtsWzkxKJwiwOXkZeTVjl6IIDRH/eQYnDu4KgeMpClR4SGP/MzUz2dI2qQUlZ3F3tHm6+aKlh+lp6Ki7u+4ZUyRwZBMdOUpZPIjNqVlQMoQ6yrd28Gjl1k0gZEZyT1R/yWVhZqjxtYzOISpaP8WSqY8ISExeocoNmSk4WfVDsIAZ5BX2S+9w8SREptiKU2Vjfbfx+JDCrFDOpNrbo2s0q3yZqy8sOLOi0wj2GYg9oBpsSYKQ9TUzckzPLv/0RwpSxDXUSYiXdpepRbmfE4ch5ovQgjJtHqwtDXmXieSR5rx1lremrbQOBKCJRRUeWWrw9WLIZ5N+Wcets6TQEkaowLM62D6k3ap9u8oGfSYMLQrOW4GHj/Icqx9lQXTXtsjwPkqBUkTVa+h0Lns02QLv/aObjlVucF5jIHg6grjeCU6fDENMZF12P9i3BOmpDvLepBv/rNq+I9BMgyw9pwsRNaeykItsVMVonut//iKEvMak5OyiHHpaoRCIhVSAiLEmquofNkmy4bbUlvfqNrtzGcJqwHOzDLNdanhczCIv0apNb3JT0PcaTXdFAkJhfy0bYS0zxcjqOLGAD06havbCUp4KGURKQoPnT+BbikdtvB5F6OVWY2Y0JaUbBpvhhT4KcN+fKIjpsewxqiNu5KfjgfWcb4mzYkcK87lRmpYw5OSIRRcWLUI/yuXFhl6kpu6useBo4CSMphuKgF/H5I2U+SF3TdyXULg1/I3VGn2Po6n3yujiNXDaPseUJJGqU3axLvpkN0Xq0zLpKaSb7sSZRfSoTYrOUJ8iGUtyanyAiCYQtcn5Kav+uFcND9GYDjFgkvdFJTwK9vLwch9ADv0IwQDaB9yKqPa9+mCFRAGYTXzXqp0lBbZc2lMmuPkZREyu44vYNIHklfFrZcxxs8DUxeT1G02u2tpzGCwafk9zanME83ES3xGblVv6VRVdLfCRiu00NDrZyCQJqq0SWnKQ0MADOsZxZKsMgyFkEzfQCeBT6rAtoXMdEaUVvetVAYVVcx7F6lMqx9qUy7cpe8SPE9LbFtVcKjh7IjY1OGK9Aj72veFsVzSILVB2z5cmuQ2ujQpY990Sw1ynUxqMNiGo/QtBca4VU55XohrmB/k0lkRaf/QIkCIyGAOQiqTEMDSxzpGXuGk+GsgcE23VPWbegQBwx1payfPHluH/QsE6nGbpFb3U/W4lMklKBkkNX8Yt38mIT26gyMu6ctbS2SvIZIDQixoSk5K40vzq/+DRh4ZTDGFgQSmXtdSmdK5Y6rYNg3MXK27S70kRwYrsTZjhjeNQlu3T6APEmLWVEvbq2antMkeC2PSpGu+0SoKX9kjx0NwPMV1ncgxdO/REiWdATalhlonD5OACCQ/QvvjgfLQX06vY7BpgPJivMRt5CWyDAiWEJsxna1dh+reuTHGPGGUmrOlaiVPn+w62ywpIUIsPV/FmWw55hnXT397mMzGnVlKQ/GX7ak10A6PzUYMAbYwJxHHzHmyD6mQltoWhgCSR5XbtFaViVlqBAJ/ZIut46aY1rFCAiVMaa9e6qVRtvvPJAmpDyD4846UeL6mgLlImvkdCDw6l00LMCi9VRXtaW528mcrNUSowgpL8JKhhln5xamNKM2hzKEvuTxeBmpF+8lNPce07bHMsLXN1zBtvEgtbRmtzS+fTtnkr0hCmvZC/clmmWJgCushptdL5p5Gsb0UEzguzT7jqjtufcZnqxCJQD8lEz4XIBKrvjirjYqMRiUJKkBnJAT+THJVkwy3FajVdmSEqdmjQYzVyygV4Me66X2uHtUfbtgseRIqYC28QL28zQz9eJbIlNTKqD3qj5Atok6uk/L6iQoUbU54aTL0U0InTYJW6Ocw5ZWT2qokN+VNDjXGQxj+mVpc2l55x3gKMat+NlzEv3ShbgtmKYEPnTRnAx7V/Dr2LA2z9Ps+KbtGlflJzf3kQS59zlURQoBb0573O1qoqN3nhs9mS520FFkNK9WWJpU/hJHdUqD/jzlf3Ny3Tpm/nmLw6VpGT/8isYqiQ0MiYiTrV7qL7keOgzZ1gGEqDPFEFN9SXlp9VZslzzwu63c6RTeVBS2d1GENR1DRv4FOMtCLq5QvQ6zbgtz0twJr4aJu7/NeHbU0jD/yUikIAlFGBEFQKsWTinDZX6+d36eeFl7Tnws61FZbVJPh22H06EwmHpxPyU198/7O35vXjULdgwBuropK0yx5MpIGjmdyS53IkAHHF3MEdJngZw7w6GmuF/nZMWu66+vJXdO+p93/ych5q1FpsXreyE/uP32Xpno89N1saGB4lVF/Orn44FDTxTytrms7kpNik0/U4VWoi5inAuBUcjIggyy/URWzmMCmnpYB13BUHyCYMr9KFeZDYPKZEPtp5d5sOBUPG3U7737MOdfd/+JHX/8wbMRff40Y9sM3H790/3XnHLN757oV/MlMUPpAyZLHw5clua9Wj15EwMX6lerm/XtXQ+q8E4YVfkpYtW821NVcOjlEoDIB8yz9fhBRuissLm1VAks94n1yk/6+ClzbOsqUziJuVLFMoNqaMb28fuby8KSnq3dpD3CkxgIj0myqf+0iwDwTtObwad3Iz4pMcvcV5a5rEttqAHzeK90Gj25gyZYFjkgyJtWZDMEVX8usgz1jnPNVchivaziOSkD9CtzLDP10xvxpcq2EK4mjIFiqNb3JTanJP39GmYuYV+z5KUNW/+9Tt8koSfOQ2guE59pSqguvozjmBw4xrU6iQfMkLuaj+IJMc5pwaLM5CHlACpyUbDTw6Aom4vvSF9f04sjx4+Im45SQeElLP7JDNhoMoUvzrrHqjsapfcIu7cxQi5AywAMJP6ahjBWiF8jLa+DRw4zvV4YlniK3Z9moY4j/aqXSdOgI3WSiCoBronicLSGPXobUnDfRMP/Kuik1ePRAdMw0m3Si97Y7W4OzlNg1I2VWDU3E59d7kMextRSmRf6lznTwMECImMk891cfSq6TNWGPrgcCXRrY4D/tfD+dhpr/ImRk+kr8E9kwjVye346/UV6dkg/v5NEhTP30XyMvZaYDh8THVDNzbrgJ3bOojdehI9fpzptpmHgKpc/g6oO7G/8S3KVOajvpjLMg5jPcsVxtlVzL7a3xH8Lk7zDEwqbkpMl0wOCYycgxtoXEx3XJz6bw11N33sD58DTDqKNTZ/DoBZ7jdYkzGfp0G1spQ/90RnnMXHcK47vgO8njWWEdi3ZSSuKYdnP7/qhidmQydvlgt1ZYJ8sU5wcZuvqfyAtFAAw/3DwDo+Jv1anNSfz+6k/nekmGEp4hL4/pd3DZiS1BOXFwaVuOmCiF6huZFtOB31VgMpDba8VhbO6LHPZ7gcBEGR9f/LejlCFd45wwvWdP/gZP5ipnxL5STv6y03UDW71f4FSWQO/QYJbwi3WdyUnFqI9H/xIzSUPnWxIY2Ym8TAuEdMxafR3Wxhp+15xJC7zJcRxiQROW8D2MDRXg5zzmykcIwKV+YfsyBQyHElpfIPNNNU4eVcZkLNnzngFNu/RHv9tYjXkEBhuOSYnBoaYLeI5f4ngmHtuXgoGUAf5HXt7C9WcyawFjd/KY9k6+lCMAC/xsvqnu+RPKvIs0lmzj6ZR90cKnmm9A1atMNow8wVO9g1Lx9gqSZ1OYKdrUg4RejsxXssZ4CM5LcIXg1yONIYqJbcg1elytJldN10xSmYwlG9uzgpkBM8yJS4ESTDVIzTDu3LrmG1x6nyN0sy1226UOalIxxm335yv9BgRgu0RnPjhQ8eNkxlCQenztdO8CINBMJi8r+sVaGcnm47i0x9zYpOkGG6Zd3UQNOm7+F1BgqBbeTR5TVLqFK/pq0yJY34oOk90djOlWjX85iAX+NrcYQ71fXRuZQphr0sjWnkrZmYP71OTTGJWxhgBYeG87o8fl8ugUlmOAa4Yvh+pMZawe/Zqv7HzAVuEXmM7xdU5Y99sYywDNfBXZ/2uUMRmrhMSIrmXJMpHqCqlf1lSDxrm66snuyuuNjVGf8hz/xuhRJ2q83mzz4vs52I5Qq8ziXUoBV399A5vL6pz+R2SKvYo0GYv7KVsjg0rSd/5X2/6M4YZNb/cj8xrQyuyZlyFoI+DcIIJDPzBaWdqSnBxsZyhzKB7CczippmGZRBQ221w/Jc44Yfhy52YfQNnbOOJT3YFAYLCPxAwYcmwNIxvQPDoLInmQ2NiVL8VyqTfAp71KXj4Cn25iyosQYwjmXgoU1ztus9ze+ZVVWuM+pPHLin6vcdnhiDOV6qz1KEmzDVJVFSdc1szABjSHvmI55t1rnEdPad1T+DZPk4+IOq9js1PCi+QZMAlQ4nerrb3GILdrHz8YQBBqJsOxq86kjI4Gjktb/QGpXcxkgxDAoge3VCmNY5RqvwbJ69CmR+e81eaLEYJvKVo5106IZa3JYb7lDxEgcQgxu4E59G1vnAxIbUU7hi/UNwB+7BRdLbsL/nQXIqTxBtWA9u7eZJTTHp3LcRxiRRtyWO/1IgRgQ11Lfh6yc4gKSzwQ4Eryue/5aJa+iyEOJ8+MVQv0e3V1GQ5647GbrqJMjwKRJ+02CaFCGp2bSK0B7fdzG6tgkeZjE7Zp8idXK7T+KXvc/CNrTmSzI/CPZ8AYI3N4Dl9lDU3xqbubnjNcc1szmY/9dWvSIkCmG+roawU3O0eJRBAC8x/pqTlthGq3GjJ5EDg2oWzYvMXfQiLA+/kHfLoZAV+75GHELj16ludwXkN++h2fWqC5rUV887HiRorXL7IdeeicCjgqjOZdFV8eUcOINn+PzuY5ns++hwCX3maKyjIWlfMO0ZYbeJd0a8Bt78nRF0gKHEkeK32jM4Yi1t3HdFMMuy1ZIbd2PGqirRjcfIPu9IRr2hlA7tAXCMA01jc3dFzLu1KafOOYQ5/x5UHYZMb28dxxDKcRYCC5jPS9Hp2rte1rpjRgN15L8azaBshTFkNoThpugAwEsOrt/V3mFjSHWq8CSyZ8CLn8HnQrAjChSrgv32geHcNnp2QIf7tHt/EcLmhEDtOLyGZn/RTG6VOy26DBPcgiTSGOSy3eKYNMg9P457qOrOQenclzPKO+CYWP2v9xWYntyCHPmOtPZ7MTYnZDVWI24HBbVU4wfklHsXfzzl6vLObqm8gU4kWI5ecR+ZbJV2nAHI4XlFwJRhACa97v7/MtxMyhTzmODeEq9OhovuJHgCH5Rn+QjQkY+l7VzRDDIUzfSnSsMrPFdWOg8c9XYDK8l+I7bSieSdsE2eiVGDIFXqeTT7ipi8YLhvhruQKhTOmu2h36gg0lA5xrd9QAiJzUZz8eXcbBmhNicTNyksXUG/DZOiDkomfxFwTAlMPJQmyH2pM8eKpWxU5HbhMGAtjw5YmNOK7k0Wk8x1NqGxKju29ii9EhlrYiJ7doP/HlPogt0ZCiBdxiPc/hieQl+B7S2e2JmXH6NO3q88E6ZVYNahukR/WeitXmgdSQz3tmD0cLRQnPhMBz/Bh5huQm97BFaZTwhvVPV23TlpLJLwM1U5tyJF0SY+hztMrLVjer+qfQRn1I064+hyexjmzzbPYjgSAl2Y6MhLZc69HXa1fykuxAuITneE9yDYlNdadpLdJc24rOZJSMxRKmoF75eiDUPg/DYVUnmI7HqNbn/VTSGFJTY4IySSy/lMoMAWErJF25WmepSItfhqqtYuM3JzdJsAnNo+N4jif5aZ+lHRICE2rmFP0FTjsXGJTzONSaoTkWuuWqN5Y1PPaDVWWa9oEU2cJLrSJvtV6gpY4fVHTNlHBWLHytf92kEC69yXFs1H75HPqaE3W7DTUlK20Q+J0qFHLKIfTZgKqIqXvgC3N0jEQck5a3kb/tXimTna555FTdUmr8NHalaU/s5iWDaDiP41hiV3KN+wRHfLtezSEHo/gq9hJ7kmfeGvJ5dvdfBUytvZ+apjWWxTHpsQUsOk/ZsuNbbZfq3CfillJDrjGDYdw9O+jNolUcW5yjHigwzjUqPt3PpwX4KY/0r76GzRfNW02RQ43VzL88q9qsLKbG7o/9ByDUu/qk64slCeCpinY/Yj9Lvb6Lv6FMHWLEtd2riHB5evCXcC95RjGBz4Dgi9rnkp83WL624BvMNMTKtuQY9gxe4zl8lbxKYdydHxivY+L06brIkJ0qZ7LcNY8vv+OoFDWhSWDTsCurhqg9hee4H5mlnaBZYRyBM2fAZ5z6VeQZt3IVjsEhQsyqoB+Sp9nf9b4xGkZo9tNk0m1NOVnZsm34dajOrWtjPYPSZIDe6r/p56t6aIHOrUy82pujGCAwXotQJhkHcUbud+15erKTmUkXGG2gBzaYx3PYXwtJZbL2Ovs8Pkn9oxgmhaZl19eO4qeVgzBt8W7cUioRv1y5lZ5PVrwEWI7jch/wxSArJUgmoxQ4irw8wfLVgKtKL/VpcTzzCpkvM/QFQqDNsRHntW5w0LNTY/ZRMSYlParDZ1tT+YBtW0v7j4rzVKQT8fvNfRyqsDe2p8ZHSv/3wfHoXo1ViXEC5ByhP87nf4GRvRQ8OpTncFrdWG7e6vg3Z6cVAxm7yFfbk8WzYa2700ULgSB93l4GgXEP7l1bzzTjS+fmeAQhJvrmlUfqTOazUlL79ssPqi8kE04qO0ZWtupz7GVWmyYuEt0u+mY5AKGxziN1Imb662B1EcuHZGrywAZI3ZBCRAmRmPbc4U20Z+BqI/XxHD9Mnnn+caRuJfetr/t3zvbHK8k3Mpo9z3P4CO16y4gNAAIdk1rTjHMo1qPa9oYt3ygzy1EqEepmF310zhbaQ/DpN57jPQwsArj0MV8UFxiVFw58upTT7/6ueoIg5NKRxNLx2lWEwqTUJCPTwuvqU8X5r72v0Vff5h1kKsNAjB9s46+371KLaItNDEExxKSaWcKvBIkAN5KfD67VcTVCHjtGT9VddxqDZfXkZCnWzSe9ptV3N7W6qTJ8d0eNib+iTCtCq3xOfumAGyCS/98BHjUyBPlsKzqDiuQbu5GbxeCENA7weuRxhmrPMByqeKFh0muS2PRM+6pfxL5cYO6Fc2OGlIYGjYc1FioZkqW9DY1U/j+c3PXfpdwRK5Cv2TKaFW1MBZf25SqtI9UmvN09ZsoXDIXU8KYlkUGm0hBLHyVTp4oQU+ua6hP7I2Rj/tJ2XJEH9v7Fmc9cQb6xT6Pu9OgwY02f7RQ35Q9Di/tXxw3pRTDctAzwPHmmlgHe4KtHhVjZwfooj57hZJ0bZfpmPWSmmr7YrbIvI/NCg3+Hpzem28BVaTnEXGizAiFfyeRj24NHe6pcj3n4GlMD08HqMCNNIfDV7nFTfjFs+XIImamGEPM2M7aRyqeL2azEJkiwvByjMfqmcZFZyXz+Fpm9pnxj2O4DpNyQ/PFbRidIwzlRC5qRY3X9Vk4fW2z27qU8ei06zEZ3vtmTyKmSKU8wVfT9JDsNEgLHGwwe9dGCLVfpZKDNUS712MTJNXcueSn4/CoZaPp273xkItJLvjt9iIy8XHR+6ebkZM+GcQF7LJUG6zUvmxpq/CNpMi86zDYTgI93i5vyk6HPB9lokKZ/BA6H6k2HyGEDRPh0dlxlz57oHbeW2shsdtVSZBgApTd31FuEiPKVoff7GWiQCHCm6bWWARCMqCdtrbnUZhnfC90SHjHYsxz9M4xoQSnLTOue3yreup+/DNu/FcZ47bNMrt2CPCcN227j4gfYhzxLw4d8OIFZDcgxkzY2HmX93he+PC6bIlJsZKcVD3eKrz82nxm2e3l9rAd2dh1/oRW/PNcxu7MwX6SfWCvDUAK0MA9IgRPIM5DW12vHbfvf/sUcLUhkU3OZEMC821vHTfnN0OWx5bGVU2QThPjvrgGda5PJpD5dEWl8qIdtrDnUaDZnB6CvyTGL1o0lOk13vuS1UeughCiF0U82sXmNv6Rx1Xv85COuipa3zI0ZMgkRRvhgwofX792GDCb9g61WFdvaZGaz91kwoIbrxWg32/rkJ4Ys0gNpoDrGZpEpDAAMPdZLzpR/OFcbXf5fuZEEMyiMKQSw4vfXLu7XOk7qORnwCYcACYGxNTINZUc8HQFuNiJbccrQ1u9xzAODpuk3JQIhM+gcZMwUfLgnxU350FDrjL+zinX19UioOKCTLv79lfP7tSqXsRsT85/kK6ighHttqzlUcxIn58k4n582Xqyv1+PIu7+eLKCE0IpzMsuay1Y801ML30rkR4Nz+LeIvaSUyKBT5UkX/fHaJXt3LBtx0jsZlu5Fu5BnWf0+tkxFHe9HngH1Tmq8wwkPfj9lU0W0EhmEiXPQT725lcY4kS+FFn53enWd1oCmG7KJNBRBoJMuH/fhjYf1qBVL57mLeB4dBcFYtfrbtWzw3AmQ6dlfWSXywpb9znr6l9myHC1ixblsMmlcXhh2cp34q8jcaYjCYqe75qoAGDNkFCnKkq6bNuiB0/ptHs/5fc9h3CESq4N3WFb7nbV/dQtyGFrIYv+01laHXfvW6EXQRBAIUYY2s0ya22sGVn3fkvnvJeVm543WnM42dnudVAQCmlg69p0bj96mLqtVl9ryjcClImsfi0qfbuR7h4sAZ5GfLDNXPPi03uPsx36atV7//0G52XMyLloot6fc3L6y/X3yZgPaod8izleReaOBhKqIpz+cDfOGPXf5od1ql7GacHuaT+cjAF/1aqQ9822XepYQci6ByUncbrNdTrv744krEOPnykRaQMYY6DHkpNpxt3OvgXZ4ajEQxp3OvCxU1UtLArrVOYOfvfyQLnXKW00sERvMirrNooPID+XTI7ltVVm+HMf1497nNe1z0u3vjVkRlivMlaPNQPoQWPrSLrrb+VfEfLf5xX/Fnc7EIbjjVkNoYtPcYa/eeFyvJmViXRLOubRN9MOlSSCbUFnTBSHA3eRXwT3Pjyehtdvsec6Dn/yzKnZ3QSmI7JYJ/ZlJ/+dFLSrtdp5tQKMDP9xQJacz8MUl5Iq/P3rg7D3aN4hHR9+rknM+3c6aBvzlWhK35Xo+nMCkWpU4dtzIPS/u8U16HHbFM99M3oDy1c6MneFAp185cC+qjNv52Omu98wqT56RWWvFVrFp+tA3bj9l57b1yxRbI+cq06bmkD8OghF1lxU1h77jy0pkiIPJq8A9r8zfaNhxr3Me/PDPxfE/KUoxXh6JLBVx+jFXttHdztsiljPVO2WwLNtDKGutStWeFn9c6//7aeCtp/Tr1KhM2bXCq3i0F7jaCbUI3c+C0qfzWEu+r5MbSx/LlXiadtnr7PveHz4jgC5CVevMYLvQgqv2InL12/s5FbGk5nHy7R+Zo5NLHZG1eW2skFfGuQ3Tf/3wwfP269GyRvwqetR1lHyWb0xmCPzjk2M9XPuVXDggxPI25JdJPmq17nnA+Q9/8vusuHta0ChnN3MxcfqRV7TT6fO7iPl6w5O/DzXuVWiITA7IOpOziovxiDl/7A+v3nrqnj1alIm8jk9N50OwJcgltfJA68HnbDoi3AC9INdtt5Nvee3HcYtQKfckkNGBWsfMf25Xqhp93m7z73n/dFTcRSiLC3llSnllUsNN8/758ZXbzth/+3aK9UJD8cUW7GE56dMZiIIduPTRu59680vfjZm9Ie5RQnevXFEuozHxpv3Styc30umLgXCU/9c77psSEJa7kg2cC4IyVxFLpvz+0WNXHfonQgC5ZIxTl1ov48NBYkMZDw6CCt3LdozUQu6k23tU+CKyKJB3v22cFtLLhfDMD+eozFUkwIh6LAM084fX5/SVMJ4+av5thVCLWP1zyZsH19CLEmVEkSD39nppYbkrWUPEriJUigm+pEDabtYLn07XRs7gTFRQYUDNfnrtPeSGr09rXiF98SBvctqgTdqVsi3k80ZngBE1pZ61UB61WarhcoGQEvEdhFy9RVlMkUF0u/kfdaUYwkKCFfU81fR1drJIZHshPhKuYjDx/Vgy8DGCnKA0jADw3wM7UiXrn8XkSu5ez8wqg8gPIGWIIyv2JN/XE0496XSyK1F0XC1ZVI+pUl0O6jjnaLgcgZn/8gE1WN5D5nv21fpHvLlEa0LLEeQSIRY+dOulpx+xV6/OLZs2qB2voFQ27dSTTy0FTUcS6uhCv1P9tv3Kj/Xj123Uon3PfgefeMGND77w3qBfx89W2aHMBZgAwOK3BzSqZP2z+Fyp+SmfrymDyA0yJsL1i6ePG/HjZ2+98NAtl599wqF77di9Y+vmm9WtUfXEzPUqK9xkRKX/clWTYK92g6at2nfrvddhJ5131e2PvPjul0NH/TtvlahEKmH7QjtCoTDLPjqpmR7vCpaI52vtL/hpUxyhnbJ/ZCoFQoSV9IBwzeKZk/7+bfA3n7zzypP333r1hacfd/gBu/fZpnuXDm02b7pZvdo1jEZ6Nes2bNy8VfstuvXss8cBR5xw5oXX3P7Qs69/8OUPv4waP23+yqByjzEMRVAqxce8sjjIMpgVn526uY4paMLRED2u+13kB0T06OMi1DkzVDIjwjCsko+U1i5fOHvqpHF///Hr0B8GffHxu6+/9OyTjzxw9203XXvFJeeffeZpJ59w3IAjDz/koP332WvPPXbffbdd++3Sd+ed+vTZaee+u/Tbdbfd99hzr332O7D/YUcOOO7EU04/65wLL7v6hlvvvP/hJ559aeA7H3856Mdhv40cM2HKzHlLVm+sfGJQ8YOSMREvz1keEyjMmm/+11bDOFTYRJn3Mtvd+HsYYwer2HoOSDfLilBPinQhhJZ+hunzJnX3oSh7/7FUsdIJo/0xsYb9FV+d3bFqmOLVhEbb3PCbhggqi9jIs7OCBDSedomgvBBcolI3UCZRrlBA5pvwEccs/uiUNuUxRRIR6MwVVUas5ylqnIDMZb6vd/NRPjbv7eNalMcUTESPK35YF0dAorpWSCVi+5Z54bAm5TGFFNHhfx8vBRCWRHUtQsUWrfYp/rxn19rqlW4cU0wRWphqcdwbcwEg0BCyGtYAYM33V22tMwsliSl2zBUND3xkbFiuc+Nt/Vo68PR2FAk/jinICGe7q75fpS0l8rJmGeAbbVTu+LnCjNAa0dqc/MZsVLs6GWJBc3KpiAtXQ9Tf/cnq1h8ZYtdKQdNvpAdASFSzHl5HPhV34dOzCKpXUbEt6hV58StE9aqKDmbWJ6ewg0Nt1lS/OiWxQ4HXXO3LlKCaVRO4uMCf8Ol+7Ux164k3C/wP0Y8IgGrXE//WKvBnmi+r1juj+qBpg0gnfQJiq8JO6NJ+CKvpQOrj/JUkIDlOnEVeYT9zW/JnJLTB7ap/zoUi0Ns/Fk6ClElDCc8UdnDo6+TPKNogENU340mo4CpEKdSXoPnhNfvX7bYOYfI/fxT3Mw0XIEz+R2hbkgljpNU2xbnlo54+bbuaWuj/B0Im/v9Xb17QT7jUVwW7xDPVYVue9tivC6GEiEhldUi9VCJGK/Ulsn549f5t4uOTePQSAoYE96CCfujTpQxcXwFuo0g03/2iN8euyvGkvv2Qnv3TfQN6+LFxSTTmLY/OQMBw4kbyC/rP6wx5qsBBVDM2ouQWB9/65b8b46ShTloNQSt02vm/PXfWTo1jtJ5TLuxvVwJDXv1pQT8gb2LiZ2SIpa1VGHVi2TLV7nbYHV9MKkEJFSl00moC2iCINYgt/PWFs3dqoSeLbiUWAOJP5Qj8s2oXdMotNnGc+bVclup4sUBft9sRd3/5bznSsMCTRnZ12ti7xvm/vHRB35ZlQqlTucrFuwyVCwTbk1vEzXQ8BEMV4IEKQ6gbJ63X5ZCb3/97TSzrDQKdVBZt2lCU4q1gM79/4swdmseCeFVm0PHoYpRk8mMFnkVeIYcHGUKowJGVCqFOmepFjdZ7XPrSz4vj4blUkIt4UhPlNlK1ftwn9xzbvWE52iq/HGcImAGeKeQ/REMhkm+xWN0x1sRaSdJYEtqk18n3fjx+PTQRlopsxVTqXQ/LbFRPLhjywmX7tNFbtZzENtdYd07yJwR+L+Znmi7lCKB/V/1uypDWbL3Pxc/8NLdUsdWCaVeU4m1eq8a8f+cJ2zTk2AeoQ19CIPm3Tc0LuGWX9mFo1grwFLkJb360zpaHXvn80HkbyloNldXiZ1cE5exO+Pie0/o2jYVHL/n5Uz26maE5RGKvAn7o0xUsDawnJ9nA6kS5O8Ws9jjsyhd+nrsuntwGmnOQRcs53T1RptYZLp/46QNn7dHSpQrrnYnDIQgZOFUvJq+A/7zJ8QJ7w9bJ56dOuU2R1ul+0AWPfTN5OVCGIV8UpEKeChuh4o6Pv3PctPDvd287aZeWZcJWZJd17oJVycsArxbwH3JYuFQnl8lNGa1Sm34n3vrOyNlryzkXaM4VkBRTlnUvhC6WTfnpuSsO79WobHgyoQFrJETy7bdjizhl5zUIkz/zDlfzaqXy/4Y99v3f/Z/8PWdjeedEGFs8WgFIH/U+PGXdWzvz97dvPbFfR78yZTl2cLUdNSYsQqxoW7gJPToCgqG54nIjmisct2wUa9bzgAse+WzUzPVlsmwRBDHnZO5uV5Nl3RNlwuSaaSPevev0vbpvVkGwMawB938MXa1D7E9e4YbbUGKIR3uY1FyholuZm2i85W6n3PbG0EnLy8UE7Srxcl6eTh/DMmX9JROGvH7Libts0aAq7hnz0ytMPmSVcGXhBoe+4uBSXdzIoNsvH/nKhPh67XsdevHDHw2fvLr8VWIsY1p0zq/1TVGuCXXd1F8/evii/tu2qRMPG7H9FBgs6sxOvgU3wDvFm7DWzOTfBgn8aHCqrW07okxUbNhu+yMvf+yDYeXKeUD5BFNC5sFSnPLIsskj1kwZ/vETVx7Tp8NmZUKDlj46aciyv0CAxAn/Kcquso53JNPwFa8c/Srluohs3n3fM2554fM/Z20oX74MSkEOK+rFUketnFwSIcqIYOGY796474JDt23VgOJC3z1ZmjgQ70JJJk64tH3BJvToJJbG1aPLNVak4Sp+uXv0Grbu1f/sW5/75Nepq0VlUswwjCWZuSV1DDVeiFIQlm95WjLuhzcfvOzYfh0b1yrnv75WkEthHBiAkCEO7EVewf55EEHy9ZcNZTtZp+oqZRed6NRtttW+J19x/6tfj5y1plRBzaQU3yMJZL5QQQWNo5tWTfv1k+dvP//Ivh03q0Xl00e1AbI0DwBXSj6TC3BBwQaHfuKgnFA+ZKY9wSSndtMeex538R3Pfjh0wsJVmypIz2WOUBpnX2n1oglD3n/qlvMH7NGtcc3ymaVejMuENtx/OQhfKNqE9WdxcKm+lQlB03FUglnB/bt12my7z7Hn3/Lk29/9NWOxVprJDyDw/NEHbd+urlve52K1zWypZHzAQTiiWKNd6sVAGeDq8tOhZEeKWVFsqVHzegRS5gYVYHDZ1NHXUsdMEj7djCB5wrnNCrX06HgGSol9sqvor78WiCWZX6DEqknICre8lAYe/0rdZHxvT6xlVIkQazpTzegNYwbm2gczEErsWKgPXbqfg3JlNg7O5tHmCyF4ZZzNrPJbAQtjQnKKUBOVujWhibIPjVVJbXx1PyMbcduu5yA8mbxCDd8n32tR4LfMLLIeDpWGMaqNs1asKSWZGqn0LikRJvg45MY1S+fN+HfsXz8uYpQSJXycnVW1mmOSf+sU4OFibbH+9MQpZQnPkZeV8nGFknwgj2vUbateffrtffDRJ/3voqtuvvuRp196/b1Pvv5+8M8jRo4eP2nytJlzFyxetnLN+k2C477CYOO6VcuXLJg7a9rkSePGjBzx80/fffHhW688+9j9t1936TmnDDh4r1123LbHFm1bbFa7BnVbiZDv+YksXdK/S+9xEH5PbpHWt2WgFDg3K8EhbwwCxvKQwLR6Vbkpv3a9Bo2aNG/Zul2Hzl26bbX1Ntv12qF3n7677rHXvgccdNDB/Q859LDDjzjyyKOOPvqoI484/LBDD+l/8EEHHrDf3nvs2rdP7+17bdtz6x5bbtGpfZuWzZs2alC3dpX3M1LnPwSMuBCHZ2fJx6dbEm/GjX13jQJNeUzylJm6HmCPtg8QskmJAF+S6gdTmc3XGxotnUrcYPzrFXg0UL2y4FLI1uVZuXQ4AyE2dCO3QMPdyZf7Q8xvRE6mLqAEklPeXKXmcaeMcNmEU0ZU+emdDSElF0BgfM0MLfc41CVMPJxIUaiH3nLpC45y/0/Z2mvgU0Yaqf7vAeRnQV627UaEbLr6uztHyUiGQv0pyWsBLivShP54CCT+Hugp8rM0H2g2T7sUX5locWty05901BiLgBEX4CYVTLJUDkKQfER4qTiDQx1XJm9T4H+ZGix9OkClFpyoYZHvpD6pfwkl1gc3JGvzbXqEo6IxjJzifLxH8mPGZ+/2Ozy6R7HXc7JMPZb2XMGn01iJQqzegtyMbcg9laPb/7RGhVl6dCEH5cKmmRsqf1bVOE4mhJPIT3fI6L4OIeNjEziD/MztRwspk8/MIouFGV5gKfVnb9m10yrOlAYhNmyVZqND/l+cqTxKeC9zUxBHNXSGkmGJiW5hRg/joHye/MxtijlJ1eQ4G8r/qU1OihP551nfqwrMbpzFNbSfIZA4XEVeUVZN1BwXHFz12Wt8ESUwypLaz1E2E0mJ/TI4AfHoVQQy8az71aIMLvWElMmjdyI3e7ODmuN4aQJcTn5a04xtODm+JPTpSDIYruLo+P8zOUUZjoZIXi1tVT5Q2rE/UAjslk7pUK1xrEQBRmR0XDiIw+LMJgVZenQHB+VIN7sXNi/5UhyBuS3ITWWS8RpKrKn7uu7kZjJ0S/5ZS4RbkluQ4QOONop3ycvmFsL3ubm/hkT/PYWJ+3ms7ydkgP+Rn80hpNE0hEhcO6AgAzl/cLwDuimroeE0CD4aJR9P3+P2aAfeynMpuyeId2goR2S4uBgTOtRiAYfNQzM6+nnUD6ypjhQ4lfy0BYq6/7ISCczKbGZzj17iqGw8SX4RBpe2gZSJl3CCzOZh9ulqBGCkCbFpe/JSBu9yEkltLhKPshouQ4BkhTZAmluMYUDyr6xDTGlITmaXYj/jpQkwdTNyU7aY1YCRCCXcTV52x4b9k7coMLpmQaa8maPE/yO52R3/msyG4JQlfJGuILEnb7U5wC+Znnt324CkIcSy5uRUnN7iaaHwMvwx7wlITgcC3JGeZ+5Sc97hwkKs7pThFTOH6k9N3qJEz2J8SMMhkm+h+F+WvwHy6SZeGhliQIqak7/nJRJqLIss1zh6LoY4iryG52w8N3mbIfplfAY6SEt+2KTAuh4piY4e3cuboJfwYranGh69xlHduKYIg0tbAjL5ZQB3JCfTn3SLebw0ASbWS0U24evLr+JTAcbVIifb4XoOeIH8aolvNSMwqWbWtxTuC8lKU8LH6Xg4XVazuhBCKI6PbIcByfdOC/AtFWLKqxnmHM/+OXw9nSbbHHDIH4WAkyjApeRnff7dBzL55pGJdQow+PQsR3n/CQu0T3zBSyNDHEe+8cnEKyjxEn1ETua357ZdnLxFrGpBTnXEx7kIcF7mg0tNZvHShFjf0/BH79PFELxDWMxqbIEUw52YvEVgmyLsVK1/OBiY98n+H492B0JeB/5tSK7Rajf1WPiUlDYIGZGvfpd8hAhVd9riqzdfmXh8DLF6SwsUGny6So3BxerAl5GnGZxEbD4XAqzterdGygLwFILkM/CLyCvAC34HA0ytY4cM4iONhlPeZ2qc1JLfwbzNeiV8b4kXUJcgSH5tUQ+SX3xtHs3h1lByrZBBNJzKS2P0VIgePcbrgsCiVuRaAfon3/+/EG8HxadrOGw+Z4fQ6NFOkpcmRLAT+QZPwwM+JSUOtkPpxqVem5D8wc9FmO3rWZRsvQIVny5WNKwOzGlJrpnTcWzSXOCdh8cSLbotFyJMGEJMr1uQ3Ur85zBbtKa69AZK4HXgl8gBM+vHAa8LQy0SJ/5lcGp9K3IKr1vjk+9ljaA3ubbII2qNQcDswCtG+sBX3ERL25FrjSx8MAOo6TiLrt5sVeIJRYhF9sg8PeqxjpVG6ns1MHABNwFnWVOGOIJ8e7wyfyX5Jt0Qx5BXeN2SiYPARKu85TgRoeR1AIeQb9iDOEF7EJwlzUcsklB4dAtHE8kV5BddykMhk3/5M4gcmzz3h1FSwFjtW9ONPKMeQ69NvO9KA/xK5FgETkVJJs/4VXzhAgiOQZhdm9TDaQizDDCpvkHe4NJm0xFwKqEGRHPJIrAvx+JJ3yi6aJ/uTd6tEi4lzyoV8VaLIJgd+NqUopT27wfxuiBDHEm+VYLE1usTd0rg++LbDeiN5NsmhFrvvl1yiv2AkFk+Qa4xBZlHdMUGJdxPnmVGCF+YNEBgnEdFVwyG4HHLLvI6ZnZVKXAh+YY8gNMRSrCqIfaJFBMSdyrE4npFF2pMRph4UFyyuW14AR36iJkmBA4yQnq0o+B1QWBxG3JtEyC+ZWD82tCBnIL7sbE42L6mWOjh152EgNnxVSbM1ONS89m8LkhZNrW2OOMX5M7FltClbYLEQWCofXJOj3puYKYJMJl91EDllT+zuiBRUvPH2ic83IUSEgX9TYdXbN06GDJ5t17PipyTkDuU2YEfoqSOG15iV99a6aX5BSglHyvOJ7/YunVO8pM1lXCnjXJOj+5XqRSrZB/bx9MWFALJWRWe14JcC4WGoyCSZ1S9vejC7Rysy+fYKCQ6RN9FktnxK1m9w6f+kKwuhMDeNsq9XNot+awjwAtFF/08guRbJg4hz0oe0GwWBK/jkpVH1KPuqyCY+3tfa6XijENd1yBM2AsCfFZ0rX3G8OZn0/Z2yjl92lkgZHZ8ww7ksyXSDdSLUd5a8Pu2Sh02W5Q4l4/AcCq44g8GTsDlm5NjrSZEISWnDDC/NU+JV/nil/x9J+tZq/b1b+IQ4j+v4LKpzmIIiNNci9XJ+R0YWYtcRfGfEJu2sxfzwOBqBsZ6h1qsZCjoD7WYJ9BwrXgFzZ8SR5nXp/MhJCNRbNdftgoKDEu4C7G6XZE94aodhsjEG1Lftlc4dKnVAghu+Ti5DGofsDbYZeoGxkEUL0OzbqkXuUUW9k2+/lOy2veQ8Gk37iRLClxCfvLLNVoJwUz0m0OOvQLC9Sgln1ntW2TBoxM5GAGvSlWlRxTDBGuiFQKHk5/0LDyR66xEAsvak0v2grM5psI/jgossU+Xc3S0OMVq4dClZ1STO+/11iV7PYfoW2YXpFQD1+eJSc9lqdh2BPLoAYZyvuU2B+MQDeVNtyQCzGtFXqLpMv9t3mK5bGtPjnaSm8krsujXOdhULdeO6lLzufwOjE2QCcujK3ldjy2HLXe8h3qiyKId+pqBr2aV7Wbu9ahviJBbfkNJeY1PhwIhswv/1rUbONR6FUKO9+bVC2z1c2vZry3xLAjJLV9OCHzaZj2z6yE2bGO9SlcdjpHjvym04ExjCIajbFg5f5TbARngtkSSL49azkLAqmSI4+3Xpu1OYIBfqciKhosY4EsbVs7pe3YZ4mzyE0iO/T9Q4i4/3m/DJu1hDBWPCcX2+6dwNEu8Qq4Ftc2mIuCVIXBAlaVD9LHmOqv6Pvr79osZHyNIHOb4Rdbm9psSL1iU8KANyxIebb1Wa9BilALrt6+qdOkhbfYy1lub2dSKWdarDB0XFzcmp7jCPpDJswFeZ0U2QJ+OjDyEVwaYU0X2L58u5efgFzvbMcd6DKXEYWWH4goeDeBYtMPZ5JEV5Y2q1MXcqDWuAblVua/DgZBTSSnU/sVtOU544jnIhgK7mTmfzkFJ5pStojnakv+45WCqfIT1owYAfm7Yx22ZX12RfMxAuEtxBY9uQCn5GLoHuZYEd4QB8v3o/1fWv9vO5X2REJ+3zI4x4yyI5HPyA8krquDSwxzDGlmzlO9RmwXcDsgAj1XSj1yqPQYlXhXoLtgRjuH4ZADHFFl4GQGShnX2XEirT/1ChMxS4HryKjlnGbcK1VJPPFvGjP053kSdSX5x5fv6EIGthuUmclOGV4YSZ5FfGXiFW8lQ+/oOtoSdkvf5Ei4psvA9ROIwqYZVi733KMd5JXAg+RXfzd0IJJgb5B4kz54xo/smJP6jFaYLq/gzcRAYYVl/+RAl8EqBjTtXJH06HyG7+sqqOXnrdQw/dxZZ+I8BvrNsu2KNUewywOItyCuvjgB3a1yAKZuRa1HYbFXiEOARcgsr1JqNMOFYGuBDuzIte9R2PgJI8CZr0zcvJ33acZMBPYy2s2u5pd5ihInDc4UVHGq6kKebtWU5efsGWjGMt9r4T33yykzCsxgBq1I3cpRlm7Frz2SANwosdFiReCAs4THyybLypMhxdvmTQ66uGk9hVlIGuMG2rUI1JjLAR+QUVravrdczvPS5w7ovqT26VXfchOmmXar5q3ZB3lt4y7qJgPsXQ9PuoAILO8vEIcCVNmaqeZPdAVnCSxE4RIPY7yDA7559E4FfGGBYYaX2aG/IpEGoYSHsW1t3RvDLAPeQx86fCgmBBa0tzCPwHQOMKrKLJuXoxHqshSOqSy1maI6z9wiiBxFIsKoQchfyrbwwsuS3gVVg4SgESYPEgeTa2H+2WQfBLEOJUy+EYFYytHKPPJfeSRxCTCu0q3YoJQ3AblZ+Se3TgWC/XqjolOLv/mNheIUBZnjFFf6HUvKFC7UHFCvLi5gLZZrdSJnwdtPGceN5lBKHWTWLK1zC8CN6hO6kdulBlKRklujnbIC/a5NLNoanGGBO3eIK1yFIPLpu6pg5qWf9nv5SkVlgl764Q+VwOzF0Ma9hcYU7GGCD+vBAoQv/TwMkeOn9yCc7twA8xAALm5BTWIdhZoAV9g6DHrWYhQC8AF76KeTnpX2MhljcorjCswzvfBY0zH0N+tRrLfP1wNKKd0VnbQ13MsDSVsUVBjLAdLVK6dz5IN7rgZf+js1zp1sYYHm74gpvM8CEWunNRIYyfVKpX32bw/UIEodVnYorvJ84CPzt5+8YiWTazAHmbR7h7A1XM8CarkUVHPoEInH400t/pl7WHE+XEtjQi3yrr0SYA7YsrvAlA/zmpE/0HZfEe+Ztc7iiWuFnEAP8Yv+qe73RCJKXaI0SF0fK6nAlx05QuhRX+JEBhuQA3t62C1LE/iVlbJYZu8NVHLBFcYWhDPCD/T3Lp17aoDbpueBHRI7l4epqBfg1cQgwiDaQD00N+5dSI/xItzxcw+FQ5+IKfzDAl/TcQD4LYSqkOjtbXdD2cC0L31dxhb8Z4NNcEAQ9uknFXWm+EljXM3LB+nAdA6zsWFxhNEQ+m1POUYNBRTIFF+wfqXwG1Qk/H+cESHQBInjn4XMAXM8BHYorjMppB0QueUOSknhwFnkAbkUpcVjRvrjCSAb4LAqCS8j1x2vS4Avqc7vmAribZRyb4gp/MsDnuSEIetRB41eVBquvKC/AQyghaVjUrDrBoS/yQxD0aZvVEJE0Vv1dk9yckB89wfAzvyFRUYURTHxfe8j7wVAGe6mtO7lVRJQT4DmGn9l1iiv8xgBf0fOxiHy8xmBvohJYs3VyricErsM0T2v1QT+gr63fJFG5JZAaByrt3SdSuQHeYoCpVFxheOIg8G2+8DiPboOIpHFK4iTyc9xSzwUmFlgYwgCDc4fPPYYgksaNtHVlZCNHwOcM8HeBhW8Z4FdnGUlfRBukUSrAXdGF8oT4gWOp5wUWPmOAkd5jHfkbjV/VqAu+Ft1OroARTOv6qz6Yl2dszX2cuxq/atIg9XneUP44BviGnMIKbzC88/m39jpOnkeN/jVGyjIDA+YKqD0DYcIQ4P0CCy/yzCu9kNxuNoJIGqL+bRK5kC+g3hIGeJncwgpPMcDcBjkk0/Sp6xIIMw4EFrbPG8qhpmsgE4dHCyw8zABLGpFDOUTuuAShCT8h5u+QNxQ51HEDy9L0vcIKdycOEmvzSZ/7WnQ1hAkQ4D1ynNwRNXoGif+UcHVhBY9uQSCThlLHfPJz4EozCKXAS0Ru3oC+kuHnPPILK1zJAOE25OYQ7ztaIjSERzXE+3lDenQQZNIQ4OQC+3M2SkgasEv+AI9OA4QhP6pQ8qVLXr6AkyCSBoEjCywcn/y6lCUOyBvguHReXJkif6iZK6K5TxcjSD5q7F9g4VCOfaAMIC9fKIeuiCtDJEoYXp/8PAG3MSz1POxLbmGFfTg+KsIZ+QIcojtU5iEBmCRHN9dlThuGWWJd9+qFfcxdTH6u8Dh6DGGkjBszfkq7/OC5Dr3FMO3hss0LLGzDwQR4M/m5Qr0QGyfQODlnyxzhu4MgkDTMq1Vgx7HpvAph4kyAj+aKOpLas5amDJRL+uQH7/2TAcZTgYWWSxAmfjCQ3Pyg6vwYUwbKABsPyAvSn46QYditAivqz0sc8sREYj41/hMlTRkqcTR5+aCb9QqEHEvLKLByCkOu+SvlBtVxEkpQylApgLPJdfLATtw3Qiaek79IboGFP1i+20xeUD0XRkpGymR5PTmO/WFfyOTfRN1HXoE98RUDLK6XE2z0W6kps5edFeIeIjd/dQMq4SqtxbG6YOM6EutakpMH/GtAgEBTZkuBV8j2ZRSfrkQp+YPT1U+RHShQJg1BT/s3SzgOnYuYMlzKAF945Fn+52GUkq/BH1RgwaPrOYLh/rYH9dTviXdVNF+WMKKZ3WtVDr3DkJGXti+wJD6dk3wxX+BUy2eb6qG/iDA16+hGCZM7Wr4ZaChDw+6qVuQU2J9jOJpRr7V8vPWp1lfaopRTtOXCBb2t7tHedISJw5yaVnN1X93UKOEx8uyumv+OkqZSIwNsOJA8ex+3XcnAmPgnFVroxcEG+D45VlfdZ8a4U1MlcYa1GcBc2iVkiBefFdjjKEC1Wo4wcfTPdq+37x9n90qVFMANRK6l/fnY5Oc7CvCcRllciWcxtEtMtfexQ/S/OP9EymQY4sUo0bAzXJ38e/MSblFsqtUKHYFWNCdrV4ro7jj/RNqk1r29Nvm2/nAAyR+cE0GRPfwk+YCIoLe160TuWwhDXaXOoIorf29OvqUXRpY0SBxMXqElfDp5CHGUnQOiT01+jvNPpFKihNl23j30vxCJ+1CpR5EliSLejRwNE5eTb2UP6jYNpUqqFDGArTuQXMe2eutlDM26yxoWXDgz8R8EeNzCB45L+6+qJP9E2q57IVnWy13aNfFqvxQYU2htk0f9GWYSs/HWKqKYd0H8kqmWAng8CippLXYHLGxfBZdRtZR4YUVgvIUzE3oifsmUy1Dg0zrkWzVW3IcACYsSnnipWe1sTZYztEwsse2nMfKp4SCIUCNLvZQljG5nU+nQFxDJ/1z5uqxqByckDhJBH3Ltat5qcqXcT/EVl+xCnkXlJAiwvDXv9vMVR9Z5AnlWdf+wtWa4L7VymRnOB6eQ49hS75C8zchrez3arfh04k6hhNvsCSrKXaW7b0arlyF/XwC3RuHFkp6+R/IvoSRWNXutUu2irkIpx4wM4RO9CmlQ+iZghjEM8W4t8u2Yh1+YOKXUv9tSuV/HcDj1D9lTtRoeuW+MWv4PAkOkDPBXRytKl17lYEp8Xx13u6g+IWTyFluQY0k39lyguW8Ik2lpb2+IKXcBlLB0Hzvy2P/F0aZ7d9G16VCLNYmDBOy4EDGP6FKVIhmj1u1O5H5tUrKLi4lc+w1quiR5yhAnF16bVOO/5A8DO66VzSfvFVOYU6VECSt3Jj/yq48RmCIF8BzZrggTFasRyuQ9ZPvooN3ii8QbUxHgSXItqDr8qTOnGqKWbEe+Vg570xwZCgxpZjnp0SUIkteXNVU2y53xYY6pxH61XmB0HTpwOUrSHDWji0rRNPk0hClSljB7J7s54alMJfkY8UeEq3fGs5MfmjvE/GaWk1FcuxYIII1RE1rFCmDKt+5DaEhxEShBnE1WaxFw/+EYNP7d4nvGpd0gZfJxv5/dDn2q+57mhjGp2Zgmqr5YRt6mS1OceNaxF5VLW25A4hEiwO2RzXonb74WMvkTZ5NnNfaJHf7VWrekMTPZNyjvSY5D12rvD4xxYkR78i02J0+A5NGHK8p6Z/wHgmUpYjYjO6ekuWFI41aAb2tVmKe4dLYmjXFiyQHkOJaCp5I/IxF0jij7LT5m6W1hM7IaL8fcMEW9GyW9ldnnjkm3FgDXka1K2SOSPyMwsU4BBp/uQyl5wjVdLBUeHY+2GgsRGpOGhaFiznIr5dUHbDBICuCDujaicqj9qsR9Rgb4pAgfe3QyAztgoBYhaymyk9dFZOYoiTsiVfmNZZZMKjxO7GUhhgqX+is9adBGLCl4ZCuGhCHAo1YCn5wnoZe3jClwXVH5Ji2fus4xRUJzomQhhgqPHkWQOIQ4hNwiDPVncAwN8ZuFDhyXeoyKjbdsTIPWmVqsrbRspy9r2Zx7HFjbPlR/ckzRulFRNpy/QoDETyxvS459yP63HiVpktrUXxW1qiIb/Rq7TVMYKsZtYxcqh7ZkKPZGz742RaLiioFE4lp/cm3z8Ou9oZEZo0pYvTv5VU2Ya3yjT1RtDNXGM61C5dH/Il0mfuaj2JnroCoQCGwzXZNLtMsUBKExCpGa1p38BEqSr5hW732lBvkWgXdV5p04XFWMwaWuKoFI/Ocvxy5Yuhba+0iDClmjW5CfSOp8H6SS5lCN2ZYc1yaNuYk/+VDbI3IhRtebzDGfQLAVuRZh9tr8qxinuykqwNcJTacaZTVXA8Ko5HnTBUSeJfLufpCJe0eIOU0jymKsfY6A4fA8W5T51dM7cqHWT9Gk8tVrSaVWqhB2otZaZxLVh03Is3VbboBvlV6MT9zEEig/tAV4VPs5qARGmrS6hruJ3ARv+8B1KJmURgeYvR9ZIblw/oJA8ln3rbngTE77cgyF/rmNybHCI6ddJyHUyAwqWl1GifqIT70W6Qxg5lDhTsr+i7nUS/PExNty9y3KPw41X8hwQtiBh9knukNdzSRVQulIchPfEN246NZNKldK/LxF5rOA+aqmkTRE1EtaRWeKsvyB5fDFzC/1q7Rkq1/1q5m0rIYFO5PHwHL2EwJzpIZcfSplfqAYHh0nrw8vykpFqXsYIMS0uuRkPvaCjQZdDdBSqLEsy5bxiAaatCJTCQTAu9HFnCzPt7txNCUGeECdKconDmRgYo7kPuRmPLbDV7GrGaNCoa0eWR+5k9SewNxDshzp0XUIJMPPAdGZwnzQdjnLWDaPkZft2LNXxTjpTWqwejpKm9h3RmfSxZ7J9MU9jGQ4jk2+UpzFcAiJxC3/WyvTse2/hNZYZdayRq8hxpKFS4etR8msVDvExH5ZjXRpJ8Wkmrz+ldIL8wl9wYfJHx5IXnZjz9GxJqkSggG8bwN96rUgdkX7c1R49CDDMQJcos4U5xP7qJ/kD18jL7vdjGENSpTKXJJVtv5TlwYhgT92yGZkrSkIGbw+3KFI/zjUeB7DiRCLopaKTHfTKBVgjAHzeflU60OjNm4htcchbnPIz179YIQcxxOVuUhrn0EkDlLgtOwtNKjn1OM707BSJW4f1SLfiGfyICBMkhIBMGqnzEW69D4CMBy/oPQifeICnrD5Teb+OB45N2wsgzWsp6JnRgpB58SuaBCyBHmnm608YA5tsQ7J6zLAseQV659tA47AidJW5GYtdtdRKiEyTAUQp5ApGYYTNWCu0q9oFvLvbEV6dBuC5CHE8lgnoAJNM5bjMMCDmZqZui7VfxwxRnqz3J/bx6Sn79OWk3TnzULivlrkOjajRuxz4hTrw6c4DkPMydJNDflER86AFJBmYWWAX1uSb9bj2ex7iNAwpAD+PZCy8poeHa338WDYbaFXsEGbFpNDO5O87LTV8b34EBAmKSHxuke+cU/oBeW8cak5Xm1BjpuVWy0MOJ7s2k5F+4eowWyG2S4g8Gt22vKuXwMhNJNZbuB6Mi+ncIkuAQLjEvQQi06PkFm5FTCO8P9T8VYuvablp3bqbO0THTg2zjxhmBtrjjJxUTKq+LXvct0J05wc1C1K1LMP3uNoD5EBrlDHRfvwKAjJ077qZqGtdm8BQWgcVgYY18PU6OlTp9EIpGnIMMD6G/yojJtxahuOsreU2KS9IC/Y1qjJouQPtRpDH3Izz5Z71SqEApCm7YJQ4n1tU3GmyprvxYaHNs3J8YdknCWPXkQAjuMRFIniffgBxyECvJVt4HhEB41GrIxknBs3EHlGF0ZvjTlhGhLvdY4eV4Zl1p3WMjxqKQNcp46L9+EpCDjCKEpbk5tptrb+JG7LODdW9Dd7PX3KLwdsQMnA0miItddnmCWPnot0luMtq0LZboxBJIf2BrkZZmr6aBCvzhlXPhrViXzzH9s2U2IFUuMsjetPGdUzyKWtWfoUyADf5UcVUL5VSmTVaVV0cS5cEGGlgUoAA1OxRAafGn2pM9bCPEsfdo+ykUyCt3h0gf/px8XccvKa7kg2mejgv2ImA/eWiitTkcxot3ZHzAnzLG18oHFkyB7VW3ssiUOIZS2L+Q9RvZkIwcT75WVR836fr8tdxLiK3Ny9UrMUZJfoyFWxzgDmWZp/HmXONRz6mkcP8LZqCSnm2uMsxBAYnkWmbm9Au4iBSkh815z8NIWFLn/HknsDDaMOzJhreDRAq1dwHB+ey46jOKOSvAxwPvnZktxTy0c3xm0ZRxYAd1C6oqVPNd4A9FcVBl7jo22UITvMtf+DAAOEmFGPirv4G4IDQixuQU6WmBrcstxQk8Y+seRgIjel+z80MM0XIcSLHSgzCkU+3YGAQ8XnZy3qhzciYNJeJC87THUvmRk3madEiGHtUviEHZf2mK85YZpBt7T63mYZYXCp2wZIlmMEW5Nb1MGhLuvBASp070VeRphqXzC1TPO+kWQPE/npLPK0/AHSPCpI3bDwyjqZYHDoWx5dBvhKd6Won/6ASRP4ry45WWCqdf5kzYTIZCTZqgGR16R3/TY6lYGPMywBU87202/w6VwtxDOAwFHquLgfHoCQJbSihGfJS/+7yBpnT1ImqbBmkv22RYobxRUX2+L40DaUP/iPP91LucGlLmsQggO02c2LvfgLgiV3lSEOIT/lpjpnT4hMQjOZSFYCHiLy052FtRmsUxFmiMgw9mRKuWEoAhaFADcrvchrF3OFV4GFLclNs6nRFVMjk87oZWjRZ0F/Sntzsq8tniYA+A6sjIQyjD4xxQaP7kSA6JhzAObiTtxiKUIJngx2MKU0xLpR1G5527xyJiPJgK83Tz2DlJZKH7pUuyzlAIQARp7oUzofr08HqIcpwTeMUrHXnmPSJEp4KIWlAj1Wd3xwGRCE5ppkRHZtFJmzIVC0GxajMpJAGcafW1cZUvg4F0NAMqXvu+Rv8CTryqNFNKeTn0K3aafX1pYzmUkmMLkvlYuNqae6CxHSUAM0w/Srm0Qpl5uyoO7/gYBFAQEGKVzRl58hAI8MEe5Fftrc9o78HnE+L0NNCIA36pfFZgDVvnNiz9lQQwAsuKONyoJSlNkRvYsSU94sQxxEXvGHvTSHWaTA6q3JT5XbTS7+B5A6D72pSgZYcwZlS1z0qMnHQGDoo5YxrooVz/WiFDntaqvMYnqMajt91QDCoR8hAB4ZYFZb8lNDT9s+vBAQQjOZqhT2p87aDPLZIumCksYCZubDjhnk14dQWpz26CqosMPziARO0PWiT3yIGk6ETU5vY7yMRd+6x30bxti8YKrQrhZeR+RnT8nboe3GaKNLm23A3+dtlgqnPToXMoQEkz7Oo+oB8TubJlHCtMiYAvpud00DEIRlTYZy0o/tQ9n02sunGk9DRxpc/w6BuQ9vZzy5o31TAy4lZYBzlV4doJ2kupDxyTnbmStjxYyGx36+CRCB5rbZWDzikZ9ZQYOOWlzu9YbBTf7y+xPrK992jM3ziK7UFJce6wJULWD4h0uDVCfXHmDm+L7x6LrrU7M1es1kNFZg1oGUYcUGx6OWnwEqKYPBBs3pmfdurUKiZ2pq/6B2lk8/U+nVA9oJ6jTzRpN8QzFdrvsLGr1U6YPp2Lcaxefayi7keethduFWRiIQQPDDWS20K5lYm34XIZ+CwBiXqg/EcAjwSQG8U9+wNMbV4minC77dCMiIXip6o7GhwMLjKfMKDa5DXYcCgZImG3TypW8dXNs0hCr6dyuzNgkuV45RenWBdqDi/WJNZqbtaxDS1SJDx/MGrQUQCNMxkDr23eYZuA4+zWNvlBVz2RvbCRv/PbiLbxQiuodT12jPjOtxQOBnKhDChpJJ3tEyn1HdSUyofWp/vdu536xRmEDqJvOxi06gjCwyuER9xsY7MppOHgIY98AunpZxOSZkxLT52xWVSdl3yVD8mev7qvjBmdgIifmX1iZeZxy9CFF7tzt/36jbh4ZJA/adctgsRPoPI4Y0H6HubPwDe9TVwwS3ic5bAhFyKsTmvq9OkO/qGi9y8lm1VDWSqzynRYLOx748BZXAmP46cmEasehnzl4TY0jTDZBCQ0wbeFybWGMmIyvMkaPA+opCD4I7kVu9AN03KBp25uzJN7RNvuLixP9l68Me+mM1gLAcJiXYFlm7J1THo1qPxJBp8BihVUiXf3953zrx/IyhrO4fOQTcPGsSAZ6K46oPrNyqa5xhWRWSsOrNoxpq9+E5SdiN/zm323H3/bxcc5eDwYu58jzr2CgeZ3AQod3HxZFpQIRBAAAzP7iodw39vv2kMhbXV3+v7RUTYr1NWYN0iPlN1XH1AnGtf7Ur8Br0l/BzXzq2HcVilOdWYsELjkoffTcemdrue8Xb/62Hxt4leDr6ML+c2KwMNmuRNR5MGskenERJCxhT379m/81j9+6rMFWVHFDPfJqd9OmqMn3jWSHA2So7q27QjoBgj3da83BEjtXD7zmme+3yaaPjuhVGqxrNdzz57o8nrYYWBUtCdzddprF7R487swMJ7foPEEDPVlLlLFb8/vSF+7apUS7NjhJMz3M1oTJAP+6Tdfpc/fVSlJmKhFsNp2oI4dJHCmVAjIohEMz6+omrj9u5TaN6NcommDXqNd2i76Fn3f7aj1PWhPpfLQWhZDrH3chXutUrw0ifzUj/PiAI05S3QGWCJf0u1//3+UMXHbZts9qVfCi1mm9/0gPfzNHL6gYU1TVWmn7kVUdAl3W6FRMQUpRC6GLjsmmjh3z12ccfvPvOJ98MGTF6+uoAcSEiWnWuAtrUtO//1LMMNruRfX4DAt3XUnUqCiyxO5WrJw35+KUHrvnfSUf332e3Pfc/+PDjL7jpkVe/nbRawqRGUIkSnquOUEQ+3aCNj2tKhNJKAUGIygkV10QoZZw2ZQoQIVacX86U5Ui6cg2EQqYrmykbpqoiwlhh3YxwIjC7cWSnekL8plCmxSgZhkIEMSGESh5195jtsvN7vNGGyLVCSZw6fsJyTXMyQlXIC0oqywtDPYSFIqh6Dsg68311BGrrTQgjmUaRsvb90fsR+dYoitMJc3SWCplin6xQmBZuJUp4R+dQrZ5AXaE0i5mkqrWtvsYl1xrVGvUAGz8Xu6alwgoE5jWPcNUX4vuUyFTbers9WaZW4xHtFe9lY6esLcShOq66AtV5rUJZzNbYgyplywbXvHxFbNGoFgosJTytq+oL1DkIpLSQVCaJ1Td4ZbadZBtk2zfsZEkiwPhaGq46w/iadin7lA+EAF6tnC17XHOfvyxkSSLEpu0ivVoDHKo5WtHY6CJDdrWXibTRg5wrV0Iqg03Ci9RXQF3NITzaci0EpHUuMvWkimb0s5Oldm9GSBEh7RFgShgYv1b1Bs0xUOMz2MQksermOuR4FgwwtMfPQMka15AI8LevEVV/GO+3B01kEiHwmrqIFdsQXKLTplvjGhICq7pERNUj4jtLSAmIAPh2l8jkWDOLo3q3r9GvYQMXcHBEVC0CLtUbo0k7NO+POChusqeh40BACPXgs75Ajktj6opMartAOS4tYJp0sqqeWfbFcmTYLT5Qu8x6BlWXqk2ET700x2XWv4ycd1lNsm/Li54vDBgbN2S4+oQiF6pT5IFACJntphV3NErelET62jl7WqzBP7PVcFfp1SryDE1muGntI20qa7Jog/91i2OGbFaTGjOp8hEMaDKrTeue7Bhr3re6ocUD62KGDFbTWldwwVuyngs0mcmm9U93qqzJvg3+nV/YGDNkrZrTQXe9usUYkxk7SlNk2vhcl7gpDxi6v1yKGTJVLequVLWMPA9Zeh0JzbThxW6qh2JuKJtHhq1eC2KG7FRzuylVTSPP1mWGmlY8tkXclCcMW78uYoaMVNM7KlVtI09HNjKsltkhROu4KW8Ytn1TZOM4ghLqQq2VqsaRh6zPvi5BUpkEMOPapvH2sjxi6Pni+gw0aBPojmhSraMoCrM7LNRWnJ5tpkAC48+rGzflEoNL1PmRZcogI0R2BaBQ4BNfXbWaR7b5M8MaXWSseyIGH1sjU03CaBXnxzfSklFKAE9QXFXrnKzxNrPzAj7JbnhzV8pD8cuJPKbx1VOAMFAGmUEqAC4hxU1fDSTpGqCErKGSmtshMPeeLSg2aGkuMtQ+ZTiyqAu21NxYvK+aQLc6SDgO7TNfbyTOHnqMvmAzis0NlpsMtNf7m+ILFM8UshC/tI27Xy2E3PwrIIiQGWIKBLDuvQNd1VyWu0rp1OPhRcppZcgQLB4npaqRJF1a0pEZQj/xho6Uv0xEeim46SWjkRnk+quahYcrN6qThOvQtr8hA15QSo1/PgQ2fXJYDfW2LZcFIt27nP3fWaOTQ2ZBz/jPW6kMr5pJ+ETXbtQHJE9xpIog0Ojv6FZp+nzVgNbh+gll1jWaZiUEVpxdhqx6CUnU/es0z6snJfT656JX9vMVff5rWnAjfP8P1wEySe5V0jDSfNSuorH9q5ecPC7+GYpSi9k06PSmFdLnPfLOV40ssx7blNqacnSF2OomJ+tdvyh2jdRh1H2OvqkbVUSfC8mp76MztCup7C99pjV31i3DBlNthWx658o0cTrKspg7+6jCSHn6/Ehe94j3VpRByDSZNj7djiiH5HoLva/aPr4+3j6cAkyoVT8x5u6d9HJIPi2tq5SqzZlfrtTXvg2ZjuCkqgavd4+1KFSDGbo+u8z4LrsyErEtD4i/793ZqSQmb16p3ZlfrYq1ocnolPl94z/tHTdVjxk2v3ICAD1KUb6lqHP6nrQGXdZTt597w5LmsW3P+GKZ8vhAaA0ApuZ+QgArX9qRYhepPjP4Rw0CEJqHUOek0M5h6mvHti6PyceIVke/PBmmOisjEIp+6s1tKcY7Ub1moN6PTdYRbygxGnoudm7pd7fuVl+16sQxeRpRd5c7h2/UTsVCFM8U1VoG+fMpdbSsr7pN6I0etfZ5ZoZWcdFjlAHFuQBKrB5y7/7NtVvLYw0rNNittzjj1QlaMApKep2UPwOMvV3++9ZtKS+1l+21R6te/5dnQTlbEnopgK00F9ua06IfHjqydayMkdtjk+NqjKO1tr7gralltqGjkXI2ggoA+O+hvi6V4Zyo1kP0u+GbpYiVAvTmluRikAxDUQqgiQ3/vHbpLo202/ErPrf2xdbpffEro9fFSWMZYcI5YDxYrf3lnn1qaSGKqv2EHqOaHHTPz0v0opmIYpQI9ZJAVZJHbZNGIfQ4uGzk69cf0cHVzxWHWoqjN245bQ65+dOZGxHLCAMh9EJeAlwwIt6uEEx6/sR2WhCtFsMkuUdk2mznsx4dPL8UjyyiVAqCQFQggiCoYA9sGxZP+Py+0/o2if9/1ykeIUpP2mptdeS1A0cuDhDL2PQQpW0JrAIRhqEWuuI5YDD/p4dO29anXGK/hBcXovq9B1z22Kej561BlYRYvXD6iLfvOeegbRqXiZCeU2CClB8LEo37nHjTSz/8t3hjRaW4UGV/Wkke5cSGheO/fPT0PvVjzRUOVUsK1y/Thluv6+6HnHjhzY+8+vlPw4b/PnL0P+PH/Tn0m4/ffOHx2y88bv8dt2jilE1hXacQ5YPlymXNtzvwrJsee+vbv6bMW7F2oyif/61dPHPib18OvPfsA8rkgFGwoupN4SaX7jnaxu0LVuG9wjDlN+3Ufdsd++21/6GH9z9g3z137btj99b1y/9N69PWdU9pO3Z3dKH+ibY/e/3vOE7xC1JuFcKOCl1aWf3/RhIq41NZnya0v+DQ/3Ul/n//4d//dGESAVZQOCAkYQAAEBMCnQEqsAQyBD5tNphIpCKioSLQudCADYljbuFvDwz+4/wD8AP0A/oXuLyd0C8AfoB/CfgkoBavvwD+AfgB+gH+n9Qf57+AfgB+gH8A/f+iz/AP4B/APwA/QDv/z/9n/zQH4B/APwA/QD//35B+f2H+t/5H/Qf27/9/7b1O4N78fR/6h/hP7v/Z/2Y9AnJJzH+8/l3+vfs18ov939oHwf5x/2POo8N/L/9J/Z/9B/8/8d/////9w/8B/jf02/7P9x+gv8U/0X+z/x/74/9j7AP4b/Hf9V/aP83/7v8j/////9PX91/unuG/vv/g/5f98/1XwA/q399/7f+U/fr5lf7t/vP6p+//yB/s3+T/4X+k/z3/2+gD+hf4v/3ftf/+fnE/9X//9wX/Wf+L/8+4D/Rf8b/yfz/+XD/df/j/Xfv/9Ef9M/1//3/1n+8////a+xP+d/4n/6ftR///+/9AH/n/////9wD/u////ye4B/3P/////jX6DfwD8AP0A///7a9/g0JHaYamHZUVHekXApUvPmRtWR4Pqmn4MhAUVHkH9wZCAmV0TApee5rv/Lg3HzkQqsy2gB+VfDhGJZh2VFR5B/cGGvi1/9pl2tWbvgMXSNmGph2VFR47T3XV/31ZiSPS3JwhdNqcg+idpppaB6mwiMDIQFFR5B/bh4PXUK0+RyD/H3kaaLTDDqio8g/uCFPAz6832rIP7gxKRfAPPLofCAoqPIP7gyEBRUeQf3BhsMKMuDIQFDzsp3rVIopHaYalze0QFFR5B/V1t1tkSimHZUVHkH9wZCAoqPIP6j275Ahy0RLjhNaTsllldKEiPux2aGp6GG1MOo65gn53RafI3tdkjz4w+ESPWKCLmlHkH9wZCAoqPIP7gyD/572GQOxz71uvI00WneWdwQdj0eCuQOp8iDWkcamGZShV4qg6SHNY+qUAtx5Kio8g/uDIQFFR5B/cGP3cEtGVTCIQFEP2pzhDd1iY8xsp3rVIooO4awUThdkLTWanlDhB4xwg8Y2aj+JsnuqreCpX8g/uDIQFFR5B/cGQdutH8+kXqnwVHjzyctd51SYxKRfAPPLpX2jUwQCTmJOEb7TFgXKjXTXUhAUVHkH9wZCAoqPIPwCPmSTzyD+4MTYbNFp+DIZvdV5HMAXSH83AlUHSSqDpJVB0kparIE/zgoqPIP7gyEBRUeQf246mb0nJI7TDUw6euH5RMoZLoCiDDUD8Tn5B/cGQgBFtsjBjQhzyD+4MhAUVHkH9wZCAIzSXUafI5B/cGP/BZoHlSzuCDwilcaGnw8CVQdJKoOklUHSSqDBq5TYDlWbKio8g/uDIQFFR5B/WHUvKh6UMhAUVHjqvPxlNxONC4bFSw8CVQdJKoOklUHSSnlEJBgJOJ2VFR5B/cGQgKKjyD+sOpeVD0oZCAoqO6HHMuCRJC/2g75LJTvBysY1vSckjtMNTDsqKjyD+4Mg8fmAvqZwVHkH9wQp4VNLpiRB/Otd5442YamHZUQ0ZhPRAqPIP7gyEBRUeQf3BhwOZunE7Kio8g+zrrSIAWms1Kn0dVy16kbxXeZqYdlRUZeXG03nZUVHkH9wZCAoqPIP6w7efxEZI7TDUur4qAvINcCtB/2yB+2pHfWGfu61fEoZCAoprNd0zSHa/kH9wZCAoqPIP7gk42apRlE2eJQyEBQ8XmiaT7AaaVEvlEVbK4nT1w/KI+RxwgKKi84i8ScICio8g/uDIQFFR5B+B2HQ35J/cGQdc4s8MgdmjhjhB4dSkMeBV4+/7xSIH9wZCAIz1KV8NmGph2VFR5B/cGQgKKXUaJcHabTBZAs0YI8mHf0TGOEHjHBCgCkg+JZriROH4INPJHetmDnUSaepCAoqPIP7gyEBRUeQf1M8LOlHtWFro/vXUCG/n+IvkowMMw1MOyoqPIUzDPm7xuDlfPPfLczWhtfr96AoHEJGEhwjCQ4RhIcIwkOEYkzDUw7Kio7qF/dWOhDMMI58FR5B/cGQgKKjyD/NSiYGVhVGnyOQf3BkICio8g/uDDXtkLwE2mGph2VFR3u0XrbDrQKmHuDIQFFR5B9fS1szjEGpZs1MOyoqPIP7gyDt1oheUlI07KioyhKTQQBUrynB79WKvKcHUFq9Q8pkoCiSO0w4CmMbE4QtN9MnR5B/cGQgKKjBrSPQYBeLZhm4aMHrJDNDCCxaa4cS1xJIcIxowwkOD92NctujRu6fcRaKhgGRf6NPkchAqXPLtIb+40hngoqPIP7ghTwQN9MsDEfDQvDwFisX50hWe1m2O4nZoaHCDxjhB4xwg8Y4QeMcIFT7IYkc53VFlWY3gopsXkw9NRmxBrHuDIQFDvtqyD7u6Xav1s6GwOh24xz0h4F5lgZCAoqPINSSRqCF8A88uooRrEQoPeNgdAn8hOD+uMs2VFM6rpG0qcRbumTHWzFUNzJBla+JvBFek2y0r3RzLgw95DAMEpl3dFsjjrFAwm9OAals8Pwpg7w71VUID18LYB2GcrYyAN2gF1IQACCGGYKIMGl1p6JzIdY5C+yxdfFOzUojydmfU18GtHjc1bP89yog9qlWQNjZWfGzRpxK0ekvRcmrmU2MTpCAJM7d1/7uOvh3VMVG4flE2eJQeFAVO9sQpWHZTVEbEPXL2CkRMG46h1Y11wgKKi+TXa7zxxspjYZwdRKSNVrr3czDUvL7LtIcPnYCdAWqSM1sjWNgf+AvwWKhkICiloYzQFwidotyrS7NLJatt/7dXUhhf3Bj/Np3KlAq1tLcaXl85ZEzTB4furFSw8CVQdJKmxZlMtLDdKSvT5KiAi4B0C+7yfI5B/cES7ouVHMMwoy9JGEhNnv+YamHZUOwzMWB1MfDVUKNPkbmvoCm5nnDHdA7neRfX07sMS+RPJBhkv50kqg6SVQdJKoOklUFjqQf/F/Ez31bUVcNTDsqIUE0h7Y+IpBoeaxjnSSqDpJVB0kqg6SGtWJnzlxg665JVB0kqg6SVQdJKoOklJNhTMp3/iyopq79h2v5B/btGQ6tJnI2UU3W3yWrb5LVt8lq2+S1bYrUZBu6QJawgVZFZzV99ajoX90vBATSckjtMNTDqvw1+57sdNtFy7wnCAoqPIP6y5T4IUkDvq3juLZaPBRUeQf24q3m/i+UjZWCPnkH9wZB2HUg/9+JLFwL/IP7gyEBLdOU8X8x2oDVoSUpDqio8g/uB+5473U7zsfnVjavtNphqYdUkN1t8lpsyuq6TvxdFNHy1xOyoqPIP6djUJujXIx0NnzvM3sz2/yD+4MgAiNTDMBFzSi9qzI5B/cDz5dJFI9BGEBM+H1gVI6ZCAoqPHUjS8B3XGP5vEJgBXWjiCmHZUUuXmjPPVVRzBlw/KJs8ShkICXgadiX5BgbA9DZQ0JJ0heOQf3A+3+whN2XQlrnfZtJY4zQO0h1RUeQYSKr4PWt4vlI2UAb67pF//GXBiPcOmcAxwgV+vvAvutUa7Ma7Uw7IBBEDshOu1dWsNI7NRozLju6zZCrhqXOEcSh7KNO0cZZq0kC+mfDAF8gpfaR7Gdc5xJIcHGeYWizSiGfR6pqzI5BgXvi+91hVtfrDSOzUeRGSJdNl/vWqRRSOW6QX/NVSl6/LiSoh+042vUzCqke5unZrbl8KkOEYSHB+L2fh79zhn8srfLohAbDNKVs1Cs2/nG5YvZ0eXfMGl53kX19PTKpiu2g2lrr52MdAbGrH3caKyZWSq6bEp/t+cFFR5Du2phhuCWTszrK65nIrNfo0kxIKeCBLyw7VdGl1wgKKjx55ZCjJdAVsYEqIPaniwKZu2gxOWPB3+RWbt52VFR5B/cD7fzLQ6lrIYIvHcW09kJ0alTDK1/HjWIdZxzpJVCtr+QakjNVM8qio8g+rHFIGlSChZPGP5QPg6NOD9qYdlRUd3LSPGoR8qaOGPV1cZIb/7Oe86Ey5EhwjCQ4RiTMNTDq0mA6IyR2mG8ETWR4U9+giac6kRSL+OtWVFR5B/Tx6u2i4SbDKczDUwzJNnnTMbYkOHEtcSSPKOyoqPHnlkB/u9nloCio8hTLxVn0GDxjhB4xwg8Y4QeKkgh1Y2nZpdzY7X73UUksceEhwjCQ4RhIcIx3lHkH9wZAQ/Tl855B/cGQgKKjyD+4MhAUVHkH9wZB1+z5iboZFKrZhqYdlRUeQf08Y/krDWGH9srNYlHkH9wZCAoqPIP7gg1xCuWuCl5BFzSjyD+4MhAUVHkH9wZB2HUR70nO2PCnv0E9UHR+Os53ql9hwWzt6NdZqJx4kkNHIiyEYSGuZ9e3I2YamHZUVHkH9wZCAopdRo2s6lwZB/8YRkCKfHlNrJKhwV7li9aiOGOEHjHCDxjf+bFPdTDsqKjyD+4MhAUVHkGd2m95S/IrKio8eeTlrvPHcbLL3rpIf6tI41E4dHZ0BkhB4xwg8Y3jdYB7W5rNmph2VFR5B/cGQgKKjvkjlG5GzDUw7IC6PRARvbkD4OjTg/IEmCEI/t85TdVB0450kqg6R7t75I5hqYdlRUeQf3BkICil1HrHOpCAoqPIM2idGB8Y48pF/HXqjTDDOH6tvktW94WHhjnSSnNVJEnkuo0+RyD+4MhAUVHkH9wYmaQwN52VFR5B/TWAaltgjwpWL57IBJzDL0nEtcSSHCMJDhGEhsVAScTsqKjyD+4MhAUVHkH9Yduk2K2yOQf3BieD6gPcGGQPUQXCR48lkQBGexJxOyoqPIP7gyEBRUeQf1h26TYrbI5B/cGQEMp3r6d5sH2GZYxwg8Y4QeMcIPGOEHjHBP3vkjmGph2VFR5B/cGQgKKau/Xf5gUw7Kio8gwbQ3g6/U0qDpJVB0kqg6SVQdJKoOEr81dptMNTDsqKjyD+4MhATSdwJmkO1/IP7gw17RAUVe+fKLDPfhr+Qf3Bj+ERkI1Zkcg/uDIQFFR5B/cGQDELLDt07TDUw6jrRDEcb2XCdCRtHr6d2HZUVHkF5RnQbA3Ko0+RyD+4MhAUVHkH9wYdZWqZt5iXykbMNTDqOtELJSrDjwZu59A9iL+DPeRsw1MOoHUR719wZCAoqPIP7gyEBRUd1C/KCW4VW0PDUw6jrRDHKePEMxJ0vsxsQn6AFdaBMilwZCAluP2INWqmHZUVHkH9wZCAoqPIL6ZILXUA1aElKLcwzbXKbdOogFWmTUtW3x/dhSPgNZqGIm+rladtA2bDspb7IeR2mGph2VFR5B/cGQgKKjEnJ60NjeRjM4NIs3LpyHd7VdZJVB0kqbWOyaHpRDTL7d1/4E37kTlUfnHDYgEh+ZCAoqPIP7gyEBRUeQf24XjuLacf1qO2E+RyD6m7VpF1MOymqGPiuQSKYGQi51j60kdZUb12m0w1MOyoqPIP7gyEBRUZqc6kICxKGoa7gbhjnSSqDpJVB0kqg5MUtNTYdr+QfYXtNeOGOEHjHCDxjhB4xwg8Y7Z8FR5B/cGQd+jbUjv4pH7qmGom+vJj7qQjCQ4RhIcIwkOEYSHCKTDgJoIQFDqo7l9RjRhhIcIwkOEYSHCMJDhGEiqyOQf3BkICimt4JteppKWxvtqxqKoZnIhVZltAD8q+HCMTg5VYksuEpN/bUFRDK/BypnwgVZFZzV98g/uDIQFFR5B+B4fQW+S1bfJatvktW3yWrb5LVt8lq2+S1bfJatvktVyYPqGQgKKjyD+4Mg6gAAP2dkALsWKpJWtbV8CMPDQK1+qfswaVpWX294keID4rpWkav01xZMB2yUJ/xr9w7FNuqt4JVtgcBAGZ5BPKu98JxCo1FlezPyIXeneIQublqp8MoPnqcemr9xihz/lGQRWdYsw/jX9AMdvcDibpLOqUy/6IEIZ+UYdnEEUcw5TgBAuhFwWFPMpGLLI360NCTK7WsJdS44zl2S70FYUtAqpseuz1hrGt8wUi7W1jwA048n4KQXNVsTqkBOjikv7QH2P1dETd/6kgprA1QJobHGkIcV+Dom/4YirXlfzXAWCBY7iluga8cGvTercEw6lH8PfK2m9W4Jh1KP4e+VtN6twTDqUfw98rab1bZAFJEInaucT5GBvb3WcrJNRx86VWrrPnBlA8zB4lcGAUQoChC8tEM5tOmJfFGDDNs/pzrEUK8BMxJhVzHzKNJAOHumx0O+4+KpKBrDm3n3cwaad8JXtrqKS0gjpzFl3DWZvNudX3TjNVpQnIxqgWxRfWsbLj3KmJX/v2PCzPBsAKb91nnPIAJd0B2UUTjkA2gyUqGb+6fcWwoU4Mhpik/poFp+Fx4ReLS1xRWwNPkrRYA/UyqkZY/lZ5bn6iwfLL9oujJ/0iEDDYMi9+FrxOyrk8l/WrkUXgADwsFpe/nCOe1JHd1uipiIRdWTZoPfpkvZ65Vx6sanQ5iR70YvRFEUgfERf/qvmxwAAAAAAA/OjCd2sipWYtR6m5CHTYfJbelLZafwGSFfK+z7fs/J/wcTg6oavh3KaQjPvmPSmIS+GT+fYmskxuOyvRTqcVNPJ5nC3SoCmTzAaX3IKhqnukLg6txCOFA0jqE3zRAOWv811jokfJAh6y8MHpMKbYHm4svulhm83sfIjW80sqApHd8+0DNvuXpZzw8Ivr9T6KLqmj66X7VXXBZamAANsQEVqEcUkeRPkRE7sA40XnGX+BYP7mTm6rcjyuNzTSYn1AgAAePPNnIOqxmYwHzQy6aWUHKZ3ibt1GpZr6fAohs73Wyl1ca+DQNYAF0wZyomEZVV7PO+ZeRc5Zscs010VDafoiaJL2ANO0mOTHXfq5x77c3XjE9QvKgrjZSoNqD5TAkxzGFUwNamhCVz0Osv/Z0SPraxOSqukbs3neN6mkYMS3/hJwX/wi8pdgvNjljgAAOiXHuGWuCMl+m3Lj6IlSsHfUXf/0mL+5AkYloCKL11mYAAAHfYAdRi7JGKh7Y7eapReiEWQesVLLDSQtslfJ4uV4Yshn1wzdJIG62S1mIMcH51qFk72fbsnlRJZzu1fZLYh3n9e7MW0fxji5xxEXUT7I8wl2t95CoQPzG3cJzBfLBHb7YrQJiuttMj65v4BV0AWlMy8fxh0XFDCTtpqt7beFXBZkt0sfbFayUUAIKyR87iNfyINmwlw54bFO3f2NZG6baGxN3nDMk7nF9TqBYqD2wT5xR8uOs7KQMA5E1BRPujg1LVMGzoWYV5oOswPU/ZT4rZcFP89JepMruI6ePGX13ZKOSjd9zlAmRLlALCz2kZ2HETrch8kw69JJ4q36yLnSDloLLGwyKh90yfIAWTiZqv05SpCNBCvd3Aw2fWvIO4wRCr68jzuBR28e0ns4iaY1ibAV+OlnJkJa5Cq1MYLUGxNo3rLv9BYLasGekHmjeWP614RrgkC7mi8Ej3y9dV+TVRollLg8OKqukr0izjILGNnqh7Y+LIVLCEveCmHSOWdgd2G+7R5AYeAKQj3ZHXnnCCae6MZTSMWUzEb5lZiKGypbtOjG5HEeiIw90jj2FGS51irDDUrQ+0ihyLe+VUZvJK0gC5srJ+WQdLaBEJH7wtb5wAAAMUHrI8b+JkLBMfUym0a4YD+qMhriitgaehrcdpuq9jm6482vxiKVXXIWp954mQwRs+SsZ4pIyywNVPh3qlrAHBx+xFYgzlw/1bI46VVDMz71oFjev7r86sf2WLXQEZs6et7Mk0q8WROSgW5lIO7y5r2tN6jPWvPxB9N1wF1BAHLhKI0b0s66yQibHrjLcKs4Gv6+Gj6tRZkzFJ5LTvKIDKbfLfrPo20ezxjomPhXQ8noW0r5zdgYI2nivS3sL4tBzEqKF4K7+6zo1D/eY9fxTRIC6t315iSPGAA8ZVEygUtFtdMElnwxJUTgGvkPfoBLqpdmKggpDymbXwT4WqvNT7VY5LBYRfNHqBd7akAcwJcgfjw9zFAiMu2aUZtWcLJhsLCODtsmCg2yesTaTfvpvI7K/xo+VsysB3Qu0oTPY8+YYVOwJ64mvXNwHrR4C/KEn3s/+RXfSn5+mFi1PWhBnj3KQABcIm8ZEOVkTEfOXemouC1BH9shDwz4R5rD8qrX3226N/IgLQPF1CMy5pcTqF8/BZMrRPX20hzCF+i3Z2LBIC35Y9M9mAFu1mjvYBMQOYf1KHtNt3lTVGcAT46v1AA72M/l4LDLHEkxzGeYSyAuXLuDjx3Y00/FzOUxjxHHUNGsfU4cExySGF4ODfbnPvuu8pUog9uZUD34iWDSZfdqj+OR9ZQH3anpxfUsEYfoQG/N0RcfF0DiIxIfKMBGcgWbk8D57uEZlORa5DwuDBnqvCOEp/j5myJE5dDrkLIxhT+PGeQwbJgJgmN0BVf9q0XmjjjR+1ScymdkBfDrIRZV3ETTk8y+KzVTTg5q4tO+aKzBZ7UkENwAHe+axwe9ExIImQnyp5GO2/nf/3Yrmr7X1aOekMuSTBg79pp1b8hN03yaROJ9edvSl2CwYvgAABgiLAUZEZvRrNJwVuKbnVd9UIKu6X3XuRgWHBDaGHbH3ZD6lJ9ZDeclxyIZ7uupelZeR3BSaAB/J7uK8AANMEgd/LA3/OOcWc6cUmC7zdUzdU9jEsF/JXtRnm04O3SHvo+5YieXODW5xW8a7hfZGsOuQNLB6qwVcVrIC0LzwoWIpriJVlZbXK7XZ6GubeVc3N7zW0C3tu8Qr6YiDqMFm3rM8ZN9xzMbbcEy489nrg3c/uUxIg5GlGm3C1fFzmeZ73f8eEwFPlL5cq/pj3zYibRBwdTD6upf49kKbC7lYbOx26Z0IEeGBaEt0k7r02dV8BljqLS6ruCCtxmyzUuehc4AAAAj9boydr4eztQBqdU6d+jH9XNfptBoqkD+eLyNC1S/Pns3hDzd5qmzi2JJCFi+0us5TzcAAGkBOZqn9rFi7aOAVLMyI3ghVmemmgXrSctFgZE2S/fRPTSusl+jqFp4B9NsADotzvprOutUcvCczxKBTYxpspPafbvgx7loS2N4WcBtI2dEaWY6qiVqUjEqqg2DqMvVDtihysWhxWX1AtjDeHPE7SG0+u7R7Bl8A6A0X+waONOjkdY4g42K/7UhEq2GZzPrqe/r/2j/7hbyVlQhcZO7jYVZZaxwlLEONfal+doNdvl863r4ejcf8KZJFRhKJpQrLWte/iOC9TKgIxoR+2zWgAAJ/QCtzFOdpyP/CWvmh127LKHA92XmXfIdCdAGZnBl309dQZ/VZ8sJW3svOAB6iyeZi2HD8p/ad2v9cx1jGGD/9FjQQGa7evNs9WNZzTqWvwhII0XjHIGZWMZEtnGOUonzkfnf4KVzD1ahZZAj2X6E368myGQcUcOkS35+AEdGZh0Kac0u+F1LRabcULq/OxYACnq9v+xNhx2/BVCNg2SHAXK18UWPv6TWDpiJ05ezX+zx9TjPR+QAAAEIhZFW5D3zvTqpRadYSgs2cQe1vT0Wio/cyid+GkfvABOcgdji8E4YnTWJifmQBIuMTUMOhhYnhR8uT7TywvQwFhvRoOKXfQQZpeGjPybZhDnBQ89gZO7RF91SqniNMq/nJPAykhwgNcmZaZj9w4jpcbXoHLnz3fPaNeVvDjp4F9qm2NG782lsgAZi2TQi0YJ2tkq13y4oaY1Vv+602Vb+9sItkqehNoukly4y5f+f8HONiYObeERf6wvBvbnYgS+1cLACyHnQAAACNXk+Sa5oBasjLzJwQdhOljb/NCv1XC+Utv4AB7rqXYvY9nCWOB+IKyZgSBLEg7P19tScROosGyZuOTsqIPMyPahucDGsA/JNeXq73RovnOdiaFp9eiBIXqI/vxPK7eLLWRAboGW5jR3T5y+fAASwEvOlFgrySTqUztdnz/urCWucMLfzniJytC++9v5pfVsNk8dv4PzR3XPg23oMAAABX7aeDSjwwM0nSZeYAHYEcIKPJQ1ZLxdU0QQ+uJf/BXa8Y9fd7GShCWI/OJuc2r6qeJ6XdGblEflKHtVfqxLGn9MOzshrFdGEW8bEBYcFRi0s4KWs5t/UKPDf/MTbuZEAin4epjGCP8Zg7Sp9v0ki2eFqLvjSskJ7i3CYUL6PY7JC5/2YAABcSbsEn5+xfP19q8e3ZqW58EGSwNnG2F+a7Z9pHHnAoAm1glXRBvwtVF+Z4NHWrhoHs3MubI9bkAibtUS244xIcqtE8dbMpIac7a0Chd7xPmyzzf8TZpvj1/OtMNfKBedI1EsQ5GW794SWZZb9UM9cfLoinQY66Pbbahzr6wvEAEDhuafPeDOhryNo2z2hRfya5gAAAAd59IC+edxEZNRlofmdAjPF9bfgHMLNhCdUH272kfjmAzxGmTcajiZM6d+gxre0d2w54MPa8NPkX8SyIvAqUqqEIuWhmmLVQ5SifOSA2m9m0iPMejVt59Cb9eTZDIOMNJvJkvI8z5rZ4nWPSnS51OAahHmprlqnsmdGr/5IPE/fZI3erwgCSYkl8+AAzJoDIMI9XhGQ16agsJ05AUj2KbmitV0jtGB0GS7lD5BojRIme6r2lVLLjw1GrZM2Ws6XZm4mYyOidYm4QJ0CKzcIlbPaSJmRaL2BL57NnNZv54BDmziAAAEC0uQ+8VVldoVqF7zh1pvhL489XtuBI4NZumTzaC4Z5PFd2gBOu+5CftS/zZy7b5PDJ4qTz9d4m0w2WDQ1uLYkDkJXoPmN2Xq+zuuWJLV4ERqUA2VX89oskqaLqzttIdANkO9xlY3AEJLfaRv0qdQR0WbC2KKToDNQ/zstjAg2HYJcBMvN3lSDi5sf6LkbeF+PxdJdUfoxpUP58/hEdW3i0vmJaBvkNeo0XLzOKjE2Go1Om40euwnhXE0HxG1gAOfYSR2/xyxdwPzYvwv+8kGQcy7tXwCCrYCiPt0TQwAAMFHG6cLPKvrLWwGwbniOBtS3YnhYNRnfPljlQR3EALelaY6eFGtKz8FgVWeYPY+fQ3Bl8f5HyFKAwxqmlmZUw7WzicVJp6+NhFEd+FBLoiMhAQtwRZwIaAfXgiuvfmfCfDmGL8pfAWlkzelJPCcCGkq8jrtXUB7RgW0IAlU6m8gR84XrxkkGDXKxvkBY5D1S15EHZlT68yeT0BAKAum6nJJ0niZw+fRH/zW5lRPJX0fC8wrd3wBTQABoWv7XIjGoXl7OENNU/wgFJNvnN6K4Kotjvc6ZOYL5717zgAAAKvQ8BFuItjs8GPxZQgHWywb88swHBfTzMOIV82iDgNkuGdWI6RZgLlR0j4xVQPPTxZ0GKzbIp0Ng2yxdc9v8U2+tI+QElsYCEEHUXR+HJHaVVwVaUeAWJlqWLjClSGUYJGwMWHZBHVM58Mm9MjH7DpX6KKOEXTT5BF+Q4mkP45ThXe44SK78p6PLsBFImQRLlrgWE8riKgka75HXEENUT5/oiGGiI9LKgGqr0i6MZg+KudR2cLQU/4q8r5ND7bS5FG6lWQAtxGvr9TalWX6mx4SiJLjW/ZW5tPzbpOt9vamw5GOQGN6edya+vnOAAACSPWWcFosczBPCm0DcUjoldwl5QrbpbZveEkoSaLpqPdd/489c9KuH/WAkx7NfQclFJQJ10ERkd27/wjEEqwlYyW1JK1WGbU17M0qe8lgjm7tOi+DFUI9p3bTKzZrmSuXazIT5r4s3Brnc/ESYpG6ntkIRsJUgGuXx2XGuJtRs3R60rm8Js+TeVshIrY+TBW/TY1emRvSa3e43Jvo04Q3gDGwStNaLsfmWtMGk1j/dpHthGnjGHmWSrxi3dl11UkSCJfmpRGvVkmAWagV28pjRdDllvBrXWchGZq8OVtMNwxUyHtph71fbTDKMLiOw1/nD8R2Gv9qhyi2u6QfN9XSd+eM+FlRxjyVbravNxgM+8rIJ+pZYokppHqH5S6clakMwjjjlMF8Xu/InEFKKytdcDfgCHheWTmOF/48AAAM598JEi/cgoSqXFWtl79OBKmcZ/k63/HX187um1YdBpvUj6E+qEvMgPINzSp3QwmiDCPMnTYFqXBogVKXIqvBAJnp00lD6JTL1FU3QS3RfPw09UaEp+obpV6/sXx9nuYFsfNiAPn73oVKzLyto28T9UEALlQ1NxKdDm0TfGk2sjKEZ6GGyha8MrG/gm+P4JgFV/jh6mOlAh3n2gAAAACs1SyvoYGg1Q3Ajnx/UKATmhoovhkn1NKwH5GG9/A8KuWFitc+H6PGkUawsl8rttj5foHzG5Hdgr/gmNJj6oo6dpmCvkZGMxHlRWh+30eS2B9vUme/51lccRvdq9CtSqNOt7VO0+Q/sQpZzRAzPSkwdMF7U1fFh9I4hMGfvtbPWyM1ROP08B7jO1ATPGgOQbQwdRVN4k3ibtR4ebuAcLHK7z9LOg/Qb62Uach8JSdKvJoAACcOGVle2A8Q7EvT5HGzehM14StT5A4zPLpls0vTv4BbQSGk7ZjJktnbJrJvyvcymXSloK/k1ZxAAAAAAA5eZO/5EPHPHuUX2DXLYTyfsfcnpsfg3u/WaBMUlRHDlYr3unRrGZmxXMNfj0oAygyUEt+k04tkH5m2gADwDEDL8aqhlHVAylyhBVIKUvRGA8+S4234/VZD507iaz7vwmlvJffIY7AETATBslJR1e8uM13QWMjOcQMrW7QwNWAo8OWcM4H7YQiQFElLnBFkKUTUUhAAzXmCNQOETJbMYDTHs+YPAMjHZga10DoqI/NS1Y4B0SuAAzIsHmsBFknONBQi+BXmAJFUAFAgvwtnZ5kn231AdyzZCPa9OyzsM5u0x6QzbfrIJwLm2PHPXTXGOhktnt+SH/3ZCt+EfpjfJ2ZCnWn3u0yi8GozxgFOkUKBSAAUboU+/BxT6eRpOC4M4Be2aHlOQcm32Geex7J86f6S4DqcfF9fhS3a5N4pmI9agbsfNann7CMdgArCYJNLKttaobi2g0GhFI8+DSnJXRHAOcylPyDziChf26tEe/My2YRuuqap54Bn+/eQOPrckQWKaFlumExkMLtjraopgB9PICyLynxWWk9gw4KOM23xrKf76jTveh1OMRVd57ldWPwjQh/Nq9iuRM3qYOkp6UHGqb8IwIG3UrKEvWQXm98yzp+ITmBf1JkqklEAdzuywLOkSwngQzNsGBjBJM58poavqmim2hoV8K5HDA8l8aY9rBgZAEqRlWMCOTFuxj662MJyUC3MjfKPRGivwq6x8H5cwAxXGuTXJUGITfUHicgKkT7dDeuNPI69LbdgEcVP3Kzwkj0oMZn4HD/ZzI8MmHY931IYAMzCNWVV68GmyJJyBDJjIY758E1RKoy6imlNTzSQ9cBeBDwUS0mdj3d+Lr7NGni6bqDmkizgOyFX2sYhtFkwABv2B8SEsSU2ozMIktboT7gTmQniYc+FWKOMrONkJ9870LqOsp34vrDzcCA354W6URxELynUD170dp0pEUg9AACGC0tcdr6SZuZsPBFLUDrf4lUbXWlqI39gkFgu/NM1mOY3gU1KP78Jz01fqz5yiVu324uQ2SOYytNNIwmvvdnmrW6wq+UIQyBdva9/KXDrKWB0qjvKvubV9oQSeM8owfBmyuaQaFVq5y+mKJSC5vARQohEU/3tFfBD+hp/vefnKPKTTGoSv45J55g8BYqKiqa5HpfwxOLnRSbwGna9rVzT6r5P8bfh3mHZ8vvKgJBrZXOavACWqo3rd9T5Gf/w4wPMK+DpO8hx7VshOcXQLkp+R1Kv/B9AHBVvV/p62L6HQplLWFefe/VuLglJixtATQPwPC9+BQjT2cLQVBM10clh0BgWAGVNUy3/Y8CuM+QQmTkvBT5e14EZEW21E0rSHxp8uvHgZT4TX8X0DBujWQmVDuxM3Kem4NztpuH3EyT3WubCrSMsDOcYVU1xh2+LT+bqMNSWBFQAgnAgZohOseNpeFiQgi1jA6xcg5ALby6P2Nx3STBTRaAHc+zkFMlIxBK1IuxOTJlqPiYD+qEKGUtccjElRuudOAoHQjVgY5KjBgNIq1Re9Ze8SY2dDnuKUOGstNXip2+lJ1J5TDGBpUHqQAnwwyUsPN5EGA3BqIcl1MBUDXNLUu+Y3zoP4Br4nseQAy2mF8FT7caSmp66ZzNMGYf1w+TTjs8dVynSfPVTHcwimovLtTHptpq+ro6bh8Rx6MVSKHT1ybc6cyydw8KP7/eS+33mAOsVFoakDoxUjVwRrRVOfgRboN45ktUe8hDbHQHZRGdFLj/bCkd+XM+TlwaG62I1UbIuVXdYpyLhIu44hJDijsEi0Wrwj48ecmWyEu4uglbcPpGsE0YXiTaI4fEqjrUpZzWCbqgXr/2N9qTBt0JicsQQLC640mPsT50UI1/S/ZkPMQ3oDSJtt2m0RKfox5OjGVEcM4WUn58W+bAyrezpy4xdBY2EUAcYartMv3xhQDFzUfRfPk2JY0/piVcjovdKPeAipV6vbAoY240wwQQ9PCE5uQQjB42Ry57B4AJKSqFDycATEUESzHiNmLhoYEzhyAzcev9UablE6WhX7vGJ5QdWRpZHHQbtdhs0gAacnk2NmK3nru0WOxEsZJtlzmZv5hLaNurmidMa9tfEK60/DtgWOjUqAFXGiRuDPSRpKM2BRRaE0Gg4Rs+NG+hDmDgI1KsUAARzfVDwwAZpFa5/vgB3iebbVSN3v19yALfGyqTmlZBWVBei0uIIWRwfLtUbXZcXylLs2RRi5VeAQ1scc2tTuw8uRrE4Or1TI/cGsW7Rwc1OjHfuiAjGNdUl8uustmztZhtTcoXQqacjK+nJlWLkiM7TYqPYrCBMbgqG48eNx6E9EoBxixpny1VF+ZJLUct8QvXg+vUv9mSb8b4eQb8x0M+x+CXjQEyzj/GTcAyUyHULGWeVhf/OrGCwW6j2fphxF7jerk+wGKYAAPWDM8+0WhJR/W5uGpFOjfWOIXPaKdbZSyrgA85WQ+xP0jClJ0uS+FtBUmKy1UphstaVmmaEJ3tD9RYYZwSvKdG8DK+lumsK1pOTVMh5b8zHSj/L0aPNnNyRI//WfKoY76uYW2uJnDVQTEfwu+y711dqLm7vBuMYtzrXoqTupohw3c55xDYS4ch4MpZVig+Jcdfso3lOGj3BLfTIWcbSjuEpoYNFXttuUfPdhu1MOPClLb/tytrGB4DiisaPNBcSIFLJGMoG/rZP+RtZ9Vgicae0FMezdh9qkLlTkdY6CJm6n8s/8qOZPKjm4Ziexdj8BDR2DMkxkjsXSVrW1fAjDw0Ctfhi7tfpvNmYN/+IGTsgL/xkst/D2CEKUqgjVUUnXERfsBe20po0oSile//bo0CYReOVyal1wrb3gOQ8pN3bf4CGI306SD7ywWl/f42I/k2WVyVM1rVH+y+pzvbQnZzYq8RiH9R1BHQVwpxEhNvDogN528OYHpIZ9u1AcmaWDRT5f4qVyMtdjsK+grE1JRRv3Iex18MBgXw0hxp+9G0LHEEf+JNgImxMLl+OP7Hm7N1ErdYT7+wPt+ZGoobk+2VZYadda2/rAwA3CuA3SIamSR64SGcQHUgSfW7+YRJfrHr1n9t3I4E28bzdgWve/Tle6CV1v9xQf11CwWzuA5a/yn8oFYbLBMnbtvadLDbMoNorw4Z0bozr/FP4Zku3h+I7DXjcA6wAK8vT7mnGTNwzBMYL083CZTnGHSB9Lyf2V6maM/xotIjEAEU1pd1xA9eDhmPcjfUb6J2rAu3KYjzH0eUPV3la/F+cOaC0stIz2fWTIBJ53JpWrh8VI2hs/CoHr5Zk3X+3iBvgxS1zCj7h0oCYYv9euUJrXsgy+c1/NIxYEPNLaFEUhLJTWuNnzuF0xf9A87Pwq3WwAintwUmykjSzq4vE54G456mLc8dGgyQizArFfDaova+VmfdYLxgjoagb9Peke77WsRKDtLcLT3mwfkjEcg5ZpxKJAEsV09UVrixbj3UKV4cdRDUoaaSzs8T2lBM+OcGXwCmht7xl3g7coHPrjKw/tOVSwXliBpoIHTGtzQovQXVAn4eVxGK8fST/uI3phh074wyRJwlWLIcqtEROeGqA4YQnIbzcIa3OXaxvS/6upf49MPEYHEICbDvqQBsGuPnLjBnJeqDgSFieEEl6JTvp5ez21QcOJ2lWkB9po6103R5BFAADQ8xfYcIgv3SFgotHtbB+y1rrfgvPWP9j0U9S21tWkZOyqyXTfJpE4n15WXO/Eb2BWrh5vbp2ERl3qpsYXzmVlIVtGbqqRtObhTQHYNVY62x0rFCQYOzcmxMNvVfn7NjDooHjtRrL9QBuvWcKiESS3IPswBCuhqxiz0mVVN/x9vbQb7RqtorplTDnVut2mXu5a4TyySQw4maay42SlutHDZ8KEM9pJE1x4VcwyAGek4dnQWthE2RQRVsW15/oDxFPanNrnzZ55mutJgW2Dm8G6B4/WikCLrzAKX4/iEYjd0ys+fbH5gywRNeHohP+7MmO8EeN5zq8uoWLzR5rS0WYvhIG3/Uh25DkH/9om7oQ2YRG0QmJVK6PfMsddnRz3h3CGNpJeHTZpzGae891tfaQOuZ04Y12MmEdyzJPMVWYGbvYwuEPzHC9L0SSBzD+PbG4IwyjmANPVdS7scTGdCfz+kVuXcsZBg0c2LlNHkeGsLLKA70PD9n9HPpGoQLmFXZLJ0qS7TE1/FzkYduUKdT8t11XZFzSiImhkT6M9Egv7F3tpjYT2I31NqiltaDszkiVo4vGwmjUyfq5zaKZSrGPRzGusfrjlUsF5YgngWZ5DlVoiPGE58lkNM/uKQFIkTm6SQMGod1Jmv7gPzKFsR8vRydFJzwQMCp6eKJec633rRY8cKMg2vysuuQRxgwc3lTlybB5AxoT9mrAAQufG1ejYxQO1EJzLUT+tOjtOKz0bz2lMgjJ/Nd/UaXH9JAnGv1HlaLkbnVIS74N2AXXju5iTAF4SLHJlnxJjDouDZDhP9m+Si2dwZ4c7IMPlS04P0EwF0LfGZp95rSm8wIm3+FVu7qQs0vynSbRy1nEGD8CxqG/wlcAUhqd0GMsRxdbgIGLhV5AjB98YZIp6EiMlFKqlcGd0vxrhcRsUm7kfSfwe1BJACY251CLYwCv0YTR8CUOSFikBtV0BxRkOBvdssTx9LEUsKSs0eWoBocViX9aKNiGKBDdcuSQcChc0Pgg5UJmoiwO/XhCoy72JOXVm8F9QgxsthKI6aPI4ib85vbkAeNS/FdL9rxQXtncih32hEdabTV4zDzCUjtIdzWSK8Qc5JloYdy/MfwMnPPT7ZQVZ86QmqALNX6bHABFiyY57UNPeN8rpmuu5I1yKiy5N6W4DgtDvOVZj7lEoHxcaR8NOSvocmEKPwwsBm6V8laiI8Gvcle1HLdTA8ItwJzQ84uEuxjbFcsGgHcCIC3+eCqUgeEaCczmcuCrHXqKWHNylfKMdrNM5812RESBHu7SxgvcZgyN3Vnbfm3LDBYRBWQRtP9JWsv9qy4XeHbryvg8jtI3jFlJ2f8kEcaMRgmWADqCGNNX+RSyNp7fQBJCxYv6MXyz5gKu+naWfceD6Pxh4JAY6Q4ysAZL/Heb2IRLbFxX3+FhDtQ5XdZ805mtk0wK7I7rC6LDWhDR2rViW0MtOvAwjHRSUV78DTrAw07dVikU6Tu1qCRhj3T9zP9prXM8ERK0ezKNTEhvXulSVCSlYfH8c3uWrj0HPBoCRFnKZKkIfR7UUw0b2nYIZc0V/Lv5kWCIyMdcbEZlzGjMIkt4BIOt1F5tOOkWyoFiKDHQZRYeZTz67vXkhztUyuyle+xF1zB4Ca4XtEmus2FN7B8vskiBB6vxnphTHc6T3Qa+sN0Nkq5ST44CuW/8fmWwfZE9+lg5h2BOAaDHRRggmWjJizrShKB3puIj9BsXc2wFar60T2rD7XmSMsUHB5FqC9Xhsp6pfCLaMUYNrbVvUUmp0vMAgjFSdv7aucgB8aEQyB82JapwZdQJTxJ5Djrf6KpjoqOh5iqDHNryHg2CkaFRuXK9d5+FiXjMBRhWvrRgs2oPPPDOgm3E6xbPzShjMESkdyQ+wAFZz/cmbJu17icQ2ExAqhrdGTtdYpHckRk6Zi/AYGiQLN28u3MKPD1qFNKHMDJbOWZtqW48GX/KFwdgyMTA25M7iXArcr09aRh+4YkrRFZGRZvtkBVaar83Gc1aq3fXmEiRJ+/pVMlmdpXA8V2MtpSL1NNhExgCQgG2vHIK/Spz/WKqBGNaBOh07IksPalNiAQxmTyLCS0NOI9t+ZqA9V9L/TyV2uoBRKXsEkv05v1rX4xwO9Je960kINV6BFEKDrN1ACD72ytb4/NNxwAAADBfnHjAvB9V8+NbEj8KZuuDEHHvSwJbDPED5Id8pt5dxpI6/k2TlnuSJuWd8jur+P2EtJAeaMXbiUO+n96ynNibckxonSdf72XCp/bbsoBHeN/AJ+WDwaxTx4yrxJIKQ5gPzHxaPsxz3kgzmESLjYT86zFa1riLpgHfUMAZ1U3fcz8NguOHrVyGx0i5LBbSDFqjT2WOCpi93w1eMoSxO6y3y18/Mhpd9i3fcHlHF0rKQYy4Qbs4AywxvdTeV8MK6nuKvslmF0BPFH1ecus6/0kiaimaOgChcrsCOnKqe2fKzCgMLDtNkS70GzNrESlIaXQo+z9DpxA3OLZ7YC2jXrSZ1UGpKpjK4ZrBp4d3P3DwLNT/xpDLE1s8q9w8zzpXlMa7hAzryorACeOCg339a7nx4K5QnvPoQYFjhuusk8ip8aEqpf5abt1FKvLRUB6OmMTviikbMg4AM5XExqypRi5WAB+tC7figIPirjDEX26VzSLqj6G1F9DsxOrxCujmeA86jaULKORKSUhpqn+EAo/5QJvRXBToca66dbncnqWfwBU0IOpouQZMAlzeFu2uc+Nqys9iLSYoPUswPU5f5QdOg6Usg7YUG6fY5wtkMv6PHEFZF9csiV0IrxYnOhHcT0NO645uX9+UDqZ9yZpIXsheBZrkIP6mw1IFTgVKzSPFkR+eTqgxwQdYPrQk4syzqxZNdQ5DSR7vMk58tCUtBXRRY+/pNYOyrdwzrfklSFKkWcDQCrg3bLs/RfOTzyVZlV5dQgo17apxHdTSVtPaey2/55ysj21od21I19/iHFphZVBQbk+ZkQEQ5Q0TDkc0ZDzw6TQ8d3z3GK2KAAABcgeLhXWl1kPUx9KcAHPpxm+Gg+iFMbse3RJA+TGYTzaSmnL7n0fSJMnywQarR/I7VOR3mXfJy1bdvJy6l8tJ+Ac8GgAAB9H71DYCzD2xXorvGkffbOQ6BneMFfeLxhBrsIlrphOWQ+tggY151Kh8CDTLwsY0K2FIVRfZIUqF5d8POAIxx9xKNG4OsanQABnB0zg6cbZ5+t14c6Xuis1e/fOYZFGvfeDoL2WKHbxSXvfTISm6b8Cf/7FqK8JMexHxS3jS4AB1c8zefWQhYUQAAUh8ROnM7uNYO6dyYrS79wdD8gzFtAUk3sKbm+Ru8yeGi2cGuS6wlXVzP3HTXZ/vUyqQsWC2USqdrK5VWKQ3JDf/zbnCkkgByKh6cEuu5Tuy/8XMmrnk3uT95Kw+7YaP8olMIeYlSn/75h1vIXFOXRzgnrf42F5R9kB8UzF8W+BBAB43MAxoLSgpcHQp09BkawrDyRvIWI6L2Cg0d4W5uVw5kUuQuWACBvzwjfM9F27htWl75n/tvo5C/r9bqtjl0xwsbLuvGAF+r6t69jNHWSdU+5+zE9JxraNFo0eGOc+S1IN8yV7m2CKFqaFveRb7cF1JJuoCkTYr0k5uFYCEziSQ5FQ9OljSo/vlxz5Vm5pYJJ56OkRl9791bEW/L5TZGuI2lYXZGCTOsaRIUmAQWkrh3LxfZzozLDgeYfc/e5NQfPeO/EHq9vC5ertchzaQftuojqjkG78VflN85uLOTPWUC4X2ZzMVpuGqW4MAfKehguTzfsnWcTi7LKvIdjZ14wZtrp/jcBSltt3JcqpqkvFwTiBH5ofH/+rKhzWbJA8TUV0+a6orb2WItBWL2/fl8EaSuYyUv4hnsa+mHku6GHrd61GHvn6BoGx1ca4nlHEfFSTmdXIuwVFzsQRFDnRbRl+Z9gk2dH5QpGTK7N+47wntQQkT57Lw4kBeuKwH01uS1AkXrixA5NaKLGC8fULgZxEubp3PAZm9nTlxl/ooisGM9QC6NsFKf+I57UCnKOspLTfsOZc3mRGc1+tZPYSonCN2j5gbTFaIlkIoRcoDWxyQM2c7rHyHqhvRxfZWErrkMCqlqmoOPGhFL1KgNh/erPCfgzwQwDl1LJH32zjlEKDpnct6uj7fe7T8ZHcq3NN3XJ6VJUjV7PY4W4hwFS68fhUgMBo+vr/8MIuvQ/pC6f2MiTGSOxmVdhYFbFYTvLGlRUBFViZe9SaH2ee7GPDQAMkp3vLnGahms+ErY2+Mvc+WvKBxO3AM7w1N759kaPP5ZBfnGfH21i4u4nhynOzBVhZ5DmcJEpkiTSjd+X8kHgJEiJ433khzqoLMyPNL7ywLyddoZU2Nrw3lMOhFkoa5QBxnojtbVBoTdAXKL+Xtpvn6lrsC5bBm9XCmJ4SrbsM3lF79K6Te3ZtgUGEn/inipEquLwdvkvYAzC4S7GNsPdUN//8P3yLdq7J0FM1FIAbJXKOLiBPBOScy8c3bEdSvfYqZou/zsFclNmOMvcXSjvic0hkkO60wxNQQ6ybI/oPqxznQV67ALEJvK1pbwTpxbBb7DPidcZnyXmzg0F3Kn3v7YoquzCBRQGK6VczUukhZRhkDG70MeiwNnTjKqYXf3wuoVna6pq+6D69L3jG8038+aWR438TNP1cYrMVzmyLaOweG+z2ZubZYuue3+Nls5aSRMzv8X1zwaB4nPQUJwdl91meg9A/Y5jQu5pt7Kwi6nscRiEjoovKU0VRvPmev2NRztoIRkgpocXFCsq9fZBul939/52hqvM5CQ4DieN1SqReeSA4RHb0qh9NfeBwU48yzDxNTzVc49mGYs0r0HH5Q6cNdoxYk98B8yLpywKNZOjMG83kFxv4cFGWP0EOGJHr1tE1uHsY7ZcjPkm4CBv3nenyUL09EVrjfpLeG0Jug8ap5APFsGJGBDZ1npQmr+MWcbHCsBGbLCqpah6DPaAL/yEamMfg4KkdN/Nw4dS2L8ArletKs2DhN7EIlti3cdwqyzbzD02DIOvI9FDv05i34KxfWtKKMNp4KE97XRwjL0xrhEnMwX3MYFBJngj3gXud4H2SN3a0x+gH38/VQBBUdcrbAxvfKcAlmCGmpmZPB7WyWy0caQ82m9jleykeF7J2XvcVNmVXoMTFXlhlQWCQRI55p9UKe7TP91nquGBYqNJ6jLCfaoegbGm0PaSosE3VEnCtfd0BsWbSrS1SXASNmQCEsknzuRbq+kPtJB/4JkBlmD2tzrKAcPfNQZe5Br299VgN2dXZzqQmkMco6/zEdEtoswas542BabZHHNA5S62KRviLEWZWF6GAq5mI1OAaAF0GYz4jylnS6cXEq5/3D8ooL/5omJxXqPD+g3WJUWllf3fBz0sTpqfWlJA9K54ti77reV8I7f6zcOHLPq+tcQVfwCMHIXAxFuH6bhbT/z4bwsngaIFFJzr42G4tWYGSkzHb1q/I5qrTywiao9OwgzTLc78RlEj/TB/RXlWAz0FY19fcyIFYhrMOmBMEaPVZ/afgRbCcp3numiY17t9e5fTpPy8a5BKYCy5VJB9fShA27AeLt6k6vMCqustS26BIh5vOrjFZ51gKmgi25Jt//VEYomIu8hEZKhlNoZW2FXu0dPy0oSjznyY1uDeUqj0c7FODrkyMyPynQDl2OokQZc9UpNbIJaNKL5uvK+reCaEwVxpXK8sCnsrm84/ynyr+dNa8pmgzWGN+JARak9rBfBiAXoRIqRYjoTwHZhfbXC7YpwmadUb8gX0luPpPyWc6cX/CdljmaZM9y7nkmpYNE0BDMVCYF0W5ZNCS/Ebb+QdAtMAKYZVBx+Bk51FbrYreo9TpThZfMaHjYe4nnPa+hDAPn5Llj/OtDPUdK2UHz+uvQibFGJqzs4rwrvI2JaSlIt+5fWm0brA/giNpE5hMrO2sKcyaCQgRSJdUcxtmHwXTiKqs8RuwcmZKI1TRKPvPgK8w275ulkORSFkrbvpF0ZRGYMqq5xMF4ortS+99+jjkkqBGF6k8zQMQooAlWfnXT680ceNCY2bOVat37xPOfy5VjwtNfCq7zHrHJzSq3Vid28fa1aoIDLwxgxkS2b3xCDSZ+/dWSSGZEiNsXpT6ArhMD4TEkLAPlx/dLkn87nzY0qqq9MIuAIsJYFqtNukFMHOgp6QaiDNsrKsU/oqtBdvKPwJY8e5RGrJ073hjbbv3Adb5XM+LrrLU+yhnLHzv8w3LYdtETxxuY1bvijJEESPKmJ6hSBzvf5XUqK7gcsopkXvs5Jg68bc3QfkOjq0dhTzSU09D973oyC12e0uMLY8FgxgTL5ClQvLvMWMQlX8N5PkczZlF6VeALYVuNPHKpQMF9dpQg4W1fwdzGmW13HmGVq22tvAqb2uxbtYx8lnYyLwCrGAe7dp7fIbqMieQnQYRq2ozQF6Tw7fiXWvUI6zOuKir2gZj2uKe6o8KWoPugk+Gb+eBcRmqRsXJAgx8oG7ScOafZeY/UELgEDilxcav8JO4diEXhC9qxEWlak0vofWqgHC4IGPTQX+efsLDpBMUwEzxedC92rFJ/tTLAMdBMDISuf17b4C925ACxhxwzcf2SKKDB9umTIl7KuVqadn/CXUm27bN8pQeukiP1zgfFBRk7JdXuyK4bUU/RBNNj16e6gumb43aZ4C0kcpUZmQzHu76J4MV/rk2tKx67pzzJaBcpxPhg2kGPmjhfsVz1VSzXJB9KUHUW5T4+uvwKrVh19TNPVy1CzOLmMxCR0UXlGwmpCCZihyW7XsIflP+75/MQzrMAgHfiBjX8LW/PuwGq/G9h7I8iVfdVBkDwJWp85YIa6bdEUQQVPHR8rWtpIC7hFfbNvgleQezoEP0hWDvO/hjidT8q30q7lwK256/0/vzCohexQycEvgXPfSdL2Iy2eQ4zmcFXbBl7LAHQ8K2gTlQdOKQFbcuUo1zsbKUbbR2/fEqeX+gj7Myy5mw5brLFMrN2Qr/TQnSxkrM24mbBXuW+UUJDuxSgw4kr6zRinY2DRckAO3A/Y8k8Pqtsqahw92AsRQY6DM3LXP1M1fFVViCwJY+Z7le1vWEOHZ4FCjNxLL3R2lfu7aN0h2QoyBwJYvoya2BY50canRZJGlaZP9aj/OrjMDFX8qARhGMSlLKeUEXM5VN2OgxpiDWV6Rr1r9G445iVS0lvZvCYRIjh+Wh8FCpZmhI4YFkgwVRKPiQiUpPVFVi1Elde/N3l0DB4Yso+OMsUASOE7sPxwF6aZT9VQIeRCzmQLUVJwoZ/VAjBOdz/qOHa1fKX/dnn4c3KTGsUoCX+QJKCvqv5OfkncayDCPpWaJMtrrwD29DyYd+6DnXSkm6EuKz/7XUZvG2la0ToXUQSewT/Hoa481pTPAT9qZcIPXURA9bP8YzR1boG8JlT9OmBbjR+INFMpe/62KN1SizsiGOzVr4dQrSW5pm5/cXkAKKXligLkhp8zT0NCuKfDzQjGsfSno1R7Ah/8e5AAACarKu7yP9e+2titYXn2+EilcwIxWD3lCS+daSEN+RkvkwxGgF5QoCImPvJTQ+ITnjkpFCYP0aDg7egITOpz1EUnqjb0svZrzQQuRH5KGbEeucfHSezfq/HbV/bRr2yEJG0V7AVLHhQENdd0VKsi2xuoCxiZetIzVASx9od3DsD5KFo7wiSbBuvabAnVNhwKdql8n9Hnqre6UVcIW6cNtQ+vuTuMpE53Yq2bXy8fNeZUxbfUVV2cQM6GyRbSRqxskYPncGEtuFKhT1cUp9IIv7Zgm8MJ85sApd0+IM6ubFDeI5fpr0jXRgliLi59SyaPL2SE5uOwb1flFY2Osv4mGx3qchJypiuhhJsCzgAZCTJP7jTVigQcZaDrTM5AgjHtl0+e0Caqqv2iwaAWUSbHc75mgA9BvEq0ktQW0XlqH1BDqlsAXlQELG88HViiH6tiZOpbt9hq+KnTweCMhCHgmU8GVag5hO2p3n7NOyb7+LJdumtfpZVytTTtgmLoy0lHmVgPyWRXk8H6UdzG+wMp9aCRALujJR7HAO1mJ7SLDzfKa/mkYr7nZP0Baqi9KSB/ZKxvKDBlkGUj1U+keA2MHwM7sST0l5v2oAY8ERTF+7Ymo9NkwLJlxl4b7QMGRp3OJ1BwUtLtD2eumdDwYW5duLV4XOlPPu2LBSAMqg4/D4OgLlPQCw6+yToyQZGAFrBAg2ePp9J44mafVCep/SfDR0MVEfUcjqJcx8aCYlEJcgYpPQ1vW64Y0E/PF3rAY//YxfwsxFYU/TjPRDY+6hNXdtnOGW3/jiHwvRtDWKE2yZ1fTxepsb73Z0JkxjAePoRgPmjOC2ImX7PJdVujv1AeGynUmYO84aqwjzJ8aOuS/n3Sv8gZyExxzl0ANcBWCXQR+UvmsXQmX/Mn/x+eLH9W0f3Zi3xmama6zYU3sNqGfAOXkg4+312htKT6FNarMQP+Gr/IDjzRhoMQm2AIAVnkwXLIWQcZAI89GWcLNbIgVm1mYDECTLb9Le6jTOLmbkGiggZCTJ2PBiNDnPwjDi2X3laJGNnmxMZ42/YcOHWnByFBT299M96Hioki/JU4cUGkUMQMAA56ZodV84ul4w7CKT7h04+QrSGhPAMHocQRpvf0dOKTKLwajPF27eWH55tTjmCQnrw4yVlpkqQh9H6WO2t3WXwENpl9dXb+gQs3h5VBQ3WVpLbfgWF4DZQ1SFzHYUBrdV8VtH8D+Uu9a4XNj8pNiD4Ivr7Q67hfw2o36By2AHfWW3Z4I4U/juc5fUUDHL2VM4Re+1pjL+n8C7R/ihRtnd32CmI1/lYUL08U4Z0YW10wswCvVNYueRCS5ETbJSD/f2Tiob+aCLvOC8TZbRHDCkbM3+MttaLpAe9ZoZHZf2PobVyJoypeQAOP/DPICv6oFtITfVTi1BCASnaDdv9SzBwklBOdQjJAAXeCmHi4Fg9q7oa71Q55bSQ57djETtPjBXb5epcJnUyagcwUCDExTUX1/7J03hCbe98D/It0DMOm7lMfwegnE+7R7l7dlHxYzV//RPPkqkdgbW6xiVce9DLYEWchmvuDDVkSip/b1oFEr08xHFobIckmRwoihoWONF+3hBXbZZSq9xvDPxthJRkV+JpBW55JYCMSz6ShKFgY6B8vr4XoM/Upc03yub2v1U+isz4RduBknuGY4hKJB1FopTHTQZbomDnsy/oUS3ktmhnLzJ5ZulaIwUusYlRnqOSnhfVKOnk4YTtluWnJz9fZAnFlLpGyQzOEb1TDj56FQXwEaq5KhRevJDCQSms/p/ttU+0+6/+UFQh5TkGkoY6Rc+Q8rKmNZcALpXVmiHN7aSVEz4qJ8WDYMWdnAeIiY5DYebyscwcWXeDxnphMrsiic0JXUuIqVpWAw4SzYzhR+HJNR++B6HZvq6UUOjH+oufY0XUaRVxo2O01R9WBFnAvoyyvMALyIG7rHdiXaBsnV9fLHYa/M8dFQTmB12QP/6B7v5OZ3WAOjPeJRkiaP+Q8+Lm16qavc3SSBfqSPHeV352DXMBLB9a2urVj6XUhCEamnMOaBr+RzCKbEF+3FctESX5T+G2ObscH4zwQ/KhS9ubw5QJaUV6wmipWnmB1C+/vPqIcEUbI4XdHnvlEA4llXJKO5zwz51Nrgk68rr/MDY4XXTKdNxohXRjSJ8b7mK7vaFsUPIJBaqN/lDzAho7rTR2BSJuMCwVUOBgE1+kkd+KSDKtLoPd2k3rUAAhLnPktSDfMle5tkSLTrmFu3K+KfOLUbjdwcqO5FMoYDtAKDDsd+FqrLgt+2BPIy9Qzcee3MGreRUBW8kZokjPZOjHcYf+vWRW9SgL/rBuzzAuFBgTcA43oVYFti690xu9esB5h0drwAAAYbPrXkHcYIhV9eR53Ao7d7XvFqTTmbqBHKCrhGuTP2OSIU6g/6jrv5fKy18kIm9Zd/omPdTAohIa2dYKfDs+g1yftXsDmM+LLSWOloSxD/Qs4x00Osm6Ccrgf70iEbeZi4AYVS8YXtHrx1w94b8mbzIADX0FeuyAP3SXSIQv0ekBjzX1qOp4k019VyuZX4GBZ2HmU994I+/whUAAAAAAIXRl6IZ4mNWYeUhd8+Cuvy2uthKOm/TcqvEZTEKa8wAAAAAAWSzD06zKwGMhVpsVzt9Ryuk05/AJnjQHINp8U+4w5zx2BeyEykvJSMjWGW4aXLWByu2ctJd22A+LUzym6TMB4WfVqbvoG4l35axxoMDKjjAJg+CoBBHQN9hvQ7mPnfD+vhL96Y6xP9tAit+y3GVVNFNtgIQ0sLfftQr2vZuBAInlXywRvx/5bh9Z4duhZ7XcVDAQaLLzjvft9Bp1C0AAE0qt1oezAMBY0hhqC50MDRt74BRWFN556xJFI3hQy9Ls8BUQZ/UIxgBiLvHIAODxqhXFapeYrlXv9nXOIC/Fg3I1495bSQbb5iIymAGC0YZn6u8hsLURPz60X/6/aEXioA0iov8u74TDjAQTcwSRWZM2MGJRhFThRVO5FmBTwg+IrmT0KS0rul8XVBcwx8zNXDC6mGsCmlkTTuZ3ASR6ooGAAAKacbWcclCKFnOBeCzfCfzHdxYdSJJH8njAOR66c3JEj/63vsVEU6f42gmOuACy3tAmewRHz0gPUJ8vk/MIqAAco430VYLyxzEqUB+jtNWPEkbfkKlKXWVuF1ta7xL88UptipDUFs91pzS9jd1y4i72Hjaw8OdWOhFaHV9fTtBXmxOb1WImCbhz3NG+2lp5/lS2HgXRUYMsj6qTWBP4/bqLty2yEAxMHAjQCvB9pk+H94HfkwN35ZrKX8l4C8OD7q5r8B0Dl7gHAdA5ZYpY5JHf/WcNHpPjx6YOnU3tJC2hyH4MIWmV694qgwz8AyErIyVTepgDOLp34GQZ6NWA1Pg8PXMt4Kl7fN8BbDk+pA/pXB0RQrlrcQCWI1oDmrVA5EzaFX/wAX5KVhHuJODkoY/mlVtHC6CIJlsIAuWA2TrqYdFLTCfM/EQ2Bn4SpHS0bQyDJssedoa3AyShkGME14afHk6Q6sXJcl7uuuuqskzEURZDorMYjimj3fWEyTk6+nWEyS3aOo64m4J7qsQAAIYZZCcpHu64GSzAiu6bsUR8BrsRFBX+GIYCJDPDvN46PpwCy1noP8lmzW+T2lnApNjYxHzk1mWJ9I9pHaZqylu0rnxteMAtk6g/TwriaSSJGg5sa66ot+Wb8b6O0ckbJOis5gJVsw2BbkLnBtXlTm2pmAiVEqILQpXzf3AZtoVlMRj+7GTxqv+zQeSM0EuRrowRp+LK2AYkYgLu04N0CmzHGXujfslMTBhtaVb3D8KUO/Ym4Ao2vr5UsfwBPH2635AMvZ/ShdxIGrQx230j97Ysa6pH4PjCStBVXI6dD1esAAA5Mxyv4unelJmyAaiQblKa8rwVNx0YXs/5rzO80IQQC3DmsA14jcwnoKZ9wtzu9TW7hBRFAZ5pC4GPCI/I7WCbfLQkffYtZjIIfrV0H9l+i+9yqGhQd7gFwtFCDtM82088zopP0X3gunTZIofE+sllY+4yHnYAd+DCO2aMWcLjyRtqN3+VrOXfEHc6VjCtxojQNcRYDl0wHuQslQ6La7qGxpbPlykGC0nN601Srr/Y13R/L+z6gHKYz5Ie2FW3RKXDpZk0rAbS/IwQmMm0do+cFVq/WKs58i9t8Xe+DWD8FKiLry23gl8SRZaDvzU7ZPHaHElmMp37/24bHVa+fkAAAA2YXDcH47u8GDcy1snO+YE/9grdb+99ddQ//YipKNXZRNBK/LBKEn8YkeFBAgIQQmK1M9yWnzRRFHTIjPMSQczMIrnqdjO5rftLiS0k9MhkGrI0F+lK2ktKMMGPWVLZtbnFpXO1+zaT2S92Iz+BfwR/jMI67lztIsiRddh+/LYeZK6jL/I5hpZv2Z2Q1wsyjUbFhP7uV0AEHyIsrPTVW2TQlzMku9/HAUpzYAENo5HiAvzo3MBwpFL+GJxmDhCExgCpoPG8WuxWp5gww+4b7gbGVWmCFMmYOOHU2zuIj2Mdj3ZlV/U1SEETHomS7PYr76IqBllMRvudGZKyYwsyQOQxzt65dt55Zn92CgAABxK3ycYC9wm4YE5c7bb5PAAp1sPOlZUyFsCD0wkMwygSS4JlXtyZXSbITI0ju5riu2kWSUlNuJMRGwbrMp5YZIMoXIqNX/b/LE2Sxqs1AD6V218vg5qOALzHytEfuyhJiAWIRO1dBApG6mmkAS26RG/k5jserFjqXz+ro/M8sMno5NioAtKg6xVugWkdVkoi6dlRp+mxjnGHPEbJoQifnpf04lbZ+kMKyFT4w8/FsGGLYNNDXh5h+4lIpiCuvuGqIRXtj3ai0VrO1dDYFP1hWqyHLuIWBmFI7JHyJrMHMDcZVwEE0W1hIrEif9VVyUURsXF2OuZRAALAYJYxCrIwVhb/kje3YmlooJcUjDQ0r+fxVvt99ltAAO71CLuwNjfcnA8R0hoQkll58RnZm6pIdWn0/d5HaNwi2ryR7h0RBsP/mfEd6FDWIIaSiIrB81CdKW/8V9phJl8tRRDocPFD5bvUGzEvxhb4zNTNdZsKb19CN9Okg+9AbKjVsijluEz/qW7X9kogHdK1cGz98g/YRCcazi+uI42eNuuHFhbflAxAlB0pNin/SiFZBiQ9l83ddFdbg+SKHn67VyJA9Y78iQnsrwSE/NiEOQzrXESvdbC8pi+DsYxkhyEEF8iQvkU5Mm6zTAAADXIQWCArCT/MR1XilS5kGRmNTKDeOACEPb0Vy1c36JCL2AbM3pduhKl3sBYy/viMg5x0yR/eskR9AAjSHUbOBlcxTNNM2dVJ9WcMSGRHOHWauTzyv9cmr/nCJO7MGZQAAABla/a2vZ+tL6HLYdKVePGO1JkBhqAAAUGRAA3lEvmhfq/qcu0HpvSDyW0JZJFtFg4ydLiuHoaLBDOiptx8rGYZOFSTc6xKw+7QuV8C/97EBCUpoVRWTStqKB0PgQWkbLXVii66zCOGZoKUlzOYLz9x2RBi90qtB+tHNK+G40v8cBdlcfHJsn1eNzHI5AADnxlUUJzcn+u9aX2RlmehQBcHg1chy3eMYaQDkQc7+DQq2cg8MMkIwbIqM7lrgaVCWlGXHy5TFe06v5lFcDXyab9UX+lR0yzH1YrObp7B1wJr+EwbtQfg7RqULHllpnnrEo9Wk8Fbn0sZhXAHYduOhaAAAbnA8TkGgFY9UrWSqpaktRW288mTyDy8/InUdK7eTzlMaB8AALDWj21lmcvjd6SGx5kRtmH49ChILptF7VmKHdLaebPkAV8Qidq56PYVyXtsHCvwFmJKTHLP1SsXe37/6cc/2C2IA5geY2IXWPxvAFgLcJGdp7Mz4gvlBp4hm2EgjHfEN3mlytZXwRXsBbLFzobLRkebsE3WUFi0A4DYb8KC0pbkpnJcl9dkY8EIITt/3gcgAC9IMauh1PfviOwZCQe43dtGGxhZfD6nRNNil9GgJgp7j1ObCYfltASLoDsVyKy0iH//olOt3EmM5z7w6eXI90p/Ql1l3TaC0GbFVimqHbczv5KMGyONyykvjcCYCtSmhmZQMT/XfI3rrH1dnYVEvrKvTvriIxCX9aFtQx74/RhmuAvOwnDgDISU8mFIXw24ely+ncEeU+dSg58MOElFbWqZsftwupcc3erksaVHtaPbWxS7BfvzmjcM/a9t4fpd/HNqtLdHcJcwXh800WAsmwAAIu6h8AwGHWHx6BxN4g4CPqa0BQUU0jzbFFuF5mrAlnaN3Lju+dgHS0GfbZEIZDc8xDAM8RvU3S0ygp17XVAXeYug5PlAEoUv+d+loaUa5wC0fuySsW1B+ISJiVpeN4D/luwx2sc+ZsTNw3dkK7BeLjIxT8r8GtGF8RIIo6I/QJS1TLnCW5olHaPBIPSoUrl/iuqcjdKC6nIpcW/TR19vkseuQCzA1OhTJlcDGwijVdgQzem7xq3eC9qLuVH1S9YKP4/RQES9dAEmpYavxW2b3OtLnW7BBojf3SWtxg04/CBv3r/I/NsHcq6lf+PHZHDwCWAi62WbOSjrMANp3n5sPpcs1Uv8rAmt//lnfaLEQynF/I8/eCQEmQoWwAACun9VvS75Px7zgJ+7CM8kmptaIfH6+5PIQZBaMpf61OmgYeSjZAM9KPpzLJiE5A69Yfm9kdNf5rqxaUHU5AISejFWnKUoZZ6CTELkN1NqwSYKReBKLPrC1dGp8O8aiHOTL2QJPsvNLKkGVmdyHX5hG3aO/y42RIrDwhE+h/KvOCi8t6/9WSXEAtbO/NuDlU79fOTPy5U1NUOIDF8x3ARzmxAVctcfSsEBYtecs7EAcS80WmWj6CKOwW8neFyBlTR+yWuAtxrNfn/jY7PmS9ba6eRRTgT9fSIIlAeqgh0QGbJe7bvX5I1B/GfqLAGLCkNgd8Z5eQ8HJVdtlBTT7TfHx1IpaDXZnGiXdKiqSRpqyKOjVtTwG4vdu7w1+hw5dBc0uSKNsrBab30eCJ8tUvhp525GwAAAroTrbvc5KoVvmO877XTwa8PAAxd+k+3hGsD+R8Jeoyheg7VxXX7bWES+sFi7LhrvWr1vkcblZrgIpn4lhltxa5puvwI14CXiu7NEsrv71aJya5i27/ijzJ9WAvkg+xtv+7xB4MS1JlTaJt3L+N0CMVan/cwoeXJVdWGqA7+fZVE+vuW7rovXmrnrMVNXUv8e1FTrV2pACEQcPWSNK1l/tWXDCvD6GUnsl8VwDCydqbopppnJwYpZfxUThgfizQ+9F0UWmkHEZ5dK/J+5AtPeQz/a1n2hcJgLCFs9pNRdJ2CWoU6ZbVddJ72RivYngx6EnpIHUtc/fbjrVJu1CWnmX2jjqhuoahcSMdRxlCsuZASFYxyCEHVeVFz7M96aCjD3p9QDHASzVI05eqaHg5KrqYUxSV62HVoA2niYtim/G+N00r91zzeBDDgefKh4v3xj6jnzAmDXoPiUm6WQEx6pQKg2u8hyRLYUisev+dIAABMKkWja4Q2h+JLsUZRD+Sq3w0MiY21HD8w+SEadBTRryza/Sk9tQKqxTobczpEi+JifPctDhh40SHPaYDGHW+CiiKTlHHKBoAMfMK4eqcEUeN2ylD8Swy3BPkYH/186UhVVJOIVyPYgEzAIs3ZcvXT/ji9tRO+gvUI0ClWUJZzCB1y3qO4ADh2eBOq/THwhYFFJDssCMBX8h5HaY+Is9TSyzUjyO86y51CI4ufHn8DheOAlbuKOv+BEqVDR67fr12/jKLhcHZ19wDsxhY12Qk0HS+HSr8unw/QKWyiYevZInXCGqY7Q0pkqr5mHBrekqycVaDoViugxKEHUCotecs7D0P30SK1jaEeaMetMvu9Rh1+BKCbaDRo9g2M4TXtDKKjlqe5TwLsI0ic4HyhtdnodiidAakKd3PikhWCzbHa2v1zKm//jdA8uUVLUsIvOOWMF0yU0vMhxcOpq1x/GIBjnknGgWEGWIykR9+dFG8bgE4tNHV7yn3AjuvJtMV8VrxG0prsaVKoVyni/i43BhS/3FUwAXcqvsG7uP53n5wylbWXj7fx4zyLXWjDqZcEnu3S2V2FXm8o75ZM4X45Pa1mYeAAAFt3mfD7NGdgxtd6GAo3z3o61Bsvj9bSY8Q20uT4IhHgzzsOlQelTnsBtK9P8ORTrIJUuyO2x6TMRoxR9HsJZZtHuKHQo4/gFxpKENEsiMYPKPxDJhL+onVxxVbMhE+8KiZtAVkghBT/a4RTLsdinbZIIwLHbyLJh4kTkEkoAAAKDuuWhwrOzgWBuPn/l8yYCjRqHXv66uOMFLIOjyNHDEZ43jlC7/vvDWMelMQDp9RSKurfVC82akRNTnKlbaGwpF0U9pxA2uAFGR08Cbc2KcCjI1zc58dpyPD2eYEhFkkmaPRVuBpnoI1y5wiNjxs/nT1ESDAUgAAAAmo/AEuGJHT/suEdagRC3B+Q9/zVtZkMQbW3dLTFGPAFOFJxTgRWm9qBKFASod6EpZ5xmiPFw7lj1mYoSZk19pa/8XC4Ozr1KunDyUKJ/6/GooUIOv0stIp9uVQciPPnlVwwQiZ4WT1rTQILL17V54DeVe2koSVTu54bHlvuPSgDolawJ5ERQmNABR6FRExrjZdjwoyj1VELnrWd5Guda+2ui1a7T2NYZv4G1+OJ43VcGAe7fj0sKSKxpbjBue/fQUEHgtf5bU4tPNStxYUT8zkshpz5ZGSZIDtWrEXmLazVW/7oF9LX/sDK+sijv15sKXCKVqCNX9U+j4PwAiljEPT/iFUWzxjWEliZmErVG7kVcVhbBV7Bcx09S1ZVSkTmpEKcYcWz42I5ER0/y7E0ejP07iQXOUlcO5ig8Zua6xPQRxtPc8RQnLu1So0mxi58vRydL9KmAzv5H2vtHHnRARDz8WJhKDg6pg9Rbp3g0MZ5xhW2MCaMNKFKy+ozCtfIWx7YuzIDY9sXU2lrd1c/X2XuNzbaMzMz0irZkHBISR+WaSNEALrlav3DcmA+8rcaKZHCiKGIYDdseYQKePNecpYkpBMwJJy0zfF+6Avb07zj7Xj9+z8CqQkA7aDGk3VTliwa5c5WtcYWeEqrwOthwvk2Wk17tQ9Wmj+59cF4gJSh57u7yAn7rshD0wty17Oyyx387F1tuHq4uJVAAE32iuHcIJkSyz4UzPnHq7GzvCMp6QEzBKo7L6V63T0WmnPGVnoSV2s2A2koqBVNFNupENxUxRZU09Fm6Of0mKmFJanCRoPfcIP0pK4dy8TWapkvsGKah8okCsRFqBN7o9bf7xDXjSdDA5kFu9msZZY7s8Aryvl3Mc9DbrjuO47kR4LeTeoxhJyM/JYcY8ChX+PjLV2J+yTNzu4NXqVnOlg3OERi3xY4x8Ox+xSwnOkjHnqYt7jZI8p0WM5LkYmtqekdMJglN3326s/UKhNoQk+cfGx0oN0yaMvN/QpjlhjVJpPTUTG43JpoprVkS2bATKfGgaClkvFE42Z/xZ6VbqnsGYWk9RKOk1zde+aweSESybhyuTiZuyRyKBYAAAAAAAAAAAAAAAAAAAAAEVYSUa6AAAARXhpZgAASUkqAAgAAAAGABIBAwABAAAAAQAAABoBBQABAAAAVgAAABsBBQABAAAAXgAAACgBAwABAAAAAgAAABMCAwABAAAAAQAAAGmHBAABAAAAZgAAAAAAAABIAAAAAQAAAEgAAAABAAAABgAAkAcABAAAADAyMTABkQcABAAAAAECAwAAoAcABAAAADAxMDABoAMAAQAAAP//AAACoAQAAQAAALAEAAADoAQAAQAAADIEAAAAAAAA;" vertex="1" parent="1">
          <mxGeometry x="3280" y="1223.4" width="80" height="71.6" as="geometry" />
        </mxCell>
      </root>
    </mxGraphModel>
  </diagram>
</mxfile>
